<?xml version="1.0" encoding="UTF-8" standalone="no"?>
<!-- Created with Inkscape (http://www.inkscape.org/) -->

<svg
   xmlns:dc="http://purl.org/dc/elements/1.1/"
   xmlns:cc="http://creativecommons.org/ns#"
   xmlns:rdf="http://www.w3.org/1999/02/22-rdf-syntax-ns#"
   xmlns:svg="http://www.w3.org/2000/svg"
   xmlns="http://www.w3.org/2000/svg"
   xmlns:sodipodi="http://sodipodi.sourceforge.net/DTD/sodipodi-0.dtd"
   xmlns:inkscape="http://www.inkscape.org/namespaces/inkscape"
   width="63.84153"
   height="64.009247"
   id="svg2"
   version="1.1"
   inkscape:version="0.48.5 r10040"
   sodipodi:docname="icons.svg">
  <defs
     id="defs4" />
  <sodipodi:namedview
     id="base"
     pagecolor="#ffffff"
     bordercolor="#666666"
     borderopacity="1.0"
     inkscape:pageopacity="0.0"
     inkscape:pageshadow="2"
     inkscape:zoom="5.6"
     inkscape:cx="110.94412"
     inkscape:cy="49.609476"
     inkscape:document-units="px"
     inkscape:current-layer="layer1"
     showgrid="false"
     inkscape:snap-global="true"
     inkscape:snap-object-midpoints="true"
     fit-margin-top="0"
     fit-margin-left="0"
     fit-margin-right="0"
     fit-margin-bottom="0"
     inkscape:window-width="1362"
     inkscape:window-height="729"
     inkscape:window-x="0"
     inkscape:window-y="18"
     inkscape:window-maximized="0" />
  <metadata
     id="metadata7">
    <rdf:RDF>
      <cc:Work
         rdf:about="">
        <dc:format>image/svg+xml</dc:format>
        <dc:type
           rdf:resource="http://purl.org/dc/dcmitype/StillImage" />
        <dc:title></dc:title>
      </cc:Work>
    </rdf:RDF>
  </metadata>
  <g
     inkscape:label="Layer 1"
     inkscape:groupmode="layer"
     id="layer1"
     transform="translate(-134.17312,-503.37951)">
    <g
       id="g3001"
       transform="matrix(1,0,0,1.0010152,0,-0.57601653)"
       inkscape:export-filename="/home/tuomasjjrasanen/devel/puavo-wlan/mapper/icons/del_spot.png"
       inkscape:export-xdpi="90"
       inkscape:export-ydpi="90">
      <path
         transform="matrix(0.15782152,-0.01655658,0.01655658,0.15782152,107.14415,474.38661)"
         inkscape:transform-center-y="-2.1841253"
         inkscape:transform-center-x="-0.0013852638"
         d="m 346.39672,485.83358 -77.13562,-77.09407 -91.47878,59.37198 49.4846,-97.18372 -84.73461,-68.65454 107.71879,17.03124 39.10992,-101.80283 17.08927,107.7096 108.90587,5.73694 -97.15705,49.53695 z"
         inkscape:randomized="0"
         inkscape:rounded="0"
         inkscape:flatsided="false"
         sodipodi:arg2="1.6755161"
         sodipodi:arg1="1.0471976"
         sodipodi:r2="48.06921"
         sodipodi:r1="144.22205"
         sodipodi:cy="360.93362"
         sodipodi:cx="274.28571"
         sodipodi:sides="5"
         id="path2985"
         style="fill:#000000;fill-opacity:1;fill-rule:nonzero;stroke:#000000;stroke-width:6;stroke-linecap:round;stroke-linejoin:round;stroke-miterlimit:4;stroke-opacity:1;stroke-dasharray:none;stroke-dashoffset:0"
         sodipodi:type="star" />
      <g
         transform="translate(0,0.63954651)"
         id="g3887">
        <path
           sodipodi:type="arc"
           style="fill:#ff0000;fill-opacity:1;fill-rule:nonzero;stroke:#ff0000;stroke-width:1;stroke-linecap:round;stroke-linejoin:round;stroke-miterlimit:4;stroke-opacity:1;stroke-dasharray:none;stroke-dashoffset:0"
           id="path3799"
           sodipodi:cx="-103.03571"
           sodipodi:cy="79.178574"
           sodipodi:rx="24.464285"
           sodipodi:ry="24.464285"
           d="m -78.571428,79.178574 c 0,13.511251 -10.953034,24.464286 -24.464282,24.464286 -13.51125,0 -24.46429,-10.953035 -24.46429,-24.464286 0,-13.511252 10.95304,-24.464285 24.46429,-24.464285 13.511248,0 24.464282,10.953033 24.464282,24.464285 z"
           transform="matrix(0.56069945,0,0,0.56069945,241.78425,508.34886)" />
        <path
           style="fill:#ffffff;fill-opacity:1;fill-rule:nonzero;stroke:#ffffff;stroke-width:0.81699491;stroke-linecap:round;stroke-linejoin:round;stroke-miterlimit:4;stroke-opacity:1;stroke-dasharray:none;stroke-dashoffset:0"
           d="m 190.03765,544.11038 c -0.223,-0.22299 -0.58953,-0.24092 -0.81239,-0.018 l -5.21738,5.21737 -5.19933,-5.19933 c -0.22287,-0.22286 -0.58938,-0.24105 -0.81239,-0.018 l -2.63577,2.63576 c -0.223,0.22301 -0.20481,0.58952 0.018,0.8124 l 5.19933,5.19932 -5.21737,5.21738 c -0.22288,0.22287 -0.20495,0.58939 0.018,0.81239 l 2.61771,2.61772 c 0.22301,0.223 0.57148,0.22287 0.79434,0 l 5.21738,-5.21737 5.21738,5.21737 c 0.22286,0.22287 0.57133,0.223 0.79434,0 l 2.63576,-2.63577 c 0.22301,-0.22301 0.22288,-0.57147 0,-0.79434 l -5.21737,-5.21738 5.21737,-5.21738 c 0.22288,-0.22287 0.22301,-0.57133 0,-0.79434 l -2.6177,-2.61771 z"
           id="rect3819"
           inkscape:connector-curvature="0" />
      </g>
    </g>
    <g
       id="g3013"
       inkscape:export-filename="/home/tuomasjjrasanen/devel/puavo-wlan/mapper/icons/add_spot.png"
       inkscape:export-xdpi="90"
       inkscape:export-ydpi="90">
      <path
         transform="matrix(0.15782152,-0.01655658,0.01655658,0.15782152,265.29466,459.28295)"
         inkscape:transform-center-y="-2.1841253"
         inkscape:transform-center-x="-0.0013852638"
         d="m 346.39672,485.83358 -77.13562,-77.09407 -91.47878,59.37198 49.4846,-97.18372 -84.73461,-68.65454 107.71879,17.03124 39.10992,-101.80283 17.08927,107.7096 108.90587,5.73694 -97.15705,49.53695 z"
         inkscape:randomized="0"
         inkscape:rounded="0"
         inkscape:flatsided="false"
         sodipodi:arg2="1.6755161"
         sodipodi:arg1="1.0471976"
         sodipodi:r2="48.06921"
         sodipodi:r1="144.22205"
         sodipodi:cy="360.93362"
         sodipodi:cx="274.28571"
         sodipodi:sides="5"
         id="path2985-0"
         style="fill:#000000;fill-opacity:1;fill-rule:nonzero;stroke:#000000;stroke-width:6;stroke-linecap:round;stroke-linejoin:round;stroke-miterlimit:4;stroke-opacity:1;stroke-dasharray:none;stroke-dashoffset:0"
         sodipodi:type="star" />
      <path
         inkscape:connector-curvature="0"
         id="rect3008-8"
         d="m 337.94417,522.90325 c -0.42333,0 -0.78869,0.36511 -0.78869,0.78869 l 0,9.49858 -9.49858,0 c -0.42358,0 -0.78869,0.36536 -0.78869,0.78869 l 0,6.68672 c 0,0.42333 0.36511,0.7544 0.78869,0.7544 l 9.49858,0 0,9.53287 c 0,0.42358 0.36536,0.7544 0.78869,0.7544 l 6.68672,0 c 0.42333,0 0.7544,-0.33082 0.7544,-0.7544 l 0,-9.53287 9.53287,0 c 0.42358,0 0.7544,-0.33107 0.7544,-0.7544 l 0,-6.68672 c 0,-0.42333 -0.33082,-0.78869 -0.7544,-0.78869 l -9.53287,0 0,-9.49858 c 0,-0.42358 -0.33107,-0.78869 -0.7544,-0.78869 l -6.68672,0 z"
         style="fill:#00ff00;fill-opacity:1;fill-rule:nonzero;stroke:#00ff00;stroke-width:1.09730828;stroke-linecap:round;stroke-linejoin:round;stroke-miterlimit:4;stroke-opacity:1;stroke-dasharray:none;stroke-dashoffset:0" />
    </g>
  </g>
</svg>
