<?xml version="1.0" encoding="UTF-8" standalone="no"?>
<!-- Created with Inkscape (http://www.inkscape.org/) -->

<svg
   xmlns:dc="http://purl.org/dc/elements/1.1/"
   xmlns:cc="http://creativecommons.org/ns#"
   xmlns:rdf="http://www.w3.org/1999/02/22-rdf-syntax-ns#"
   xmlns:svg="http://www.w3.org/2000/svg"
   xmlns="http://www.w3.org/2000/svg"
   xmlns:xlink="http://www.w3.org/1999/xlink"
   xmlns:sodipodi="http://sodipodi.sourceforge.net/DTD/sodipodi-0.dtd"
   xmlns:inkscape="http://www.inkscape.org/namespaces/inkscape"
   version="1.0"
   width="96"
   height="96"
   id="svg2408"
   style="display:inline"
   inkscape:version="0.48.4 r9939"
   sodipodi:docname="podcast-grey.svg">
  <sodipodi:namedview
     pagecolor="#ffffff"
     bordercolor="#666666"
     borderopacity="1"
     objecttolerance="10"
     gridtolerance="10"
     guidetolerance="10"
     inkscape:pageopacity="0"
     inkscape:pageshadow="2"
     inkscape:window-width="845"
     inkscape:window-height="480"
     id="namedview121"
     showgrid="false"
     inkscape:zoom="2.4583333"
     inkscape:cx="-3.4689144"
     inkscape:cy="48"
     inkscape:window-x="320"
     inkscape:window-y="456"
     inkscape:window-maximized="0"
     inkscape:current-layer="svg2408" />
  <defs
     id="defs2410">
    <linearGradient
       id="linearGradient4011">
      <stop
         offset="0"
         style="stop-color:#00060b;stop-opacity:1"
         id="stop4013" />
      <stop
         offset="1"
         style="stop-color:#00243e;stop-opacity:1"
         id="stop4015" />
    </linearGradient>
    <linearGradient
       id="linearGradient3883">
      <stop
         offset="0"
         style="stop-color:#000000;stop-opacity:1"
         id="stop3885" />
      <stop
         offset="1"
         style="stop-color:#000000;stop-opacity:0"
         id="stop3887" />
    </linearGradient>
    <linearGradient
       id="linearGradient3835">
      <stop
         offset="0"
         style="stop-color:#003557;stop-opacity:1"
         id="stop3837" />
      <stop
         offset="1"
         style="stop-color:#003557;stop-opacity:0"
         id="stop3839" />
    </linearGradient>
    <linearGradient
       id="linearGradient3816">
      <stop
         offset="0"
         style="stop-color:#000000;stop-opacity:1"
         id="stop3818" />
      <stop
         offset="1"
         style="stop-color:#000000;stop-opacity:0"
         id="stop3820" />
    </linearGradient>
    <linearGradient
       id="linearGradient3802">
      <stop
         offset="0"
         style="stop-color:#00ffff;stop-opacity:1"
         id="stop3804" />
      <stop
         offset="1"
         style="stop-color:#00ffff;stop-opacity:0"
         id="stop3806" />
    </linearGradient>
    <linearGradient
       id="linearGradient3783">
      <stop
         offset="0"
         style="stop-color:#0096ba;stop-opacity:1"
         id="stop3785" />
      <stop
         offset="0.83590454"
         style="stop-color:#005584;stop-opacity:1"
         id="stop3791" />
      <stop
         offset="1"
         style="stop-color:#004e70;stop-opacity:0"
         id="stop3787" />
    </linearGradient>
    <linearGradient
       id="linearGradient3753">
      <stop
         offset="0"
         style="stop-color:#00bff1;stop-opacity:1"
         id="stop3755" />
      <stop
         offset="1"
         style="stop-color:#004b88;stop-opacity:0"
         id="stop3757" />
    </linearGradient>
    <linearGradient
       id="linearGradient3741">
      <stop
         offset="0"
         style="stop-color:#003162;stop-opacity:1"
         id="stop3743" />
      <stop
         offset="0.41123432"
         style="stop-color:#000d42;stop-opacity:1"
         id="stop3749" />
      <stop
         offset="1"
         style="stop-color:#000c0f;stop-opacity:1"
         id="stop3745" />
    </linearGradient>
    <linearGradient
       id="linearGradient3730">
      <stop
         offset="0"
         style="stop-color:#00a7c0;stop-opacity:1"
         id="stop3732" />
      <stop
         offset="1"
         style="stop-color:#00a7c0;stop-opacity:0"
         id="stop3734" />
    </linearGradient>
    <linearGradient
       id="linearGradient3722">
      <stop
         offset="0"
         style="stop-color:#00d7f5;stop-opacity:1"
         id="stop3724" />
      <stop
         offset="1"
         style="stop-color:#00ffff;stop-opacity:0"
         id="stop3726" />
    </linearGradient>
    <linearGradient
       id="linearGradient3707">
      <stop
         offset="0"
         style="stop-color:#00619a;stop-opacity:1"
         id="stop3709" />
      <stop
         offset="1"
         style="stop-color:#00619a;stop-opacity:0"
         id="stop3711" />
    </linearGradient>
    <linearGradient
       id="linearGradient3699">
      <stop
         offset="0"
         style="stop-color:#00aeee;stop-opacity:1"
         id="stop3701" />
      <stop
         offset="1"
         style="stop-color:#00b7f0;stop-opacity:0"
         id="stop3703" />
    </linearGradient>
    <linearGradient
       id="linearGradient3676">
      <stop
         offset="0"
         style="stop-color:#0065df;stop-opacity:1"
         id="stop3678" />
      <stop
         offset="1"
         style="stop-color:#0065df;stop-opacity:0"
         id="stop3680" />
    </linearGradient>
    <linearGradient
       id="linearGradient3668">
      <stop
         offset="0"
         style="stop-color:#003c8d;stop-opacity:1"
         id="stop3670" />
      <stop
         offset="1"
         style="stop-color:#003c8d;stop-opacity:0"
         id="stop3672" />
    </linearGradient>
    <linearGradient
       gradientTransform="scale(1.0058652,0.994169)"
       gradientUnits="userSpaceOnUse"
       id="ButtonShadow"
       y2="7.0165396"
       x2="45.447727"
       y1="92.539597"
       x1="45.447727">
      <stop
         offset="0"
         style="stop-color:#000000;stop-opacity:1"
         id="stop3750" />
      <stop
         offset="1"
         style="stop-color:#000000;stop-opacity:0.58823532"
         id="stop3752" />
    </linearGradient>
    <linearGradient
       id="linearGradient3737">
      <stop
         offset="0"
         style="stop-color:#00ffff;stop-opacity:1"
         id="stop3739" />
      <stop
         offset="1"
         style="stop-color:#00ffff;stop-opacity:0"
         id="stop3741" />
    </linearGradient>
    <linearGradient
       id="linearGradient3700">
      <stop
         offset="0"
         style="stop-color:#00bef2;stop-opacity:1"
         id="stop3702" />
      <stop
         offset="1"
         style="stop-color:#00def7;stop-opacity:1"
         id="stop3704" />
    </linearGradient>
    <filter
       id="filter3174"
       color-interpolation-filters="sRGB">
      <feGaussianBlur
         stdDeviation="1.71"
         id="feGaussianBlur3176" />
    </filter>
    <linearGradient
       gradientUnits="userSpaceOnUse"
       xlink:href="#linearGradient3737"
       id="linearGradient3188"
       y2="63.893143"
       x2="36.357143"
       y1="6"
       x1="36.357143" />
    <filter
       id="filter3794"
       color-interpolation-filters="sRGB"
       height="1.3839999"
       width="1.3839999"
       y="-0.192"
       x="-0.192">
      <feGaussianBlur
         stdDeviation="5.28"
         id="feGaussianBlur3796" />
    </filter>
    <linearGradient
       gradientUnits="userSpaceOnUse"
       xlink:href="#linearGradient3737"
       id="linearGradient3613"
       y2="138.66119"
       x2="48"
       y1="20.220806"
       x1="48" />
    <radialGradient
       gradientTransform="matrix(1.1573129,0,0,0.99590774,-7.5510206,0.19713193)"
       gradientUnits="userSpaceOnUse"
       xlink:href="#linearGradient3737"
       id="radialGradient3619"
       fy="90.171875"
       fx="48"
       r="42"
       cy="90.171875"
       cx="48" />
    <clipPath
       id="clipPath3613">
      <rect
         style="fill:#00ffff;fill-opacity:1;fill-rule:nonzero;stroke:none"
         id="rect3615"
         y="6"
         x="6"
         ry="6"
         rx="6"
         height="84"
         width="84" />
    </clipPath>
    <linearGradient
       gradientUnits="userSpaceOnUse"
       xlink:href="#linearGradient3700"
       id="linearGradient3617"
       y2="5.9877172"
       x2="48"
       y1="90"
       x1="48" />
    <linearGradient
       gradientTransform="matrix(1.0058652,0,0,0.994169,100,0)"
       gradientUnits="userSpaceOnUse"
       id="ButtonShadow-0"
       y2="7.0165396"
       x2="45.447727"
       y1="92.539597"
       x1="45.447727">
      <stop
         offset="0"
         style="stop-color:#000000;stop-opacity:1"
         id="stop3750-8" />
      <stop
         offset="1"
         style="stop-color:#000000;stop-opacity:0.58823532"
         id="stop3752-5" />
    </linearGradient>
    <linearGradient
       gradientTransform="matrix(1.0238095,0,0,1.0119048,-1.1428571,-98.071429)"
       gradientUnits="userSpaceOnUse"
       xlink:href="#ButtonShadow-0"
       id="linearGradient3780"
       y2="90.238609"
       x2="32.251034"
       y1="6.1317081"
       x1="32.251034" />
    <linearGradient
       gradientTransform="matrix(1.0238095,0,0,1.0119048,-1.1428571,-98.071429)"
       gradientUnits="userSpaceOnUse"
       xlink:href="#ButtonShadow-0"
       id="linearGradient3772"
       y2="90.238609"
       x2="32.251034"
       y1="6.1317081"
       x1="32.251034" />
    <linearGradient
       gradientTransform="matrix(1.0238095,0,0,1.0119048,-1.1428571,-98.071429)"
       gradientUnits="userSpaceOnUse"
       xlink:href="#ButtonShadow-0"
       id="linearGradient3725"
       y2="90.238609"
       x2="32.251034"
       y1="6.1317081"
       x1="32.251034" />
    <linearGradient
       gradientTransform="translate(0,-97)"
       gradientUnits="userSpaceOnUse"
       xlink:href="#ButtonShadow-0"
       id="linearGradient3721"
       y2="90.238609"
       x2="32.251034"
       y1="6.1317081"
       x1="32.251034" />
    <linearGradient
       gradientTransform="matrix(1.0238095,0,0,1.0119048,-1.1428571,-98.071429)"
       gradientUnits="userSpaceOnUse"
       xlink:href="#ButtonShadow-0"
       id="linearGradient3026"
       y2="90.238609"
       x2="32.251034"
       y1="6.1317081"
       x1="32.251034" />
    <linearGradient
       gradientTransform="translate(-30,0)"
       gradientUnits="userSpaceOnUse"
       xlink:href="#linearGradient3668"
       id="linearGradient3674"
       y2="56"
       x2="78"
       y1="25"
       x1="78" />
    <linearGradient
       gradientUnits="userSpaceOnUse"
       xlink:href="#linearGradient3676"
       id="linearGradient3682"
       y2="56"
       x2="48"
       y1="25"
       x1="48" />
    <linearGradient
       gradientUnits="userSpaceOnUse"
       xlink:href="#linearGradient3699"
       id="linearGradient3705"
       y2="69.062439"
       x2="50"
       y1="37"
       x1="50" />
    <linearGradient
       gradientTransform="translate(-30,0)"
       gradientUnits="userSpaceOnUse"
       xlink:href="#linearGradient3707"
       id="linearGradient3713"
       y2="72.012497"
       x2="79"
       y1="31.991074"
       x1="79" />
    <linearGradient
       gradientUnits="userSpaceOnUse"
       xlink:href="#linearGradient3722"
       id="linearGradient3728"
       y2="75.675674"
       x2="51.459461"
       y1="13.405405"
       x1="51.459461" />
    <linearGradient
       gradientTransform="translate(-60,0)"
       gradientUnits="userSpaceOnUse"
       xlink:href="#linearGradient3730"
       id="linearGradient3736"
       y2="80"
       x2="112"
       y1="32"
       x1="112" />
    <radialGradient
       gradientTransform="matrix(1.25,0,0,1,-12,0)"
       gradientUnits="userSpaceOnUse"
       xlink:href="#linearGradient3741"
       id="radialGradient3747"
       fy="45"
       fx="48"
       r="8"
       cy="45"
       cx="48" />
    <radialGradient
       gradientTransform="matrix(2,0,0,1.5,-42,-20)"
       gradientUnits="userSpaceOnUse"
       xlink:href="#linearGradient3753"
       id="radialGradient3761"
       fy="40"
       fx="42"
       r="8"
       cy="40"
       cx="42" />
    <linearGradient
       gradientTransform="translate(-30,0)"
       gradientUnits="userSpaceOnUse"
       xlink:href="#linearGradient4011"
       id="linearGradient3781"
       y2="48.867905"
       x2="78"
       y1="83"
       x1="78" />
    <radialGradient
       gradientTransform="matrix(1,0,0,0.44752096,-30,29.414036)"
       gradientUnits="userSpaceOnUse"
       xlink:href="#linearGradient3783"
       id="radialGradient3789"
       fy="55"
       fx="78"
       r="9"
       cy="55"
       cx="78" />
    <linearGradient
       gradientTransform="matrix(1,0,0,0.72176936,-30,13.973361)"
       gradientUnits="userSpaceOnUse"
       xlink:href="#linearGradient3816"
       id="linearGradient3822"
       y2="58"
       x2="78"
       y1="50"
       x1="78" />
    <linearGradient
       spreadMethod="reflect"
       gradientTransform="translate(-30,-1)"
       gradientUnits="userSpaceOnUse"
       xlink:href="#linearGradient3802"
       id="linearGradient3862"
       y2="56.796875"
       x2="87"
       y1="56.796875"
       x1="77.997711" />
    <linearGradient
       gradientTransform="translate(-30,0)"
       gradientUnits="userSpaceOnUse"
       xlink:href="#linearGradient3835"
       id="linearGradient3879"
       y2="79"
       x2="80"
       y1="61"
       x1="80" />
    <radialGradient
       gradientTransform="matrix(1,0,0,0.25,0,62.25)"
       gradientUnits="userSpaceOnUse"
       xlink:href="#linearGradient3883"
       id="radialGradient3889"
       fy="83"
       fx="48"
       r="8"
       cy="83"
       cx="48" />
    <linearGradient
       gradientTransform="scale(1.0058652,0.994169)"
       gradientUnits="userSpaceOnUse"
       id="ButtonShadow-606"
       y2="7.0165396"
       x2="45.447727"
       y1="92.539597"
       x1="45.447727">
      <stop
         offset="0"
         style="stop-color:#000000;stop-opacity:1"
         id="stop18284" />
      <stop
         offset="1"
         style="stop-color:#000000;stop-opacity:0.58823532"
         id="stop18286" />
    </linearGradient>
    <linearGradient
       gradientTransform="matrix(1.0238095,0,0,1.0119048,-1.1428571,-98.071429)"
       gradientUnits="userSpaceOnUse"
       xlink:href="#ButtonShadow-0-65"
       id="linearGradient3026-474"
       y2="90.238609"
       x2="32.251034"
       y1="6.1317081"
       x1="32.251034" />
    <linearGradient
       gradientTransform="matrix(1.0058652,0,0,0.994169,100,0)"
       gradientUnits="userSpaceOnUse"
       id="ButtonShadow-0-65"
       y2="7.0165396"
       x2="45.447727"
       y1="92.539597"
       x1="45.447727">
      <stop
         offset="0"
         style="stop-color:#000000;stop-opacity:1"
         id="stop18290" />
      <stop
         offset="1"
         style="stop-color:#000000;stop-opacity:0.58823532"
         id="stop18292" />
    </linearGradient>
    <linearGradient
       gradientTransform="matrix(1.0238095,0,0,1.0119048,-1.1428571,-98.071429)"
       gradientUnits="userSpaceOnUse"
       xlink:href="#ButtonShadow-0-762"
       id="linearGradient3780-773"
       y2="90.238609"
       x2="32.251034"
       y1="6.1317081"
       x1="32.251034" />
    <linearGradient
       gradientTransform="matrix(1.0058652,0,0,0.994169,100,0)"
       gradientUnits="userSpaceOnUse"
       id="ButtonShadow-0-762"
       y2="7.0165396"
       x2="45.447727"
       y1="92.539597"
       x1="45.447727">
      <stop
         offset="0"
         style="stop-color:#000000;stop-opacity:1"
         id="stop18296" />
      <stop
         offset="1"
         style="stop-color:#000000;stop-opacity:0.58823532"
         id="stop18298" />
    </linearGradient>
    <linearGradient
       gradientTransform="matrix(1.0238095,0,0,1.0119048,-1.1428571,-98.071429)"
       gradientUnits="userSpaceOnUse"
       xlink:href="#ButtonShadow-0-884"
       id="linearGradient3772-594"
       y2="90.238609"
       x2="32.251034"
       y1="6.1317081"
       x1="32.251034" />
    <linearGradient
       gradientTransform="matrix(1.0058652,0,0,0.994169,100,0)"
       gradientUnits="userSpaceOnUse"
       id="ButtonShadow-0-884"
       y2="7.0165396"
       x2="45.447727"
       y1="92.539597"
       x1="45.447727">
      <stop
         offset="0"
         style="stop-color:#000000;stop-opacity:1"
         id="stop18302" />
      <stop
         offset="1"
         style="stop-color:#000000;stop-opacity:0.58823532"
         id="stop18304" />
    </linearGradient>
    <linearGradient
       gradientTransform="matrix(1.0238095,0,0,1.0119048,-1.1428571,-98.071429)"
       gradientUnits="userSpaceOnUse"
       xlink:href="#ButtonShadow-0-448"
       id="linearGradient3725-646"
       y2="90.238609"
       x2="32.251034"
       y1="6.1317081"
       x1="32.251034" />
    <linearGradient
       gradientTransform="matrix(1.0058652,0,0,0.994169,100,0)"
       gradientUnits="userSpaceOnUse"
       id="ButtonShadow-0-448"
       y2="7.0165396"
       x2="45.447727"
       y1="92.539597"
       x1="45.447727">
      <stop
         offset="0"
         style="stop-color:#000000;stop-opacity:1"
         id="stop18308" />
      <stop
         offset="1"
         style="stop-color:#000000;stop-opacity:0.58823532"
         id="stop18310" />
    </linearGradient>
    <linearGradient
       gradientTransform="translate(0,-97)"
       gradientUnits="userSpaceOnUse"
       xlink:href="#ButtonShadow-0-984"
       id="linearGradient3721-188"
       y2="90.238609"
       x2="32.251034"
       y1="6.1317081"
       x1="32.251034" />
    <linearGradient
       gradientTransform="matrix(1.0058652,0,0,0.994169,100,0)"
       gradientUnits="userSpaceOnUse"
       id="ButtonShadow-0-984"
       y2="7.0165396"
       x2="45.447727"
       y1="92.539597"
       x1="45.447727">
      <stop
         offset="0"
         style="stop-color:#000000;stop-opacity:1"
         id="stop18314" />
      <stop
         offset="1"
         style="stop-color:#000000;stop-opacity:0.58823532"
         id="stop18316" />
    </linearGradient>
    <linearGradient
       gradientUnits="userSpaceOnUse"
       xlink:href="#linearGradient3700-696"
       id="linearGradient3617-476"
       y2="5.9877172"
       x2="48"
       y1="90"
       x1="48" />
    <linearGradient
       id="linearGradient3700-696">
      <stop
         offset="0"
         style="stop-color:#00bef2;stop-opacity:1"
         id="stop18320" />
      <stop
         offset="1"
         style="stop-color:#00def7;stop-opacity:1"
         id="stop18322" />
    </linearGradient>
    <linearGradient
       gradientUnits="userSpaceOnUse"
       xlink:href="#linearGradient3737-957"
       id="linearGradient3188-417"
       y2="63.893143"
       x2="36.357143"
       y1="6"
       x1="36.357143" />
    <linearGradient
       id="linearGradient3737-957">
      <stop
         offset="0"
         style="stop-color:#00ffff;stop-opacity:1"
         id="stop18326" />
      <stop
         offset="1"
         style="stop-color:#00ffff;stop-opacity:0"
         id="stop18328" />
    </linearGradient>
    <radialGradient
       gradientTransform="matrix(1.1573129,0,0,0.99590774,-7.5510206,0.19713193)"
       gradientUnits="userSpaceOnUse"
       xlink:href="#linearGradient3737-497"
       id="radialGradient3619-468"
       fy="90.171875"
       fx="48"
       r="42"
       cy="90.171875"
       cx="48" />
    <linearGradient
       id="linearGradient3737-497">
      <stop
         offset="0"
         style="stop-color:#00ffff;stop-opacity:1"
         id="stop18332" />
      <stop
         offset="1"
         style="stop-color:#00ffff;stop-opacity:0"
         id="stop18334" />
    </linearGradient>
    <linearGradient
       gradientUnits="userSpaceOnUse"
       xlink:href="#linearGradient3737-255"
       id="linearGradient3613-334"
       y2="138.66119"
       x2="48"
       y1="20.220806"
       x1="48" />
    <linearGradient
       id="linearGradient3737-255">
      <stop
         offset="0"
         style="stop-color:#00ffff;stop-opacity:1"
         id="stop18338" />
      <stop
         offset="1"
         style="stop-color:#00ffff;stop-opacity:0"
         id="stop18340" />
    </linearGradient>
    <linearGradient
       gradientUnits="userSpaceOnUse"
       xlink:href="#linearGradient3722-624"
       id="linearGradient3728-847"
       y2="75.675674"
       x2="51.459461"
       y1="13.405405"
       x1="51.459461" />
    <linearGradient
       id="linearGradient3722-624">
      <stop
         offset="0"
         style="stop-color:#00d7f5;stop-opacity:1"
         id="stop18344" />
      <stop
         offset="1"
         style="stop-color:#00ffff;stop-opacity:0"
         id="stop18346" />
    </linearGradient>
    <linearGradient
       gradientTransform="translate(-60,0)"
       gradientUnits="userSpaceOnUse"
       xlink:href="#linearGradient3730-308"
       id="linearGradient3736-585"
       y2="80"
       x2="112"
       y1="32"
       x1="112" />
    <linearGradient
       id="linearGradient3730-308">
      <stop
         offset="0"
         style="stop-color:#00a7c0;stop-opacity:1"
         id="stop18350" />
      <stop
         offset="1"
         style="stop-color:#00a7c0;stop-opacity:0"
         id="stop18352" />
    </linearGradient>
    <linearGradient
       gradientUnits="userSpaceOnUse"
       xlink:href="#linearGradient3699-836"
       id="linearGradient3705-993"
       y2="69.062439"
       x2="50"
       y1="37"
       x1="50" />
    <linearGradient
       id="linearGradient3699-836">
      <stop
         offset="0"
         style="stop-color:#00aeee;stop-opacity:1"
         id="stop18356" />
      <stop
         offset="1"
         style="stop-color:#00b7f0;stop-opacity:0"
         id="stop18358" />
    </linearGradient>
    <linearGradient
       gradientTransform="translate(-30,0)"
       gradientUnits="userSpaceOnUse"
       xlink:href="#linearGradient3707-890"
       id="linearGradient3713-737"
       y2="72.012497"
       x2="79"
       y1="31.991074"
       x1="79" />
    <linearGradient
       id="linearGradient3707-890">
      <stop
         offset="0"
         style="stop-color:#00619a;stop-opacity:1"
         id="stop18362" />
      <stop
         offset="1"
         style="stop-color:#00619a;stop-opacity:0"
         id="stop18364" />
    </linearGradient>
    <linearGradient
       gradientUnits="userSpaceOnUse"
       xlink:href="#linearGradient3676-527"
       id="linearGradient3682-703"
       y2="56"
       x2="48"
       y1="25"
       x1="48" />
    <linearGradient
       id="linearGradient3676-527">
      <stop
         offset="0"
         style="stop-color:#0065df;stop-opacity:1"
         id="stop18368" />
      <stop
         offset="1"
         style="stop-color:#0065df;stop-opacity:0"
         id="stop18370" />
    </linearGradient>
    <linearGradient
       gradientTransform="translate(-30,0)"
       gradientUnits="userSpaceOnUse"
       xlink:href="#linearGradient3668-374"
       id="linearGradient3674-740"
       y2="56"
       x2="78"
       y1="25"
       x1="78" />
    <linearGradient
       id="linearGradient3668-374">
      <stop
         offset="0"
         style="stop-color:#003c8d;stop-opacity:1"
         id="stop18374" />
      <stop
         offset="1"
         style="stop-color:#003c8d;stop-opacity:0"
         id="stop18376" />
    </linearGradient>
    <radialGradient
       gradientTransform="matrix(1.25,0,0,1,-12,0)"
       gradientUnits="userSpaceOnUse"
       xlink:href="#linearGradient3741-841"
       id="radialGradient3747-725"
       fy="45"
       fx="48"
       r="8"
       cy="45"
       cx="48" />
    <linearGradient
       id="linearGradient3741-841">
      <stop
         offset="0"
         style="stop-color:#003162;stop-opacity:1"
         id="stop18380" />
      <stop
         offset="0.41123432"
         style="stop-color:#000d42;stop-opacity:1"
         id="stop18382" />
      <stop
         offset="1"
         style="stop-color:#000c0f;stop-opacity:1"
         id="stop18384" />
    </linearGradient>
    <radialGradient
       gradientTransform="matrix(2,0,0,1.5,-42,-20)"
       gradientUnits="userSpaceOnUse"
       xlink:href="#linearGradient3753-174"
       id="radialGradient3761-342"
       fy="40"
       fx="42"
       r="8"
       cy="40"
       cx="42" />
    <linearGradient
       id="linearGradient3753-174">
      <stop
         offset="0"
         style="stop-color:#00bff1;stop-opacity:1"
         id="stop18388" />
      <stop
         offset="1"
         style="stop-color:#004b88;stop-opacity:0"
         id="stop18390" />
    </linearGradient>
    <linearGradient
       gradientTransform="translate(-30,0)"
       gradientUnits="userSpaceOnUse"
       xlink:href="#linearGradient4011-180"
       id="linearGradient3781-460"
       y2="48.867905"
       x2="78"
       y1="83"
       x1="78" />
    <linearGradient
       id="linearGradient4011-180">
      <stop
         offset="0"
         style="stop-color:#00060b;stop-opacity:1"
         id="stop18394" />
      <stop
         offset="1"
         style="stop-color:#00243e;stop-opacity:1"
         id="stop18396" />
    </linearGradient>
    <radialGradient
       gradientTransform="matrix(1,0,0,0.44752096,-30,29.414036)"
       gradientUnits="userSpaceOnUse"
       xlink:href="#linearGradient3783-121"
       id="radialGradient3789-506"
       fy="55"
       fx="78"
       r="9"
       cy="55"
       cx="78" />
    <linearGradient
       id="linearGradient3783-121">
      <stop
         offset="0"
         style="stop-color:#0096ba;stop-opacity:1"
         id="stop18400" />
      <stop
         offset="0.83590454"
         style="stop-color:#005584;stop-opacity:1"
         id="stop18402" />
      <stop
         offset="1"
         style="stop-color:#004e70;stop-opacity:0"
         id="stop18404" />
    </linearGradient>
    <linearGradient
       gradientTransform="matrix(1,0,0,0.72176936,-30,13.973361)"
       gradientUnits="userSpaceOnUse"
       xlink:href="#linearGradient3816-528"
       id="linearGradient3822-227"
       y2="58"
       x2="78"
       y1="50"
       x1="78" />
    <linearGradient
       id="linearGradient3816-528">
      <stop
         offset="0"
         style="stop-color:#000000;stop-opacity:1"
         id="stop18408" />
      <stop
         offset="1"
         style="stop-color:#000000;stop-opacity:0"
         id="stop18410" />
    </linearGradient>
    <linearGradient
       spreadMethod="reflect"
       gradientTransform="translate(-30,-1)"
       gradientUnits="userSpaceOnUse"
       xlink:href="#linearGradient3802-385"
       id="linearGradient3862-168"
       y2="56.796875"
       x2="87"
       y1="56.796875"
       x1="77.997711" />
    <linearGradient
       id="linearGradient3802-385">
      <stop
         offset="0"
         style="stop-color:#00ffff;stop-opacity:1"
         id="stop18414" />
      <stop
         offset="1"
         style="stop-color:#00ffff;stop-opacity:0"
         id="stop18416" />
    </linearGradient>
    <linearGradient
       gradientTransform="translate(-30,0)"
       gradientUnits="userSpaceOnUse"
       xlink:href="#linearGradient3835-75"
       id="linearGradient3879-672"
       y2="79"
       x2="80"
       y1="61"
       x1="80" />
    <linearGradient
       id="linearGradient3835-75">
      <stop
         offset="0"
         style="stop-color:#003557;stop-opacity:1"
         id="stop18420" />
      <stop
         offset="1"
         style="stop-color:#003557;stop-opacity:0"
         id="stop18422" />
    </linearGradient>
    <radialGradient
       gradientTransform="matrix(1,0,0,0.25,0,62.25)"
       gradientUnits="userSpaceOnUse"
       xlink:href="#linearGradient3883-707"
       id="radialGradient3889-716"
       fy="83"
       fx="48"
       r="8"
       cy="83"
       cx="48" />
    <linearGradient
       id="linearGradient3883-707">
      <stop
         offset="0"
         style="stop-color:#000000;stop-opacity:1"
         id="stop18426" />
      <stop
         offset="1"
         style="stop-color:#000000;stop-opacity:0"
         id="stop18428" />
    </linearGradient>
  </defs>
  <metadata
     id="metadata2413">
    <rdf:RDF>
      <cc:Work
         rdf:about="">
        <dc:format>image/svg+xml</dc:format>
        <dc:type
           rdf:resource="http://purl.org/dc/dcmitype/StillImage" />
        <dc:title></dc:title>
      </cc:Work>
    </rdf:RDF>
  </metadata>
  <g
     style="display:none"
     id="layer2">
    <rect
       style="opacity:0.9;fill:url(#ButtonShadow-606);fill-opacity:1;fill-rule:nonzero;stroke:none;filter:url(#filter3174)"
       id="rect3745"
       y="7"
       x="5"
       ry="6"
       rx="6"
       height="85"
       width="86" />
  </g>
  <g
     id="layer3">
    <path
       style="opacity:0.07999998;fill:url(#linearGradient3026-474);fill-opacity:1;fill-rule:nonzero;stroke:none;display:inline"
       id="path3786"
       transform="scale(1,-1)"
       d="m 12,-95.03125 c -5.5110903,0 -10.03125,4.52016 -10.03125,10.03125 l 0,71 c 0,5.5110902 4.5201598,10.03125 10.03125,10.03125 l 72,0 c 5.51109,0 10.03125,-4.5201597 10.03125,-10.03125 l 0,-71 c 0,-5.51109 -4.52016,-10.03125 -10.03125,-10.03125 l -72,0 z" />
    <path
       style="opacity:0.1;fill:url(#linearGradient3780-773);fill-opacity:1;fill-rule:nonzero;stroke:none;display:inline"
       id="path3778"
       transform="scale(1,-1)"
       d="m 12,-94.03125 c -4.971633,0 -9.03125,4.059617 -9.03125,9.03125 l 0,71 c 0,4.9716329 4.0596171,9.03125 9.03125,9.03125 l 72,0 c 4.971633,0 9.03125,-4.059617 9.03125,-9.03125 l 0,-71 c 0,-4.971633 -4.059617,-9.03125 -9.03125,-9.03125 l -72,0 z" />
    <path
       style="opacity:0.2;fill:url(#linearGradient3772-594);fill-opacity:1;fill-rule:nonzero;stroke:none;display:inline"
       id="path3770"
       transform="scale(1,-1)"
       d="m 12,-93 c -4.4091333,0 -8,3.590867 -8,8 l 0,71 c 0,4.4091333 3.5908667,8 8,8 l 72,0 c 4.409133,0 8,-3.5908667 8,-8 l 0,-71 c 0,-4.409133 -3.590867,-8 -8,-8 l -72,0 z" />
    <rect
       style="opacity:0.3;fill:url(#linearGradient3725-646);fill-opacity:1;fill-rule:nonzero;stroke:none;display:inline"
       id="rect3723"
       transform="scale(1,-1)"
       y="-92"
       x="5"
       ry="7"
       rx="7"
       height="85"
       width="86" />
    <rect
       style="opacity:0.45;fill:url(#linearGradient3721-188);fill-opacity:1;fill-rule:nonzero;stroke:none;display:inline"
       id="rect3716"
       transform="scale(1,-1)"
       y="-91"
       x="6"
       ry="6"
       rx="6"
       height="84"
       width="84" />
  </g>
  <g
     style="display:inline"
     id="layer1">
    <rect
       style="fill:url(#linearGradient3617-476);fill-opacity:1;fill-rule:nonzero;stroke:none"
       id="rect2419"
       y="6"
       x="6"
       ry="6"
       rx="6"
       height="84"
       width="84" />
    <path
       style="opacity:0.5;fill:url(#linearGradient3188-417);fill-opacity:1;fill-rule:nonzero;stroke:none"
       id="rect3728"
       inkscape:connector-curvature="0"
       d="M 12,6 C 8.676,6 6,8.676 6,12 l 0,2 0,68 0,2 c 0,0.334721 0.04135,0.6507 0.09375,0.96875 0.0487,0.295596 0.09704,0.596915 0.1875,0.875 0.00988,0.03038 0.020892,0.0636 0.03125,0.09375 0.098865,0.287771 0.2348802,0.547452 0.375,0.8125 0.1445918,0.273507 0.3156161,0.535615 0.5,0.78125 0.1843839,0.245635 0.3737765,0.473472 0.59375,0.6875 0.439947,0.428056 0.94291,0.814526 1.5,1.09375 0.278545,0.139612 0.5734731,0.246947 0.875,0.34375 -0.2562018,-0.100222 -0.4867109,-0.236272 -0.71875,-0.375 -0.00741,-0.0044 -0.023866,0.0045 -0.03125,0 -0.031933,-0.0193 -0.062293,-0.04251 -0.09375,-0.0625 -0.120395,-0.0767 -0.2310226,-0.163513 -0.34375,-0.25 -0.1061728,-0.0808 -0.2132809,-0.161112 -0.3125,-0.25 C 8.4783201,88.557317 8.3087904,88.373362 8.15625,88.1875 8.0486711,88.057245 7.9378561,87.922215 7.84375,87.78125 7.818661,87.74287 7.805304,87.69538 7.78125,87.65625 7.716487,87.553218 7.6510225,87.451733 7.59375,87.34375 7.4927417,87.149044 7.3880752,86.928049 7.3125,86.71875 7.30454,86.69694 7.288911,86.6782 7.28125,86.65625 7.2494249,86.5643 7.2454455,86.469419 7.21875,86.375 7.1884177,86.268382 7.1483606,86.171969 7.125,86.0625 7.0521214,85.720988 7,85.364295 7,85 L 7,83 7,15 7,13 C 7,10.218152 9.2181517,8 12,8 l 2,0 68,0 2,0 c 2.781848,0 5,2.218152 5,5 l 0,2 0,68 0,2 c 0,0.364295 -0.05212,0.720988 -0.125,1.0625 -0.04415,0.206893 -0.08838,0.397658 -0.15625,0.59375 -0.0077,0.02195 -0.0233,0.04069 -0.03125,0.0625 -0.06274,0.173739 -0.138383,0.367449 -0.21875,0.53125 -0.04158,0.0828 -0.07904,0.169954 -0.125,0.25 -0.0546,0.09721 -0.126774,0.18835 -0.1875,0.28125 -0.09411,0.140965 -0.204921,0.275995 -0.3125,0.40625 -0.143174,0.17445 -0.303141,0.346998 -0.46875,0.5 -0.01117,0.0102 -0.01998,0.02115 -0.03125,0.03125 -0.138386,0.125556 -0.285091,0.234436 -0.4375,0.34375 -0.102571,0.07315 -0.204318,0.153364 -0.3125,0.21875 -0.0074,0.0045 -0.02384,-0.0044 -0.03125,0 -0.232039,0.138728 -0.462548,0.274778 -0.71875,0.375 0.301527,-0.0968 0.596455,-0.204138 0.875,-0.34375 0.55709,-0.279224 1.060053,-0.665694 1.5,-1.09375 0.219973,-0.214028 0.409366,-0.441865 0.59375,-0.6875 0.184384,-0.245635 0.355408,-0.507743 0.5,-0.78125 0.14012,-0.265048 0.276135,-0.524729 0.375,-0.8125 0.01041,-0.03078 0.02133,-0.06274 0.03125,-0.09375 0.09046,-0.278085 0.1388,-0.579404 0.1875,-0.875 C 89.95865,84.6507 90,84.334721 90,84 l 0,-2 0,-68 0,-2 C 90,8.676 87.324,6 84,6 L 12,6 z" />
    <path
       style="opacity:0.2;fill:url(#radialGradient3619-468);fill-opacity:1;fill-rule:nonzero;stroke:none"
       id="path3615"
       inkscape:connector-curvature="0"
       d="M 12,90 C 8.676,90 6,87.324 6,84 L 6,82 6,14 6,12 c 0,-0.334721 0.04135,-0.6507 0.09375,-0.96875 0.0487,-0.295596 0.09704,-0.596915 0.1875,-0.875 C 6.29113,10.12587 6.302142,10.09265 6.3125,10.0625 6.411365,9.774729 6.5473802,9.515048 6.6875,9.25 6.8320918,8.976493 7.0031161,8.714385 7.1875,8.46875 7.3718839,8.223115 7.5612765,7.995278 7.78125,7.78125 8.221197,7.353194 8.72416,6.966724 9.28125,6.6875 9.559795,6.547888 9.8547231,6.440553 10.15625,6.34375 9.9000482,6.443972 9.6695391,6.580022 9.4375,6.71875 c -0.00741,0.0044 -0.023866,-0.0045 -0.03125,0 -0.031933,0.0193 -0.062293,0.04251 -0.09375,0.0625 -0.120395,0.0767 -0.2310226,0.163513 -0.34375,0.25 -0.1061728,0.0808 -0.2132809,0.161112 -0.3125,0.25 C 8.4783201,7.442683 8.3087904,7.626638 8.15625,7.8125 8.0486711,7.942755 7.9378561,8.077785 7.84375,8.21875 7.818661,8.25713 7.805304,8.30462 7.78125,8.34375 7.716487,8.446782 7.6510225,8.548267 7.59375,8.65625 7.4927417,8.850956 7.3880752,9.071951 7.3125,9.28125 7.30454,9.30306 7.288911,9.3218 7.28125,9.34375 7.2494249,9.4357 7.2454455,9.530581 7.21875,9.625 7.1884177,9.731618 7.1483606,9.828031 7.125,9.9375 7.0521214,10.279012 7,10.635705 7,11 l 0,2 0,68 0,2 c 0,2.781848 2.2181517,5 5,5 l 2,0 68,0 2,0 c 2.781848,0 5,-2.218152 5,-5 l 0,-2 0,-68 0,-2 C 89,10.635705 88.94788,10.279012 88.875,9.9375 88.83085,9.730607 88.78662,9.539842 88.71875,9.34375 88.71105,9.3218 88.69545,9.30306 88.6875,9.28125 88.62476,9.107511 88.549117,8.913801 88.46875,8.75 88.42717,8.6672 88.38971,8.580046 88.34375,8.5 88.28915,8.40279 88.216976,8.31165 88.15625,8.21875 88.06214,8.077785 87.951329,7.942755 87.84375,7.8125 87.700576,7.63805 87.540609,7.465502 87.375,7.3125 87.36383,7.3023 87.35502,7.29135 87.34375,7.28125 87.205364,7.155694 87.058659,7.046814 86.90625,6.9375 86.803679,6.86435 86.701932,6.784136 86.59375,6.71875 c -0.0074,-0.0045 -0.02384,0.0044 -0.03125,0 -0.232039,-0.138728 -0.462548,-0.274778 -0.71875,-0.375 0.301527,0.0968 0.596455,0.204138 0.875,0.34375 0.55709,0.279224 1.060053,0.665694 1.5,1.09375 0.219973,0.214028 0.409366,0.441865 0.59375,0.6875 0.184384,0.245635 0.355408,0.507743 0.5,0.78125 0.14012,0.265048 0.276135,0.524729 0.375,0.8125 0.01041,0.03078 0.02133,0.06274 0.03125,0.09375 0.09046,0.278085 0.1388,0.579404 0.1875,0.875 C 89.95865,11.3493 90,11.665279 90,12 l 0,2 0,68 0,2 c 0,3.324 -2.676,6 -6,6 l -72,0 z" />
  </g>
  <g
     style="display:none"
     id="layer5">
    <rect
       style="opacity:0.1;fill:url(#linearGradient3613-334);fill-opacity:1;fill-rule:nonzero;stroke:#00ffff;stroke-width:0.5;stroke-linecap:round;stroke-linejoin:miter;stroke-miterlimit:4;stroke-opacity:1;stroke-dasharray:none;stroke-dashoffset:0;filter:url(#filter3794)"
       id="rect3171"
       clip-path="url(#clipPath3613)"
       y="15"
       x="15"
       ry="12"
       rx="12"
       height="66"
       width="66" />
  </g>
  <g
     style="display:inline"
     id="layer4">
    <path
       style="color:#000000;fill:url(#linearGradient3728-847);fill-opacity:1;fill-rule:nonzero;stroke:none;stroke-width:0.30000001;marker:none;visibility:visible;display:inline;overflow:visible;enable-background:accumulate"
       id="path3715"
       transform="matrix(1.15625,0,0,1.15625,-7.5,-7.5)"
       d="m 80,48 a 32,32 0 1 1 -64,0 32,32 0 1 1 64,0 z" />
    <path
       style="color:#000000;fill:url(#linearGradient3736-585);fill-opacity:1;fill-rule:nonzero;stroke:none;stroke-width:0.30000001;marker:none;visibility:visible;display:inline;overflow:visible;enable-background:accumulate"
       id="path3717"
       inkscape:connector-curvature="0"
       d="M 48,11 C 27.565464,11 11,27.565464 11,48 11,68.434536 27.565464,85 48,85 68.43454,85 85,68.434536 85,48 85,27.565464 68.43454,11 48,11 z m 0,3 C 67.32997,14 83,29.670034 83,49 83,68.329966 67.32997,84 48,84 28.670034,84 13,68.329966 13,49 13,29.670034 28.670034,14 48,14 z" />
    <path
       style="color:#000000;fill:url(#linearGradient3705-993);fill-opacity:1;fill-rule:nonzero;stroke:none;stroke-width:0.30000001;marker:none;visibility:visible;display:inline;overflow:visible;enable-background:accumulate"
       id="path3696"
       transform="translate(0,3)"
       d="m 73,40 a 25,25 0 1 1 -50,0 25,25 0 1 1 50,0 z" />
    <path
       style="color:#000000;fill:url(#linearGradient3713-737);fill-opacity:1;fill-rule:nonzero;stroke:none;stroke-width:0.30000001;marker:none;visibility:visible;display:inline;overflow:visible;enable-background:accumulate"
       id="path3690"
       inkscape:connector-curvature="0"
       d="M 48,18 C 34.192881,18 23,29.192881 23,43 23,56.807119 34.192881,68 48,68 61.807119,68 73,56.807119 73,43 73,29.192881 61.807119,18 48,18 z m 0,3 C 60.702549,21 71,31.297451 71,44 71,56.702549 60.702549,67 48,67 35.297451,67 25,56.702549 25,44 25,31.297451 35.297451,21 48,21 z" />
    <path
       style="color:#000000;fill:url(#linearGradient3682-703);fill-opacity:1;fill-rule:nonzero;stroke:none;stroke-width:0.30000001;marker:none;visibility:visible;display:inline;overflow:visible;enable-background:accumulate"
       id="path3661"
       d="m 63,40 a 15,15 0 1 1 -30,0 15,15 0 1 1 30,0 z" />
    <path
       style="color:#000000;fill:url(#linearGradient3674-740);fill-opacity:1;fill-rule:nonzero;stroke:none;stroke-width:0.30000001;marker:none;visibility:visible;display:inline;overflow:visible;enable-background:accumulate"
       id="path3663"
       inkscape:connector-curvature="0"
       d="m 48,25 c -8.284271,0 -15,6.715729 -15,15 0,8.284271 6.715729,15 15,15 8.284271,0 15,-6.715729 15,-15 0,-8.284271 -6.715729,-15 -15,-15 z m 0,3 c 7.179702,0 13,5.820298 13,13 0,7.179702 -5.820298,13 -13,13 -7.179702,0 -13,-5.820298 -13,-13 0,-7.179702 5.820298,-13 13,-13 z" />
  </g>
  <g
     style="display:inline"
     id="layer7">
    <path
       style="color:#000000;fill:url(#radialGradient3747-725);fill-opacity:1;fill-rule:nonzero;stroke:none;stroke-width:0.30000001;marker:none;visibility:visible;display:inline;overflow:visible;enable-background:accumulate"
       id="path3739"
       d="m 56,40 a 8,8 0 1 1 -16,0 8,8 0 1 1 16,0 z" />
    <path
       style="color:#000000;fill:url(#radialGradient3761-342);fill-opacity:1;fill-rule:nonzero;stroke:none;stroke-width:0.30000001;marker:none;visibility:visible;display:inline;overflow:visible;enable-background:accumulate"
       id="path3751"
       transform="matrix(0,0.5,-0.75,0,78,13)"
       d="m 56,40 a 8,8 0 1 1 -16,0 8,8 0 1 1 16,0 z" />
    <path
       style="color:#000000;fill:#00061e;fill-opacity:1;fill-rule:nonzero;stroke:none;stroke-width:0.30000001;marker:none;visibility:visible;display:inline;overflow:visible;enable-background:accumulate"
       id="path3763"
       inkscape:connector-curvature="0"
       d="m 48,32 c -4.418278,0 -8,3.581722 -8,8 0,4.418278 3.581722,8 8,8 4.418278,0 8,-3.581722 8,-8 0,-4.418278 -3.581722,-8 -8,-8 z m 0,1 c 3.865993,0 7,3.134007 7,7 0,3.865993 -3.134007,7 -7,7 -3.865993,0 -7,-3.134007 -7,-7 0,-3.865993 3.134007,-7 7,-7 z" />
    <path
       style="fill:url(#linearGradient3781-460);fill-opacity:1;stroke:none"
       id="path3768"
       inkscape:connector-curvature="0"
       d="m 44,83 8,0 c 2.259644,0 6,-22.981159 6,-28 0,-5 -6.345446,-6 -10,-6 -3.654554,0 -10,1 -10,6 0,6 3.815995,28 6,28 z" />
    <path
       style="color:#000000;fill:url(#radialGradient3789-506);fill-opacity:1;fill-rule:nonzero;stroke:none;stroke-width:0.30000001;marker:none;visibility:visible;display:inline;overflow:visible;enable-background:accumulate"
       id="path3771"
       inkscape:connector-curvature="0"
       d="m 57,54.027689 c 0,2.224431 -4.029437,4.027688 -9,4.027688 -4.970563,0 -9,-1.803257 -9,-4.027688 C 39,51.803257 43.029437,50 48,50 c 4.970563,0 9,1.803257 9,4.027689 z" />
    <path
       style="opacity:0.4;color:#000000;fill:url(#linearGradient3822-227);fill-opacity:1;fill-rule:nonzero;stroke:none;stroke-width:0.30000001;marker:none;visibility:visible;display:inline;overflow:visible;enable-background:accumulate"
       id="path3812"
       inkscape:connector-curvature="0"
       d="m 53,52.227137 c 0,1.107284 -2.238576,2.004915 -5,2.004915 -2.761424,0 -5,-0.897631 -5,-2.004915 0,-1.107284 2.238576,-2.004915 5,-2.004915 2.761424,0 5,0.897631 5,2.004915 z" />
    <path
       style="opacity:0.6;color:#000000;fill:url(#linearGradient3862-168);fill-opacity:1;fill-rule:nonzero;stroke:none;stroke-width:0.30000001;marker:none;visibility:visible;display:inline;overflow:visible;enable-background:accumulate"
       id="path3845"
       inkscape:connector-curvature="0"
       d="M 39.0625,53.53125 C 39.01651,53.696234 39,53.860691 39,54.03125 c 0,2.224431 4.029437,4.03125 9,4.03125 4.970563,0 9,-1.806819 9,-4.03125 0,-0.170559 -0.01651,-0.335016 -0.0625,-0.5 -0.553773,1.986735 -4.348056,3.53125 -8.9375,3.53125 -4.589444,0 -8.383727,-1.544515 -8.9375,-3.53125 z" />
    <path
       style="fill:url(#linearGradient3879-672);fill-opacity:1;stroke:none"
       id="path3866"
       inkscape:connector-curvature="0"
       d="M 41.09375,59.59375 C 40.561946,59.944042 40.2676,60.622318 40.375,61.25 c 0,5.653938 3,20 3,20 0.115247,0.771532 0.844915,1.402976 1.625,1.40625 l 6,0 c 0.780085,-0.0033 1.509753,-0.634718 1.625,-1.40625 0,0 3,-13.853085 3,-20 0.09479,-0.61822 -0.19758,-1.279222 -0.71875,-1.625 -1.650936,0.883725 -4.131019,1.4375 -6.90625,1.4375 -2.782135,0 -5.255354,-0.581224 -6.90625,-1.46875 z" />
    <path
       style="opacity:0.6;color:#000000;fill:url(#radialGradient3889-716);fill-opacity:1;fill-rule:nonzero;stroke:none;stroke-width:0.30000001;marker:none;visibility:visible;display:inline;overflow:visible;enable-background:accumulate"
       id="path3881"
       transform="matrix(1.25,0,0,1.25,-12,-21.25)"
       d="m 56,83 a 8,2 0 1 1 -16,0 8,2 0 1 1 16,0 z" />
  </g>
</svg>
