<?xml version="1.0" encoding="UTF-8" standalone="no"?>
<!-- Created with Inkscape (http://www.inkscape.org/) -->

<svg
   xmlns:dc="http://purl.org/dc/elements/1.1/"
   xmlns:cc="http://creativecommons.org/ns#"
   xmlns:rdf="http://www.w3.org/1999/02/22-rdf-syntax-ns#"
   xmlns:svg="http://www.w3.org/2000/svg"
   xmlns="http://www.w3.org/2000/svg"
   xmlns:sodipodi="http://sodipodi.sourceforge.net/DTD/sodipodi-0.dtd"
   xmlns:inkscape="http://www.inkscape.org/namespaces/inkscape"
   width="256"
   height="256"
   id="svg3367"
   version="1.1"
   inkscape:version="0.48.4 r9939"
   sodipodi:docname="update-downloading-06.svg">
  <defs
     id="defs3369" />
  <sodipodi:namedview
     id="base"
     pagecolor="#ffffff"
     bordercolor="#666666"
     borderopacity="1.0"
     inkscape:pageopacity="0.0"
     inkscape:pageshadow="2"
     inkscape:zoom="0.98994949"
     inkscape:cx="209.09231"
     inkscape:cy="54.321899"
     inkscape:document-units="px"
     inkscape:current-layer="layer1"
     showgrid="false"
     fit-margin-top="0"
     fit-margin-left="0"
     fit-margin-right="0"
     fit-margin-bottom="0"
     inkscape:window-width="1366"
     inkscape:window-height="709"
     inkscape:window-x="0"
     inkscape:window-y="0"
     inkscape:window-maximized="1" />
  <metadata
     id="metadata3372">
    <rdf:RDF>
      <cc:Work
         rdf:about="">
        <dc:format>image/svg+xml</dc:format>
        <dc:type
           rdf:resource="http://purl.org/dc/dcmitype/StillImage" />
        <dc:title></dc:title>
      </cc:Work>
    </rdf:RDF>
  </metadata>
  <g
     inkscape:label="Layer 1"
     inkscape:groupmode="layer"
     id="layer1"
     transform="translate(200.52955,-90.742631)">
    <path
       style="fill:#1a1a1a;stroke:#1a1a1a;stroke-width:15.82702446;stroke-linecap:round;stroke-linejoin:round;stroke-miterlimit:4"
       inkscape:transform-center-x="4.7974447"
       inkscape:transform-center-y="6.075387"
       d="m -131.45113,301.27493 30.78518,-1.75143 30.785202,-1.75145 -30.067206,19.63083 1.756407,35.88457 -16.629763,-26.00633 z"
       id="path8161-2-4"
       inkscape:connector-curvature="0"
       sodipodi:nodetypes="ccccccc" />
    <path
       sodipodi:type="arc"
       style="fill:none;stroke:#1a1a1a;stroke-width:5.31496048;stroke-linecap:round;stroke-miterlimit:4;stroke-dasharray:none;marker-start:none;marker-end:none"
       id="path7439-40-4-3"
       sodipodi:cx="230.16325"
       sodipodi:cy="364.70084"
       sodipodi:rx="35.001785"
       sodipodi:ry="35.001785"
       d="m 205.41325,389.45084 a 35.001785,35.001785 0 0 1 24.75,-59.75179"
       sodipodi:start="2.3561945"
       sodipodi:end="4.712389"
       sodipodi:open="true"
       transform="matrix(-2.9127529,-0.61912474,0.61912474,-2.9127529,372.42393,1423.302)" />
    <path
       transform="matrix(2.9127529,0.61912474,-0.61912474,2.9127529,-516.80277,-986.26408)"
       sodipodi:type="arc"
       style="fill:none;stroke:#1a1a1a;stroke-width:5.31496048;stroke-linecap:round;stroke-linejoin:round;stroke-miterlimit:4;stroke-dasharray:none;marker-end:none"
       id="path7439-4-39-8-9"
       sodipodi:cx="230.16325"
       sodipodi:cy="364.70084"
       sodipodi:rx="35.001785"
       sodipodi:ry="35.001785"
       d="m 205.41325,389.45084 a 35.001785,35.001785 0 0 1 24.75,-59.75179"
       sodipodi:start="2.3561945"
       sodipodi:end="4.712389"
       sodipodi:open="true" />
    <path
       style="fill:#1a1a1a;stroke:#1a1a1a;stroke-width:15.82702446;stroke-linecap:round;stroke-linejoin:round;stroke-miterlimit:4"
       inkscape:transform-center-x="-4.9317279"
       inkscape:transform-center-y="-5.6881386"
       d="m -12.866122,135.63582 -30.76031,2.14458 -30.760317,2.14456 29.813981,-20.01332 -2.214726,-35.859206 16.960734,25.791766 z"
       id="path8161-2-5-0"
       inkscape:connector-curvature="0"
       sodipodi:nodetypes="ccccccc" />
    <path
       style="fill:#666666"
       d="m -45.289423,77.094356 c 0.654422,0.216845 1.920322,0.888588 2.812893,1.493498 2.078125,1.408371 35.1510225,51.603436 36.2700326,55.047406 0.9332302,2.87219 -1.3066734,7.908 -3.8909236,8.74768 -0.903781,0.29363 -15.772925,1.50875 -33.042599,2.70024 -33.439658,2.30706 -36.208171,2.07646 -37.908784,-3.15753 -1.328887,-4.08987 1.102413,-7.16184 10.733145,-13.5615 l 8.81285,-5.85617 -4.593909,-0.44725 c -11.761924,-1.14509 -20.14352,0.0838 -36.147712,5.29979 -13.90976,4.53333 -16.10671,5.52119 -23.16871,10.4171 -4.291,2.97485 -10.14151,7.58304 -13.00117,10.24041 -21.36509,19.85387 -32.9107,50.69043 -30.07748,80.33227 0.8745,9.14904 7.54768,30.29135 11.86343,37.58624 4.17918,7.06405 4.80608,9.24901 3.4937,12.17673 -1.0976,2.44861 -5.80612,4.69912 -8.33887,3.98568 -6.86064,-1.93254 -19.36374,-30.94221 -21.37619,-49.597 -5.00325,-46.37842 16.74046,-88.9243 57.17494,-111.87416 18.18972,-10.32414 44.006088,-15.39887 65.255844,-12.82736 3.86881,0.46817 7.18516,0.80219 7.369653,0.74224 0.184529,-0.0599 0.214317,-2.10099 0.06625,-4.53562 -1.069345,-17.581635 -1.040455,-21.028143 0.194904,-23.25434 1.383292,-2.492788 5.278108,-4.39293 7.498709,-3.658355 l 0,0 z"
       id="path3002"
       inkscape:connector-curvature="0" />
  </g>
</svg>
