<?xml version="1.0" encoding="UTF-8" standalone="no"?>
<!-- Created with Inkscape (http://www.inkscape.org/) -->

<svg
   xmlns:dc="http://purl.org/dc/elements/1.1/"
   xmlns:cc="http://creativecommons.org/ns#"
   xmlns:rdf="http://www.w3.org/1999/02/22-rdf-syntax-ns#"
   xmlns:svg="http://www.w3.org/2000/svg"
   xmlns="http://www.w3.org/2000/svg"
   xmlns:sodipodi="http://sodipodi.sourceforge.net/DTD/sodipodi-0.dtd"
   xmlns:inkscape="http://www.inkscape.org/namespaces/inkscape"
   width="256"
   height="256"
   id="svg3367"
   version="1.1"
   inkscape:version="0.48.4 r9939"
   sodipodi:docname="update-downloading-12.svg">
  <defs
     id="defs3369" />
  <sodipodi:namedview
     id="base"
     pagecolor="#ffffff"
     bordercolor="#666666"
     borderopacity="1.0"
     inkscape:pageopacity="0.0"
     inkscape:pageshadow="2"
     inkscape:zoom="0.98994949"
     inkscape:cx="209.09231"
     inkscape:cy="54.321899"
     inkscape:document-units="px"
     inkscape:current-layer="layer1"
     showgrid="false"
     fit-margin-top="0"
     fit-margin-left="0"
     fit-margin-right="0"
     fit-margin-bottom="0"
     inkscape:window-width="1366"
     inkscape:window-height="709"
     inkscape:window-x="0"
     inkscape:window-y="0"
     inkscape:window-maximized="1" />
  <metadata
     id="metadata3372">
    <rdf:RDF>
      <cc:Work
         rdf:about="">
        <dc:format>image/svg+xml</dc:format>
        <dc:type
           rdf:resource="http://purl.org/dc/dcmitype/StillImage" />
        <dc:title></dc:title>
      </cc:Work>
    </rdf:RDF>
  </metadata>
  <g
     inkscape:label="Layer 1"
     inkscape:groupmode="layer"
     id="layer1"
     transform="translate(200.52955,-90.742631)">
    <path
       style="fill:#1a1a1a;stroke:#1a1a1a;stroke-width:15.82702446;stroke-linecap:round;stroke-linejoin:round;stroke-miterlimit:4"
       inkscape:transform-center-x="-10.721621"
       inkscape:transform-center-y="-2.1216378"
       d="m -41.537679,121.7296 -28.737235,11.17887 -28.737238,11.17888 22.52936,-27.96131 -12.759391,-33.585499 23.852244,19.594609 z"
       id="path8161-2-4"
       inkscape:connector-curvature="0"
       sodipodi:nodetypes="ccccccc" />
    <path
       sodipodi:type="arc"
       style="fill:none;stroke:#1a1a1a;stroke-width:5.31496048;stroke-linecap:round;stroke-miterlimit:4;stroke-dasharray:none;marker-start:none;marker-end:none"
       id="path7439-40-4-3"
       sodipodi:cx="230.16325"
       sodipodi:cy="364.70084"
       sodipodi:rx="35.001785"
       sodipodi:ry="35.001785"
       d="m 205.41325,389.45084 a 35.001785,35.001785 0 0 1 24.75,-59.75179"
       sodipodi:start="2.3561945"
       sodipodi:end="4.712389"
       sodipodi:open="true"
       transform="matrix(2.9615127,-0.31126747,0.31126747,2.9615127,-867.4768,-789.67558)" />
    <path
       transform="matrix(-2.9615127,0.31126747,-0.31126747,-2.9615127,722.82498,1227.1718)"
       sodipodi:type="arc"
       style="fill:none;stroke:#1a1a1a;stroke-width:5.31496048;stroke-linecap:round;stroke-linejoin:round;stroke-miterlimit:4;stroke-dasharray:none;marker-end:none"
       id="path7439-4-39-8-9"
       sodipodi:cx="230.16325"
       sodipodi:cy="364.70084"
       sodipodi:rx="35.001785"
       sodipodi:ry="35.001785"
       d="m 205.41325,389.45084 a 35.001785,35.001785 0 0 1 24.75,-59.75179"
       sodipodi:start="2.3561945"
       sodipodi:end="4.712389"
       sodipodi:open="true" />
    <path
       style="fill:#1a1a1a;stroke:#1a1a1a;stroke-width:15.82702446;stroke-linecap:round;stroke-linejoin:round;stroke-miterlimit:4"
       inkscape:transform-center-x="10.902689"
       inkscape:transform-center-y="1.6925881"
       d="m -103.13343,315.90655 28.592079,-11.54508 28.592103,-11.54505 -22.170329,28.24682 13.187432,33.41974 -24.100713,-19.28827 z"
       id="path8161-2-5-0"
       inkscape:connector-curvature="0"
       sodipodi:nodetypes="ccccccc" />
    <path
       style="fill:#666666"
       d="m -54.206726,361.56344 c -0.689418,-0.004 -2.100933,-0.25168 -3.136739,-0.55117 -2.411627,-0.69727 -49.376955,-38.21553 -51.505435,-41.14514 -1.7751,-2.44323 -1.20099,-7.92474 0.99731,-9.5219 0.7688,-0.55854 14.534706,-6.30901 30.590952,-12.7788 31.09009,-12.52757 33.794359,-13.16377 37.029122,-8.71147 2.52769,3.47904 1.164663,7.15198 -6.017081,16.21448 l -6.571869,8.29286 4.50728,-0.99423 c 11.540098,-2.54559 19.131726,-6.30439 32.740788,-16.21066 11.8280885,-8.6098 13.6122546,-10.22822 18.8156975,-17.06677 3.1616905,-4.15525 7.3018555,-10.3458 9.2003775,-13.7568 14.184229,-25.48433 15.63573,-58.37943 3.781357,-85.69498 -3.658921,-8.43102 -16.53882141,-26.47642 -22.8975866,-32.08063 -6.1575554,-5.42688 -7.4289734,-7.31117 -7.0855354,-10.50115 0.287224,-2.66794 4.0698587,-6.26332 6.699112,-6.36746 7.12203535,-0.28209 27.977674,23.44407 35.656281,40.56394 19.090091,42.56241 11.557991,89.74513 -19.8055997,124.06668 -14.1091083,15.43978 -37.0937523,28.24383 -58.0981153,32.36471 -3.824137,0.75028 -7.081389,1.45742 -7.238319,1.57144 -0.156978,0.11399 0.445415,2.06438 1.338577,4.3341 6.450027,16.39068 7.487584,19.67743 7.000622,22.17642 -0.54527,2.79825 -3.662285,5.80895 -6.001195,5.79653 l 0,0 z"
       id="path3002"
       inkscape:connector-curvature="0" />
  </g>
</svg>
