<?xml version="1.0" encoding="UTF-8" standalone="no"?>
<!-- Created with Inkscape (http://www.inkscape.org/) -->

<svg
   xmlns:dc="http://purl.org/dc/elements/1.1/"
   xmlns:cc="http://creativecommons.org/ns#"
   xmlns:rdf="http://www.w3.org/1999/02/22-rdf-syntax-ns#"
   xmlns:svg="http://www.w3.org/2000/svg"
   xmlns="http://www.w3.org/2000/svg"
   xmlns:sodipodi="http://sodipodi.sourceforge.net/DTD/sodipodi-0.dtd"
   xmlns:inkscape="http://www.inkscape.org/namespaces/inkscape"
   width="63.84153"
   height="64.009247"
   id="svg2"
   version="1.1"
   inkscape:version="0.48.5 r10040"
   sodipodi:docname="icons.svg">
  <defs
     id="defs4" />
  <sodipodi:namedview
     id="base"
     pagecolor="#ffffff"
     bordercolor="#666666"
     borderopacity="1.0"
     inkscape:pageopacity="0.0"
     inkscape:pageshadow="2"
     inkscape:zoom="5.6"
     inkscape:cx="110.94412"
     inkscape:cy="49.609476"
     inkscape:document-units="px"
     inkscape:current-layer="layer1"
     showgrid="false"
     inkscape:snap-global="true"
     inkscape:snap-object-midpoints="true"
     fit-margin-top="0"
     fit-margin-left="0"
     fit-margin-right="0"
     fit-margin-bottom="0"
     inkscape:window-width="1362"
     inkscape:window-height="729"
     inkscape:window-x="0"
     inkscape:window-y="18"
     inkscape:window-maximized="0" />
  <metadata
     id="metadata7">
    <rdf:RDF>
      <cc:Work
         rdf:about="">
        <dc:format>image/svg+xml</dc:format>
        <dc:type
           rdf:resource="http://purl.org/dc/dcmitype/StillImage" />
        <dc:title></dc:title>
      </cc:Work>
    </rdf:RDF>
  </metadata>
  <g
     inkscape:label="Layer 1"
     inkscape:groupmode="layer"
     id="layer1"
     transform="translate(-134.17312,-503.37951)">
    <path
       sodipodi:type="star"
       style="fill:#000000;fill-opacity:1;fill-rule:nonzero;stroke:#000000;stroke-width:6;stroke-linecap:round;stroke-linejoin:round;stroke-miterlimit:4;stroke-opacity:1;stroke-dasharray:none;stroke-dashoffset:0"
       id="path2985"
       sodipodi:sides="5"
       sodipodi:cx="274.28571"
       sodipodi:cy="360.93362"
       sodipodi:r1="144.22205"
       sodipodi:r2="48.06921"
       sodipodi:arg1="1.0471976"
       sodipodi:arg2="1.6755161"
       inkscape:flatsided="false"
       inkscape:rounded="0"
       inkscape:randomized="0"
       d="m 346.39672,485.83358 -77.13562,-77.09407 -91.47878,59.37198 49.4846,-97.18372 -84.73461,-68.65454 107.71879,17.03124 39.10992,-101.80283 17.08927,107.7096 108.90587,5.73694 -97.15705,49.53695 z"
       inkscape:transform-center-x="-0.0013852638"
       inkscape:transform-center-y="-2.1841253"
       transform="matrix(0.15782152,-0.01657339,0.01655658,0.15798174,107.14415,474.29219)"
       inkscape:export-filename="/home/tuomasjjrasanen/devel/puavo-wlan/mapper/icons/del_spot.png"
       inkscape:export-xdpi="90"
       inkscape:export-ydpi="90" />
    <path
       sodipodi:type="arc"
       style="fill:#d40000;fill-opacity:1;fill-rule:nonzero;stroke:#d40000;stroke-width:1;stroke-linecap:round;stroke-linejoin:round;stroke-miterlimit:4;stroke-opacity:1;stroke-dasharray:none;stroke-dashoffset:0"
       id="path3799"
       sodipodi:cx="-103.03571"
       sodipodi:cy="79.178574"
       sodipodi:rx="24.464285"
       sodipodi:ry="24.464285"
       d="m -78.571428,79.178574 a 24.464285,24.464285 0 1 1 -48.928572,0 24.464285,24.464285 0 1 1 48.928572,0 z"
       transform="matrix(0.56069945,0,0,0.56126867,241.78425,508.92912)"
       inkscape:export-filename="/home/tuomasjjrasanen/devel/puavo-wlan/mapper/icons/del_spot.png"
       inkscape:export-xdpi="90"
       inkscape:export-ydpi="90" />
    <path
       style="fill:#ffffff;fill-opacity:1;fill-rule:nonzero;stroke:#ffffff;stroke-width:0.81740952;stroke-linecap:round;stroke-linejoin:round;stroke-miterlimit:4;stroke-opacity:1;stroke-dasharray:none;stroke-dashoffset:0"
       d="m 190.03765,544.72694 c -0.223,-0.22322 -0.58953,-0.24116 -0.81239,-0.018 l -5.21738,5.22267 -5.19933,-5.20461 c -0.22287,-0.22309 -0.58938,-0.24129 -0.81239,-0.018 l -2.63577,2.63844 c -0.223,0.22323 -0.20481,0.59012 0.018,0.81322 l 5.19933,5.2046 -5.21737,5.22268 c -0.22288,0.22309 -0.20495,0.58999 0.018,0.81321 l 2.61771,2.62038 c 0.22301,0.22323 0.57148,0.2231 0.79434,0 l 5.21738,-5.22267 5.21738,5.22267 c 0.22286,0.2231 0.57133,0.22323 0.79434,0 l 2.63576,-2.63845 c 0.22301,-0.22323 0.22288,-0.57205 0,-0.79514 l -5.21737,-5.22268 5.21737,-5.22268 c 0.22288,-0.22309 0.22301,-0.57191 0,-0.79514 l -2.6177,-2.62037 z"
       id="rect3819"
       inkscape:connector-curvature="0" />
    <path
       sodipodi:type="star"
       style="fill:#000000;fill-opacity:1;fill-rule:nonzero;stroke:#000000;stroke-width:6;stroke-linecap:round;stroke-linejoin:round;stroke-miterlimit:4;stroke-opacity:1;stroke-dasharray:none;stroke-dashoffset:0"
       id="path2985-0"
       sodipodi:sides="5"
       sodipodi:cx="274.28571"
       sodipodi:cy="360.93362"
       sodipodi:r1="144.22205"
       sodipodi:r2="48.06921"
       sodipodi:arg1="1.0471976"
       sodipodi:arg2="1.6755161"
       inkscape:flatsided="false"
       inkscape:rounded="0"
       inkscape:randomized="0"
       d="m 346.39672,485.83358 -77.13562,-77.09407 -91.47878,59.37198 49.4846,-97.18372 -84.73461,-68.65454 107.71879,17.03124 39.10992,-101.80283 17.08927,107.7096 108.90587,5.73694 -97.15705,49.53695 z"
       inkscape:transform-center-x="-0.0013852638"
       inkscape:transform-center-y="-2.1841253"
       transform="matrix(0.15782152,-0.01655658,0.01655658,0.15782152,265.29466,459.28295)"
       inkscape:export-filename="/home/tuomasjjrasanen/devel/puavo-wlan/mapper/icons/add_spot.png"
       inkscape:export-xdpi="90"
       inkscape:export-ydpi="90" />
    <path
       style="fill:#00d400;fill-opacity:1;fill-rule:nonzero;stroke:#00d400;stroke-width:1.09730828000000002;stroke-linecap:round;stroke-linejoin:round;stroke-miterlimit:4;stroke-opacity:1;stroke-dasharray:none;stroke-dashoffset:0"
       d="m 337.94417,522.90325 c -0.42333,0 -0.78869,0.36511 -0.78869,0.78869 l 0,9.49858 -9.49858,0 c -0.42358,0 -0.78869,0.36536 -0.78869,0.78869 l 0,6.68672 c 0,0.42333 0.36511,0.7544 0.78869,0.7544 l 9.49858,0 0,9.53287 c 0,0.42358 0.36536,0.7544 0.78869,0.7544 l 6.68672,0 c 0.42333,0 0.7544,-0.33082 0.7544,-0.7544 l 0,-9.53287 9.53287,0 c 0.42358,0 0.7544,-0.33107 0.7544,-0.7544 l 0,-6.68672 c 0,-0.42333 -0.33082,-0.78869 -0.7544,-0.78869 l -9.53287,0 0,-9.49858 c 0,-0.42358 -0.33107,-0.78869 -0.7544,-0.78869 l -6.68672,0 z"
       id="rect3008-8"
       inkscape:connector-curvature="0"
       inkscape:export-filename="/home/tuomasjjrasanen/devel/puavo-wlan/mapper/icons/add_spot.png"
       inkscape:export-xdpi="90"
       inkscape:export-ydpi="90" />
  </g>
</svg>
