<?xml version="1.0" encoding="UTF-8" standalone="no"?>
<!-- Created with Inkscape (http://www.inkscape.org/) -->

<svg
   xmlns:dc="http://purl.org/dc/elements/1.1/"
   xmlns:cc="http://creativecommons.org/ns#"
   xmlns:rdf="http://www.w3.org/1999/02/22-rdf-syntax-ns#"
   xmlns:svg="http://www.w3.org/2000/svg"
   xmlns="http://www.w3.org/2000/svg"
   xmlns:xlink="http://www.w3.org/1999/xlink"
   xmlns:sodipodi="http://sodipodi.sourceforge.net/DTD/sodipodi-0.dtd"
   xmlns:inkscape="http://www.inkscape.org/namespaces/inkscape"
   width="29.37027mm"
   height="30.032377mm"
   viewBox="0 0 29.37027 30.032377"
   version="1.1"
   id="svg2848"
   inkscape:version="0.92.4 (5da689c313, 2019-01-14)"
   sodipodi:docname="accessories.svg">
  <defs
     id="defs2842">
    <linearGradient
       gradientUnits="userSpaceOnUse"
       gradientTransform="matrix(0.27953278,0,0,0.23291331,-63.399674,-22.056526)"
       y2="53.978001"
       y1="41"
       x2="59.998001"
       x1="47"
       id="a-6">
      <stop
         id="stop1097"
         offset="0" />
      <stop
         id="stop1099"
         offset="1"
         stop-opacity="0"
         stop-color="#242424" />
    </linearGradient>
    <linearGradient
       gradientUnits="userSpaceOnUse"
       y2="28.742001"
       x2="44.062"
       y1="57"
       x1="44.062"
       id="b-8"
       xlink:href="#a-3"
       gradientTransform="matrix(0.95993945,0,0,1,98.11477,14.191396)" />
    <linearGradient
       id="a-3">
      <stop
         id="stop995"
         offset="0" />
      <stop
         id="stop997"
         stop-opacity="0"
         offset="1" />
    </linearGradient>
  </defs>
  <sodipodi:namedview
     id="base"
     pagecolor="#ffffff"
     bordercolor="#666666"
     borderopacity="1.0"
     inkscape:pageopacity="0.0"
     inkscape:pageshadow="2"
     inkscape:zoom="0.35"
     inkscape:cx="-235.9257"
     inkscape:cy="-274.67447"
     inkscape:document-units="mm"
     inkscape:current-layer="layer1"
     showgrid="false"
     fit-margin-top="0"
     fit-margin-left="0"
     fit-margin-right="0"
     fit-margin-bottom="0"
     inkscape:window-width="960"
     inkscape:window-height="1003"
     inkscape:window-x="960"
     inkscape:window-y="0"
     inkscape:window-maximized="0" />
  <metadata
     id="metadata2845">
    <rdf:RDF>
      <cc:Work
         rdf:about="">
        <dc:format>image/svg+xml</dc:format>
        <dc:type
           rdf:resource="http://purl.org/dc/dcmitype/StillImage" />
        <dc:title></dc:title>
      </cc:Work>
    </rdf:RDF>
  </metadata>
  <g
     inkscape:label="Taso 1"
     inkscape:groupmode="layer"
     id="layer1"
     transform="translate(-29.160103,-46.126669)">
    <g
       id="g2838"
       transform="translate(20.165242,25.881804)">
      <g
         style="paint-order:stroke markers fill"
         transform="matrix(1.0000197,0,0,1.0000197,7.4078332,-261.41468)"
         id="g922">
        <path
           style="fill:#eeeeee"
           inkscape:connector-curvature="0"
           d="m 1.587,288.533 v 6.35 c 0,0.293 0.237,0.53 0.53,0.53 h 6.35 v -6.88 z"
           id="path906" />
        <path
           style="fill:#ffffff"
           inkscape:connector-curvature="0"
           d="m 2.117,281.654 a 0.528,0.528 0 0 0 -0.53,0.53 v 6.35 h 6.88 v -6.88 z"
           id="path908" />
        <path
           style="fill:#d96b5f"
           inkscape:connector-curvature="0"
           d="m 8.467,281.654 v 13.759 h 6.35 c 0.293,0 0.529,-0.237 0.529,-0.53 v -12.7 a 0.528,0.528 0 0 0 -0.53,-0.529 h -6.35 z"
           id="path910" />
        <rect
           style="fill:#787878"
           width="3.175"
           height="0.52899998"
           x="3.704"
           y="285.09399"
           ry="0"
           id="rect912" />
        <rect
           style="fill:#787878"
           ry="0"
           y="-5.5560002"
           x="283.771"
           height="0.52899998"
           width="3.175"
           transform="rotate(90)"
           id="rect914" />
        <rect
           style="fill:#ffffff"
           ry="0"
           y="287.47501"
           x="10.319"
           height="0.52899998"
           width="3.175"
           id="rect916" />
        <rect
           style="fill:#ffffff"
           width="3.175"
           height="0.52899998"
           x="10.319"
           y="289.06299"
           ry="0"
           id="rect918" />
        <rect
           style="fill:#787878"
           ry="0"
           y="291.70801"
           x="3.704"
           height="0.52899998"
           width="3.175"
           id="rect920" />
      </g>
      <g
         transform="matrix(1.0000197,0,0,1.0000197,23.018422,18.658239)"
         id="g961">
        <path
           style="fill:#32a3d7;paint-order:fill markers stroke"
           inkscape:connector-curvature="0"
           d="m 2.381,1.588 h 12.171 c 0.147,0 0.265,0.118 0.265,0.264 v 13.23 a 0.264,0.264 0 0 1 -0.265,0.264 H 2.382 A 0.264,0.264 0 0 1 2.117,15.081 V 1.852 c 0,-0.146 0.118,-0.264 0.264,-0.264 z"
           id="path941" />
        <path
           style="fill:#ffffff;fill-opacity:0.3;fill-rule:evenodd"
           inkscape:connector-curvature="0"
           d="M 3.704,14.288 V 13.229 H 2.91 V 12.965 H 3.704 V 11.906 H 2.91 V 11.642 H 3.704 V 10.583 H 2.91 V 10.319 H 3.704 V 9.26 H 2.91 V 8.996 H 3.704 V 7.938 H 2.91 V 7.673 H 3.704 V 6.615 H 2.91 V 6.35 H 3.704 V 5.292 H 2.91 V 5.027 H 3.704 V 3.97 H 2.91 V 3.705 H 3.704 V 2.646 H 2.91 V 2.38 H 3.704 V 1.587 H 3.969 V 2.38 h 9.79 v 0.265 h -9.79 v 1.058 h 9.79 v 0.265 h -9.79 v 1.058 h 9.79 V 5.291 H 3.969 V 6.35 h 9.79 v 0.265 h -9.79 v 1.058 h 9.79 v 0.265 h -9.79 v 1.058 h 9.79 V 9.26 h -9.79 v 1.059 h 9.79 v 0.264 h -9.79 v 1.059 h 9.79 v 0.264 h -9.79 v 1.059 h 9.79 v 0.264 h -9.79 v 1.059 h 9.79 v 0.264 h -9.79 v 0.794 H 3.704 V 14.552 H 2.91 v -0.264 z"
           id="path943" />
        <path
           style="fill:#ffffff;fill-rule:evenodd;stroke:#32a3d7;stroke-width:0.52899998;paint-order:stroke markers fill"
           inkscape:connector-curvature="0"
           d="m 12.17,10.529 c 0,0.388 -0.08,0.697 -0.24,0.928 -0.16,0.231 -0.407,0.38 -0.74,0.45 v -0.42 a 0.463,0.463 0 0 0 0.246,-0.334 h -0.245 v -1.146 h 0.98 z m -1.309,0 c 0,0.388 -0.08,0.697 -0.24,0.928 -0.161,0.231 -0.408,0.38 -0.74,0.45 v -0.42 a 0.537,0.537 0 0 0 0.177,-0.137 0.422,0.422 0 0 0 0.068,-0.197 H 9.881 v -1.146 h 0.98 z M 4.762,5.019 V 3.97 H 6.746 V 6.278 H 6.25 A 0.933,0.933 0 0 0 6.746,6.95 V 7.794 C 6.074,7.656 5.575,7.354 5.25,6.889 4.925,6.424 4.762,5.801 4.762,5.021 Z m 2.651,0 V 3.97 H 9.397 V 6.278 H 8.9 A 0.848,0.848 0 0 0 9.037,6.674 C 9.105,6.766 9.225,6.858 9.396,6.95 V 7.794 C 8.723,7.656 8.224,7.354 7.899,6.889 7.574,6.424 7.412,5.801 7.412,5.021 Z"
           id="path945" />
        <path
           style="fill:#ffffff;fill-rule:evenodd;paint-order:stroke markers fill"
           inkscape:connector-curvature="0"
           d="m 12.17,10.529 c 0,0.388 -0.08,0.697 -0.24,0.928 -0.16,0.231 -0.407,0.38 -0.74,0.45 v -0.42 a 0.463,0.463 0 0 0 0.246,-0.334 h -0.245 v -1.146 h 0.98 z m -1.309,0 c 0,0.388 -0.08,0.697 -0.24,0.928 -0.161,0.231 -0.408,0.38 -0.74,0.45 v -0.42 a 0.537,0.537 0 0 0 0.177,-0.137 0.422,0.422 0 0 0 0.068,-0.197 H 9.881 v -1.146 h 0.98 z M 4.762,5.019 V 3.97 H 6.746 V 6.278 H 6.25 A 0.933,0.933 0 0 0 6.746,6.95 V 7.794 C 6.074,7.656 5.575,7.354 5.25,6.889 4.925,6.424 4.762,5.801 4.762,5.021 Z m 2.651,0 V 3.97 H 9.397 V 6.278 H 8.9 A 0.848,0.848 0 0 0 9.037,6.674 C 9.105,6.766 9.225,6.858 9.396,6.95 V 7.794 C 8.723,7.656 8.224,7.354 7.899,6.889 7.574,6.424 7.412,5.801 7.412,5.021 Z"
           id="path947" />
      </g>
      <g
         transform="matrix(0.94652661,0,0,1.1359815,7.9954797,33.612948)"
         id="g1125">
        <rect
           style="fill:#72787e"
           x="1.058"
           y="2.381"
           width="14.816"
           height="12.171"
           rx="1.372"
           ry="1.323"
           id="rect1104" />
        <rect
           style="fill:#ffffff;paint-order:stroke markers fill"
           x="5.2919998"
           y="8.9899998"
           width="4.2329998"
           height="0.52899998"
           ry="0.26499999"
           id="rect1106" />
        <path
           style="fill:#ffffff;paint-order:stroke markers fill"
           inkscape:connector-curvature="0"
           d="M 3.973,4.19 A 0.264,0.264 0 0 0 3.711,4.32 0.264,0.264 0 0 0 3.808,4.682 L 6.65,6.322 3.808,7.963 A 0.264,0.264 0 0 0 3.711,8.325 c 0.074,0.127 0.235,0.17 0.362,0.097 L 7.28,6.57 A 0.26,0.26 0 0 0 7.407,6.345 C 7.409,6.337 7.408,6.33 7.409,6.323 7.409,6.315 7.409,6.308 7.407,6.3 A 0.26,0.26 0 0 0 7.28,6.076 L 4.073,4.223 A 0.266,0.266 0 0 0 3.973,4.19 Z"
           id="path1108" />
        <path
           inkscape:connector-curvature="0"
           d="m 15.872,9.215 -5.337,5.337 h 4.767 c 0.316,0 0.57,-0.238 0.57,-0.535 z"
           id="path1110"
           style="opacity:0.15;fill:url(#a-6)" />
      </g>
      <g
         transform="matrix(1.0417529,0,0,1.0000197,22.929478,-245.14156)"
         id="g2623">
        <g
           transform="matrix(1,0,0,1.04,0,-11.541)"
           id="g2617">
          <rect
             style="fill:#8bc34a"
             transform="matrix(0,-1,-1,0,0,0)"
             ry="0.68000001"
             rx="0.70899999"
             y="-14.817"
             x="-295.14801"
             height="12.7"
             width="13.229"
             id="rect2613" />
          <path
             inkscape:connector-curvature="0"
             transform="matrix(0.26458,0,0,0.26458,0,280.067)"
             d="M 56,28.742 A 40,40 0 0 1 32.123,57 H 53.428 C 54.852,57 56,55.806 56,54.322 Z"
             id="path2615"
             style="opacity:0.15;fill:url(#b-8)" />
        </g>
        <rect
           style="opacity:0.35;paint-order:markers stroke fill"
           width="0.52899998"
           height="5.1589999"
           x="8.2019997"
           y="281.65399"
           ry="0"
           id="rect2619" />
        <path
           style="fill:#ffffff"
           inkscape:connector-curvature="0"
           d="m 8.467,286.417 a 1.06,1.06 0 0 0 -1.059,1.058 v 2.117 a 1.06,1.06 0 0 0 1.059,1.058 1.06,1.06 0 0 0 1.058,-1.058 v -2.117 a 1.06,1.06 0 0 0 -1.058,-1.058 z m 0,0.529 c 0.292,0 0.529,0.211 0.529,0.529 0,0.265 -0.237,0.53 -0.53,0.53 a 0.548,0.548 0 0 1 -0.529,-0.53 c 0,-0.318 0.238,-0.53 0.53,-0.53 z m 0,1.587 a 0.53,0.53 0 0 1 0.529,0.53 v 0.529 a 0.53,0.53 0 0 1 -1.059,0 v -0.53 a 0.53,0.53 0 0 1 0.53,-0.529 z"
           id="path2621" />
      </g>
    </g>
  </g>
</svg>
