<?xml version="1.0" encoding="UTF-8" standalone="no"?>
<!-- Created with Inkscape (http://www.inkscape.org/) -->

<svg
   xmlns:dc="http://purl.org/dc/elements/1.1/"
   xmlns:cc="http://creativecommons.org/ns#"
   xmlns:rdf="http://www.w3.org/1999/02/22-rdf-syntax-ns#"
   xmlns:svg="http://www.w3.org/2000/svg"
   xmlns="http://www.w3.org/2000/svg"
   xmlns:sodipodi="http://sodipodi.sourceforge.net/DTD/sodipodi-0.dtd"
   xmlns:inkscape="http://www.inkscape.org/namespaces/inkscape"
   width="29.10416mm"
   height="29.482145mm"
   viewBox="0 0 29.10416 29.482145"
   version="1.1"
   id="svg7180"
   inkscape:version="0.92.4 (5da689c313, 2019-01-14)"
   sodipodi:docname="audiovideo.svg">
  <defs
     id="defs7174">
    <clipPath
       id="a-7">
      <circle
         id="circle2252"
         style="fill:#d86eb0;stroke-width:0.491;stroke-opacity:0.03900003;paint-order:stroke markers fill"
         r="6.8790002"
         cy="288.53"
         cx="8.467" />
    </clipPath>
  </defs>
  <sodipodi:namedview
     id="base"
     pagecolor="#ffffff"
     bordercolor="#666666"
     borderopacity="1.0"
     inkscape:pageopacity="0.0"
     inkscape:pageshadow="2"
     inkscape:zoom="0.35"
     inkscape:cx="-707.85716"
     inkscape:cy="-587.14285"
     inkscape:document-units="mm"
     inkscape:current-layer="layer1"
     showgrid="false"
     fit-margin-top="0"
     fit-margin-left="0"
     fit-margin-right="0"
     fit-margin-bottom="0"
     inkscape:window-width="1920"
     inkscape:window-height="1003"
     inkscape:window-x="0"
     inkscape:window-y="0"
     inkscape:window-maximized="1" />
  <metadata
     id="metadata7177">
    <rdf:RDF>
      <cc:Work
         rdf:about="">
        <dc:format>image/svg+xml</dc:format>
        <dc:type
           rdf:resource="http://purl.org/dc/dcmitype/StillImage" />
        <dc:title></dc:title>
      </cc:Work>
    </rdf:RDF>
  </metadata>
  <g
     inkscape:label="Taso 1"
     inkscape:groupmode="layer"
     id="layer1"
     transform="translate(-154.0253,35.997025)">
    <g
       id="g2289"
       transform="matrix(1.0000197,0,0,1.0000197,152.80888,-37.319951)">
      <circle
         id="circle2257"
         style="fill:#d86eb0;paint-order:stroke markers fill"
         r="7.1436"
         cy="8.4665003"
         cx="8.4665003" />
      <rect
         id="rect2259"
         style="fill:#ffffff;paint-order:stroke markers fill"
         ry="1.587"
         rx="1.587"
         height="5.2919998"
         width="3.175"
         y="5.2909999"
         x="6.8790002" />
      <path
         id="path2261"
         style="fill:#ffffff;paint-order:stroke markers fill"
         d="m 6.218,8.863 a 0.132,0.132 0 0 0 -0.133,0.133 0.132,0.132 0 0 0 0.002,0.016 2.381,2.381 0 0 0 2.38,2.365 2.381,2.381 0 0 0 2.38,-2.368 0.132,0.132 0 0 0 0,-0.01 2.381,2.381 0 0 0 0,-0.003 0.132,0.132 0 0 1 0,-0.001 A 0.132,0.132 0 0 0 10.715,8.863 0.132,0.132 0 0 0 10.583,8.995 2.116,2.116 0 0 1 8.467,11.112 2.116,2.116 0 0 1 6.351,8.995 H 6.349 A 0.132,0.132 0 0 0 6.218,8.863 Z"
         inkscape:connector-curvature="0" />
      <rect
         id="rect2263"
         height="4.7617998"
         width="13.758"
         y="7.2368999"
         x="1.5880001"
         style="fill:none" />
      <g
         id="g2271"
         clip-path="url(#a-7)"
         transform="matrix(1.0385,0,0,1.0385,-0.32619,-291.29)"
         style="fill:none;stroke:#ffffff;stroke-width:0.127;stroke-opacity:0.93699999">
        <path
           id="path2265"
           d="m 1.4854,287.74 c 0.719,0.15538 1.3906,0.6252 1.9826,1.9807 0.674,1.544 1.623,2.229 2.772,2.283 1.48,0.07 2.673,-1.226 3.459,-2.385 1.602,-2.362 4.5188,-2.1357 5.8165,-1.2509"
           inkscape:connector-curvature="0"
           style="opacity:0.35" />
        <path
           id="path2267"
           d="m 1.4927,288.13 c 0.89388,-0.34988 2.0828,-0.42377 2.8723,0.82673 0.722,1.143 1.576,2.867 4.049,2.709 1.478,-0.095 2.956,-0.71 3.718,-2.15 0.52913,-0.93299 1.2601,-1.8714 2.2929,-2.1036 0.38219,-0.0816 0.65524,-0.0703 0.97604,0.0566"
           inkscape:connector-curvature="0"
           style="opacity:0.35" />
        <path
           id="path2269"
           d="m 1.7748,290.25 c 0.94712,-0.44412 2.7457,-0.95337 4.1972,-0.52987 1.297,0.379 2.937,1.847 6.056,1.504 0.824,-0.09 1.522,-0.563 2.183,-1.464 0.4785,-0.6525 0.75018,-1.0197 1.3056,-1.1669"
           inkscape:connector-curvature="0"
           style="opacity:0.35" />
      </g>
    </g>
    <g
       id="g2303"
       transform="matrix(1.0000197,0,0,1.0000197,167.31251,-317.19997)"
       style="paint-order:stroke markers fill">
      <circle
         id="circle2291"
         r="7.1436"
         cy="288.53"
         cx="8.4665003"
         style="fill:#e6756e" />
      <circle
         id="circle2293"
         r="3.704"
         cy="288.53"
         cx="8.467"
         style="fill:#dd5349" />
      <g
         id="g2301"
         style="fill:#ffffff">
        <ellipse
           id="ellipse2295"
           ry="1.587"
           rx="2.1170001"
           cy="288.53"
           cx="8.467" />
        <path
           id="path2297"
           d="m 10.054,283.771 h 0.529 v 4.762 h -0.529 z"
           inkscape:connector-curvature="0" />
        <path
           id="path2299"
           d="m 10.054,283.77 1.852,-0.528 v 1.058 l -1.852,0.53 z"
           inkscape:connector-curvature="0" />
      </g>
    </g>
    <g
       id="g2347"
       transform="matrix(1.0000197,0,0,1.144571,152.43827,-22.565199)"
       style="paint-order:stroke markers fill">
      <path
         id="path2339"
         d="M 1.587,2.91 H 15.345 V 14.023 H 1.587 Z"
         inkscape:connector-curvature="0"
         style="fill:#ffb32b" />
      <path
         id="path2341"
         d="m 1.587,2.91 13.759,8.732 V 2.91 Z"
         inkscape:connector-curvature="0"
         style="opacity:0.07999998" />
      <path
         id="path2343"
         d="M 15.346,5.292 1.588,14.022 H 15.346 Z"
         inkscape:connector-curvature="0"
         style="opacity:0.15;fill:#ffffff" />
      <path
         id="path2345"
         d="M 10.319,8.467 6.085,11.113 V 5.82 Z"
         inkscape:connector-curvature="0"
         style="fill:#ffffff" />
    </g>
    <g
       id="g2488"
       transform="matrix(0.2295042,0,0,0.25623115,80.63977,-145.59715)">
      <rect
         id="rect2462"
         ry="3"
         height="50"
         width="60"
         y="492.79999"
         x="386.57001"
         style="fill:#455a64" />
      <path
         id="path2464"
         d="m 445.571,530.798 h -58 v 9 c 0,1.108 0.892,2 2,2 h 54 c 1.108,0 2,-0.892 2,-2 z m -56,-37 c -1.108,0 -2,0.892 -2,2 v 33 h 58 v -33 c 0,-1.108 -0.892,-2 -2,-2 z"
         inkscape:connector-curvature="0"
         style="fill:#455a64" />
      <path
         id="path2466"
         d="m 391.57,538.8 v 2 h 1 v -2 z m 4,0 v 2 h 1 v -2 z m 4,0 v 2 h 1 v -2 z m 4,0 v 2 h 1 v -2 z m 4,0 v 2 h 1 v -2 z m 4,0 v 2 h 1 v -2 z m 4,0 v 2 h 1 v -2 z m 4,0 v 2 h 1 v -2 z m 4,0 v 2 h 1 v -2 z m 4,0 v 2 h 1 v -2 z m 4,0 v 2 h 1 v -2 z m 9,0 v 2 h 1 v -2 z m -51,1 v 1 h 1 v -1 z m 4,0 v 1 h 1 v -1 z m 4,0 v 1 h 1 v -1 z m 4,0 v 1 h 1 v -1 z m 4,0 v 1 h 1 v -1 z m 4,0 v 1 h 1 v -1 z m 4,0 v 1 h 1 v -1 z m 4,0 v 1 h 1 v -1 z m 4,0 v 1 h 1 v -1 z m 4,0 v 1 h 1 v -1 z m 4,0 v 1 h 1 v -1 z m 9,0 v 1 h 1 v -1 z m 4,0 v 1 h 1 v -1 z m -7,-5 h 1 v 6 h -1 z"
         inkscape:connector-curvature="0"
         style="fill:#b0bec5" />
      <path
         id="path2468"
         d="m 438.57,522.8 v 2 h 1 v -1 h 1 v -1 z m 3,0 v 1 h 1 v 1 h 1 v -2 z m -3,3 v 2 h 2 v -1 h -1 v -1 z m 4,0 v 1 h -1 v 1 h 2 v -2 z"
         inkscape:connector-curvature="0"
         style="fill:#eeeeee" />
      <path
         id="path2470"
         d="m 436.071,530.798 a 1.5,1.5 0 0 0 -1.5,1.5 c 0,0.828 1,3.5 1.5,3.5 0.5,0 1.5,-2.672 1.5,-3.5 a 1.5,1.5 0 0 0 -1.5,-1.5 z m 0,1 a 0.5,0.5 0 1 1 0,1 0.5,0.5 0 0 1 0,-1 z"
         inkscape:connector-curvature="0"
         style="fill:#ffd54f" />
      <path
         id="path2472"
         style="font-weight:400;font-family:sans-serif;text-indent:0;text-decoration:none;text-decoration-line:none;text-decoration-style:solid;text-decoration-color:#000000;text-transform:none;white-space:normal;overflow:visible;isolation:auto;mix-blend-mode:normal;fill:#eceff1;fill-rule:evenodd"
         overflow="visible"
         font-weight="400"
         d="m 390.558,521.798 a 1,1 0 0 0 -0.987,1 v 3.998 a 1,1 0 0 0 1.555,0.832 l 3,-2 a 1,1 0 0 0 0,-1.663 l -3,-2 a 1,1 0 0 0 -0.568,-0.167 z"
         inkscape:connector-curvature="0" />
      <rect
         id="rect2474"
         ry="0.926"
         height="2"
         width="30"
         y="523.79999"
         x="406.57001"
         style="fill:#eeeeee" />
      <rect
         id="rect2476"
         ry="1"
         height="2"
         width="10"
         y="523.79999"
         x="396.57001"
         style="fill:#42a5f5" />
      <circle
         id="ellipse2478"
         cy="524.79999"
         cx="406.57001"
         r="3"
         style="fill:#78909c" />
      <path
         id="path2480"
         d="m 434.57,540.8 1,-2 h 1 l 1,2 z"
         inkscape:connector-curvature="0"
         style="fill:#b0bec5;fill-rule:evenodd" />
      <path
         id="path2482"
         d="m 388.57,495.8 v 2 h 3 v -2 z m 5,0 v 2 h 4 v -2 z m 6,0 v 2 h 4 v -2 z m 6,0 v 2 h 4 v -2 z m 6,0 v 2 h 4 v -2 z m 6,0 v 2 h 4 v -2 z m 6,0 v 2 h 4 v -2 z m 6,0 v 2 h 4 v -2 z m 6,0 v 2 h 4 v -2 z m 6,0 v 2 h 3 v -2 z"
         inkscape:connector-curvature="0"
         style="fill:#263238" />
      <rect
         id="rect2484"
         ry="0"
         height="17.959999"
         width="30"
         y="500.84"
         x="401.57001"
         style="fill:#81d4fa" />
      <path
         id="path2486"
         d="m 391.57,500.84 h 6 v 17.96 h -6 z m 44,0 h 6 v 17.96 h -6 z"
         inkscape:connector-curvature="0"
         style="fill:#81d4fa" />
    </g>
  </g>
</svg>
