<?xml version="1.0" encoding="UTF-8" standalone="no"?>
<!-- Created with Inkscape (http://www.inkscape.org/) -->

<svg
   xmlns:dc="http://purl.org/dc/elements/1.1/"
   xmlns:cc="http://creativecommons.org/ns#"
   xmlns:rdf="http://www.w3.org/1999/02/22-rdf-syntax-ns#"
   xmlns:svg="http://www.w3.org/2000/svg"
   xmlns="http://www.w3.org/2000/svg"
   xmlns:sodipodi="http://sodipodi.sourceforge.net/DTD/sodipodi-0.dtd"
   xmlns:inkscape="http://www.inkscape.org/namespaces/inkscape"
   width="29.255222mm"
   height="30.008121mm"
   viewBox="0 0 29.255222 30.008121"
   version="1.1"
   id="svg5686"
   inkscape:version="0.92.4 (5da689c313, 2019-01-14)"
   sodipodi:docname="education.svg">
  <defs
     id="defs5680">
    <linearGradient
       gradientUnits="userSpaceOnUse"
       gradientTransform="matrix(1.9136,0,0,1.9136,-2481.8902,1283.1608)"
       y2="43.297001"
       y1="40.855999"
       x2="-23.084999"
       x1="-20.542"
       id="f">
      <stop
         id="stop1832"
         offset="0"
         stop-color="#a9a9a9" />
      <stop
         id="stop1834"
         offset="1"
         stop-opacity="0"
         stop-color="#a9a9a9" />
    </linearGradient>
    <linearGradient
       gradientUnits="userSpaceOnUse"
       gradientTransform="matrix(1.9136,0,0,1.9136,-2481.8902,1283.1608)"
       y2="22.645"
       y1="23.190001"
       x2="-43.234001"
       x1="-46.134998"
       id="j">
      <stop
         id="stop1837"
         offset="0"
         stop-color="#232323" />
      <stop
         id="stop1839"
         offset="1"
         stop-opacity="0"
         stop-color="#232323" />
    </linearGradient>
  </defs>
  <sodipodi:namedview
     id="base"
     pagecolor="#ffffff"
     bordercolor="#666666"
     borderopacity="1.0"
     inkscape:pageopacity="0.0"
     inkscape:pageshadow="2"
     inkscape:zoom="0.35"
     inkscape:cx="-707.57168"
     inkscape:cy="-80.434584"
     inkscape:document-units="mm"
     inkscape:current-layer="layer1"
     showgrid="false"
     fit-margin-top="0"
     fit-margin-left="0"
     fit-margin-right="0"
     fit-margin-bottom="0"
     inkscape:window-width="1920"
     inkscape:window-height="1003"
     inkscape:window-x="0"
     inkscape:window-y="0"
     inkscape:window-maximized="1" />
  <metadata
     id="metadata5683">
    <rdf:RDF>
      <cc:Work
         rdf:about="">
        <dc:format>image/svg+xml</dc:format>
        <dc:type
           rdf:resource="http://purl.org/dc/dcmitype/StillImage" />
        <dc:title></dc:title>
      </cc:Work>
    </rdf:RDF>
  </metadata>
  <g
     inkscape:label="Taso 1"
     inkscape:groupmode="layer"
     id="layer1"
     transform="translate(-153.94977,-97.543562)">
    <g
       id="g1815"
       transform="matrix(1.0000197,0,0,1.0000197,166.30956,112.56445)">
      <path
         id="path1803"
         d="m 9.7515,0.27579 c 3.9454,0 7.1436,3.1982 7.1436,7.1436 0,3.9454 -3.1982,7.1436 -7.1436,7.1436 -3.9454,0 -7.1436,-3.1982 -7.1436,-7.1436 0,-3.9454 3.1982,-7.1436 7.1436,-7.1436 z"
         inkscape:connector-curvature="0"
         style="fill:#e8e8e8;stroke-width:0.26458001" />
      <g
         id="g1805"
         transform="matrix(0.31059,0,0,0.31059,2.6079,0.27579)"
         style="stroke-width:0.85184997" />
      <g
         id="g1813"
         style="stroke-width:0.26458001">
        <path
           id="path1807"
           d="m 6.2757,4.0029 c -0.13697,0 -0.25127,0.14194 -0.25127,0.28015 v 4.6899 c 0,0.14567 0.16492,0.30695 0.31059,0.30695 h 2.3319 l -1.0883,2.1772 H 8.1998 L 9.2881,9.2799 h 0.15408 v 2.1772 h 0.61994 V 9.2799 h 0.16136 l 1.088,2.1772 h 0.62118 l -1.088,-2.1772 h 2.3232 c 0.14691,0 0.31059,-0.1616 0.31059,-0.30695 v -4.6899 c 0,-0.14691 -0.13356,-0.28015 -0.27891,-0.28015 z"
           inkscape:connector-curvature="0"
           style="fill:#e6a345" />
        <rect
           id="rect1809"
           ry="0.31059"
           height="4.0377002"
           width="6.2118001"
           y="4.6241002"
           x="6.6469002"
           style="fill:#43953b" />
        <path
           id="path1811"
           d="M 8.2887,5.267 C 8.13896,5.297009 8.204995,5.41089 8.193672,5.50649 8.177193,5.597049 8.074372,5.74798 8.107666,5.78087 8.070354,5.9363 8.046802,6.15228 7.988526,6.32534 7.930442,6.4752 7.886996,6.62589 7.845816,6.78085 7.804354,6.92338 7.771551,7.06904 7.744026,7.21472 7.798457,7.35679 7.699024,7.4412 7.71301,7.57827 7.84227,7.499557 7.799523,7.68317 7.702527,7.68694 7.907887,7.67991 7.858167,7.42038 7.864097,7.29181 7.951038,7.22552 7.949529,7.04921 7.999947,6.94131 7.902549,7.009051 8.061485,6.852055 8.033307,6.7982 8.080309,6.58055 8.339227,6.67157 8.496777,6.63133 8.573201,6.695787 8.549692,6.85849 8.654727,6.85753 8.592497,7.00416 8.726154,7.07941 8.744137,7.20719 8.736777,7.34387 8.816126,7.6259 8.989967,7.55341 9.012448,7.631353 8.898358,7.645507 8.870347,7.602815 8.905951,7.875305 9.190467,7.546838 9.012327,7.52114 8.952765,7.431609 8.931772,7.27861 8.904397,7.16048 8.811297,7.03471 8.852354,6.93293 8.777317,6.78165 8.698685,6.6296 8.914347,6.5788 8.735803,6.49489 8.558683,6.526636 8.746702,6.28056 8.597163,6.22472 8.626728,6.148448 8.453443,6.03749 8.576853,6.12239 8.512194,5.97609 8.528978,5.63852 8.338833,5.64513 8.342623,5.594827 8.444573,5.54729 8.368268,5.4966 8.293223,5.427816 8.377928,5.30163 8.288707,5.26704 Z m 0.52596,1.3097 c -0.012129,0.017977 0.0098,0.00325 0,0 z M 8.9645,7.56367 c -0.02881,0.00494 0.015732,0.023928 0,0 z M 7.9593,7.08079 c 0.037489,0.025213 0.012038,-0.037706 0,0 z m 0.3573,-1.761 c 0.042011,0.024398 -0.043017,0.021158 0,0 z M 8.304469,5.402898 c 0.033842,0.026071 -0.031512,0.020129 0,0 z m 1.082,0.09524 c -0.051615,0.025441 0.049633,0.035985 0,0 z m -1.2107,0.00971 c 0.017902,0.032283 -0.021381,0.016592 0,0 z m 1.0602,0.00789 c -0.098163,0.047946 -0.11526,0.12511 -0.031842,0.21098 0.00585,0.22314 0.0034,0.44964 0.044343,0.67029 -0.021372,0.1868 0.063979,0.36215 0.037187,0.54897 0.016623,0.1492 0.00731,0.24239 0.015303,0.37815 0.013076,0.10493 -0.16831,0.29437 -0.033187,0.34929 0.20434,-0.00211 0.44368,0.03506 0.61124,-0.018123 0.094156,-0.06578 0.28853,-0.011645 0.35547,-0.18926 0.10745,-0.014728 -0.04594,-0.20118 0.064,-0.10532 0.10876,0.060698 0.07436,-0.18168 0.11806,-0.16978 -0.12888,-0.054621 0.08974,-0.00607 0.0082,-0.12598 0.04158,-0.20018 -0.20591,-0.3366 -0.23282,-0.48723 C 10.094695,6.544952 9.809833,6.538647 9.875863,6.431065 9.798246,6.348585 9.95166,6.395558 9.93845,6.284315 10.036013,6.387025 9.987247,6.131985 10.08656,6.114855 10.1165,5.932985 10.08526,5.718045 9.92916,5.599765 9.74288,5.520031 9.51828,5.507625 9.3318,5.537059 9.300518,5.528419 9.269564,5.510563 9.235979,5.515718 Z M 9.220197,5.572154 c 0.041101,0.03273 -0.04795,0.021329 0,0 z m 0.31301,0.00425 c 0.03228,0.029631 -0.032264,0.023773 0,0 z M 9.420377,5.59157 c 0.031081,0.039122 -0.035513,0.018862 0,0 z m 0.26813,0.00121 c 0.042082,0.037542 -0.039337,0.025977 0,0 z m -1.4982,0.010307 c 0.040181,0.02687 -0.041082,0.021099 0,0 z m 1.5576,6.212e-4 c 0.042709,0.037646 -0.039945,0.025932 0,0 z m -0.37429,0.00121 c 0.037991,0.015198 -0.028634,0.024869 0,0 z m 0.17531,0.016377 c 0.16009,0.00328 0.39256,0.033888 0.38538,0.2532 0.08364,0.034134 7.455e-4,0.21386 -0.071234,0.30673 -0.092606,0.1179 -0.1628,0.21622 -0.29368,0.24476 -0.11253,0.0194 -0.27235,0.10145 -0.20329,-0.056658 -0.040297,-0.19658 -0.0119,-0.40079 -0.054796,-0.60395 -0.014824,-0.16591 0.14761,-0.12041 0.2376,-0.1441 z m 0.41858,0.30149 c -0.010941,-0.027083 -0.011883,0.00494 0,0 z m -0.14132,-0.29475 c 0.084295,0.02417 -0.059624,0.061013 0,0 z m -1.5734,0.00304 c 0.12143,0.10615 0.065644,0.3205 0.14707,0.47381 0.017909,0.13704 0.086496,0.31792 0.0713,0.41629 -0.12353,-0.00598 -0.37026,0.072946 -0.43008,0.00833 0.081574,0.021433 0.081145,-0.14746 0.098212,-0.18588 -0.10894,-0.051751 0.03905,-0.22984 0.033109,-0.33519 0.030764,-0.12089 0.035783,-0.27011 0.080393,-0.37734 z m -0.089174,0.010307 c 0.047048,-2.969e-4 -0.074965,0.043315 0,0 z m 0.14984,0.00546 c 0.041796,0.035494 -0.039824,0.025456 0,0 z m 1.4551,0.00486 c 0.00491,0.030854 0.029012,-0.00335 0,0 z m 0.17653,0.00242 c 0.035072,-0.00998 0.039252,0.057437 0,0 z m -1.5789,0.0091 c 0.03355,0.025649 -0.031264,0.020533 0,0 z m 0.074008,0.038218 c 0.044517,0.039665 -0.044319,0.027006 0,0 z m -0.31848,0.015772 c 0.035264,0.031886 -0.038526,0.024028 0,0 z m 3.4019,0.033599 c -0.15883,0.011387 -0.2837,0.072342 -0.40566,0.14556 -0.10054,0.00211 0.03563,0.19956 -0.12574,0.13106 -0.1919,0.042864 -0.14946,0.26357 -0.27432,0.38731 -0.05805,0.13633 -0.02391,0.28719 -0.10421,0.4183 0.06039,0.16684 0.0546,0.37752 0.21293,0.50409 0.0095,0.0768 0.20441,0.2037 0.32541,0.23334 0.13737,0.033407 0.28853,0.00338 0.41607,0.078251 0.10244,0.00538 0.39405,0.032975 0.25219,-0.13446 0.04272,-0.10746 -0.12609,-0.029102 -0.16048,-0.077747 -0.21903,0.035209 -0.45017,-0.033236 -0.61876,-0.17507 -0.12507,-0.085186 -0.19178,-0.25238 -0.2031,-0.40014 0.02901,-0.12657 0.05925,-0.25391 0.10409,-0.37411 0.02875,-0.09119 0.09394,-0.15917 -0.01769,-0.21383 0.04672,6.212e-4 0.07791,-0.14536 0.11011,-0.015517 0.11908,-0.13863 0.25326,-0.27425 0.43697,-0.31854 0.11474,-0.077723 0.31786,-0.043508 0.3992,-0.0951 -0.0533,-0.1278 -0.23834,-0.086205 -0.34699,-0.09342 z m -1.5803,-0.01965 c 0.039265,0.033221 -0.040507,0.027885 0,0 z m -1.5782,6.212e-4 c 0.037104,0.030041 -0.032156,0.029931 0,0 z m 3.1447,0.042691 c 0.06846,0.027204 -0.05759,0.053036 0,0 z m -3.0724,-0.017819 c 0.02199,0.028851 -0.032137,0.00949 0,0 z m -0.16379,0.010307 c -0.045538,0.036349 0.054421,0.01607 0,0 z m 0.1189,0 c 0.041169,0.029378 -0.048611,0.019216 0,0 z m 3.2538,0.03905 c 0.07284,0.030463 -0.04704,0.054661 0,0 z m 0.16986,0.00121 c 0.07019,0.02587 -0.0455,0.050124 0,0 z m -2.58,-0.028736 c 0.042334,0.035513 -0.039899,0.025236 0,0 z m -1.0335,0.021233 c 0.029155,0.035674 -0.034693,0.017455 0,0 z m -0.025478,0.00789 c 0.038672,0.026621 -0.039852,0.022176 0,0 z m 0.20201,0.0091 c 0.07251,0.019778 -0.063932,0.043688 0,0 z m 1.5916,0.00304 c 0.041035,0.017027 -0.038331,0.021531 0,0 z m -0.66426,0.013345 c 0.03892,0.033096 -0.04056,0.027721 0,0 z m 1.9491,0.039656 c 0.05445,0.047023 -0.05842,0.026021 0,0 z m -2.8509,-0.027953 c 0.042309,0.034494 -0.039895,0.024294 0,0 z m 1.6626,0.013952 c 0.03941,0.038818 -0.04203,0.02107 0,0 z m -1.7117,6.224e-4 c 0.03242,0.03329 -0.03665,0.021763 0,0 z m 2.8498,0.031786 c 0.0639,0.02764 -0.05347,0.053121 0,0 z m 0.16986,0 c 0.0708,0.027217 -0.05495,0.053714 0,0 z m -0.25054,0.018198 c 0.0604,0.03774 -0.05305,0.040964 0,0 z m 0.15044,0.01456 c 0.05686,0.025083 -0.02643,0.057516 0,0 z m -2.8207,-0.030543 c 0.035442,0.032237 -0.03842,0.023486 0,0 z m 1.5886,0.00121 c 0.0287,0.022986 -0.0272,0.014679 0,0 z m 1.2697,0.03905 c 0.06339,0.00424 0.03747,0.080825 0,0 z m -2.9078,-0.030436 c 0.03714,0.028211 -0.036215,0.025819 0,0 z m 1.6541,0.00486 c 0.03707,0.028969 -0.03951,0.018825 0,0 z m -1.6268,0.012131 c 0.03591,0.023682 -0.032807,0.022903 0,0 z m 2.6205,0.034209 c -0.05926,0.072038 0.08067,0.045434 0,0 z m -1.7338,-0.02025 c 0.043045,0.038463 -0.040665,0.026904 0,0 z m 1.8624,0.049971 c 0.02254,0.11186 -0.1147,0.031311 0,0 z m -2.7521,0.013725 c 0.039044,0.016996 -0.041952,0.0591 0,0 z m 2.541,0.039656 c 0.05691,0.040945 -0.06274,0.043681 0,0 z m -2.8983,-0.026918 c 0.03624,0.034479 -0.034134,0.025801 0,0 z m 1.9762,0.016986 c 0.03188,0.00615 -0.02619,0.036296 0,0 z m -2.0156,0.00728 c -0.04093,0.019315 0.038572,0.022825 0,0 z m 0.45132,0.010307 c 0.040424,0.032382 -0.048195,0.021101 0,0 z m -0.062481,0.00183 c 0.029991,0.032429 -0.032805,0.018502 0,0 z m 0.075828,0.043675 c 0.039184,0.038256 -0.041902,0.022794 0,0 z m 2.6029,0.031786 c 0.06508,0.031478 -0.04794,0.049316 0,0 z m -0.17532,0.013952 c 0.06251,0.047167 -0.01979,0.07663 0,0 z m -0.87963,-0.025697 c 0.02782,-0.00572 -0.0093,0.031618 0,0 z m 0.83596,0.043906 c 0.04568,0.011669 -0.04668,0.015524 0,0 z m -0.89603,0.00887 c 0.040995,0.033401 -0.047446,0.022928 0,0 z m -0.075222,0.00121 c 0.055804,0.019496 -0.050347,0.042496 0,0 z m 0.14074,0.00971 c -0.03649,0.0352 0.03925,0.025323 0,0 z m 0.8481,0.032859 c 0.05957,0.037376 -0.05471,0.033876 0,0 z m -2.3087,-0.019031 c -0.013995,0.046914 -0.04966,0.010096 0,0 z m 0.66286,0.020017 c 0.034873,0.032141 -0.038429,0.022549 0,0 z m -1.1561,0.00242 c 0.042772,0.037519 -0.043536,0.023512 0,0 z m 1.8785,0.00607 c 0.037205,0.038814 -0.010882,0.029333 0,0 z m 0.81353,0.037836 c -0.0019,0.0049 0.0035,-0.00149 0,0 z m 0,0.00183 c -0.05858,0.048611 0.0151,0.056509 0,0 z m -2.2528,-0.012967 c 0.042949,0.038541 -0.051509,0.023101 0,0 z m 0.72473,0.00728 c 0.054596,0.026761 -0.054434,0.041063 0,0 z m -0.7411,0.020018 c -0.015735,0.10256 -0.070268,0.027143 0,0 z m 1.3022,0.00183 c 0.034243,0.03058 -0.038665,0.021956 0,0 z m 1.1478,0.049971 c 0.07075,0.036215 -0.04602,0.04393 0,0 z m -1.6197,-0.026915 c 0.040514,0.033798 -0.036104,0.026801 0,0 z m -1.2288,0.010917 c -0.038106,0.029597 0.039675,0.024509 0,0 z m 1.6674,0.017592 c 0.065044,0.028891 -0.030842,0.052151 0,0 z m 0.95243,0.094255 c 0.05957,0.036659 -0.062,0.048673 0,0 z m -2.649,-0.023279 c 0.014622,0.10993 -0.063451,-0.00713 0,0 z m 0.53322,0.025478 c 0.025711,0.042511 -0.036029,0.019546 0,0 z m 1.1142,0.00242 c 0.039463,0.034547 -0.035053,0.033426 0,0 z m 1.0653,0.031165 c 0.03586,0.00912 -0.02921,0.022493 0,0 z m -0.04064,0.0091 c -0.02504,0.11185 -0.10554,0.00274 0,0 z m -2.7946,-0.030538 c 0.042539,0.036734 -0.042828,0.024177 0,0 z m 0.094026,0.012741 c 0.00351,0.036898 -0.037759,-0.00674 0,0 z m 0.60845,6.212e-4 c -0.035249,0.042998 0.050173,0.010859 0,0 z m 1.0972,0.00121 c 0.056655,0.011761 -0.074346,0.043557 0,0 z m 0.054596,0.00425 c 0.040343,0.027379 -0.040892,0.020372 0,0 z m -1.2604,0.00849 c 0.03355,0.025649 -0.031265,0.020533 0,0 z m 0.69743,0.00789 c 0.052972,0.024052 -0.052264,0.037951 0,0 z m -0.7484,0.00121 c 0.029491,0.033705 -0.032507,0.02011 0,0 z m 0.83211,0 c 0.00574,0.10017 -0.051232,0.017725 0,0 z M 9.33178,6.498253 c 0.00661,0.00158 6.211e-4,-0.00862 0,0 z m 1.4753,0.00264 c 0.06385,0.033786 -0.06181,0.051406 0,0 z M 9.42638,6.472144 c 0.049341,0.01953 -0.042781,0.041824 0,0 z M 8.60337,6.483061 c 0.029093,0.030233 -0.036417,0.013073 0,0 z m 0.050956,0.00849 c 0.035665,0.028727 -0.038559,0.019145 0,0 z m -0.59329,0.0091 c 0.030475,0.041041 -0.036246,0.018372 0,0 z m 0.56295,0 c 0.042709,0.037646 -0.039945,0.025932 0,0 z m -0.5945,0.010882 c 0.028527,0.045508 -0.053866,0.016744 0,0 z m 1.6535,0.00304 c 0.038831,0.027158 -0.040069,0.021427 0,0 z m -0.27783,0.013346 c 0.051685,0.1985 0.22384,0.031488 0.35488,0.10565 0.21996,-0.019834 0.33833,0.15852 0.48589,0.27895 0.08134,0.067802 -0.03298,0.14197 0.03047,0.20942 -0.02552,0.09436 -0.11434,0.21253 -0.18395,0.25646 -0.0341,0.10301 -0.29568,0.016087 -0.32938,0.11588 -0.08874,-0.11816 -0.14165,0.07324 -0.18502,0.076434 C 9.554379,7.557926 9.658216,7.430653 9.521608,7.450823 9.427439,7.48082 9.414658,7.505807 9.438392,7.399323 9.397256,7.240433 9.401923,7.283873 9.400914,7.162453 9.440356,7.07323 9.340227,6.951503 9.436648,6.856063 9.378194,6.760339 9.336608,6.617573 9.40516,6.527923 Z m -6.212e-4,0.69094 c 0.00521,0.041026 0.012753,0.00183 0,0 z m 0.00789,0.05217 v 0.00242 z m 0.16986,0.28693 -0.00121,0.00364 z m 0.6636402,-0.64543 c -0.03144,0.056018 0.04737,0.031864 0,0 z M 8.7780248,6.528539 c 0.056947,0.040091 -0.043592,0.026823 0,0 z m -0.089174,0.00121 c 0.041517,0.029627 -0.048909,0.019269 0,0 z m 1.1166,0.00304 c 0.042356,0.036725 -0.04311,0.024419 0,0 z m 1.0440002,0.033588 c 0.06884,0.032069 -0.04889,0.052496 0,0 z M 8.6899508,6.555835 c 0.071038,0.030425 -0.039395,0.046083 0,0 z m 0.58885,6.212e-4 c 0.047372,0.044129 -0.062149,0.016536 0,0 z m -1.3641,0.00364 c 0.041262,0.035525 -0.036948,0.027261 0,0 z m 2.7612002,0.040265 c -0.04223,0.034923 0.01534,0.039522 0,0 z M 9.5142008,6.5819452 c 0.040952,0.037087 -0.046931,0.025639 0,0 z m -0.74598,0.00486 c 0.038544,0.028382 -0.040473,0.016788 0,0 z m -0.28451,0.00242 c 0.03483,0.02727 -0.041732,0.013924 0,0 z m 0.067337,0.00183 c 0.032122,0.03514 -0.036917,0.01242 0,0 z m -0.19533,0.00546 c 0.03242,0.033289 -0.03665,0.021763 0,0 z m 0.36277,0 c 0.029155,0.035674 -0.034693,0.017455 0,0 z m 1.4157002,0.016377 c 0.04842,0.015722 -0.04177,0.032022 0,0 z m -1.9119002,0.00607 c 0.05193,0.025064 -0.051096,0.036774 0,0 z m 0.41675,0.00183 c 0.038336,0.030282 -0.039706,0.026108 0,0 z m 1.3186,0.00183 c 0.035442,0.032237 -0.03842,0.023486 0,0 z m -1.9628,0.00789 c 0.042539,0.036734 -0.042828,0.024177 0,0 z m 2.0957002,0 c 0.05297,0.024052 -0.05226,0.037952 0,0 z m -0.1613602,0.00121 c 0.047178,0.044961 -0.062444,0.01548 0,0 z m 0.9766902,0.03905 c -0.05362,0.051319 0.06954,0.026978 0,0 z m -2.9335002,-0.02692 c 0.037352,0.029805 -0.039718,0.017865 0,0 z m 2.7497002,0.036625 c 0.05366,0.00922 -0.04502,0.022984 0,0 z m -0.59149,-0.024494 c -0.0012,0.071076 -0.06391,-0.021154 0,0 z m -1.5673002,0.00183 c 0.03355,0.025649 -0.031264,0.020533 0,0 z m -0.61087,0.028512 c 0.052326,0.02068 -0.01826,0.053596 0,0 z m 0.094634,0.014558 c 0.042355,0.036725 -0.04311,0.024418 0,0 z m -0.037004,0.00242 c 0.029944,0.035926 -0.035072,0.017107 0,0 z m 0.60298,0.00849 c 0.035289,0.086003 -0.088053,0.021399 0,0 z m 0.13952,0.013952 c 5.592e-4,0.086354 -0.055742,0.058351 0,0 z m 1.3538002,0.00304 c 0.04603,0.042387 -0.05412,0.018294 0,0 z m 0.55208,0.03905 c 0.06659,0.03765 -0.05131,0.041024 0,0 z m -1.9520002,-0.02266 c 0.038831,0.027159 -0.040069,0.021427 0,0 z m 1.5249002,0.00728 c 0.03963,0.033447 -0.04082,0.027963 0,0 z m 0.01335,0.035183 c 0.03742,0.033991 -0.05835,0.017502 0,0 z m -2.2904002,0.00304 c 0.05022,-4.97e-4 -0.024465,0.029922 0,0 z m 0.72918,0.00364 c 0.036187,0.019164 -0.049992,0.00715 0,0 z m 0.72958,0.011528 c 0.018676,0.052919 -0.050188,-0.00716 0,0 z m -1.4581,0.00667 c 0.042083,0.037541 -0.039337,0.025977 0,0 z m -0.037004,0.00121 c 0.030984,0.02445 -0.041411,0.010096 0,0 z m 2.4257002,0.021838 c 0.0386,0.033988 -0.03339,0.034062 0,0 z m -0.12557,0.00425 c 0.04161,0.036718 -0.0387,0.02567 0,0 z m -1.5146002,0.00304 c 0.042824,0.036836 -0.043498,0.024109 0,0 z m 0.060662,0.00971 c 0.042383,0.035917 -0.04275,0.025385 0,0 z m -0.090993,0.00121 c 0.051875,0.015666 -0.041253,0.045738 0,0 z m -0.73281,0.01274 c 0.072899,-0.00127 -0.04038,0.067324 0,0 z m 0.67395,0.011528 c -0.029325,0.036091 0.035023,0.017349 0,0 z m 1.7008002,0.00242 c 0.04578,0.041964 -0.05408,0.018908 0,0 z m -1.5091002,0.012039 c 0.043355,0.027142 -0.044343,0.023984 0,0 z m 1.8907002,0.038444 c 0.03209,0.021471 -0.05496,0.033388 0,0 z m -2.7582002,-0.00872 c -0.011481,0.020074 -0.034392,0.00788 0,0 z m 2.4645002,0.00364 c 0.03878,0.037433 -0.04148,0.023707 0,0 z m -1.7141002,0.00304 c 0.040871,0.029193 -0.048818,0.019108 0,0 z m -0.82987,0.017592 c 0.04816,8.076e-4 -0.011493,0.059124 0,0 z m 2.8213002,0.041477 c 0.06458,0.01639 -0.03941,0.053757 0,0 z M 8.7270928,6.9592182 c 0.039086,0.034569 -0.035028,0.03337 0,0 z m 0.092209,0.027298 c 0.038029,0.027878 -0.040688,0.017449 0,0 z m 1.9022002,0.032376 c 0.05125,0.0163 -0.03042,0.036016 0,0 z M 7.8802018,6.9932082 c -0.00115,0.040156 -0.067395,-0.010471 0,0 z m 0.057022,0.038218 c 0.034069,0.027072 -0.037799,0.010612 0,0 z m -0.11041,0.021231 c 0.03856,0.023947 -0.041054,0.021822 0,0 z m 2.5573002,0.012741 c 0.04308,0.037566 -0.03996,0.026046 0,0 z m -1.6159002,0.00121 c 0.036597,0.029614 -0.038691,0.018685 0,0 z m -0.93115,0.00607 c 0.055929,0.031771 -0.075405,0.038548 0,0 z m 0.080074,0.00304 c 0.043198,0.037159 -0.043259,0.023609 0,0 z m 0.97787,0 c -0.041911,0.034774 0.039473,0.02609 0,0 z m 0.4384,0.018806 c 0.03892,0.033096 -0.04056,0.027721 0,0 z m -1.4666,0.030333 c 0.040181,0.02687 -0.041082,0.021099 0,0 z m -0.05217,6.244e-4 c 0.037352,0.029805 -0.039718,0.017866 0,0 z m 1.1101,6.213e-4 c -0.039146,0.027012 0.039616,0.021571 0,0 z m 1.3623002,0.00183 c 0.04255,0.036376 -0.03957,0.024869 0,0 z m -1.4861002,0.00849 c 0.038629,0.063534 -0.069321,0.040392 0,0 z m 0.044285,0.024266 c 0.035442,0.032237 -0.03842,0.023486 0,0 z m 0.024267,0.012741 c 0.037174,0.00623 -0.00304,0.02686 0,0 z m -0.98939,0.00971 c 0.040011,0.026192 -0.041828,0.02203 0,0 z m 0.83288,0.00304 c -0.00933,0.03319 0.042107,-0.012877 0,0 z m -0.85959,0.00607 c 0.042443,0.03156 -0.042874,0.020576 0,0 z m 3.0724002,0.041477 c 0.06625,0.034494 -0.05372,0.051369 0,0 z M 8.8712898,7.2043919 c 0.037293,0.028581 -0.039153,0.019446 0,0 z m -0.067337,0.012131 c 0.041911,0.034774 -0.039473,0.02609 0,0 z m 0.025477,0 c 0.041911,0.034774 -0.039473,0.02609 0,0 z m 1.5261002,0.00607 c 0.06985,7.455e-4 -0.03693,0.030053 0,0 z m 0.05399,0 c -0.02881,0.069979 0.08681,0.037187 0,0 z m 0.38585,0.032997 c 0.03407,0.014477 -0.02615,0.029931 0,0 z M 7.8624698,7.2292769 c 0.021933,0.057127 -0.049412,0.0651 0,0 z m 2.3857002,0.010307 c 0.04985,0.044259 -0.0038,0.042483 0,0 z m -1.3520002,0.00242 c 0.035264,0.031886 -0.038526,0.024028 0,0 z m -0.078862,0.00971 c 0.042356,0.036725 -0.04311,0.024418 0,0 z m 1.3714002,0.00849 c -0.04503,0.040961 0.05067,0.02008 0,0 z m 0.18199,0.00242 c 0.04694,0.0444 -0.06291,0.016192 0,0 z m -1.5061002,0.0091 c 0.032752,0.013999 -0.065128,0.041616 0,0 z m -1.0877,0.018806 c 0.032335,0.034643 -0.04397,0.012154 0,0 z m 0.049745,0.00971 c 0.041924,0.023813 -0.042809,0.02172 0,0 z m -0.013952,0.023052 c 0.043198,0.037159 -0.043259,0.023609 0,0 z m 0.039429,0.022446 c 0.040122,0.026621 -0.041169,0.021335 0,0 z m 1.5564,0.00849 c 0.036104,0.029205 -0.038821,0.019002 0,0 z m -1.6054,0.0059 c 0.067743,0.01585 -0.073465,0.061274 0,0 z m 2.4215002,0.00849 c 0.03287,0.033839 -0.0373,0.021582 0,0 z m -0.05278,0.00607 c 0.03208,0.036402 -0.03533,0.027861 0,0 z m -0.1879102,0.00466 c -0.052204,0.035917 0.04962,0.043908 0,0 z m -1.113,0.00242 c 0.042334,0.035513 -0.039899,0.025236 0,0 z m -1.0282,0.00242 c 0.03114,-0.00332 -0.00694,0.035311 0,0 z m 0.99001,0.00546 c 0.00919,0.027245 -0.039125,0.00704 0,0 z m 0.50272,0 c 0.038476,0.036712 -0.042374,0.02477 0,0 z m 0.8935702,0.00728 c 0.04089,0.053468 -0.03957,0.057963 0,0 z m 1.6331,0.037231 c -0.04326,0.14037 0.146,0.026732 0,0 z M 7.6828298,7.4071469 c -0.046927,0.018179 0.045104,0.028106 0,0 z m 1.223,0.00183 c 0.03169,0.041128 -0.038007,0.029895 0,0 z m 0.47965,0.00121 c 0.074514,0.029097 -0.036019,0.040486 0,0 z m -0.41231,0.00121 c 0.00583,0.071504 0.054789,-0.00978 0,0 z m -0.11829,0.00242 c -0.00956,0.06173 -0.086503,0.00681 0,0 z m -0.99001,0.00242 c 0.01453,0.042781 -0.028959,0.016564 0,0 z m -0.053111,9.317e-4 c 0.035041,0.026779 -0.0094,0.051406 0,0 z m 2.3614002,6.213e-4 c 0.02721,0.035678 -0.03482,0.017511 0,0 z m -0.14559,0.011528 c 0.04198,0.034585 -0.043356,0.024692 0,0 z m -0.2669102,0.00667 c -0.041741,0.033817 0.052185,0.020418 0,0 z m 0.3457802,0 c 0.04578,0.041964 -0.05408,0.018909 0,0 z m 0.19291,0 c -0.03868,0.035413 0.05025,0.01831 0,0 z m 0.81959,0.032377 c 0.03714,0.058609 -0.04348,0.061777 0,0 z M 8.8715388,7.4396309 c 0.038616,0.027506 -0.04065,0.017847 0,0 z m -1.1841,6.213e-4 c -0.03192,0.03661 0.030931,0.033118 0,0 z m 1.6856,0.014558 c 0.046247,0.018257 -0.044393,0.029727 0,0 z m 0.30999,0.00121 c 0.038442,0.026677 -0.039812,0.021346 0,0 z m 2.1111002,0.034209 c 0.05078,0.085124 -0.05355,0.053657 0,0 z m 0.12982,0.00971 M 9.9451488,7.4809032 c 0.051633,0.024372 -0.052661,0.028572 0,0 z m -0.41433,0.00242 c 0.034587,0.020567 -0.036957,0.027093 0,0 z m 1.6962002,0.031786 c 0.06666,0.036312 -0.04742,0.046223 0,0 z M 8.9517188,7.4936482 c 0.038442,0.026677 -0.039812,0.021346 0,0 z m 0.80176,0.00177 c 0.024841,0.0438 -0.027376,0.031084 0,0 z m -1.9252,0.010307 c 0.038672,0.026621 -0.039852,0.022176 0,0 z m 1.8488,0.00304 c 0.036455,0.034696 -0.039418,0.026711 0,0 z m 0.12618,0 c 0.044517,0.039665 -0.044319,0.027006 0,0 z m -0.10191,0.00121 c 0.056478,0.021652 -0.049254,0.04243 0,0 z m 0.19533,0.00242 c 0.04138,0.036513 -0.047644,0.023775 0,0 z m -0.2475,0.013346 c 0.046027,0.042387 -0.054117,0.018294 0,0 z m -0.70228,0.00121 c 0.041495,0.038076 -0.039103,0.027463 0,0 z m 0.026692,0 c 0.041548,0.037957 -0.038812,0.027587 0,0 z m -1.1872,0.00242 c 0.038169,0.033752 -0.033364,0.033973 0,0 z m 2.126,0.013952 c 0.043762,0.016524 -0.038318,0.024959 0,0 z m 0.1795602,0 c 0.048,0.014064 -0.04131,0.032264 0,0 z m 1.7198,0.031786 c 0.04481,0.023767 -0.04224,0.027291 0,0 z m -0.10798,0.00546 c 0.05702,0.023714 -0.03347,0.040573 0,0 z m -1.678,-0.025683 c 0.04791,0.032571 -0.026696,0.078055 0,0 z m 1.7344,0.031786 c 0.06246,0.033211 -0.06176,0.045608 0,0 z m -0.08857,6.212e-4 c 0.02213,0.017409 -0.02801,0.018349 0,0 z m 0.15226,0.01274 c 0.06128,0.044309 -0.06447,0.03259 0,0 z M 9.5344608,7.5694894 c 0.022611,0.029108 -0.032754,0.00716 0,0 z m 0.35547,0.00183 c 0.057348,0.070753 -0.093563,0.012309 0,0 z m -2.1315,0.00667 c -0.045625,0.041507 0.053717,0.019574 0,0 z m 1.4557,0.00486 c -0.07006,0.01288 0.031165,0.094239 0,0 z m 0.32938,0 c 0.046986,0.012072 -0.035457,0.03306 0,0 z m -0.12254,6.212e-4 c 0.030152,0.032215 -0.035432,0.013467 0,0 z m -1.762,0.00667 c -0.068724,-0.00451 0.017385,0.079732 0,0 z m 1.9926,0.00546 c 0.04012,0.036883 -0.052564,0.014492 0,0 z m -0.057022,0.010307 c 0.043079,0.037566 -0.039958,0.026046 0,0 z m 0.28633,0.00546 c 0.049152,0.020891 -0.042243,0.045654 0,0 z m -0.61997,6.211e-4 c 0.054596,0.026761 -0.054434,0.041063 0,0 z m -1.5115,0.023658 c -0.00593,0.017455 -0.019478,-0.017228 0,0 z m 1.5964,0 c 0.044644,0.04006 -0.044083,0.025919 0,0 z m 0.14498,0.00242 c 0.090367,0.00992 -0.080287,0.055527 0,0 z m -0.50394,0.030333 c 0.040699,0.04269 -0.039026,0.030261 0,0 z"
           inkscape:connector-curvature="0"
           style="fill:#f9f9f9" />
      </g>
    </g>
    <g
       style="image-rendering:optimizeSpeed"
       id="g1918"
       transform="matrix(0.26458333,0,0,0.26458333,152.62689,111.94137)">
      <path
         id="path1844"
         d="m 55.9,19.278 c -0.13442,-0.24883 -0.28316,-0.51483 -0.43761,-0.77797 -1.1613,-1.9735 -2.6199,-3.8441 -4.3675,-5.5916 -4.153,-4.153 -8.9895,-6.6728 -14.51,-7.5537 -0.92952,-0.14873 -1.8762,-0.2517 -2.863,-0.30604 -0.55487,-0.031462 -1.1355,-0.048623 -1.7218,-0.048623 -0.53486,0 -1.064,0.014301 -1.596,0.042902 -6.77,0.34894 -12.602,2.9717 -17.496,7.8655 -1.1727,1.1727 -2.2166,2.3997 -3.129,3.6839 -0.87807,1.2327 -1.6331,2.517 -2.2652,3.8441 l -0.00143,-0.0014 q -2.5126,5.2626 -2.5126,11.565 c 0,7.4564 2.6371,13.823 7.9084,19.094 3.2434,3.2406 6.8959,5.4858 10.931,6.7243 2.1022,0.64354 4.2788,1.0211 6.5641,1.1412 h 0.02288 c 0.48623,0.02574 0.94959,0.04004 1.4015,0.04004 h 0.17161 c 0.5892,0 1.1727,-0.01716 1.7218,-0.04576 0.14301,-0.0086 0.27172,-0.01716 0.39757,-0.02574 1.1555,-0.08294 2.2824,-0.23168 3.3578,-0.44047 0.45477,-0.08867 0.90378,-0.18878 1.3386,-0.2946 4.6221,-1.1613 8.7035,-3.5237 12.279,-7.099 2.7801,-2.7801 4.828,-5.8633 6.1408,-9.2556 1.0554,-2.7258 1.6389,-5.6518 1.7475,-8.7807 0.01144,-0.34608 0.01716,-0.70074 0.01716,-1.0582 v -0.17162 c -0.01144,-2.3253 -0.28316,-4.5477 -0.81801,-6.6928 -0.06292,-0.24883 -0.13442,-0.51483 -0.20879,-0.77797 -0.0572,-0.19449 -0.11441,-0.39184 -0.18019,-0.60064 -0.09153,-0.2946 -0.19449,-0.60064 -0.30318,-0.90666 -0.28888,-0.81515 -0.62066,-1.616 -0.9982,-2.4111 -0.10582,-0.21737 -0.21452,-0.43761 -0.32606,-0.65784 -0.08294,-0.16303 -0.16875,-0.32606 -0.266,-0.50339 z"
         inkscape:connector-curvature="0"
         style="fill:#f2f2f2;stroke-width:0.89712" />
      <path
         id="path1846"
         d="m 51.917,21.398 c -0.11202,-0.20736 -0.23596,-0.42903 -0.36467,-0.64831 -0.96768,-1.6446 -2.1832,-3.2034 -3.6396,-4.6597 -3.4608,-3.4608 -7.4913,-5.5607 -12.092,-6.2948 -0.77463,-0.12394 -1.5636,-0.20975 -2.3859,-0.25504 -0.4624,-0.02622 -0.94626,-0.04052 -1.4349,-0.04052 -0.44571,0 -0.88666,0.01192 -1.33,0.03575 -5.6417,0.29078 -10.501,2.4765 -14.58,6.5546 -0.97722,0.97722 -1.8472,1.9997 -2.6075,3.0699 -0.73173,1.0273 -1.361,2.0975 -1.8878,3.2034 l -0.0012,-0.0012 q -2.0939,4.3855 -2.0939,9.6381 c 0,6.2137 2.1975,11.519 6.5904,15.912 2.7029,2.7005 5.7466,4.5715 9.1098,5.6036 1.7519,0.53628 3.5657,0.85091 5.4701,0.95103 h 0.01906 c 0.40519,0.02145 0.79132,0.03337 1.1679,0.03337 h 0.14301 c 0.491,0 0.97722,-0.0143 1.4349,-0.03814 0.11918,-0.0071 0.22643,-0.0143 0.3313,-0.02145 0.96292,-0.06912 1.902,-0.19306 2.7982,-0.36706 0.37897,-0.07389 0.75318,-0.15731 1.1155,-0.2455 3.8517,-0.96768 7.253,-2.9364 10.232,-5.9158 2.3168,-2.3168 4.0233,-4.8861 5.1173,-7.7129 0.8795,-2.2714 1.3658,-4.7098 1.4563,-7.3173 0.0095,-0.2884 0.0143,-0.58395 0.0143,-0.88189 v -0.14298 c -0.0095,-1.9378 -0.23596,-3.7897 -0.68168,-5.5773 -0.05243,-0.20736 -0.11202,-0.42903 -0.174,-0.64831 -0.04767,-0.16207 -0.09534,-0.32654 -0.15016,-0.50053 -0.07628,-0.2455 -0.16207,-0.50053 -0.25265,-0.75556 -0.24073,-0.6793 -0.51721,-1.3467 -0.83184,-2.0093 -0.08819,-0.18114 -0.17876,-0.36467 -0.27172,-0.5482 -0.06912,-0.13586 -0.14063,-0.27172 -0.22166,-0.41949 z"
         inkscape:connector-curvature="0"
         style="fill:#f9f9f9;stroke-width:0.89712" />
      <g
         id="g1884"
         transform="matrix(0.28702,0,0,0.28702,14.62,13.901)"
         style="stroke-width:3.13560009">
        <g
           id="g1866"
           style="fill-rule:evenodd">
          <path
             id="path1848"
             d="m 67.711,75.562 27.105,17.889 -3.9472,9.4526 c 0,0 -22.457,-18.01 -23.158,-27.342 z"
             inkscape:connector-curvature="0"
             style="fill:url(#f)" />
          <path
             id="path1850"
             d="M 70.922,44.522 C 81.041,37.6135 95.96,25.766 97.583,20.391 c 1.5568,-5.157 7.9788,-4.184 6.5192,1.6541 -1.4595,5.8381 -9.4383,28.899 -21.99,44.272"
             inkscape:connector-curvature="0"
             style="fill:#181818" />
          <path
             id="path1852"
             d="m 19.741,96.774 c 5.7276,-1.6827 8.9312,-8.287 13.123,-12.422 7.5972,6.9739 47.152,20.382 26.592,20.724 -10.565,-0.60837 -16.712,5.1289 -22.468,9.8089 z"
             inkscape:connector-curvature="0"
             style="fill:#181818" />
          <path
             id="path1854"
             d="m 63.926,1.3936 c -14.999,0.27521 -19.953,11.697 -19.953,17.338 0,5.6418 1.8528,17.369 -2.6882,25.075 -3,5.0909 -12.506,17.156 -15.201,28.454 -2.6918,11.284 -0.5898,35.09 30.686,35.64 32.2,0.5667 29.987,7.4462 29.987,7.4462 l 11.426,-21.827 c -2.9874,-1.4276 -7.559,-3.5928 -7.3693,-3.9949 5.7423,-12.173 -9.6305,-34.804 -12.52,-43.611 -2.8897,-8.8068 0.50726,-10.985 2.8466,-16.352 2.3393,-5.3666 3.2887,-28.169 -17.215,-28.169 z"
             inkscape:connector-curvature="0"
             style="fill:#232323" />
          <path
             id="path1856"
             d="m 21.681,97.167 c -2.8338,-2.2663 -5.2668,0.87212 -3.5708,3.8904 1.6959,3.0183 16.163,17.54 20.318,22.117 4.1554,4.577 11.389,-2.1056 4.8594,-5.8727 -6.53,-3.7672 -18.773,-17.869 -21.607,-20.135 z"
             inkscape:connector-curvature="0"
             style="fill:#f5de68" />
          <path
             id="path1858"
             d="m 25.559,84.486 c 1.1778,4.5147 -4.3624,9.9275 -7.3208,12.713 -3.848,3.623 0.09814,5.5943 1.374,5.4962 1.2759,-0.098 10.762,-3.5283 18.123,0.59382"
             inkscape:connector-curvature="0"
             style="fill:#232323" />
          <path
             id="path1860"
             d="m 73.131,11.339 c -4.3047,-0.04908 -7.3074,4.8429 -5.0583,10.6 1.2891,3.2999 9.7658,3.1187 10.304,-0.31985 0.91782,-5.8643 -0.98737,-10.232 -5.2456,-10.28 z"
             inkscape:connector-curvature="0"
             style="fill:#fdfdfd" />
          <path
             id="path1862"
             d="m 72.761,17.291 a 3.0383,3.6858 0 0 1 4.2911,-0.0079 3.0383,3.6858 0 0 1 0.0172,5.2055 3.0383,3.6858 0 0 1 -4.291,0.03461 3.0383,3.6858 0 0 1 -0.03996,-5.2053"
             inkscape:connector-curvature="0" />
          <path
             id="path1864"
             d="m 81.463,33.036 c 2.722,0.09066 18.873,-3.0849 19.054,-5.3533 0.1815,-2.2683 -11.342,-3.3571 -13.61,-4.3552 -2.2683,-0.99808 -13.293,-3.9419 -13.156,3.4479 0.13679,7.3897 4.9903,6.1699 7.7123,6.2606 z"
             inkscape:connector-curvature="0"
             style="fill:#f5de68" />
        </g>
        <path
           id="path1868"
           d="m 77.324,28.802 c 5.7413,1.2468 12.703,1.6684 16.553,1.0265"
           inkscape:connector-curvature="0"
           style="fill:none;stroke:#ae9300;stroke-width:0.62712997" />
        <path
           id="path1870"
           d="m 81.463,33.036 c 2.722,0.09066 18.873,-3.0849 19.054,-5.3533 0.1815,-2.2683 -11.342,-3.3571 -13.61,-4.3552 -2.2683,-0.99808 -13.293,-3.9419 -13.156,3.4479 0.13679,7.3897 4.9903,6.1699 7.7123,6.2606 z"
           inkscape:connector-curvature="0"
           style="fill:none" />
        <path
           id="path1872"
           d="m 45.836,40.168 c -13.512,11.442 -34.729,38.79 -30.485,41.45 3.6603,2.2934 25.475,-16.621 34.7,-18.55"
           inkscape:connector-curvature="0"
           style="fill:url(#j);fill-rule:evenodd" />
        <path
           id="path1874"
           d="m 40.553,45.162 c -8.5567,9.0667 -20.773,23.461 -24.625,31.264 -3.8024,6.0179 0.59632,8.2634 5.7525,3.3262 7.0031,-3.8669 17.5,-13.044 24.381,-14.483"
           inkscape:connector-curvature="0"
           style="fill:none" />
        <g
           id="g1882"
           style="fill-rule:evenodd">
          <path
             id="path1876"
             d="m 98.64,83.661 c 0.38197,-5.4526 8.0186,-6.3586 7.9702,0.31266 -0.0551,7.5879 -10.331,25.947 -14.2,30.532 -3.7284,4.4181 -7.4315,0.96274 -4.8162,-3.3026 2.6141,-4.2634 10.531,-20.19 11.046,-27.542 z"
             inkscape:connector-curvature="0"
             style="fill:#f5de68" />
          <path
             id="path1878"
             d="m 79.603,53.117 c -2.5927,-1.1498 -3.508,5.5639 -5.6634,8.7006 -2.5967,3.7789 -5.0985,7.4165 -3.187,13.392 l 19.755,13.712 c 2.5476,-10.027 -4.2838,-24.627 -10.905,-35.805 z"
             inkscape:connector-curvature="0"
             style="fill:#cccccc" />
          <path
             id="path1880"
             d="m 74.133,16.97 a 1.0355,0.65911 0 0 1 1.4624,-0.0012 1.0355,0.65911 0 0 1 0.0058,0.93088 1.0355,0.65911 0 0 1 -1.4624,0.0062 1.0355,0.65911 0 0 1 -0.0136,-0.93085"
             inkscape:connector-curvature="0"
             style="fill:#ffffff" />
        </g>
      </g>
    </g>
    <g
       id="g2592"
       transform="matrix(1.0000197,0,0,1.0000197,167.41805,-183.84838)">
      <circle
         id="circle2588"
         style="fill:#6f9ed1;paint-order:stroke markers fill"
         r="7.1436"
         cy="288.53"
         cx="8.4665003" />
      <path
         id="path2590"
         d="m 8.467,283.974 a 0.651,0.651 0 0 0 -0.652,0.652 0.651,0.651 0 0 0 0.652,0.65 0.651,0.651 0 0 0 0.595,-0.389 c 0.782,0.558 1.172,1.643 1.3,2.795 0.14,1.24 -0.026,2.544 -0.259,3.242 a 0.16333172,0.16333172 0 0 0 0.31,0.103 c 0.255,-0.767 0.418,-2.089 0.273,-3.382 -0.141,-1.26 -0.58,-2.506 -1.576,-3.114 a 0.651,0.651 0 0 0 -0.643,-0.556 z m 0,0.326 a 0.326,0.326 0 0 1 0.325,0.303 0.163,0.163 0 0 0 -10e-4,0.04 0.326,0.326 0 0 1 -0.324,0.308 0.326,0.326 0 0 1 -0.326,-0.326 0.326,0.326 0 0 1 0.326,-0.325 z m 2.39,1.455 a 2.34,2.34 0 0 0 -0.29,0.01 0.16333554,0.16333554 0 1 0 0.033,0.325 c 0.68,-0.07 1.207,0.195 1.4,0.67 0.192,0.474 0.065,1.221 -0.727,2.157 a 0.163,0.163 0 1 0 0.249,0.21 c 0.836,-0.988 1.034,-1.862 0.78,-2.49 -0.224,-0.55 -0.784,-0.866 -1.446,-0.883 z m -4.545,0.01 c -0.793,0.014 -1.335,0.26 -1.632,0.662 -0.395,0.536 -0.302,1.29 0.133,1.967 a 0.163,0.163 0 0 0 0.274,-0.176 c -0.388,-0.603 -0.438,-1.2 -0.145,-1.598 0.294,-0.398 0.979,-0.656 2.197,-0.466 a 0.163,0.163 0 1 0 0.05,-0.322 5.126,5.126 0 0 0 -0.877,-0.066 z m 3.272,0.097 a 0.163,0.163 0 0 0 -0.02,0 0.163,0.163 0 0 0 -0.027,0.006 8.662,8.662 0 0 0 -3.478,1.731 c -0.96,0.8 -1.64,1.777 -1.66,2.781 a 0.651,0.651 0 0 0 -0.166,0.433 0.651,0.651 0 0 0 0.652,0.651 0.651,0.651 0 0 0 0.65,-0.651 0.651,0.651 0 0 0 -0.65,-0.652 0.651,0.651 0 0 0 -0.142,0.016 c 0.101,-0.796 0.68,-1.625 1.524,-2.329 a 8.379,8.379 0 0 1 3.344,-1.664 0.163,0.163 0 0 0 -0.027,-0.322 z m -1.117,2.02 a 0.651,0.651 0 0 0 -0.652,0.652 0.651,0.651 0 0 0 0.652,0.65 0.651,0.651 0 0 0 0.65,-0.65 0.651,0.651 0 0 0 -0.65,-0.652 z m -2.93,1.073 a 0.163,0.163 0 0 0 -0.118,0.278 c 0.996,1.03 2.236,1.79 3.402,2.186 1.142,0.388 2.222,0.434 2.943,-0.02 a 0.651,0.651 0 0 0 0.285,0.066 0.651,0.651 0 0 0 0.651,-0.652 0.651,0.651 0 0 0 -0.651,-0.651 0.651,0.651 0 0 0 -0.652,0.651 0.651,0.651 0 0 0 0.108,0.357 c -0.595,0.316 -1.541,0.293 -2.58,-0.06 -1.112,-0.377 -2.314,-1.114 -3.272,-2.103 a 0.163,0.163 0 0 0 -0.116,-0.052 z m -0.653,1.533 a 0.326,0.326 0 0 1 0.326,0.325 0.326,0.326 0 0 1 -0.326,0.326 0.326,0.326 0 0 1 -0.325,-0.326 0.326,0.326 0 0 1 0.325,-0.325 z m 7.165,0 a 0.326,0.326 0 0 1 0.325,0.325 0.326,0.326 0 0 1 -0.325,0.326 0.326,0.326 0 0 1 -0.326,-0.326 0.326,0.326 0 0 1 0.326,-0.325 z m -5.388,0.485 a 0.163,0.163 0 0 0 -0.143,0.208 c 0,0 0.127,0.468 0.427,0.94 0.3,0.471 0.796,0.971 1.522,0.971 0.956,0 1.51,-1.06 1.51,-1.06 a 0.163,0.163 0 1 0 -0.285,-0.158 c 0,0 -0.525,0.893 -1.226,0.893 -0.576,0 -0.976,-0.396 -1.246,-0.82 -0.27,-0.424 -0.388,-0.851 -0.388,-0.851 a 0.163,0.163 0 0 0 -0.154,-0.123 0.163,0.163 0 0 0 -0.017,0 z"
         inkscape:connector-curvature="0"
         style="fill:#ffffff" />
    </g>
    <g
       id="g2652"
       transform="matrix(1.0000197,0,0,1.0000197,152.65142,-183.71474)">
      <circle
         id="circle2638"
         style="fill:#34b05c;paint-order:stroke markers fill"
         r="7.1436"
         cy="288.53"
         cx="8.4665003" />
      <g
         id="g2650"
         transform="matrix(2,0,0,2,-7.408,-290.12)"
         style="fill:#ffffff;stroke-width:0.5">
        <path
           id="path2640"
           d="m 5.82,288.586 2.117,-0.846 2.117,0.846 -2.117,0.847"
           inkscape:connector-curvature="0" />
        <ellipse
           id="ellipse2642"
           ry="0.47600001"
           rx="1.058"
           cy="290.44"
           cx="7.9380002" />
        <path
           id="path2644"
           d="m 6.88,289.327 v 1.111 h 2.116 v -1.11 l -1.059,0.447 M 9.525,288.56 H 9.79 v 0.926 H 9.525 Z"
           inkscape:connector-curvature="0" />
        <circle
           id="circle2646"
           r="0.331"
           cy="289.47"
           cx="9.6569996" />
        <path
           id="path2648"
           d="m 9.571,289.655 -0.211,0.73 h 0.635 l -0.212,-0.73 z"
           inkscape:connector-curvature="0"
           style="fill-rule:evenodd" />
      </g>
    </g>
  </g>
</svg>
