<?xml version="1.0" encoding="UTF-8" standalone="no"?>
<!-- Created with Inkscape (http://www.inkscape.org/) -->

<svg
   xmlns:dc="http://purl.org/dc/elements/1.1/"
   xmlns:cc="http://creativecommons.org/ns#"
   xmlns:rdf="http://www.w3.org/1999/02/22-rdf-syntax-ns#"
   xmlns:svg="http://www.w3.org/2000/svg"
   xmlns="http://www.w3.org/2000/svg"
   xmlns:sodipodi="http://sodipodi.sourceforge.net/DTD/sodipodi-0.dtd"
   xmlns:inkscape="http://www.inkscape.org/namespaces/inkscape"
   width="29.56975mm"
   height="30.437819mm"
   viewBox="0 0 29.56975 30.437819"
   version="1.1"
   id="svg7952"
   inkscape:version="0.92.4 (5da689c313, 2019-01-14)"
   sodipodi:docname="games.svg">
  <defs
     id="defs7946">
    <linearGradient
       gradientUnits="userSpaceOnUse"
       gradientTransform="matrix(0.27517,0,0,0.27517,-215.10081,366.70139)"
       y2="27.346001"
       y1="57"
       x2="46.167999"
       x1="46.167999"
       id="b-0">
      <stop
         id="stop1738"
         offset="0" />
      <stop
         id="stop1740"
         offset="1"
         stop-opacity="0" />
    </linearGradient>
    <linearGradient
       gradientUnits="userSpaceOnUse"
       gradientTransform="matrix(1.3,0,0,1.3,-1257.9923,-449.72753)"
       y2="528.78998"
       y1="528.78998"
       x2="428.57001"
       x1="388.57001"
       id="e">
      <stop
         id="stop1408"
         offset="0"
         stop-color="#9c6d42" />
      <stop
         id="stop1410"
         offset="1"
         stop-opacity="0"
         stop-color="#9c6d42" />
    </linearGradient>
    <clipPath
       id="c-6">
      <rect
         style="fill:#71c947"
         id="rect1405"
         ry="0.79367"
         height="13.758"
         width="13.758"
         y="1.5875"
         x="1.5875" />
    </clipPath>
  </defs>
  <sodipodi:namedview
     id="base"
     pagecolor="#ffffff"
     bordercolor="#666666"
     borderopacity="1.0"
     inkscape:pageopacity="0.0"
     inkscape:pageshadow="2"
     inkscape:zoom="0.35"
     inkscape:cx="-469.83444"
     inkscape:cy="80.377423"
     inkscape:document-units="mm"
     inkscape:current-layer="layer1"
     showgrid="false"
     fit-margin-top="0"
     fit-margin-left="0"
     fit-margin-right="0"
     fit-margin-bottom="0"
     inkscape:window-width="1920"
     inkscape:window-height="1003"
     inkscape:window-x="0"
     inkscape:window-y="0"
     inkscape:window-maximized="1" />
  <metadata
     id="metadata7949">
    <rdf:RDF>
      <cc:Work
         rdf:about="">
        <dc:format>image/svg+xml</dc:format>
        <dc:type
           rdf:resource="http://purl.org/dc/dcmitype/StillImage" />
        <dc:title></dc:title>
      </cc:Work>
    </rdf:RDF>
  </metadata>
  <g
     inkscape:label="Taso 1"
     inkscape:groupmode="layer"
     id="layer1"
     transform="translate(-91.048458,-139.66204)">
    <g
       id="g1642"
       transform="matrix(1.0000197,0,0,1.0000197,89.46096,154.75379)">
      <g
         id="g1553"
         transform="translate(-3.2916e-5,-3.2916e-5)">
        <path
           id="path1415"
           d="m 51.502,6 v 6.5 H 58 V 9 C 58,7.3381 56.6619,6 55,6 Z"
           transform="matrix(0.26458,0,0,0.26458,3.2916e-5,3.2916e-5)"
           inkscape:connector-curvature="0"
           style="fill:#45a943;stroke-width:204.07000732" />
        <path
           id="path1417"
           d="M 9,6 C 7.3381,6 6,7.3381 6,9 v 46 c 0,1.6619 1.3381,3 3,3 h 46 c 1.6619,0 3,-1.3381 3,-3 V 9 C 58,7.3381 56.6619,6 55,6 Z"
           transform="matrix(0.26458,0,0,0.26458,3.2916e-5,3.2916e-5)"
           inkscape:connector-curvature="0"
           style="fill:#76bd74;stroke-width:204.07000732" />
        <path
           id="path1419"
           d="m 6,32 v 23 c 0,1.6619 1.3381,3 3,3 H 32 V 32 Z"
           transform="matrix(0.26458,0,0,0.26458,3.2916e-5,3.2916e-5)"
           inkscape:connector-curvature="0"
           style="fill:#5bb059;stroke-width:204.07000732" />
        <path
           id="path1421"
           d="M 6,51.502 V 55 c 0,1.6619 1.3381,3 3,3 h 3.5 v -6.498 z"
           transform="matrix(0.26458,0,0,0.26458,3.2916e-5,3.2916e-5)"
           inkscape:connector-curvature="0"
           style="fill:#8f6335;stroke-width:204.07000732" />
        <rect
           id="rect1423"
           ry="0"
           height="1.7198"
           width="1.7198"
           y="13.626"
           x="3.3072"
           style="fill:#a2703c;stroke-width:53.99100113" />
        <rect
           id="rect1425"
           ry="0"
           height="1.7198"
           width="1.7198"
           y="13.626"
           x="5.027"
           style="fill:#875d32;stroke-width:53.99100113" />
        <rect
           id="rect1427"
           ry="0"
           height="1.7198"
           width="1.7198"
           y="13.626"
           x="6.7466998"
           style="fill:#b77939;stroke-width:53.99100113" />
        <rect
           id="rect1429"
           ry="0"
           height="1.7198"
           width="1.7198"
           y="13.626"
           x="8.4665003"
           style="fill:#956837;stroke-width:53.99100113" />
        <rect
           id="rect1431"
           ry="0"
           height="1.7198"
           width="1.7198"
           y="13.626"
           x="10.186"
           style="fill:#a2703c;stroke-width:53.99100113" />
        <rect
           id="rect1433"
           ry="0"
           height="1.7198"
           width="1.7198"
           y="13.626"
           x="11.906"
           style="fill:#956837;stroke-width:53.99100113" />
        <path
           id="path1435"
           d="M 51.502,51.502 V 58 H 55 c 1.6619,0 3,-1.3381 3,-3 v -3.498 z"
           transform="matrix(0.26458,0,0,0.26458,3.2916e-5,3.2916e-5)"
           inkscape:connector-curvature="0"
           style="fill:#a2703c;stroke-width:204.07000732" />
        <rect
           id="rect1437"
           ry="0"
           height="1.7198"
           width="1.7198"
           y="11.906"
           x="1.5875"
           style="fill:#a2703c;stroke-width:53.99100113" />
        <rect
           id="rect1439"
           ry="0"
           height="1.7198"
           width="1.7198"
           y="11.906"
           x="3.3072"
           style="fill:#946f2d;stroke-width:53.99100113" />
        <rect
           id="rect1441"
           ry="0"
           height="1.7198"
           width="1.7198"
           y="11.906"
           x="5.027"
           style="fill:#8f6335;stroke-width:53.99100113" />
        <rect
           id="rect1443"
           ry="0"
           height="1.7198"
           width="1.7198"
           y="11.906"
           x="6.7466998"
           style="fill:#aa7034;stroke-width:53.99100113" />
        <rect
           id="rect1445"
           ry="0"
           height="1.7198"
           width="1.7198"
           y="11.906"
           x="8.4665003"
           style="fill:#956837;stroke-width:53.99100113" />
        <rect
           id="rect1447"
           ry="0"
           height="1.7198"
           width="1.7198"
           y="11.906"
           x="10.186"
           style="fill:#8f6335;stroke-width:53.99100113" />
        <rect
           id="rect1449"
           ry="0"
           height="1.7198"
           width="1.7198"
           y="11.906"
           x="11.906"
           style="fill:#8f6335;stroke-width:53.99100113" />
        <rect
           id="rect1451"
           ry="0"
           height="1.7198"
           width="1.7198"
           y="11.906"
           x="13.626"
           style="fill:#ac7740;stroke-width:53.99100113" />
        <rect
           id="rect1453"
           ry="0"
           height="1.7198"
           width="1.7198"
           y="10.186"
           x="1.5875"
           style="fill:#a36b30;stroke-width:53.99100113" />
        <rect
           id="rect1455"
           ry="0"
           height="1.7198"
           width="1.7198"
           y="10.186"
           x="3.3072"
           style="fill:#a2703c;stroke-width:53.99100113" />
        <rect
           id="rect1457"
           ry="0"
           height="1.7198"
           width="1.7198"
           y="10.186"
           x="5.027"
           style="fill:#7c502e;stroke-width:53.99100113" />
        <rect
           id="rect1459"
           ry="0"
           height="1.7198"
           width="1.7198"
           y="10.186"
           x="6.7466998"
           style="fill:#a2703c;stroke-width:53.99100113" />
        <rect
           id="rect1461"
           ry="0"
           height="1.7198"
           width="1.7198"
           y="10.186"
           x="8.4665003"
           style="fill:#bc844a;stroke-width:53.99100113" />
        <rect
           id="rect1463"
           ry="0"
           height="1.7198"
           width="1.7198"
           y="10.186"
           x="10.186"
           style="fill:#a2703c;stroke-width:53.99100113" />
        <rect
           id="rect1465"
           ry="0"
           height="1.7198"
           width="1.7198"
           y="10.186"
           x="11.906"
           style="fill:#866b3b;stroke-width:53.99100113" />
        <rect
           id="rect1467"
           ry="0"
           height="1.7198"
           width="1.7198"
           y="10.186"
           x="13.626"
           style="fill:#a2703c;stroke-width:53.99100113" />
        <rect
           id="rect1469"
           ry="0"
           height="1.7198"
           width="1.7198"
           y="8.4665003"
           x="1.5875"
           style="fill:#a2703c;stroke-width:53.99100113" />
        <rect
           id="rect1471"
           ry="0"
           height="1.7198"
           width="1.7198"
           y="8.4665003"
           x="3.3072"
           style="fill:#956837;stroke-width:53.99100113" />
        <rect
           id="rect1473"
           ry="0"
           height="1.7198"
           width="1.7198"
           y="8.4665003"
           x="5.027"
           style="fill:#a36b30;stroke-width:53.99100113" />
        <rect
           id="rect1475"
           ry="0"
           height="1.7198"
           width="1.7198"
           y="8.4665003"
           x="6.7466998"
           style="fill:#ab7033;stroke-width:53.99100113" />
        <rect
           id="rect1477"
           ry="0"
           height="1.7198"
           width="1.7198"
           y="8.4665003"
           x="8.4665003"
           style="fill:#8f6335;stroke-width:53.99100113" />
        <rect
           id="rect1479"
           ry="0"
           height="1.7198"
           width="1.7198"
           y="8.4665003"
           x="10.186"
           style="fill:#845531;stroke-width:53.99100113" />
        <rect
           id="rect1481"
           ry="0"
           height="1.7198"
           width="1.7198"
           y="8.4665003"
           x="11.906"
           style="fill:#a2703c;stroke-width:53.99100113" />
        <rect
           id="rect1483"
           ry="0"
           height="1.7198"
           width="1.7198"
           y="8.4665003"
           x="13.626"
           style="fill:#ac7740;stroke-width:53.99100113" />
        <path
           id="path1485"
           d="M 9,6 C 7.3381,6 6,7.3381 6,9 V 32 H 32 V 6 Z"
           transform="matrix(0.26458,0,0,0.26458,3.2916e-5,3.2916e-5)"
           inkscape:connector-curvature="0"
           style="fill:#5bb059;stroke-width:204.07000732" />
        <rect
           id="rect1487"
           ry="0"
           height="1.7198"
           width="1.7198"
           y="6.7466998"
           x="1.5875"
           style="fill:#3fa13d;stroke-width:53.99100113" />
        <rect
           id="rect1489"
           ry="0"
           height="1.7198"
           width="1.7198"
           y="6.7466998"
           x="3.3072"
           style="fill:#674726;stroke-width:53.99100113" />
        <rect
           id="rect1491"
           ry="0"
           height="1.7198"
           width="1.7198"
           y="6.7466998"
           x="5.027"
           style="fill:#a36b30;stroke-width:53.99100113" />
        <rect
           id="rect1493"
           ry="0"
           height="1.7198"
           width="1.7198"
           y="6.7466998"
           x="6.7466998"
           style="fill:#977047;stroke-width:53.99100113" />
        <rect
           id="rect1495"
           ry="0"
           height="1.7198"
           width="1.7198"
           y="6.7466998"
           x="8.4665003"
           style="fill:#a36b30;stroke-width:53.99100113" />
        <rect
           id="rect1497"
           ry="0"
           height="1.7198"
           width="1.7198"
           y="6.7466998"
           x="10.186"
           style="fill:#3b843a;stroke-width:53.99100113" />
        <rect
           id="rect1499"
           ry="0"
           height="1.7198"
           width="1.7198"
           y="6.7466998"
           x="11.906"
           style="fill:#b17a41;stroke-width:53.99100113" />
        <rect
           id="rect1501"
           ry="0"
           height="1.7198"
           width="1.7198"
           y="6.7466998"
           x="13.626"
           style="fill:#a2703c;stroke-width:53.99100113" />
        <rect
           id="rect1503"
           ry="0"
           height="1.7198"
           width="1.7198"
           y="5.027"
           x="1.5875"
           style="fill:#4eb84b;stroke-width:53.99100113" />
        <rect
           id="rect1505"
           ry="0"
           height="1.7198"
           width="1.7198"
           y="5.027"
           x="3.3072"
           style="fill:#956837;stroke-width:53.99100113" />
        <rect
           id="rect1507"
           ry="0"
           height="1.7198"
           width="1.7198"
           y="5.027"
           x="5.027"
           style="fill:#7c502e;stroke-width:53.99100113" />
        <rect
           id="rect1509"
           ry="0"
           height="1.7198"
           width="1.7198"
           y="5.027"
           x="6.7466998"
           style="fill:#50a85f;stroke-width:53.99100113" />
        <rect
           id="rect1511"
           ry="0"
           height="1.7198"
           width="1.7198"
           y="5.027"
           x="8.4665003"
           style="fill:#43c340;stroke-width:53.99100113" />
        <rect
           id="rect1513"
           ry="0"
           height="1.7198"
           width="1.7198"
           y="5.027"
           x="10.186"
           style="fill:#3b843a;stroke-width:53.99100113" />
        <rect
           id="rect1515"
           ry="0"
           height="1.7198"
           width="1.7198"
           y="5.027"
           x="11.906"
           style="fill:#9b783a;stroke-width:53.99100113" />
        <rect
           id="rect1517"
           ry="0"
           height="1.7198"
           width="1.7198"
           y="5.027"
           x="13.626"
           style="fill:#377c36;stroke-width:53.99100113" />
        <rect
           id="rect1519"
           ry="0"
           height="1.7198"
           width="1.7198"
           y="3.3072"
           x="1.5875"
           style="fill:#499648;stroke-width:53.99100113" />
        <rect
           id="rect1521"
           ry="0"
           height="1.7198"
           width="1.7198"
           y="3.3072"
           x="3.3072"
           style="fill:#45a943;stroke-width:53.99100113" />
        <rect
           id="rect1523"
           ry="0"
           height="1.7198"
           width="1.7198"
           y="3.3072"
           x="5.027"
           style="fill:#3b843a;stroke-width:53.99100113" />
        <rect
           id="rect1525"
           ry="0"
           height="1.7198"
           width="1.7198"
           y="3.3072"
           x="6.7466998"
           style="fill:#4eb84b;stroke-width:53.99100113" />
        <rect
           id="rect1527"
           ry="0"
           height="1.7198"
           width="1.7198"
           y="3.3072"
           x="8.4665003"
           style="fill:#499648;stroke-width:53.99100113" />
        <rect
           id="rect1529"
           ry="0"
           height="1.7198"
           width="1.7198"
           y="3.3072"
           x="10.186"
           style="fill:#45a943;stroke-width:53.99100113" />
        <rect
           id="rect1531"
           ry="0"
           height="1.7198"
           width="1.7198"
           y="3.3072"
           x="11.906"
           style="fill:#3ca33b;stroke-width:53.99100113" />
        <rect
           id="rect1533"
           ry="0"
           height="1.7198"
           width="1.7198"
           y="3.3072"
           x="13.626"
           style="fill:#499648;stroke-width:53.99100113" />
        <path
           id="path1535"
           d="M 9,6 C 7.3381,6 6,7.3381 6,9 v 3.5 h 6.5 V 6 Z"
           transform="matrix(0.26458,0,0,0.26458,3.2916e-5,3.2916e-5)"
           inkscape:connector-curvature="0"
           style="fill:#3eb13b;stroke-width:204.07000732" />
        <rect
           id="rect1537"
           ry="0"
           height="1.7198"
           width="1.7198"
           y="1.5875"
           x="3.3072"
           style="fill:#499648;stroke-width:53.99100113" />
        <rect
           id="rect1539"
           ry="0"
           height="1.7198"
           width="1.7198"
           y="1.5875"
           x="5.027"
           style="fill:#548b53;stroke-width:53.99100113" />
        <rect
           id="rect1541"
           ry="0"
           height="1.7198"
           width="1.7198"
           y="1.5875"
           x="6.7466998"
           style="fill:#3b843a;stroke-width:53.99100113" />
        <rect
           id="rect1543"
           ry="0"
           height="1.7198"
           width="1.7198"
           y="1.5875"
           x="8.4665003"
           style="fill:#3b843a;stroke-width:53.99100113" />
        <rect
           id="rect1545"
           ry="0"
           height="1.7198"
           width="1.7198"
           y="1.5875"
           x="10.186"
           style="fill:#499648;stroke-width:53.99100113" />
        <rect
           id="rect1547"
           ry="0"
           height="1.7198"
           width="1.7198"
           y="1.5875"
           x="11.906"
           style="fill:#46b044;stroke-width:53.99100113" />
        <path
           id="path1549"
           d="m 25.508,18.98 -12.998,0.01367 -0.01172,13.004 -6.498,0.0039 v 22.998 c 0,1.6619 1.3381,3 3,3 h 46 c 1.6619,0 3,-1.3381 3,-3 v -29.5 l -6.5039,-0.0059 v -6.4961 h -6.4961 v 13.002 h -6.5059 l 0.002,-6.5137 -12.996,0.01172 0.0078,-6.5176 z"
           transform="matrix(0.26458,0,0,0.26458,3.2916e-5,3.2916e-5)"
           inkscape:connector-curvature="0"
           style="fill:url(#e);stroke-width:204.07000732" />
        <path
           id="path1551"
           d="M 8.9609,6.0039 C 7.3177,6.02524 6,7.3515 6,9 v 23.004 l 6.498,-0.0059 v -6.4922 l -0.002,-6.5039 6.5,0.03711 6.5059,-0.04297 -0.0098,6.5039 12.996,-0.0039 0.0039,6.5059 6.5059,-0.0059 0.0039,-12.988 6.498,-0.01172 -0.0059,6.5039 h 6.5039 v -16.52 c -0.01064,-1.6392 -1.3224,-2.9553 -2.959,-2.9766 H 8.9608 Z"
           transform="matrix(0.26458,0,0,0.26458,3.2916e-5,3.2916e-5)"
           inkscape:connector-curvature="0"
           style="fill:#51c164;fill-opacity:0.87006004;stroke-width:204.07000732" />
      </g>
      <rect
         id="rect1555"
         clip-path="url(#c-6)"
         height="13.758"
         width="13.758"
         y="1.5875"
         x="1.5875"
         style="fill:none" />
      <rect
         id="rect1557"
         height="13.758"
         width="13.758"
         y="1.5875"
         x="1.5875"
         style="fill:none" />
    </g>
    <g
       id="g1716"
       transform="matrix(1.0000197,0,0,1.0000197,105.0078,-125.78757)">
      <circle
         id="circle1698"
         style="fill:#f88e45;paint-order:stroke markers fill"
         r="7.1436"
         cy="288.53"
         cx="8.4665003" />
      <path
         id="path1700"
         d="m 4.07,287.872 -0.344,2.688 a 0.697,0.697 0 0 0 -0.022,0.17 c 0,0.394 0.328,0.713 0.733,0.713 A 0.74,0.74 0 0 0 5,291.185 v 10e-4 l 2.001,-2.243 z m 8.793,0 -2.931,1.071 2,2.244 10e-4,-0.001 a 0.74,0.74 0 0 0 0.563,0.258 c 0.405,0 0.733,-0.32 0.733,-0.714 a 0.693,0.693 0 0 0 -0.021,-0.17 z"
         inkscape:connector-curvature="0"
         style="fill:#ffffff" />
      <path
         id="path1702"
         d="m 6.218,285.09 a 2.249,2.249 0 1 0 1.24,4.123 h 2.017 a 2.249,2.249 0 1 0 1.24,-4.123 H 8.092 Z"
         inkscape:connector-curvature="0"
         style="fill:#ffffff" />
      <path
         id="path1704"
         d="m 10.848,285.887 a 0.397,0.397 0 0 0 -0.397,0.397 0.397,0.397 0 0 0 0.397,0.397 0.397,0.397 0 0 0 0.397,-0.397 0.397,0.397 0 0 0 -0.397,-0.397 z"
         inkscape:connector-curvature="0"
         style="fill:#27ae60" />
      <path
         id="path1706"
         d="m 10.054,286.681 a 0.397,0.397 0 0 0 -0.397,0.397 0.397,0.397 0 0 0 0.397,0.397 0.397,0.397 0 0 0 0.397,-0.397 0.397,0.397 0 0 0 -0.397,-0.397 z"
         inkscape:connector-curvature="0"
         style="fill:#f36137" />
      <path
         id="path1708"
         d="m 11.642,286.681 a 0.397,0.397 0 0 0 -0.397,0.397 0.397,0.397 0 0 0 0.397,0.397 0.397,0.397 0 0 0 0.397,-0.397 0.397,0.397 0 0 0 -0.397,-0.397 z"
         inkscape:connector-curvature="0"
         style="fill:#f05242" />
      <path
         id="path1710"
         d="m 10.848,287.475 a 0.397,0.397 0 0 0 -0.397,0.397 0.397,0.397 0 0 0 0.397,0.397 0.397,0.397 0 0 0 0.397,-0.397 0.397,0.397 0 0 0 -0.397,-0.397 z"
         inkscape:connector-curvature="0"
         style="fill:#2980b9" />
      <circle
         id="circle1712"
         r="0.79400003"
         cy="286.95001"
         cx="6.085"
         style="fill:#f88e45;paint-order:stroke markers fill" />
      <path
         id="path1714"
         d="m 7.144,288.533 a 0.53,0.53 0 0 0 -0.53,0.53 0.53,0.53 0 0 0 0.53,0.529 0.53,0.53 0 0 0 0.529,-0.53 0.53,0.53 0 0 0 -0.53,-0.529 z m 2.646,0 a 0.53,0.53 0 0 0 -0.53,0.53 0.53,0.53 0 0 0 0.53,0.529 0.53,0.53 0 0 0 0.529,-0.53 0.53,0.53 0 0 0 -0.53,-0.529 z"
         inkscape:connector-curvature="0"
         style="fill:#666666;stroke:#e1e1e1;stroke-width:0.52899998;stroke-linecap:square;paint-order:markers stroke fill" />
    </g>
    <g
       id="g1777"
       transform="matrix(1.0000197,0,0,1.0000197,89.460431,-141.44349)">
      <rect
         id="rect1745"
         ry="0.82499999"
         rx="0.82499999"
         height="13.758"
         width="13.758"
         y="281.64999"
         x="1.5880001"
         style="fill:#ac8fac;paint-order:markers stroke fill" />
      <rect
         id="rect1747"
         ry="0.26499999"
         rx="0.26499999"
         height="11.642"
         width="11.642"
         y="282.70999"
         x="2.6459999"
         style="fill:#ffffff;paint-order:markers stroke fill" />
      <path
         id="path1749"
         d="m 10.451,282.71 v 3.681 H 6.482 v -3.681 z m 4.101,3.981 v 3.681 h -3.969 v -3.681 z m -4.101,3.957 v 3.681 H 6.482 v -3.681 z m -3.836,-3.969 v 3.681 H 2.646 v -3.681 z"
         inkscape:connector-curvature="0"
         style="opacity:0.05;paint-order:markers stroke fill" />
      <path
         id="path1751"
         d="m 6.085,282.71 h 0.529 v 11.642 H 6.085 Z m 4.234,0 h 0.529 v 11.642 h -0.529 z"
         inkscape:connector-curvature="0"
         style="fill:#e6dae6;paint-order:markers stroke fill" />
      <path
         id="path1753"
         d="m 14.288,286.15 v 0.529 H 2.646 v -0.529 z m 0,4.233 v 0.529 H 2.646 v -0.529 z"
         inkscape:connector-curvature="0"
         style="fill:#e6dae6;paint-order:markers stroke fill" />
      <path
         style="opacity:0.25;fill:url(#b-0);paint-order:markers stroke fill"
         id="path1755"
         d="m 15.346,287.253 a 12.383,12.383 0 0 1 -5.961,8.16 h 5.135 a 0.824,0.824 0 0 0 0.826,-0.826 z"
         inkscape:connector-curvature="0" />
      <g
         id="g1759"
         aria-label="5"
         style="fill:#666666;stroke-width:0.26499999">
        <path
           id="path1757"
           d="m 4.2221,285.62 c 0.39581,0 0.76608,-0.29047 0.76608,-0.80438 0,-0.51392 -0.31601,-0.74374 -0.70543,-0.74374 -0.14045,0 -0.24259,0.0351 -0.34793,0.0926 l 0.057456,-0.67671 h 0.88418 v -0.25216 h -1.1395 l -0.073416,1.098 0.15641,0.0958 c 0.13406,-0.0894 0.23302,-0.13725 0.38942,-0.13725 0.29366,0 0.48518,0.1979 0.48518,0.53306 0,0.34155 -0.22344,0.55222 -0.49795,0.55222 -0.27132,0 -0.4405,-0.12449 -0.57456,-0.25855 l -0.14364,0.19152 c 0.15641,0.1564 0.37985,0.30962 0.74374,0.30962 z"
           inkscape:connector-curvature="0" />
      </g>
      <rect
         id="rect1761"
         ry="0.47"
         rx="0.47"
         height="4.2329998"
         width="4.2329998"
         y="-10.583"
         x="286.42001"
         transform="rotate(90)"
         style="fill:#de8787;paint-order:markers stroke fill" />
      <g
         id="g1775"
         style="stroke-width:0.26499999">
        <g
           id="g1765"
           aria-label="2"
           style="fill:#ffffff">
          <path
             id="path1763"
             d="M 7.7383,289.59 H 9.208 v -0.25185 H 8.56084 c -0.11796,0 -0.26142,0.0127 -0.38256,0.0223 0.54834,-0.51964 0.91496,-0.99465 0.91496,-1.4601 0,-0.41763 -0.26142,-0.6918 -0.67904,-0.6918 -0.29648,0 -0.49733,0.13709 -0.68861,0.34431 l 0.16896,0.16577 c 0.12752,-0.15302 0.2933,-0.27098 0.48458,-0.27098 0.29011,0 0.43038,0.19447 0.43038,0.46226 0,0.40169 -0.33793,0.86714 -1.0712,1.5079 z"
             inkscape:connector-curvature="0" />
        </g>
        <g
           id="g1769"
           aria-label="3"
           style="fill:#666666">
          <path
             id="path1767"
             d="m 8.4661,293.82 c 0.40729,0 0.73626,-0.24438 0.73626,-0.6548 0,-0.3133 -0.21618,-0.52008 -0.48562,-0.58274 v -0.0125 c 0.24124,-0.0909 0.40729,-0.27571 0.40729,-0.55454 0,-0.36343 -0.28197,-0.57647 -0.66733,-0.57647 -0.2663,0 -0.46995,0.11592 -0.64226,0.2757 l 0.15352,0.18171 c 0.12845,-0.13158 0.29137,-0.22244 0.47622,-0.22244 0.23811,0 0.38849,0.14412 0.38849,0.36343 0,0.24751 -0.16292,0.43862 -0.636,0.43862 v 0.21931 c 0.52948,0 0.71432,0.18485 0.71432,0.45742 0,0.2663 -0.19425,0.42922 -0.46682,0.42922 -0.26004,0 -0.43549,-0.12219 -0.57021,-0.26317 l -0.14412,0.18798 c 0.15038,0.16291 0.37596,0.3133 0.73626,0.3133 z"
             inkscape:connector-curvature="0" />
        </g>
        <g
           id="g1773"
           aria-label="9"
           style="fill:#666666">
          <path
             id="path1771"
             d="m 12.07,292.19 c 0,-0.3133 0.16918,-0.52008 0.38849,-0.52008 0.2945,0 0.46995,0.25064 0.50128,0.72372 -0.14725,0.21618 -0.3227,0.30704 -0.47935,0.30704 -0.27257,0 -0.41042,-0.20051 -0.41042,-0.51068 z m 0.32583,1.6354 c 0.43235,0 0.83338,-0.35717 0.83338,-1.2877 0,-0.72999 -0.32896,-1.0934 -0.77072,-1.0934 -0.35716,0 -0.65793,0.30076 -0.65793,0.74565 0,0.47622 0.25064,0.72372 0.63287,0.72372 0.19111,0 0.38849,-0.10965 0.52948,-0.28197 -0.02193,0.71119 -0.27884,0.95557 -0.57647,0.95557 -0.14725,0 -0.28824,-0.0658 -0.38223,-0.17545 l -0.15978,0.17858 c 0.12845,0.13472 0.3039,0.23498 0.55141,0.23498 z"
             inkscape:connector-curvature="0" />
        </g>
      </g>
    </g>
    <g
       id="g2460"
       transform="matrix(1.0000197,0,0,1.0000197,105.49434,138.07401)">
      <path
         id="path2431"
         d="m 14.658,2.138 v 9.906 a 0.55,0.55 0 0 1 -0.55,0.55 H 6.265 a 0.55,0.55 0 0 1 -0.55,-0.55 V 2.138 a 0.55,0.55 0 0 1 0.55,-0.55 h 7.843 a 0.55,0.55 0 0 1 0.55,0.55 z"
         inkscape:connector-curvature="0"
         style="fill:#ebebeb" />
      <g
         id="g2437"
         style="fill:#3f3f3f;stroke-width:0.76899999">
        <path
           id="path2433"
           d="M 10.186,4.349 A 1.338,1.338 0 0 0 8.85,5.686 1.338,1.338 0 0 0 9.033,6.358 1.338,1.338 0 0 0 7.78,7.693 1.338,1.338 0 0 0 9.116,9.03 1.338,1.338 0 0 0 10.186,8.493 1.338,1.338 0 0 0 11.256,9.03 1.338,1.338 0 0 0 12.594,7.693 1.338,1.338 0 0 0 11.341,6.359 1.338,1.338 0 0 0 11.524,5.686 1.338,1.338 0 0 0 10.186,4.349 Z"
           inkscape:connector-curvature="0" />
        <path
           id="path2435"
           d="M 10.53,8.467 H 9.842 c 0,0 0,1.032 -1.031,1.032 v 0.344 h 2.751 V 9.499 C 10.53,9.499 10.53,8.467 10.53,8.467 Z"
           inkscape:connector-curvature="0"
           style="fill-rule:evenodd" />
      </g>
      <path
         id="path2439"
         d="m 11.218,4.89 v 9.906 a 0.55,0.55 0 0 1 -0.55,0.55 H 2.826 a 0.55,0.55 0 0 1 -0.55,-0.55 V 4.89 a 0.55,0.55 0 0 1 0.55,-0.55 h 7.842 a 0.55,0.55 0 0 1 0.55,0.55 z"
         inkscape:connector-curvature="0"
         style="fill:#ffffff;stroke:#000000;stroke-width:0.26499999;stroke-opacity:0.09800002;paint-order:stroke fill markers" />
      <path
         id="path2441"
         d="m 11.218,4.89 v 9.906 a 0.55,0.55 0 0 1 -0.55,0.55 H 2.826 a 0.55,0.55 0 0 1 -0.55,-0.55 V 4.89 a 0.55,0.55 0 0 1 0.55,-0.55 h 7.842 a 0.55,0.55 0 0 1 0.55,0.55 z"
         inkscape:connector-curvature="0"
         style="fill:#ffffff;paint-order:stroke fill markers" />
      <path
         id="path2443"
         d="m 7.8,7.779 c -0.428,0 -0.805,0.202 -1.053,0.512 A 1.346,1.346 0 0 0 5.694,7.779 c -0.749,0 -1.355,0.606 -1.355,1.354 0,0.015 0.004,0.03 0.005,0.044 H 4.339 c 0,1.389 2.408,3.417 2.408,3.417 0,0 2.408,-2.028 2.408,-3.417 H 9.15 C 9.15,9.162 9.155,9.148 9.155,9.133 9.155,8.385 8.548,7.779 7.8,7.779 Z"
         inkscape:connector-curvature="0"
         style="fill:#f34235" />
    </g>
  </g>
</svg>
