<?xml version="1.0" encoding="UTF-8" standalone="no"?>
<!-- Created with Inkscape (http://www.inkscape.org/) -->

<svg
   xmlns:dc="http://purl.org/dc/elements/1.1/"
   xmlns:cc="http://creativecommons.org/ns#"
   xmlns:rdf="http://www.w3.org/1999/02/22-rdf-syntax-ns#"
   xmlns:svg="http://www.w3.org/2000/svg"
   xmlns="http://www.w3.org/2000/svg"
   xmlns:xlink="http://www.w3.org/1999/xlink"
   xmlns:sodipodi="http://sodipodi.sourceforge.net/DTD/sodipodi-0.dtd"
   xmlns:inkscape="http://www.inkscape.org/namespaces/inkscape"
   width="29.361181mm"
   height="29.814135mm"
   viewBox="0 0 29.361181 29.814135"
   version="1.1"
   id="svg3529"
   inkscape:version="0.92.4 (5da689c313, 2019-01-14)"
   sodipodi:docname="graphics.svg">
  <defs
     id="defs3523">
    <linearGradient
       gradientTransform="matrix(0.06077,0,0,0.06077,-88.493809,316.23349)"
       gradientUnits="userSpaceOnUse"
       y2="62"
       x2="156.07899"
       y1="124.126"
       x1="196"
       id="c-9"
       xlink:href="#b-1" />
    <linearGradient
       id="b-1">
      <stop
         id="stop1650"
         stop-color="#763704"
         offset="0" />
      <stop
         id="stop1652"
         stop-opacity="0"
         stop-color="#763704"
         offset="1" />
    </linearGradient>
    <linearGradient
       gradientTransform="matrix(0.04297238,-0.04296938,0.04296938,0.04297238,-93.939719,329.14056)"
       y2="62"
       x2="156.07899"
       y1="124.126"
       x1="196"
       gradientUnits="userSpaceOnUse"
       id="d-2"
       xlink:href="#b-1" />
    <linearGradient
       y2="62"
       x2="156.07899"
       y1="124.126"
       x1="196"
       gradientTransform="matrix(0,-0.06077,0.06077,0,-88.487809,341.98749)"
       gradientUnits="userSpaceOnUse"
       id="e-7"
       xlink:href="#b-1" />
  </defs>
  <sodipodi:namedview
     id="base"
     pagecolor="#ffffff"
     bordercolor="#666666"
     borderopacity="1.0"
     inkscape:pageopacity="0.0"
     inkscape:pageshadow="2"
     inkscape:zoom="0.35"
     inkscape:cx="-167.37145"
     inkscape:cy="-280.80118"
     inkscape:document-units="mm"
     inkscape:current-layer="layer1"
     showgrid="false"
     fit-margin-top="0"
     fit-margin-left="0"
     fit-margin-right="0"
     fit-margin-bottom="0"
     inkscape:window-width="960"
     inkscape:window-height="1003"
     inkscape:window-x="960"
     inkscape:window-y="0"
     inkscape:window-maximized="0" />
  <metadata
     id="metadata3526">
    <rdf:RDF>
      <cc:Work
         rdf:about="">
        <dc:format>image/svg+xml</dc:format>
        <dc:type
           rdf:resource="http://purl.org/dc/dcmitype/StillImage" />
        <dc:title></dc:title>
      </cc:Work>
    </rdf:RDF>
  </metadata>
  <g
     inkscape:label="Taso 1"
     inkscape:groupmode="layer"
     id="layer1"
     transform="translate(-11.02179,-44.723885)">
    <g
       id="g1133"
       transform="matrix(1.0000197,0,0,1.0000197,9.8145387,43.277168)"
       style="fill-rule:evenodd">
      <path
         id="path1127"
         d="M 8.466,1.588 C 8.073,1.588 7.69,1.735 7.388,2.046 L 2.023,7.576 A 1.632,1.632 0 0 0 1.565,8.683 V 8.71 c 0,1.185 3.165,0.034 3.45,1.483 0.155,0.785 -1.725,0.425 -1.725,1.214 0,0.926 2.662,0.29 3.424,1.052 0.313,0.764 -1.019,0.64 -0.782,1.35 0.447,0.46 1.452,0.2 1.645,0.944 0.22,0.85 1.664,0.703 2.507,0.08 0.447,-0.46 -0.69,-0.671 -0.242,-1.133 0.446,-0.46 2.653,-0.368 2.669,-1.375 -0.211,-0.634 -1.04,-0.736 -1.052,-1.484 -0.044,-0.634 0.678,-0.449 2.966,-1.08 C 15.34,9.333 15.372,9.105 15.368,8.71 V 8.683 C 15.363,8.284 15.178,7.882 14.883,7.577 L 9.545,2.047 A 1.479,1.479 0 0 0 8.467,1.587 Z m 6.255,9.469 a 1.066,1.066 0 0 0 -0.297,0.027 c -0.146,0.042 -0.839,0.066 -0.782,0.593 0.628,0.263 1.585,0.473 1.699,-0.054 0.086,-0.395 -0.293,-0.554 -0.62,-0.566 z M 4.018,12.81 c -0.061,0.007 -0.102,0.032 -0.162,0.054 -0.476,0.181 -0.795,0.562 -0.35,0.729 0.444,0.166 0.742,-0.01 1.132,-0.216 0.39,-0.207 0.379,-0.244 0.35,-0.324 -0.054,0.01 -0.408,-0.21 -0.781,-0.243 a 0.986,0.986 0 0 0 -0.19,0 z"
         inkscape:connector-curvature="0"
         style="fill:#4d4d4d" />
      <path
         id="path1129"
         d="m 8.573,3.062 c 0.404,0.003 1.51,1.371 2.496,2.396 0.277,0.372 -0.146,0.798 -0.146,0.798 L 8.958,5.027 7.975,6.256 7.238,5.273 6.747,6.993 5.273,6.131 7.875,3.358 C 8.046,3.184 8.177,3.058 8.573,3.062 Z"
         inkscape:connector-curvature="0"
         style="fill:#ffffff" />
      <path
         id="path1131"
         d="m 8.72,1.61 a 9.213,9.213 0 0 1 2.45,6.242 9.213,9.213 0 0 1 -3.448,7.183 c 0.443,0.52 1.63,0.34 2.362,-0.202 0.447,-0.46 -0.689,-0.671 -0.242,-1.133 0.446,-0.46 2.653,-0.367 2.669,-1.375 C 12.3,11.692 11.472,11.589 11.459,10.841 11.415,10.207 12.137,10.393 14.425,9.761 15.34,9.333 15.372,9.105 15.368,8.71 V 8.683 C 15.363,8.284 15.178,7.882 14.883,7.577 L 9.545,2.047 A 1.475,1.475 0 0 0 8.719,1.61 Z m 6.001,9.447 a 1.066,1.066 0 0 0 -0.297,0.027 c -0.146,0.042 -0.838,0.066 -0.781,0.593 0.627,0.263 1.584,0.473 1.698,-0.054 0.086,-0.395 -0.293,-0.554 -0.62,-0.566 z"
         inkscape:connector-curvature="0"
         style="opacity:0.15" />
    </g>
    <g
       id="g1248"
       transform="matrix(0.26458333,0,0,0.26458333,9.873763,59.059895)">
      <path
         id="path1201"
         d="M 15,6 5,16 v 39 c 0,1.662 1.338,3 3,3 h 48 c 1.662,0 3,-1.338 3,-3 V 9 C 59,7.338 57.662,6 56,6 Z"
         inkscape:connector-curvature="0"
         style="fill:#f2f2f2;stroke:#000000;stroke-opacity:0.19607999" />
      <path
         id="path1203"
         d="M 15,6 5,16 v 39 c 0,1.662 1.338,3 3,3 h 48 c 1.662,0 3,-1.338 3,-3 V 9 C 59,7.338 57.662,6 56,6 Z"
         inkscape:connector-curvature="0"
         style="fill:#f2f2f2" />
      <circle
         id="circle1205"
         stroke-miterlimit="10"
         r="2"
         cy="31.5"
         cx="21.5"
         style="fill:none;stroke:#c9caca;stroke-miterlimit:10" />
      <circle
         id="circle1207"
         stroke-miterlimit="10"
         r="2"
         cy="41.5"
         cx="21.5"
         style="fill:none;stroke:#c9caca;stroke-miterlimit:10" />
      <g
         id="g1223"
         style="fill:#b3b3b3">
        <path
           id="path1209"
           d="M 4.339,16 15,5.339 V 16 Z"
           inkscape:connector-curvature="0"
           style="stroke-width:1.523" />
        <rect
           id="rect1211"
           height="1"
           width="42"
           y="20"
           x="11"
           style="opacity:0.5" />
        <rect
           id="rect1213"
           height="1"
           width="42"
           y="24"
           x="11"
           style="opacity:0.5" />
        <rect
           id="rect1215"
           height="1"
           width="42"
           y="47"
           x="11"
           style="opacity:0.5" />
        <rect
           id="rect1217"
           height="1"
           width="42"
           y="51"
           x="11"
           style="opacity:0.5" />
        <rect
           id="rect1219"
           height="1"
           width="36"
           y="-15"
           x="18"
           transform="rotate(90)"
           style="opacity:0.5" />
        <rect
           id="rect1221"
           height="1"
           width="36"
           y="-50"
           x="18"
           transform="rotate(90)"
           style="opacity:0.5" />
      </g>
      <path
         id="path1225"
         d="M 6,54 H 54 V 22 Z M 47,47 H 29 L 47,35 Z"
         inkscape:connector-curvature="0"
         style="opacity:0.7;fill:#64cf00;stroke-width:1.16059995" />
    </g>
    <g
       id="g1673"
       transform="matrix(0.92328817,0,0,0.92328817,25.488487,-198.60523)">
      <path
         id="path1659"
         d="m 8.069,280.607 a 1.024,1.024 0 0 0 -0.727,0.301 1.025,1.025 0 0 0 0,1.453 l 2.854,2.854 h -7.44 a 1.025,1.025 0 0 0 -1.027,1.027 1.025,1.025 0 0 0 1.027,1.027 c 1.07,-0.003 2.587,-0.003 4.04,-0.003 l -5.264,5.263 a 1.025,1.025 0 0 0 0,1.452 1.025,1.025 0 0 0 1.452,0 c 0.773,-0.776 1.88,-1.883 2.93,-2.933 a 5.136,5.136 0 0 0 5.082,4.438 c 2.836,0 5.136,-2.3 5.136,-5.136 a 5.136,5.136 0 0 0 -1.76,-3.866 2564.902,2564.902 0 0 1 -5.577,-5.576 1.024,1.024 0 0 0 -0.726,-0.302 z m 2.987,8.521 a 1.199,1.199 0 1 1 0,2.398 1.199,1.199 0 0 1 0,-2.398 z"
         inkscape:connector-curvature="0"
         style="fill:#ff892c" />
      <path
         id="path1661"
         d="m 11.052,286.385 a 3.946,3.946 0 0 0 -3.946,3.946 3.946,3.946 0 0 0 3.946,3.946 3.946,3.946 0 0 0 3.945,-3.946 3.946,3.946 0 0 0 -3.945,-3.946 z m 0,2.403 a 1.543,1.543 0 0 1 1.543,1.543 1.543,1.543 0 0 1 -1.543,1.543 1.543,1.543 0 0 1 -1.544,-1.543 1.543,1.543 0 0 1 1.544,-1.543 z"
         inkscape:connector-curvature="0"
         style="fill:#ffffff;fill-opacity:0.09899998" />
      <path
         id="path1663"
         d="m 11.052,287.246 a 3.082,3.082 0 0 0 -3.082,3.081 3.082,3.082 0 0 0 3.082,3.082 3.082,3.082 0 0 0 3.081,-3.082 3.082,3.082 0 0 0 -3.081,-3.081 z m 0,1.876 a 1.205,1.205 0 0 1 1.205,1.205 1.205,1.205 0 0 1 -1.205,1.205 1.205,1.205 0 0 1 -1.206,-1.205 1.205,1.205 0 0 1 1.206,-1.205 z"
         inkscape:connector-curvature="0"
         style="fill:#ffffff" />
      <circle
         id="circle1665"
         overflow="visible"
         display="block"
         r="1.577"
         cy="290.33099"
         cx="11.052"
         style="color:#000000;display:block;overflow:visible;isolation:auto;mix-blend-mode:normal;fill:#2e57b1;marker:none;paint-order:fill markers stroke" />
      <path
         style="fill:url(#c-9)"
         id="path1667"
         d="m 8.069,280.607 a 1.024,1.024 0 0 0 -0.727,0.301 1.025,1.025 0 0 0 0,1.453 l 2.854,2.854 -2.127,-4.609 z"
         inkscape:connector-curvature="0" />
      <path
         style="fill:url(#d-2)"
         id="path1669"
         d="m 1.974,285.523 a 1.024,1.024 0 0 0 -0.3,0.727 1.025,1.025 0 0 0 1.027,1.027 h 4.036 z"
         inkscape:connector-curvature="0" />
      <path
         style="fill:url(#e-7)"
         id="path1671"
         d="m 1.318,293.143 c 0,0.262 0.101,0.525 0.302,0.726 a 1.025,1.025 0 0 0 1.453,0 l 2.854,-2.854 z"
         inkscape:connector-curvature="0" />
    </g>
    <g
       id="g1982"
       transform="matrix(1.0000197,0,0,1.0000197,24.61914,43.400953)">
      <g
         id="g1944"
         transform="matrix(1.0382,0,0,1.0384,-0.32156,-0.32192)"
         style="stroke-width:0.96313">
        <path
           id="path1920"
           style="isolation:isolate;fill:#46a926"
           d="m 13.323,3.603 c -0.048,0.049 2.02,4.86 2.02,4.86 l -2.02,4.858 c 0,0 -4.86,-2.568 -4.86,-4.859 0,-2.29 4.86,-4.859 4.86,-4.859 z"
           inkscape:connector-curvature="0" />
        <path
           id="path1922"
           style="isolation:isolate;fill:#f22c42"
           d="M 3.604,13.321 C 3.653,13.272 1.584,8.462 1.584,8.462 l 2.02,-4.859 c 0,0 4.86,2.569 4.86,4.86 0,2.29 -4.86,4.858 -4.86,4.858 z"
           inkscape:connector-curvature="0" />
        <path
           id="path1924"
           style="isolation:isolate;fill:#ffda64"
           d="M 13.323,3.603 C 13.275,3.652 8.463,1.584 8.463,1.584 l -4.86,2.019 4.86,4.86 z"
           inkscape:connector-curvature="0" />
        <path
           id="path1926"
           style="isolation:isolate;fill:#2f5fdd"
           d="m 3.604,13.321 4.86,2.013 c 0,0 4.81,-2.062 4.86,-2.013 L 8.464,8.462 Z"
           inkscape:connector-curvature="0" />
        <path
           id="path1928"
           style="isolation:isolate;fill:#a6d74f"
           d="M 8.464,1.587 C 8.463,3.345 9.136,5.103 10.483,6.449 L 13.328,3.605 A 6.88,6.88 0 0 0 8.467,1.587 Z"
           inkscape:connector-curvature="0" />
        <path
           id="path1930"
           style="isolation:isolate;fill:#76c22b"
           d="M 13.328,3.605 10.483,6.449 A 6.84,6.84 0 0 0 15.346,8.461 6.88,6.88 0 0 0 13.328,3.605 Z"
           inkscape:connector-curvature="0" />
        <path
           id="path1932"
           style="isolation:isolate;fill:#1463a5"
           d="m 10.476,10.481 a 6.85,6.85 0 0 0 -2.019,4.862 h 0.069 a 6.88,6.88 0 0 0 4.8,-2.013 z"
           inkscape:connector-curvature="0" />
        <path
           id="path1934"
           style="isolation:isolate;fill:#2b898f"
           d="m 15.346,8.469 a 6.84,6.84 0 0 0 -4.87,2.012 l 2.85,2.85 a 6.88,6.88 0 0 0 2.02,-4.862 z"
           inkscape:connector-curvature="0" />
        <path
           id="path1936"
           style="isolation:isolate;fill:#9b33ae"
           d="m 1.587,8.463 a 6.88,6.88 0 0 0 0,0.003 6.88,6.88 0 0 0 2.014,4.857 l 2.85,-2.848 A 6.839,6.839 0 0 0 1.587,8.464 Z"
           inkscape:connector-curvature="0" />
        <path
           id="path1938"
           style="isolation:isolate;fill:#7839b7"
           d="M 6.45,10.475 3.6,13.323 a 6.88,6.88 0 0 0 4.826,2.02 H 8.469 A 6.85,6.85 0 0 0 6.45,10.475 Z"
           inkscape:connector-curvature="0" />
        <path
           id="path1940"
           style="isolation:isolate;fill:#fdc92b"
           d="M 8.467,1.587 A 6.88,6.88 0 0 0 3.609,3.602 l 2.848,2.847 a 6.85,6.85 0 0 0 2.019,-4.861 6.88,6.88 0 0 0 -0.01,0 z"
           inkscape:connector-curvature="0" />
        <path
           id="path1942"
           style="isolation:isolate;fill:#f34f17"
           d="M 3.609,3.602 A 6.88,6.88 0 0 0 1.588,8.461 6.84,6.84 0 0 0 6.457,6.449 Z"
           inkscape:connector-curvature="0" />
      </g>
      <circle
         id="circle1946"
         style="opacity:0.35;fill:#ffffff;paint-order:fill markers stroke"
         r="5.2916002"
         cy="8.4665003"
         cx="8.4665003" />
      <g
         id="g1954"
         style="fill:#ffffff">
        <path
           id="path1948"
           style="color:#000000;overflow:visible;opacity:0.5;isolation:auto;mix-blend-mode:normal;paint-order:fill markers stroke"
           overflow="visible"
           d="m 9.59,9.589 a 1.588,1.588 0 0 1 -2.246,0 1.588,1.588 0 0 1 0,-2.245 1.588,1.588 0 0 1 2.245,0 1.588,1.588 0 0 1 0,2.245 z"
           inkscape:connector-curvature="0" />
        <path
           id="path1950"
           style="color:#000000;overflow:visible;isolation:auto;mix-blend-mode:normal;paint-order:fill markers stroke"
           overflow="visible"
           d="M 8.467,4.031 A 0.126,0.126 0 0 0 8.379,4.069 L 6.277,6.171 a 3.175,3.175 0 0 0 -0.056,0.05 3.175,3.175 0 0 0 0,4.49 3.175,3.175 0 0 0 4.49,0 3.175,3.175 0 0 0 10e-4,-4.49 3.175,3.175 0 0 0 -0.076,-0.07 C 10.632,6.146 10.631,6.141 10.626,6.136 L 8.559,4.069 A 0.126,0.126 0 0 0 8.467,4.031 Z M 8.49,6.879 a 1.588,1.588 0 0 1 1.1,0.465 1.588,1.588 0 0 1 0,2.245 1.588,1.588 0 0 1 -2.246,0 1.588,1.588 0 0 1 0,-2.245 1.588,1.588 0 0 1 1.146,-0.465 z"
           inkscape:connector-curvature="0" />
        <path
           id="path1952"
           style="color:#000000;overflow:visible;isolation:auto;mix-blend-mode:normal;paint-order:fill markers stroke"
           overflow="visible"
           d="M 9.022,7.718 8.461,8.279 7.9,7.718 7.712,7.905 8.274,8.466 7.724,9.039 7.9,9.215 8.46,8.653 9.022,9.215 9.221,9.039 8.648,8.466 9.209,7.906 Z"
           inkscape:connector-curvature="0" />
      </g>
    </g>
  </g>
</svg>
