<?xml version="1.0" encoding="UTF-8" standalone="no"?>
<!-- Created with Inkscape (http://www.inkscape.org/) -->

<svg
   xmlns:dc="http://purl.org/dc/elements/1.1/"
   xmlns:cc="http://creativecommons.org/ns#"
   xmlns:rdf="http://www.w3.org/1999/02/22-rdf-syntax-ns#"
   xmlns:svg="http://www.w3.org/2000/svg"
   xmlns="http://www.w3.org/2000/svg"
   xmlns:xlink="http://www.w3.org/1999/xlink"
   xmlns:sodipodi="http://sodipodi.sourceforge.net/DTD/sodipodi-0.dtd"
   xmlns:inkscape="http://www.inkscape.org/namespaces/inkscape"
   width="29.100828mm"
   height="29.59783mm"
   viewBox="0 0 29.100828 29.59783"
   version="1.1"
   id="svg9189"
   inkscape:version="0.92.4 (5da689c313, 2019-01-14)"
   sodipodi:docname="highschool.svg">
  <defs
     id="defs9183">
    <linearGradient
       inkscape:collect="always"
       xlink:href="#a-3"
       id="linearGradient9019"
       gradientUnits="userSpaceOnUse"
       x1="46.828999"
       y1="58"
       x2="46.828999"
       y2="6"
       gradientTransform="translate(176.66891,915.43012)" />
    <linearGradient
       id="a-3">
      <stop
         id="stop995"
         offset="0" />
      <stop
         id="stop997"
         stop-opacity="0"
         offset="1" />
    </linearGradient>
  </defs>
  <sodipodi:namedview
     id="base"
     pagecolor="#ffffff"
     bordercolor="#666666"
     borderopacity="1.0"
     inkscape:pageopacity="0.0"
     inkscape:pageshadow="2"
     inkscape:zoom="1.4"
     inkscape:cx="-143.72405"
     inkscape:cy="138.46831"
     inkscape:document-units="mm"
     inkscape:current-layer="layer1"
     showgrid="false"
     fit-margin-top="0"
     fit-margin-left="0"
     fit-margin-right="0"
     fit-margin-bottom="0"
     inkscape:window-width="1920"
     inkscape:window-height="1003"
     inkscape:window-x="0"
     inkscape:window-y="0"
     inkscape:window-maximized="1" />
  <metadata
     id="metadata9186">
    <rdf:RDF>
      <cc:Work
         rdf:about="">
        <dc:format>image/svg+xml</dc:format>
        <dc:type
           rdf:resource="http://purl.org/dc/dcmitype/StillImage" />
        <dc:title></dc:title>
      </cc:Work>
    </rdf:RDF>
  </metadata>
  <g
     inkscape:label="Taso 1"
     inkscape:groupmode="layer"
     id="layer1"
     transform="translate(-81.455538,-196.77847)">
    <g
       id="g2652"
       transform="matrix(1.0000197,0,0,1.0000197,80.166642,-84.607554)">
      <circle
         id="circle2638"
         style="fill:#34b05c;paint-order:stroke markers fill"
         r="7.1436"
         cy="288.53"
         cx="8.4665003" />
      <g
         id="g2650"
         transform="matrix(2,0,0,2,-7.408,-290.12)"
         style="fill:#ffffff;stroke-width:0.5">
        <path
           id="path2640"
           d="m 5.82,288.586 2.117,-0.846 2.117,0.846 -2.117,0.847"
           inkscape:connector-curvature="0" />
        <ellipse
           id="ellipse2642"
           ry="0.47600001"
           rx="1.058"
           cy="290.44"
           cx="7.9380002" />
        <path
           id="path2644"
           d="m 6.88,289.327 v 1.111 h 2.116 v -1.11 l -1.059,0.447 M 9.525,288.56 H 9.79 v 0.926 H 9.525 Z"
           inkscape:connector-curvature="0" />
        <circle
           id="circle2646"
           r="0.331"
           cy="289.47"
           cx="9.6569996" />
        <path
           id="path2648"
           d="m 9.571,289.655 -0.211,0.73 h 0.635 l -0.212,-0.73 z"
           inkscape:connector-curvature="0"
           style="fill-rule:evenodd" />
      </g>
    </g>
    <g
       id="g8943"
       transform="matrix(0.26458333,0,0,0.26458333,81.190955,209.6542)">
      <path
         id="path8925"
         d="M 28,9 C 42.912,9 55,21.088 55,36 55,50.912 42.912,63 28,63 13.088,63 1,50.912 1,36 1,21.088 13.088,9 28,9 Z"
         inkscape:connector-curvature="0"
         style="fill:#e9e9e9" />
      <g
         id="g8927"
         transform="matrix(1.1739,0,0,1.1739,1,9)"
         style="stroke-width:0.85184997" />
      <path
         id="path8929"
         d="m 24.245,24.591 c -7.5893,2.761 -11.763,10.139 -9.295,16.447 2.4711,6.3098 10.659,9.1941 18.246,6.433 7.5847,-2.761 11.763,-10.144 9.2903,-16.458 -2.4711,-6.3098 -10.659,-9.1894 -18.246,-6.4295 m 0.85343,2.1694 c 6.1818,-2.2516 12.785,0.07396 14.794,5.2051 2.0086,5.1265 -1.3523,11.083 -7.5389,13.334 -6.1865,2.2516 -12.793,-0.07748 -14.797,-5.2098 -2.0086,-5.1265 1.357,-11.079 7.5436,-13.33"
         inkscape:connector-curvature="0"
         style="fill:#666666" />
      <g
         id="g8941"
         style="fill:#9999ff">
        <path
           id="path8931"
           d="m 30.348,24.848 c 0,1.6188 -1.316,2.9348 -2.9348,2.9348 -1.6188,0 -2.9348,-1.316 -2.9348,-2.9348 0,-1.6188 1.316,-2.9348 2.9348,-2.9348 1.6188,0 2.9348,1.316 2.9348,2.9348"
           inkscape:connector-curvature="0" />
        <path
           id="path8933"
           d="m 43.261,29.543 c 0,1.6188 -1.316,2.9348 -2.9348,2.9348 -1.6188,0 -2.9348,-1.316 -2.9348,-2.9348 0,-1.6188 1.316,-2.9348 2.9348,-2.9348 1.6188,0 2.9348,1.316 2.9348,2.9348"
           inkscape:connector-curvature="0" />
        <path
           id="path8935"
           d="m 40.913,42.457 c 0,1.6188 -1.316,2.9348 -2.9348,2.9348 -1.6188,0 -2.9348,-1.316 -2.9348,-2.9348 0,-1.6188 1.316,-2.9348 2.9348,-2.9348 1.6188,0 2.9348,1.316 2.9348,2.9348"
           inkscape:connector-curvature="0" />
        <path
           id="path8937"
           d="m 25.652,47.152 c 0,1.6188 -1.316,2.9348 -2.9348,2.9348 -1.6188,0 -2.9348,-1.316 -2.9348,-2.9348 0,-1.6188 1.316,-2.9348 2.9348,-2.9348 1.6188,0 2.9348,1.316 2.9348,2.9348"
           inkscape:connector-curvature="0" />
        <path
           id="path8939"
           d="m 18.609,35.413 c 0,1.6188 -1.316,2.9348 -2.9348,2.9348 -1.6188,0 -2.9348,-1.316 -2.9348,-2.9348 0,-1.6188 1.316,-2.9348 2.9348,-2.9348 1.6188,0 2.9348,1.316 2.9348,2.9348"
           inkscape:connector-curvature="0" />
      </g>
    </g>
    <g
       id="g9006"
       transform="matrix(1.0000197,0,0,1.0000197,95.734467,-69.042164)"
       style="paint-order:markers stroke fill">
      <rect
         id="rect8998"
         ry="0.52899998"
         rx="0.52899998"
         y="281.65399"
         x="2.1170001"
         height="13.758"
         width="12.7"
         style="fill:#e91e63" />
      <path
         id="path9000"
         d="m 3.44,282.713 a 0.264,0.264 0 0 0 -0.265,0.264 v 11.113 c 0,0.146 0.118,0.264 0.265,0.264 h 10.054 a 0.264,0.264 0 0 0 0.264,-0.264 v -7.144 l -4.233,-4.233 z m 7.672,0 2.646,2.645 v -2.38 a 0.264,0.264 0 0 0 -0.264,-0.265 z"
         inkscape:connector-curvature="0"
         style="fill:#ffffff" />
      <path
         style="opacity:0.25;fill:url(#linearGradient9019)"
         id="path9002"
         transform="matrix(0.26458,0,0,0.26458,0,280.067)"
         d="M 50.102,6 A 52.5,52.5 0 0 1 52.5,21.5 52.5,52.5 0 0 1 37.658,58 H 54 c 1.108,0 2,-0.892 2,-2 V 8 C 56,6.892 55.108,6 54,6 Z"
         inkscape:connector-curvature="0" />
      <path
         id="path9004"
         d="m 5.027,287.475 v 1.058 h 6.88 v -1.058 z m 0.265,0.265 h 6.35 v 0.529 h -6.35 v -0.53 z m -0.265,1.323 v 1.058 h 6.88 v -1.058 z m 0.265,0.264 h 6.35 v 0.53 h -6.35 z m -0.265,1.323 v 1.058 h 6.88 v -1.058 z m 0.265,0.265 h 6.35 v 0.529 h -6.35 v -0.53 z"
         inkscape:connector-curvature="0"
         style="fill:#cccccc" />
    </g>
    <g
       id="g9132"
       transform="matrix(0.26458333,0,0,0.26458333,94.94595,195.45555)">
      <circle
         id="circle9085"
         style="fill:#e6e6e6;fill-rule:evenodd;paint-order:stroke fill markers"
         r="27"
         cy="32"
         cx="32" />
      <circle
         id="circle9087"
         style="opacity:0.5;fill:#ffffff;fill-rule:evenodd;paint-order:stroke fill markers"
         r="23"
         cy="32"
         cx="32" />
      <g
         id="g9109"
         transform="translate(0.30844,2.2191)">
        <g
           id="g9105"
           style="stroke-width:2;stroke-linecap:round;stroke-linejoin:bevel">
          <rect
             id="rect9089"
             height="9"
             width="4"
             y="31.281"
             x="15.692"
             style="fill:#0fb285" />
          <rect
             id="rect9091"
             height="21"
             width="4"
             y="19.281"
             x="19.691999"
             style="fill:#0fb285" />
          <rect
             id="rect9093"
             height="13"
             width="4"
             y="27.281"
             x="23.691999"
             style="fill:#c91727" />
          <rect
             id="rect9095"
             height="15"
             width="4"
             y="25.281"
             x="27.691999"
             style="fill:#0fb285" />
          <rect
             id="rect9097"
             height="18"
             width="4"
             y="22.281"
             x="31.691999"
             style="fill:#0fb285" />
          <rect
             id="rect9099"
             height="13"
             width="4"
             y="27.281"
             x="35.692001"
             style="fill:#c91727" />
          <rect
             id="rect9101"
             height="21"
             width="4"
             y="19.281"
             x="39.692001"
             style="fill:#0fb285" />
          <rect
             id="rect9103"
             height="17"
             width="4"
             y="23.281"
             x="43.692001"
             style="fill:#c91727" />
        </g>
        <path
           id="path9107"
           d="m 15.692,40.281 v -3 c 2,0 2,-3 4,-3 2,0 1.5,4 4,4 2.5,0 2,-4 4,-4 2,0 2,-4 4,-4 2,0 2,4 4,4 2,0 2,-2 4,-2 2,0 2,-5 4,-5 2,0 2,7 4,7 v 6 z"
           inkscape:connector-curvature="0"
           style="fill:#f4a01b;fill-rule:evenodd" />
      </g>
    </g>
  </g>
</svg>
