<?xml version="1.0" encoding="UTF-8" standalone="no"?>
<!-- Created with Inkscape (http://www.inkscape.org/) -->

<svg
   xmlns:dc="http://purl.org/dc/elements/1.1/"
   xmlns:cc="http://creativecommons.org/ns#"
   xmlns:rdf="http://www.w3.org/1999/02/22-rdf-syntax-ns#"
   xmlns:svg="http://www.w3.org/2000/svg"
   xmlns="http://www.w3.org/2000/svg"
   xmlns:sodipodi="http://sodipodi.sourceforge.net/DTD/sodipodi-0.dtd"
   xmlns:inkscape="http://www.inkscape.org/namespaces/inkscape"
   width="29.07556mm"
   height="29.502235mm"
   viewBox="0 0 29.07556 29.502235"
   version="1.1"
   id="svg4327"
   inkscape:version="0.92.4 (5da689c313, 2019-01-14)"
   sodipodi:docname="internet.svg">
  <defs
     id="defs4321">
    <linearGradient
       gradientUnits="userSpaceOnUse"
       y2="499.85999"
       y1="546.12"
       x2="409.64999"
       x1="409.64999"
       id="a"
       gradientTransform="translate(-69.937566,417.07176)">
      <stop
         id="stop815"
         offset="0"
         stop-color="#79a8ca" />
      <stop
         id="stop817"
         offset="1"
         stop-color="#9ecbda" />
    </linearGradient>
  </defs>
  <sodipodi:namedview
     id="base"
     pagecolor="#ffffff"
     bordercolor="#666666"
     borderopacity="1.0"
     inkscape:pageopacity="0.0"
     inkscape:pageshadow="2"
     inkscape:zoom="0.35"
     inkscape:cx="-342.19692"
     inkscape:cy="-378.53347"
     inkscape:document-units="mm"
     inkscape:current-layer="layer1"
     showgrid="false"
     fit-margin-top="0"
     fit-margin-left="0"
     fit-margin-right="0"
     fit-margin-bottom="0"
     inkscape:window-width="960"
     inkscape:window-height="1003"
     inkscape:window-x="960"
     inkscape:window-y="0"
     inkscape:window-maximized="0" />
  <metadata
     id="metadata4324">
    <rdf:RDF>
      <cc:Work
         rdf:about="">
        <dc:format>image/svg+xml</dc:format>
        <dc:type
           rdf:resource="http://purl.org/dc/dcmitype/StillImage" />
        <dc:title></dc:title>
      </cc:Work>
    </rdf:RDF>
  </metadata>
  <g
     inkscape:label="Taso 1"
     inkscape:groupmode="layer"
     id="layer1"
     transform="translate(-57.277697,-19.177449)">
    <g
       id="g838"
       transform="matrix(0.30075592,0,0,0.30075592,-43.798383,-131.14036)">
      <rect
         id="rect822"
         ry="22.565001"
         height="45.130001"
         width="45.130001"
         y="500.98999"
         x="385.95999"
         style="fill:url(#a);stroke-width:0.92737001" />
      <path
         id="path824"
         d="m 409.08,512.5 a 0.561,0.561 0 1 0 0,1.122 h 20.255 c 0.04,0 0.078,-0.015 0.116,-0.023 l 0.276,-0.742 -1.018,-0.357 z"
         inkscape:connector-curvature="0"
         style="opacity:0.8;fill:#649cc1;stroke-width:0.92737001" />
      <g
         id="g832"
         style="fill-rule:evenodd;stroke-width:0.963">
        <path
           id="path826"
           d="m 389.53,509.3 a 23.883,23.883 0 0 0 -4.756,14.326 c 0,13.159 10.594,23.678 23.753,23.678 l 8.313,-17.027 -15.439,-3.163 z"
           inkscape:connector-curvature="0"
           style="fill:#0f9d58" />
        <path
           id="path828"
           d="m 409.71,512.86 7.125,17.34 -8.313,17.101 a 23.7,23.7 0 0 0 23.753,-23.752 c 0,-3.855 -0.93,-7.477 -2.545,-10.69 z"
           inkscape:connector-curvature="0"
           style="fill:#ffcd40" />
        <path
           id="path830"
           d="m 408.52,499.8 c -7.798,0 -14.672,3.737 -18.998,9.506 l 11.872,17.81 15.439,3.087 -7.126,-17.34 h 20.02 c -3.9,-7.754 -11.903,-13.063 -21.208,-13.063 z"
           inkscape:connector-curvature="0"
           style="fill:#db4437" />
      </g>
      <path
         id="path834"
         d="m 408.52,512.11 c 6.3359,0 11.437,5.1006 11.437,11.436 0,6.3354 -5.1007,11.436 -11.437,11.436 -6.3359,0 -11.437,-5.1006 -11.437,-11.436 0,-6.3354 5.1007,-11.436 11.437,-11.436 z"
         inkscape:connector-curvature="0"
         style="fill:#f2f6f7;stroke-width:0.92737001" />
      <path
         id="path836"
         d="m 408.52,514.75 c 4.8748,0 8.7974,3.9236 8.7974,8.7974 0,4.8738 -3.9226,8.7974 -8.7974,8.7974 a 8.7777,8.7777 0 0 1 -8.7974,-8.7974 c 0,-4.8738 3.9236,-8.7974 8.7974,-8.7974 z"
         inkscape:connector-curvature="0"
         style="fill:#2566d3;stroke-width:0.92737001" />
    </g>
    <g
       id="g977"
       transform="matrix(1.0000197,0,0,1.0000197,70.742848,-247.02831)"
       style="paint-order:stroke markers fill">
      <circle
         id="circle963"
         r="7.1436"
         cy="288.53"
         cx="8.4665003"
         style="fill:#0b93d3" />
      <g
         id="g975"
         style="fill:#ffffff">
        <circle
           id="circle965"
           r="1.191"
           cy="288.14001"
           cx="11.377"
           style="opacity:0.25" />
        <circle
           id="circle967"
           r="2.6459999"
           cy="288.26999"
           cx="8.7309999" />
        <circle
           id="circle969"
           r="2.1170001"
           cy="289.32999"
           cx="5.8210001" />
        <circle
           id="circle971"
           r="1.587"
           cy="289.85999"
           cx="11.642" />
        <path
           id="path973"
           d="m 5.821,288.53 h 5.821 v 2.91 H 5.821 Z"
           inkscape:connector-curvature="0" />
      </g>
    </g>
    <g
       id="g1069"
       transform="matrix(1.0000197,0,0,1.0000197,55.95505,18.322867)">
      <circle
         id="circle1028"
         r="0"
         cy="5.7567"
         cx="296.64999"
         style="fill:#d5d3cf;stroke-width:0.87151998;enable-background:new" />
      <g
         id="g1046"
         style="stroke-width:0.18455">
        <path
           id="path1030"
           d="M 15.093,5.809 C 14.78222,5.06121 14.15184,4.2539 13.6581,3.9986 a 7.431,7.431 0 0 1 0.72435,2.1711 l 0.0013,0.012027 c -0.80869,-2.0162 -2.1801,-2.8291 -3.3001,-4.5993 -0.05666,-0.089506 -0.11332,-0.17919 -0.16849,-0.27387 -0.03156,-0.054034 -0.05684,-0.1028 -0.0788,-0.14764 a 1.3016,1.3016 0 0 1 -0.10667,-0.28328 0.018455,0.018455 0 0 0 -0.01624,-0.018476 0.025468,0.025468 0 0 0 -0.01347,0 c -9.59e-4,0 -0.0024,0.001743 -0.0035,0.001743 -0.0011,3.6604e-4 -0.0035,0.001743 -0.0051,0.002615 l 0.0028,-0.005229 c -1.7966,1.0519 -2.4062,2.9993 -2.4623,3.9734 A 3.5779,3.5779 0 0 0 6.26348,5.59037 2.1384,2.1384 0 0 0 6.07893,5.45048 3.316,3.316 0 0 1 6.058814,3.70218 5.2975,5.2975 0 0 0 4.337114,5.03278 H 4.333794 C 4.050244,4.67431 4.070174,3.48948 4.086414,3.24208 A 1.2785,1.2785 0 0 0 3.847604,3.36886 5.2089,5.2089 0 0 0 3.148534,3.96773 6.246,6.246 0 0 0 2.479914,4.76996 V 4.7708315 4.76996 a 6.0408,6.0408 0 0 0 -0.95964,2.1671 l -0.0096,0.047237 c -0.013472,0.062924 -0.062008,0.37814 -0.070313,0.4466 0,0.00523 -0.00111,0.010371 -0.00166,0.015688 a 6.8167,6.8167 0 0 0 -0.11608,0.98604 V 8.46949 a 7.1529,7.1529 0 0 0 14.201,1.2095 c 0.01199,-0.092277 0.02178,-0.18363 0.03248,-0.27682 a 7.3556,7.3556 0 0 0 -0.46395,-3.5929 z m -8.2438,5.5988 c 0.033403,0.01604 0.064777,0.03338 0.099101,0.04872 l 0.00499,0.0035 Q 6.901243,11.43508 6.849201,11.40815 Z M 8.4877,7.0938 M 14.3844,6.18323 V 6.17626 l 0.0013,0.00784 z"
           inkscape:connector-curvature="0"
           style="fill:#ff3944" />
        <path
           id="path1032"
           d="m 11.618,6.6457 c 0.0155,0.010894 0.02989,0.021788 0.04447,0.032682 a 3.894,3.894 0 0 0 -0.66438,-0.86645 c -2.2231,-2.2234 -0.58262,-4.821 -0.30598,-4.953 l 0.0028,-0.004358 c -1.7966,1.0519 -2.4062,2.9993 -2.4622,3.9734 0.083416,-0.0061 0.1661,-0.012724 0.25136,-0.012724 a 3.6098,3.6098 0 0 1 3.134,1.8302 z"
           inkscape:connector-curvature="0"
           style="fill:#ffcd34" />
        <path
           id="path1034"
           d="M 8.4881,7.0901 C 8.476289,7.268 7.84771,7.88163 7.62791,7.88163 c -2.0339,0 -2.3641,1.2304 -2.3641,1.2304 0.090063,1.0361 0.81202,1.8894 1.6847,2.3408 0.039863,0.02065 0.080279,0.03931 0.1207,0.05761 q 0.10501,0.04654 0.21002,0.08602 a 3.1807,3.1807 0 0 0 0.9307,0.17957 c 3.565,0.1672 4.2555,-4.2631 1.6829,-5.5486 a 2.4693,2.4693 0 0 1 1.7246,0.41874 3.6098,3.6098 0 0 0 -3.134,-1.8302 c -0.084893,0 -0.16794,0.00697 -0.25136,0.012724 a 3.5779,3.5779 0 0 0 -1.9684,0.75868 c 0.10907,0.092268 0.23217,0.21555 0.49145,0.47115 0.48536,0.47816 1.7301,0.97349 1.7329,1.0316 z"
           inkscape:connector-curvature="0"
           style="fill:#9a46eb" />
        <path
           id="path1036"
           d="m 5.9303,5.3471 c 0.057949,0.036865 0.10575,0.069025 0.14764,0.097994 a 3.316,3.316 0 0 1 -0.020116,-1.7483 5.2975,5.2975 0 0 0 -1.7217,1.3306 c 0.03488,-8.715e-4 1.0724,-0.019522 1.5941,0.31964 z"
           inkscape:connector-curvature="0"
           style="fill:#ff9633" />
        <path
           id="path1038"
           d="m 1.3883,8.6327 c 0.55199,3.2617 3.5081,5.7521 6.8641,5.8471 3.1059,0.08784 5.0902,-1.7152 5.91,-3.4742 A 6.4777,6.4777 0 0 0 14.38497,6.1781 V 6.17113 c 0,-0.00523 -0.0011,-0.00872 0,-0.00697 l 0.0013,0.012027 c 0.25375,1.6567 -0.5889,3.2617 -1.9062,4.3471 l -0.0041,0.0092 c -2.5667,2.0904 -5.023,1.2612 -5.5202,0.92277 Q 6.903739,11.430365 6.8517,11.403435 c -1.4965,-0.71531 -2.1148,-2.0788 -1.9823,-3.2481 a 1.8368,1.8368 0 0 1 -1.6943,-1.0658 2.6977,2.6977 0 0 1 2.6296,-0.10557 3.5618,3.5618 0 0 0 2.6855,0.10557 C 8.4874285,7.031404 7.2426,6.535895 6.7573,6.057935 6.49801,5.802335 6.37492,5.679245 6.26585,5.586785 A 2.1384,2.1384 0 0 0 6.0813,5.446895 C 6.038853,5.41796 5.991054,5.386585 5.93366,5.348901 5.41194,5.009701 4.37446,5.028341 4.34006,5.029271 H 4.33674 C 4.05329,4.670201 4.07323,3.485371 4.08946,3.237971 a 1.2785,1.2785 0 0 0 -0.23881,0.12678 5.2089,5.2089 0 0 0 -0.69907,0.59886 6.246,6.246 0 0 0 -0.67139,0.80039 v 8.715e-4 -8.715e-4 a 6.0408,6.0408 0 0 0 -0.95964,2.1671 c -0.00351,0.014554 -0.25763,1.1256 -0.13232,1.7017 z"
           inkscape:connector-curvature="0"
           style="fill:#ff6333" />
        <path
           id="path1040"
           d="m 10.998,5.8177 a 3.894,3.894 0 0 1 0.66438,0.86738 c 0.0393,0.029719 0.07603,0.059264 0.10722,0.087841 1.6216,1.4948 0.77197,3.6079 0.70867,3.7584 1.3173,-1.0853 2.1592,-2.6904 1.9062,-4.3471 -0.80906,-2.0171 -2.1805,-2.83 -3.3005,-4.6003 -0.05666,-0.089506 -0.11332,-0.17919 -0.16849,-0.27387 -0.03156,-0.054034 -0.05684,-0.1028 -0.0788,-0.14764 a 1.3016,1.3016 0 0 1 -0.10667,-0.28328 0.018455,0.018455 0 0 0 -0.01624,-0.018476 0.025468,0.025468 0 0 0 -0.01347,0 c -9.59e-4,0 -0.0024,0.001743 -0.0035,0.001743 -0.0011,3.6604e-4 -0.0035,0.001743 -0.0051,0.002615 -0.27664,0.13121 -1.9171,2.7287 0.30635,4.9522 z"
           inkscape:connector-curvature="0"
           style="fill:#ff8619" />
        <path
           id="path1042"
           d="M 11.768,6.7677 C 11.73681,6.739114 11.70009,6.709569 11.66078,6.67985 11.6462,6.668956 11.6318,6.658062 11.61631,6.647168 a 2.4693,2.4693 0 0 0 -1.7246,-0.41874 c 2.5727,1.2863 1.8824,5.7158 -1.6829,5.5486 a 3.1807,3.1807 0 0 1 -0.9307,-0.17955 Q 7.1731,11.558172 7.06809,11.511458 c -0.040416,-0.01848 -0.080832,-0.03687 -0.1207,-0.05761 l 0.00499,0.0035 c 0.49718,0.33938 2.9528,1.1685 5.5202,-0.92277 l 0.0041,-0.0092 c 0.06404,-0.14948 0.91371,-2.2631 -0.70867,-3.7574 z"
           inkscape:connector-curvature="0"
           style="fill:#ffa316" />
        <path
           id="path1044"
           d="m 5.2638,9.1121 c 0,0 0.33016,-1.2304 2.3641,-1.2304 0.2198,0 0.84893,-0.61362 0.86019,-0.79153 a 3.5618,3.5618 0 0 1 -2.6855,-0.10556 2.6977,2.6977 0 0 0 -2.6296,0.10556 1.8368,1.8368 0 0 0 1.6943,1.0658 c -0.13251,1.1695 0.48574,2.5329 1.9823,3.2481 0.033403,0.01604 0.064777,0.03338 0.099101,0.04872 -0.87344,-0.45122 -1.5947,-1.3046 -1.6847,-2.3407 z"
           inkscape:connector-curvature="0"
           style="fill:#ffbb27" />
      </g>
      <circle
         id="circle1048"
         r="0"
         cy="13.461"
         cx="-15.774"
         style="fill:#d5d3cf;stroke-width:0.87151998;enable-background:new" />
    </g>
    <g
       id="g1258"
       transform="matrix(1.0000197,0,0,1.0000197,55.76555,-246.20913)"
       style="paint-order:markers stroke fill">
      <path
         id="path1250"
         d="m 2.381,284.83 h 12.171 c 0.44,0 0.794,0.353 0.794,0.793 v 8.467 c 0,0.44 -0.354,0.793 -0.794,0.793 H 2.382 A 0.792,0.792 0 0 1 1.587,294.09 v -8.467 c 0,-0.44 0.355,-0.794 0.794,-0.794 z"
         inkscape:connector-curvature="0"
         style="fill:#9f3129" />
      <rect
         id="rect1252"
         ry="0.79400003"
         y="282.18301"
         x="2.6459999"
         height="8.9960003"
         width="11.642"
         style="fill:#ffffff;stroke:#000000;stroke-width:0.26499999;stroke-opacity:0.05899999" />
      <path
         id="path1254"
         d="m 15.181,285.143 a 0.788,0.788 0 0 1 0.165,0.48 v 8.467 c 0,0.44 -0.354,0.793 -0.794,0.793 H 2.382 a 0.788,0.788 0 0 1 -0.531,-0.206 z"
         inkscape:connector-curvature="0"
         style="fill:#f4685c" />
      <path
         id="path1256"
         d="m 1.752,285.143 a 0.788,0.788 0 0 0 -0.165,0.48 v 8.467 c 0,0.44 0.355,0.793 0.794,0.793 h 12.171 c 0.205,0 0.39,-0.08 0.53,-0.206 z"
         inkscape:connector-curvature="0"
         style="fill:#ff7a6e" />
    </g>
  </g>
</svg>
