<?xml version="1.0" encoding="UTF-8" standalone="no"?>
<!-- Created with Inkscape (http://www.inkscape.org/) -->

<svg
   xmlns:dc="http://purl.org/dc/elements/1.1/"
   xmlns:cc="http://creativecommons.org/ns#"
   xmlns:rdf="http://www.w3.org/1999/02/22-rdf-syntax-ns#"
   xmlns:svg="http://www.w3.org/2000/svg"
   xmlns="http://www.w3.org/2000/svg"
   xmlns:xlink="http://www.w3.org/1999/xlink"
   xmlns:sodipodi="http://sodipodi.sourceforge.net/DTD/sodipodi-0.dtd"
   xmlns:inkscape="http://www.inkscape.org/namespaces/inkscape"
   width="29.125847mm"
   height="30.427618mm"
   viewBox="0 0 29.125847 30.427618"
   version="1.1"
   id="svg6419"
   inkscape:version="0.92.4 (5da689c313, 2019-01-14)"
   sodipodi:docname="office.svg">
  <defs
     id="defs6413">
    <linearGradient
       inkscape:collect="always"
       xlink:href="#a-3"
       id="linearGradient2512"
       gradientUnits="userSpaceOnUse"
       x1="46.828999"
       y1="58"
       x2="46.828999"
       y2="6"
       gradientTransform="translate(-243.99876,747.79922)" />
    <linearGradient
       id="a-3">
      <stop
         id="stop995"
         offset="0" />
      <stop
         id="stop997"
         stop-opacity="0"
         offset="1" />
    </linearGradient>
    <linearGradient
       gradientUnits="userSpaceOnUse"
       y2="6"
       x2="46.828999"
       y1="58"
       x1="46.828999"
       id="b"
       xlink:href="#a-3"
       gradientTransform="translate(-415.42609,760.6565)" />
  </defs>
  <sodipodi:namedview
     id="base"
     pagecolor="#ffffff"
     bordercolor="#666666"
     borderopacity="1.0"
     inkscape:pageopacity="0.0"
     inkscape:pageshadow="2"
     inkscape:zoom="0.35"
     inkscape:cx="203.6124"
     inkscape:cy="-108.21329"
     inkscape:document-units="mm"
     inkscape:current-layer="layer1"
     showgrid="false"
     fit-margin-top="0"
     fit-margin-left="0"
     fit-margin-right="0"
     fit-margin-bottom="0"
     inkscape:window-width="960"
     inkscape:window-height="1003"
     inkscape:window-x="960"
     inkscape:window-y="0"
     inkscape:window-maximized="0" />
  <metadata
     id="metadata6416">
    <rdf:RDF>
      <cc:Work
         rdf:about="">
        <dc:format>image/svg+xml</dc:format>
        <dc:type
           rdf:resource="http://purl.org/dc/dcmitype/StillImage" />
        <dc:title></dc:title>
      </cc:Work>
    </rdf:RDF>
  </metadata>
  <g
     inkscape:label="Taso 1"
     inkscape:groupmode="layer"
     id="layer1"
     transform="translate(87.134352,-89.774282)">
    <g
       id="g1011"
       transform="matrix(1.0000197,0,0,1.0000197,-89.251394,-191.09164)">
      <rect
         id="rect1003"
         ry="0.52899998"
         rx="0.52899998"
         y="281.65399"
         x="2.1170001"
         height="13.758"
         width="12.7"
         style="fill:#3f51b5;paint-order:markers stroke fill" />
      <path
         id="path1005"
         d="m 3.44,282.713 a 0.264,0.264 0 0 0 -0.265,0.264 v 11.113 c 0,0.146 0.118,0.264 0.265,0.264 h 10.054 a 0.264,0.264 0 0 0 0.264,-0.264 v -7.144 l -4.233,-4.233 z m 7.672,0 2.646,2.645 v -2.38 a 0.264,0.264 0 0 0 -0.264,-0.265 z"
         inkscape:connector-curvature="0"
         style="fill:#ffffff;paint-order:markers stroke fill" />
      <path
         id="path1007"
         transform="matrix(0.26458,0,0,0.26458,0,280.067)"
         d="M 50.102,6 A 52.5,52.5 0 0 1 52.5,21.5 52.5,52.5 0 0 1 37.658,58 H 54 c 1.108,0 2,-0.892 2,-2 V 8 C 56,6.892 55.108,6 54,6 Z"
         inkscape:connector-curvature="0"
         style="opacity:0.25;fill:url(#b);paint-order:markers stroke fill" />
      <path
         id="path1009"
         d="m 5.292,292.238 v -0.53 H 9.79 v 0.53 z m 0,-1.323 v -0.53 h 6.35 v 0.53 z m 0,-1.323 v -0.53 h 6.35 v 0.53 z m 0,-1.323 v -0.53 h 6.35 v 0.53 z"
         inkscape:connector-curvature="0"
         style="fill:#cccccc" />
    </g>
    <g
       id="g1312"
       transform="matrix(1.0000197,0,0,1.0000197,-72.825797,104.85493)">
      <path
         id="path1292"
         d="m 2.381,1.588 h 12.171 c 0.147,0 0.265,0.118 0.265,0.264 v 13.23 a 0.264,0.264 0 0 1 -0.265,0.264 H 2.382 A 0.264,0.264 0 0 1 2.117,15.081 V 1.852 c 0,-0.146 0.118,-0.264 0.264,-0.264 z"
         inkscape:connector-curvature="0"
         style="fill:#aa55b9;paint-order:fill markers stroke" />
      <path
         id="path1294"
         d="M 3.704,14.288 V 13.229 H 2.91 V 12.965 H 3.704 V 11.906 H 2.91 V 11.642 H 3.704 V 10.583 H 2.91 V 10.319 H 3.704 V 9.26 H 2.91 V 8.996 H 3.704 V 7.938 H 2.91 V 7.673 H 3.704 V 6.615 H 2.91 V 6.35 H 3.704 V 5.292 H 2.91 V 5.027 H 3.704 V 3.97 H 2.91 V 3.705 H 3.704 V 2.646 H 2.91 V 2.38 H 3.704 V 1.587 H 3.969 V 2.38 h 9.79 v 0.265 h -9.79 v 1.058 h 9.79 v 0.265 h -9.79 v 1.058 h 9.79 V 5.291 H 3.969 V 6.35 h 9.79 v 0.265 h -9.79 v 1.058 h 9.79 v 0.265 h -9.79 v 1.058 h 9.79 V 9.26 h -9.79 v 1.059 h 9.79 v 0.264 h -9.79 v 1.059 h 9.79 v 0.264 h -9.79 v 1.059 h 9.79 v 0.264 h -9.79 v 1.059 h 9.79 v 0.264 h -9.79 v 0.794 H 3.704 V 14.552 H 2.91 v -0.264 z"
         inkscape:connector-curvature="0"
         style="fill:#ffffff;fill-opacity:0.3;fill-rule:evenodd" />
      <path
         id="path1296"
         d="m 12.17,10.529 c 0,0.388 -0.08,0.697 -0.24,0.928 -0.16,0.231 -0.407,0.38 -0.74,0.45 v -0.42 a 0.463,0.463 0 0 0 0.246,-0.334 h -0.245 v -1.146 h 0.98 z m -1.309,0 c 0,0.388 -0.08,0.697 -0.24,0.928 -0.161,0.231 -0.408,0.38 -0.74,0.45 v -0.42 a 0.537,0.537 0 0 0 0.177,-0.137 0.422,0.422 0 0 0 0.068,-0.197 H 9.881 v -1.146 h 0.98 z M 4.762,5.019 V 3.97 H 6.746 V 6.278 H 6.25 A 0.933,0.933 0 0 0 6.746,6.95 V 7.794 C 6.074,7.656 5.575,7.354 5.25,6.889 4.925,6.424 4.762,5.801 4.762,5.021 Z m 2.651,0 V 3.97 H 9.397 V 6.278 H 8.9 A 0.848,0.848 0 0 0 9.037,6.674 C 9.105,6.766 9.225,6.858 9.396,6.95 V 7.794 C 8.723,7.656 8.224,7.354 7.899,6.889 7.574,6.424 7.412,5.801 7.412,5.021 Z"
         inkscape:connector-curvature="0"
         style="fill:#aa55b9;fill-rule:evenodd;stroke:#aa55b9;stroke-width:0.52899998;paint-order:stroke markers fill" />
      <path
         id="path1298"
         d="m 12.17,10.529 c 0,0.388 -0.08,0.697 -0.24,0.928 -0.16,0.231 -0.407,0.38 -0.74,0.45 v -0.42 a 0.463,0.463 0 0 0 0.246,-0.334 h -0.245 v -1.146 h 0.98 z m -1.309,0 c 0,0.388 -0.08,0.697 -0.24,0.928 -0.161,0.231 -0.408,0.38 -0.74,0.45 v -0.42 a 0.537,0.537 0 0 0 0.177,-0.137 0.422,0.422 0 0 0 0.068,-0.197 H 9.881 v -1.146 h 0.98 z M 4.762,5.019 V 3.97 H 6.746 V 6.278 H 6.25 A 0.933,0.933 0 0 0 6.746,6.95 V 7.794 C 6.074,7.656 5.575,7.354 5.25,6.889 4.925,6.424 4.762,5.801 4.762,5.021 Z m 2.651,0 V 3.97 H 9.397 V 6.278 H 8.9 A 0.848,0.848 0 0 0 9.037,6.674 C 9.105,6.766 9.225,6.858 9.396,6.95 V 7.794 C 8.723,7.656 8.224,7.354 7.899,6.889 7.574,6.424 7.412,5.801 7.412,5.021 Z"
         inkscape:connector-curvature="0"
         style="fill:#ffffff;fill-rule:evenodd;paint-order:stroke markers fill" />
    </g>
    <g
       id="g2201"
       transform="matrix(1.0000197,0,0,1.0000197,-89.251394,-175.21656)"
       style="paint-order:markers stroke fill">
      <rect
         id="rect2175"
         ry="0.52899998"
         rx="0.52899998"
         y="281.65399"
         x="2.1170001"
         height="13.758"
         width="12.7"
         style="fill:#4caf50" />
      <path
         id="path2177"
         d="m 3.44,282.713 a 0.264,0.264 0 0 0 -0.265,0.264 v 11.113 c 0,0.146 0.118,0.264 0.265,0.264 h 10.054 a 0.264,0.264 0 0 0 0.264,-0.264 v -7.144 l -4.233,-4.233 z m 7.672,0 2.646,2.645 v -2.38 a 0.264,0.264 0 0 0 -0.264,-0.265 z"
         inkscape:connector-curvature="0"
         style="fill:#ffffff" />
      <path
         id="path2179"
         transform="matrix(0.26458,0,0,0.26458,0,280.067)"
         d="M 50.102,6 A 52.5,52.5 0 0 1 52.5,21.5 52.5,52.5 0 0 1 37.658,58 H 54 c 1.108,0 2,-0.892 2,-2 V 8 C 56,6.892 55.108,6 54,6 Z"
         inkscape:connector-curvature="0"
         style="opacity:0.25;fill:url(#linearGradient2512)" />
      <rect
         id="rect2181"
         ry="0"
         rx="0"
         y="287.73999"
         x="5.027"
         height="4.4980001"
         width="6.8790002"
         style="fill:#cccccc" />
      <rect
         id="rect2183"
         width="1.587"
         height="0.79400003"
         x="5.5560002"
         y="289.59201"
         rx="0"
         ry="0"
         style="fill:#ffffff" />
      <rect
         id="rect2185"
         ry="0"
         rx="0"
         y="289.59201"
         x="7.6729999"
         height="0.79400003"
         width="1.587"
         style="fill:#ffffff" />
      <rect
         id="rect2187"
         width="1.587"
         height="0.79400003"
         x="9.79"
         y="289.59201"
         rx="0"
         ry="0"
         style="fill:#ffffff" />
      <rect
         id="rect2189"
         ry="0"
         rx="0"
         y="290.91501"
         x="5.5560002"
         height="0.79400003"
         width="1.587"
         style="fill:#ffffff" />
      <rect
         id="rect2191"
         width="1.587"
         height="0.79400003"
         x="7.6729999"
         y="290.91501"
         rx="0"
         ry="0"
         style="fill:#ffffff" />
      <rect
         id="rect2193"
         ry="0"
         rx="0"
         y="290.91501"
         x="9.79"
         height="0.79400003"
         width="1.587"
         style="fill:#ffffff" />
      <rect
         id="rect2195"
         ry="0"
         rx="0"
         y="288.26901"
         x="5.5560002"
         height="0.79400003"
         width="1.587"
         style="fill:#ffffff" />
      <rect
         id="rect2197"
         width="1.587"
         height="0.79400003"
         x="7.6729999"
         y="288.26901"
         rx="0"
         ry="0"
         style="fill:#ffffff" />
      <rect
         id="rect2199"
         ry="0"
         rx="0"
         y="288.26901"
         x="9.79"
         height="0.79400003"
         width="1.587"
         style="fill:#ffffff" />
    </g>
    <g
       id="g6972"
       transform="matrix(1.0000197,0,0,1.0000197,-73.628498,-191.61766)">
      <circle
         id="circle6964"
         r="7.1436"
         cy="288.53"
         cx="8.4665003"
         style="fill:#3889e9" />
      <path
         id="path6966"
         d="m 7.483,282.713 a 5.904,5.904 0 0 0 -0.492,0.108 v 1.776 H 5.022 v -0.85 a 5.904,5.904 0 0 0 -0.492,0.395 v 0.455 H 4.074 a 5.904,5.904 0 0 0 -0.397,0.492 H 4.53 v 1.968 H 2.756 a 5.904,5.904 0 0 0 -0.104,0.492 H 4.53 v 1.968 H 2.646 a 5.904,5.904 0 0 0 0.108,0.492 H 4.53 v 1.969 H 3.68 a 5.904,5.904 0 0 0 0.395,0.492 H 4.53 v 0.456 a 5.904,5.904 0 0 0 0.492,0.397 v -0.853 h 1.969 v 1.773 a 5.904,5.904 0 0 0 0.492,0.105 V 292.47 H 9.45 v 1.884 a 5.904,5.904 0 0 0 0.492,-0.108 v -1.776 h 1.968 v 0.85 a 5.904,5.904 0 0 0 0.492,-0.395 v -0.455 h 0.456 a 5.904,5.904 0 0 0 0.397,-0.492 h -0.853 v -1.969 h 1.773 a 5.904,5.904 0 0 0 0.106,-0.492 h -1.879 v -1.968 h 1.884 a 5.904,5.904 0 0 0 -0.108,-0.492 h -1.776 v -1.968 h 0.85 a 5.904,5.904 0 0 0 -0.395,-0.492 h -0.455 v -0.456 a 5.904,5.904 0 0 0 -0.492,-0.397 v 0.853 H 9.943 v -1.774 a 5.904,5.904 0 0 0 -0.492,-0.105 v 1.88 H 7.483 Z m -2.46,2.376 H 6.99 v 1.968 H 5.022 Z m 2.46,0 H 9.45 v 1.968 H 7.483 Z m 2.46,0 h 1.968 v 1.968 H 9.943 Z m -4.92,2.46 H 6.99 v 1.968 H 5.022 Z m 2.46,0 H 9.45 v 1.968 H 7.483 Z m 2.46,0 h 1.968 v 1.968 H 9.943 Z m -4.92,2.46 H 6.99 v 1.969 H 5.022 Z m 2.46,0 H 9.45 v 1.969 H 7.483 Z m 2.46,0 h 1.968 v 1.969 H 9.943 Z"
         inkscape:connector-curvature="0"
         style="fill:#fcfcfc;fill-opacity:0.05899999" />
      <path
         id="path6968"
         d="m 8.467,282.18 a 6.35,6.35 0 0 0 -6.35,6.35 6.35,6.35 0 0 0 6.35,6.35 6.35,6.35 0 0 0 6.35,-6.35 6.35,6.35 0 0 0 -6.35,-6.35 z m 0,0.53 a 5.82,5.82 0 0 1 5.82,5.82 5.82,5.82 0 0 1 -5.82,5.821 5.82,5.82 0 0 1 -5.821,-5.82 5.82,5.82 0 0 1 5.82,-5.822 z"
         inkscape:connector-curvature="0"
         style="opacity:0.2;fill:#ffffff" />
      <path
         id="path6970"
         d="m 8.203,283.772 a 0.529,0.529 0 0 0 -0.304,0.962 c -0.388,1.172 -1.096,3.084 -1.813,3.8 0,0 1.049,1.589 1.052,2.647 a 0.398,0.398 0 0 0 -0.39,0.4 c 0,0.22 0.172,0.395 0.388,0.4 v 1.314 h 2.651 v -1.314 H 9.79 c 0.22,0 0.397,-0.178 0.397,-0.4 0,-0.222 -0.177,-0.4 -0.397,-0.4 H 9.784 c 0.004,-1.059 1.063,-2.646 1.063,-2.646 -0.717,-0.717 -1.425,-2.629 -1.813,-3.8 a 0.53,0.53 0 0 0 -0.303,-0.963 v 4.834 a 0.53,0.53 0 1 1 -0.53,0 v -3.776 z"
         inkscape:connector-curvature="0"
         style="fill:#ffffff" />
    </g>
  </g>
</svg>
