<?xml version="1.0" encoding="UTF-8" standalone="no"?>
<!-- Created with Inkscape (http://www.inkscape.org/) -->

<svg
   xmlns:dc="http://purl.org/dc/elements/1.1/"
   xmlns:cc="http://creativecommons.org/ns#"
   xmlns:rdf="http://www.w3.org/1999/02/22-rdf-syntax-ns#"
   xmlns:svg="http://www.w3.org/2000/svg"
   xmlns="http://www.w3.org/2000/svg"
   xmlns:sodipodi="http://sodipodi.sourceforge.net/DTD/sodipodi-0.dtd"
   xmlns:inkscape="http://www.inkscape.org/namespaces/inkscape"
   width="29.249144mm"
   height="29.531763mm"
   viewBox="0 0 29.249144 29.531763"
   version="1.1"
   id="svg4975"
   inkscape:version="0.92.4 (5da689c313, 2019-01-14)"
   sodipodi:docname="programming.svg">
  <defs
     id="defs4969">
    <linearGradient
       gradientUnits="userSpaceOnUse"
       gradientTransform="matrix(1.04,0,0,1.04,-25.261,-152.31353)"
       y2="27.346001"
       y1="57"
       x2="46.167999"
       x1="46.167999"
       id="b-97">
      <stop
         id="stop2725"
         offset="0" />
      <stop
         id="stop2727"
         offset="1"
         stop-opacity="0" />
    </linearGradient>
  </defs>
  <sodipodi:namedview
     id="base"
     pagecolor="#ffffff"
     bordercolor="#666666"
     borderopacity="1.0"
     inkscape:pageopacity="0.0"
     inkscape:pageshadow="2"
     inkscape:zoom="0.35"
     inkscape:cx="-241.86888"
     inkscape:cy="-304.19194"
     inkscape:document-units="mm"
     inkscape:current-layer="layer1"
     showgrid="false"
     fit-margin-top="0"
     fit-margin-left="0"
     fit-margin-right="0"
     fit-margin-bottom="0"
     inkscape:window-width="1920"
     inkscape:window-height="1003"
     inkscape:window-x="0"
     inkscape:window-y="0"
     inkscape:window-maximized="1" />
  <metadata
     id="metadata4972">
    <rdf:RDF>
      <cc:Work
         rdf:about="">
        <dc:format>image/svg+xml</dc:format>
        <dc:type
           rdf:resource="http://purl.org/dc/dcmitype/StillImage" />
        <dc:title></dc:title>
      </cc:Work>
    </rdf:RDF>
  </metadata>
  <g
     inkscape:label="Taso 1"
     inkscape:groupmode="layer"
     id="layer1"
     transform="translate(-30.732571,-38.817453)">
    <g
       id="g864"
       transform="matrix(1.0000197,0,0,1.0000197,29.553577,-242.48864)">
      <circle
         id="circle858"
         style="fill:#008d93;paint-order:stroke markers fill"
         r="7.1436"
         cy="288.53"
         cx="8.4665003" />
      <circle
         id="circle860"
         r="5.8210001"
         cy="288.53"
         cx="8.467"
         style="fill:#169ba1;paint-order:stroke markers fill" />
      <path
         id="path862"
         d="m 6.294,286.417 a 2.018,2.018 0 0 0 -1.452,0.614 2.125,2.125 0 0 0 -0.609,1.502 c 0,0.28 0.054,0.557 0.159,0.814 0.104,0.257 0.258,0.491 0.45,0.687 a 2.023,2.023 0 0 0 1.435,0.614 h 0.018 a 2.007,2.007 0 0 0 1.528,-0.59 c 0.257,-0.252 0.46,-0.548 0.644,-0.85 0.184,0.302 0.386,0.598 0.643,0.85 0.377,0.367 0.89,0.62 1.529,0.59 h 0.018 c 0.263,-0.002 0.523,-0.056 0.766,-0.159 0.25,-0.105 0.477,-0.26 0.669,-0.455 l 10e-4,-0.002 a 2.123,2.123 0 0 0 0.607,-1.499 c 0,-0.28 -0.054,-0.557 -0.158,-0.814 l -0.002,-0.005 a 2.13,2.13 0 0 0 -0.449,-0.684 2.022,2.022 0 0 0 -1.453,-0.614 c -0.671,0 -1.202,0.277 -1.594,0.661 -0.227,0.222 -0.411,0.476 -0.578,0.736 a 4.15,4.15 0 0 0 -0.577,-0.736 2.231,2.231 0 0 0 -1.595,-0.661 z m -0.007,0.605 c 0.537,0 0.88,0.192 1.193,0.51 0.25,0.252 0.468,0.595 0.684,0.97 -0.247,0.436 -0.486,0.835 -0.754,1.106 -0.296,0.298 -0.602,0.463 -1.103,0.434 h -0.02 c -0.19,0 -0.383,-0.04 -0.559,-0.117 A 1.458,1.458 0 0 1 5.263,289.6 l -0.006,-0.005 a 1.526,1.526 0 0 1 -0.419,-1.063 1.526,1.526 0 0 1 0.42,-1.062 l 0.005,-0.006 a 1.406,1.406 0 0 1 1.025,-0.442 z m 4.359,0 c 0.19,0 0.383,0.04 0.56,0.117 0.173,0.076 0.333,0.188 0.465,0.325 l 0.005,0.007 a 1.525,1.525 0 0 1 0.42,1.062 c 0,0.195 -0.038,0.392 -0.109,0.573 -0.071,0.18 -0.178,0.35 -0.311,0.49 L 11.67,289.6 a 1.408,1.408 0 0 1 -1.025,0.442 h -0.019 c -0.5,0.03 -0.807,-0.135 -1.103,-0.433 -0.268,-0.27 -0.507,-0.67 -0.754,-1.107 0.217,-0.374 0.435,-0.717 0.684,-0.97 0.314,-0.317 0.657,-0.51 1.193,-0.51 z m -0.365,0.605 v 0.604 H 9.676 v 0.605 h 0.605 v 0.605 h 0.605 v -0.605 h 0.604 v -0.605 h -0.604 v -0.604 z m -4.838,0.604 v 0.605 h 1.814 v -0.605 z"
         inkscape:connector-curvature="0"
         style="fill:#ffffff" />
    </g>
    <g
       id="g2678"
       transform="matrix(1.0000197,0,0,1.0000197,44.123618,-227.4229)">
      <circle
         id="circle2670"
         r="7.1436"
         cy="288.53"
         cx="8.4665003"
         style="fill:#3889e9" />
      <path
         id="path2672"
         d="m 7.483,282.713 a 5.904,5.904 0 0 0 -0.492,0.108 v 1.776 H 5.022 v -0.85 a 5.904,5.904 0 0 0 -0.492,0.395 v 0.455 H 4.074 a 5.904,5.904 0 0 0 -0.397,0.492 H 4.53 v 1.968 H 2.756 a 5.904,5.904 0 0 0 -0.104,0.492 H 4.53 v 1.968 H 2.646 a 5.904,5.904 0 0 0 0.108,0.492 H 4.53 v 1.969 H 3.68 a 5.904,5.904 0 0 0 0.395,0.492 H 4.53 v 0.456 a 5.904,5.904 0 0 0 0.492,0.397 v -0.853 h 1.969 v 1.773 a 5.904,5.904 0 0 0 0.492,0.105 V 292.47 H 9.45 v 1.884 a 5.904,5.904 0 0 0 0.492,-0.108 v -1.776 h 1.968 v 0.85 a 5.904,5.904 0 0 0 0.492,-0.395 v -0.455 h 0.456 a 5.904,5.904 0 0 0 0.397,-0.492 h -0.853 v -1.969 h 1.773 a 5.904,5.904 0 0 0 0.106,-0.492 h -1.879 v -1.968 h 1.884 a 5.904,5.904 0 0 0 -0.108,-0.492 h -1.776 v -1.968 h 0.85 a 5.904,5.904 0 0 0 -0.395,-0.492 h -0.455 v -0.456 a 5.904,5.904 0 0 0 -0.492,-0.397 v 0.853 H 9.943 v -1.774 a 5.904,5.904 0 0 0 -0.492,-0.105 v 1.88 H 7.483 Z m -2.46,2.376 H 6.99 v 1.968 H 5.022 Z m 2.46,0 H 9.45 v 1.968 H 7.483 Z m 2.46,0 h 1.968 v 1.968 H 9.943 Z m -4.92,2.46 H 6.99 v 1.968 H 5.022 Z m 2.46,0 H 9.45 v 1.968 H 7.483 Z m 2.46,0 h 1.968 v 1.968 H 9.943 Z m -4.92,2.46 H 6.99 v 1.969 H 5.022 Z m 2.46,0 H 9.45 v 1.969 H 7.483 Z m 2.46,0 h 1.968 v 1.969 H 9.943 Z"
         inkscape:connector-curvature="0"
         style="fill:#fcfcfc;fill-opacity:0.05899999" />
      <path
         id="path2674"
         d="m 8.467,282.18 a 6.35,6.35 0 0 0 -6.35,6.35 6.35,6.35 0 0 0 6.35,6.35 6.35,6.35 0 0 0 6.35,-6.35 6.35,6.35 0 0 0 -6.35,-6.35 z m 0,0.53 a 5.82,5.82 0 0 1 5.82,5.82 5.82,5.82 0 0 1 -5.82,5.821 5.82,5.82 0 0 1 -5.821,-5.82 5.82,5.82 0 0 1 5.82,-5.822 z"
         inkscape:connector-curvature="0"
         style="opacity:0.2;fill:#ffffff" />
      <path
         id="path2676"
         d="m 9.157,285.387 c -0.44,0.033 -0.9,0.203 -1.32,0.413 0.84,0 1.26,0.42 1.68,0.84 l 0.84,0.842 v 0.42 l 0.42,0.421 1.262,-1.261 -0.42,-0.421 h -0.42 l -0.841,-0.84 c -0.34,-0.34 -0.76,-0.446 -1.201,-0.414 z m 0.36,1.255 -1.68,1.681 h -0.42 l -2.522,2.521 0.84,0.84 2.522,-2.52 v -0.42 l 1.68,-1.682 z"
         inkscape:connector-curvature="0"
         style="fill:#ffffff;fill-rule:evenodd" />
    </g>
    <g
       id="g2707"
       transform="matrix(0.38216417,0,0,0.38216417,43.665597,-347.32389)"
       style="stroke-width:0.69230998">
      <circle
         id="circle2693"
         r="18.693001"
         cy="1029.1"
         cx="24.000999"
         style="fill:#55a73e;stroke-width:0.69230998" />
      <circle
         id="circle2695"
         r="15.231"
         cy="1029.1"
         cx="24.000999"
         style="opacity:0.15" />
      <path
         id="path2697"
         d="m 23.298,1021.6 -2.5981,1.5 13.5,23.383 2.799,1.848 -0.20091,-3.348 z"
         inkscape:connector-curvature="0"
         style="fill:#ececec" />
      <path
         id="path2699"
         d="m 35,1026.4 c 0,4.0083 -1.1911,4.9591 -2.6407,6.6529 -0.74918,0.8632 -1.6287,1.5961 -2.6384,2.1498 -1.3681,0.7655 -3.448,1.189 -5.1256,1.189 -1.6775,0 -3.2573,-0.4398 -4.6091,-1.189 -0.98621,-0.7944 -2.9862,2.2056 -1.6612,2.5989 1.8567,1.0424 4.0065,1.6067 6.2866,1.6067 2.2801,0 4.9301,-0.5643 6.7868,-1.6067 0.99349,-0.5537 1.9055,-1.2377 2.7036,-2.0195 2.4104,-2.3453 3.9251,-5.7336 3.9251,-9.3655 -1.0284,-0.01 -2.1151,0 -3.0271,-0.01 z"
         inkscape:connector-curvature="0"
         style="fill:#cccccc;stroke-width:0.69230998" />
      <path
         id="path2701"
         d="m 24.701,1021.6 2.5981,1.5 -13.5,23.383 -2.799,1.848 0.20091,-3.348 z"
         inkscape:connector-curvature="0"
         style="fill:#cccccc" />
      <path
         id="path2703"
         d="m 27.114,1021.4 h -1.1138 v -3.0002 h -4 v 3.0002 h -1.1301 c -1.0244,0 -1.8699,0.8465 -1.8699,1.8592 v 4.8955 h 0.01627 c -0.01627,0.1608 0.08127,0.3377 0.29268,0.5466 l 3.7561,3.3129 c 0.26016,0.2572 0.60163,0.3858 0.92683,0.3858 v -0.016 l 0.01627,0.016 c 0.34146,0 0.68292,-0.1286 0.92683,-0.3858 l 3.7561,-3.3129 c 0.21138,-0.2089 0.29268,-0.4019 0.29268,-0.5466 h 0.01627 v -4.8794 c -0.01627,-1.0287 -0.84553,-1.8753 -1.8862,-1.8753 z"
         inkscape:connector-curvature="0"
         style="fill:#363c3e;stroke-width:0.69230998" />
      <path
         id="path2705"
         d="m 24.007,1027.4 h -0.01304 c -1.0945,0 -1.9935,-0.8902 -1.9935,-1.9867 0,-1.0966 0.89902,-1.9868 1.9935,-1.9868 v -0.026 l 0.01304,0.026 c 1.0945,0.013 1.9935,0.8902 1.9935,1.9868 0,1.0965 -0.89902,1.9738 -1.9935,1.9867 z"
         inkscape:connector-curvature="0"
         style="fill:#ffffff;stroke-width:0.69230998" />
    </g>
    <g
       id="g2753"
       transform="matrix(0.26458333,0,0,0.26458333,29.145071,53.002853)">
      <rect
         id="rect2732"
         ry="3"
         rx="3"
         height="52"
         width="52"
         y="6"
         x="6"
         style="fill:#e6e6e6" />
      <path
         style="opacity:0.15;fill:url(#b-97);stroke-width:3.93079996"
         id="path2734"
         d="M 57.999,27.161 A 46.8,46.8 0 0 1 35.468,58.002 h 19.41 c 1.7295,0 3.121,-1.3915 3.121,-3.121 z"
         inkscape:connector-curvature="0" />
      <path
         id="path2736"
         d="M 31.832,18.117 12,32 l 15.117,10.582 1.1914,-6.168 -6.3086,-4.4141 8.2734,-5.793 z"
         inkscape:connector-curvature="0"
         style="fill:#483c8f" />
      <path
         id="path2738"
         d="m 37.254,21.68 -1.1875,6.168 5.9336,4.1523 -7.7852,5.4492 -1.5586,8.0898 19.344,-13.539 z"
         inkscape:connector-curvature="0"
         style="fill:#4b8adf" />
    </g>
  </g>
</svg>
