<?xml version="1.0" encoding="UTF-8" standalone="no"?>
<!-- Created with Inkscape (http://www.inkscape.org/) -->

<svg
   xmlns:dc="http://purl.org/dc/elements/1.1/"
   xmlns:cc="http://creativecommons.org/ns#"
   xmlns:rdf="http://www.w3.org/1999/02/22-rdf-syntax-ns#"
   xmlns:svg="http://www.w3.org/2000/svg"
   xmlns="http://www.w3.org/2000/svg"
   xmlns:sodipodi="http://sodipodi.sourceforge.net/DTD/sodipodi-0.dtd"
   xmlns:inkscape="http://www.inkscape.org/namespaces/inkscape"
   width="29.105261mm"
   height="29.636143mm"
   viewBox="0 0 29.105261 29.636143"
   version="1.1"
   id="svg9845"
   inkscape:version="0.92.4 (5da689c313, 2019-01-14)"
   sodipodi:docname="webapps.svg">
  <defs
     id="defs9839" />
  <sodipodi:namedview
     id="base"
     pagecolor="#ffffff"
     bordercolor="#666666"
     borderopacity="1.0"
     inkscape:pageopacity="0.0"
     inkscape:pageshadow="2"
     inkscape:zoom="0.35"
     inkscape:cx="389.28778"
     inkscape:cy="-221.13755"
     inkscape:document-units="mm"
     inkscape:current-layer="layer1"
     showgrid="false"
     fit-margin-top="0"
     fit-margin-left="0"
     fit-margin-right="0"
     fit-margin-bottom="0"
     inkscape:window-width="1920"
     inkscape:window-height="1003"
     inkscape:window-x="0"
     inkscape:window-y="0"
     inkscape:window-maximized="1" />
  <metadata
     id="metadata9842">
    <rdf:RDF>
      <cc:Work
         rdf:about="">
        <dc:format>image/svg+xml</dc:format>
        <dc:type
           rdf:resource="http://purl.org/dc/dcmitype/StillImage" />
        <dc:title></dc:title>
      </cc:Work>
    </rdf:RDF>
  </metadata>
  <g
     inkscape:label="Taso 1"
     inkscape:groupmode="layer"
     id="layer1"
     transform="translate(136.26096,-60.68788)">
    <g
       id="g2146"
       transform="matrix(1.0000197,0,0,1.0000197,-137.52524,59.415047)">
      <circle
         id="circle2132"
         style="fill:#e82e34;paint-order:stroke markers fill"
         r="7.1436"
         cy="8.46"
         cx="8.4665003" />
      <path
         id="path2134"
         d="M 12.125,7.061 C 12.08358,6.56548 11.78812,5.9406 11.18093,5.9183 c -1.6955,-0.114 -3.7041,-0.14517 -5.4304,0 -0.53555,0.060023 -0.90266,0.71235 -0.94267,1.2079 -0.084673,1.0408 -0.084673,1.6332 0,2.674 0.040481,0.49552 0.39829,1.1516 0.9436,1.2204 1.7467,0.114 3.7456,0.13028 5.4304,0 0.52857,-0.09166 0.90312,-0.72492 0.9436,-1.2204 0.08421,-1.0413 0.08421,-1.6983 -4.58e-4,-2.7391 z M 7.5354,9.7834 V 7.115 l 2.3264,1.3344 z"
         inkscape:connector-curvature="0"
         style="fill:#ffffff;stroke-width:0.019239" />
    </g>
    <g
       id="g8829"
       transform="matrix(1.0000197,0,0,1.0000197,-137.58389,-205.3554)"
       style="paint-order:stroke markers fill">
      <circle
         id="circle8815"
         r="7.1436"
         cy="288.53"
         cx="8.4665003"
         style="fill:#0b93d3" />
      <g
         id="g8827"
         style="fill:#ffffff">
        <circle
           id="circle8817"
           r="1.191"
           cy="288.14001"
           cx="11.377"
           style="opacity:0.25" />
        <circle
           id="circle8819"
           r="2.6459999"
           cy="288.26999"
           cx="8.7309999" />
        <circle
           id="circle8821"
           r="2.1170001"
           cy="289.32999"
           cx="5.8210001" />
        <circle
           id="circle8823"
           r="1.587"
           cy="289.85999"
           cx="11.642" />
        <path
           id="path8825"
           d="m 5.821,288.53 h 5.821 v 2.91 H 5.821 Z"
           inkscape:connector-curvature="0" />
      </g>
    </g>
    <g
       id="g8880"
       transform="matrix(1.0000197,0,0,1.0000197,-122.76611,-205.37569)"
       style="paint-order:stroke markers fill">
      <circle
         id="circle8870"
         r="7.1436"
         cy="288.53"
         cx="8.4665003"
         style="fill:#71a5e8" />
      <circle
         id="circle8872"
         r="3.1749001"
         cy="288.54001"
         cx="8.4665003"
         style="opacity:0.15" />
      <circle
         id="circle8874"
         r="1.852"
         cy="288.54001"
         cx="8.4665003"
         style="fill:#71a5e8" />
      <path
         id="path8876"
         d="m 4.4978,284.57 4.4982,3.4362 -1.059,1.058 z"
         inkscape:connector-curvature="0"
         style="fill:#ffffff" />
      <path
         id="path8878"
         d="m 12.435,292.51 -4.4982,-3.4402 1.059,-1.059 z"
         inkscape:connector-curvature="0"
         style="fill:#e6e6e6" />
    </g>
    <g
       id="g8908"
       transform="matrix(0.31059437,0,0,0.31059437,-121.82951,55.407776)"
       style="stroke-width:0.85184997">
      <g
         id="g8898"
         transform="translate(0,16)">
        <path
           id="path8896"
           d="M 24,1 C 36.703,1 47,11.297 47,24 47,36.703 36.703,47 24,47 11.297,47 1,36.703 1,24 1,11.297 11.297,1 24,1 Z"
           inkscape:connector-curvature="0"
           style="fill:#ce5050;stroke-width:0.85184997" />
      </g>
      <g
         id="g8906"
         transform="translate(0,16)">
        <g
           id="g8904"
           style="stroke-width:0.85184997">
          <g
             id="g8902"
             style="stroke-width:0.85184997">
            <path
               id="path8900"
               d="m 11.996,13 v 17 l 9,6 V 18.5 Z m 2,0 8,5 h 4 l 8,-5 c -4,0 -6,0.52 -10,4 -4,-3.395 -6,-4 -10,-4 z m 22,0 -9,5.5 V 36 l 9,-6 z m -14,6 v 18 h 4 V 19 Z"
               inkscape:connector-curvature="0"
               style="fill:#f9f9f9" />
          </g>
        </g>
      </g>
    </g>
  </g>
</svg>
