<?xml version="1.0" encoding="UTF-8" standalone="no"?>
<!-- Created with Inkscape (http://www.inkscape.org/) -->

<svg
   xmlns:dc="http://purl.org/dc/elements/1.1/"
   xmlns:cc="http://creativecommons.org/ns#"
   xmlns:rdf="http://www.w3.org/1999/02/22-rdf-syntax-ns#"
   xmlns:svg="http://www.w3.org/2000/svg"
   xmlns="http://www.w3.org/2000/svg"
   xmlns:xlink="http://www.w3.org/1999/xlink"
   xmlns:sodipodi="http://sodipodi.sourceforge.net/DTD/sodipodi-0.dtd"
   xmlns:inkscape="http://www.inkscape.org/namespaces/inkscape"
   width="29.104176mm"
   height="29.633329mm"
   viewBox="0 0 29.104176 29.633329"
   version="1.1"
   id="svg11050"
   inkscape:version="0.92.4 (5da689c313, 2019-01-14)"
   sodipodi:docname="whiteboards.svg">
  <defs
     id="defs11044">
    <linearGradient
       y2="17.242001"
       x2="32.747002"
       y1="44"
       x1="32.747002"
       gradientUnits="userSpaceOnUse"
       id="a-4"
       xlink:href="#a-3"
       gradientTransform="matrix(0.8275862,0,0,0.78873239,-92.541872,415.90288)" />
    <linearGradient
       id="a-3">
      <stop
         id="stop995"
         offset="0" />
      <stop
         id="stop997"
         stop-opacity="0"
         offset="1" />
    </linearGradient>
    <linearGradient
       inkscape:collect="always"
       xlink:href="#a-3"
       id="linearGradient10921"
       gradientUnits="userSpaceOnUse"
       x1="32.747002"
       y1="44"
       x2="32.747002"
       y2="17.242001"
       gradientTransform="matrix(1.5756155,0,0,1.5500879,-59.94021,932.31035)" />
    <linearGradient
       gradientUnits="userSpaceOnUse"
       y2="33"
       x2="58"
       y1="33"
       x1="25.652"
       id="b-5"
       xlink:href="#a-3"
       gradientTransform="translate(541.0714,667.23402)" />
    <linearGradient
       gradientUnits="userSpaceOnUse"
       y2="30"
       y1="30"
       x2="55"
       x1="34.393002"
       id="d-6"
       gradientTransform="matrix(0.85345839,0,0,0.83963093,463.94132,480.26877)">
      <stop
         id="stop10660"
         offset="0" />
      <stop
         id="stop10662"
         offset="1"
         stop-opacity="0" />
    </linearGradient>
    <linearGradient
       gradientUnits="userSpaceOnUse"
       y2="14"
       x2="45.094002"
       y1="50"
       x1="45.094002"
       id="b-06"
       xlink:href="#a-3"
       gradientTransform="matrix(1.1871392,0,0,1.0900257,509.91103,530.66556)" />
  </defs>
  <sodipodi:namedview
     id="base"
     pagecolor="#ffffff"
     bordercolor="#666666"
     borderopacity="1.0"
     inkscape:pageopacity="0.0"
     inkscape:pageshadow="2"
     inkscape:zoom="0.35"
     inkscape:cx="986.4286"
     inkscape:cy="-195.42858"
     inkscape:document-units="mm"
     inkscape:current-layer="layer1"
     showgrid="false"
     fit-margin-top="0"
     fit-margin-left="0"
     fit-margin-right="0"
     fit-margin-bottom="0"
     inkscape:window-width="1920"
     inkscape:window-height="1003"
     inkscape:window-x="0"
     inkscape:window-y="0"
     inkscape:window-maximized="1" />
  <metadata
     id="metadata11047">
    <rdf:RDF>
      <cc:Work
         rdf:about="">
        <dc:format>image/svg+xml</dc:format>
        <dc:type
           rdf:resource="http://purl.org/dc/dcmitype/StillImage" />
        <dc:title></dc:title>
      </cc:Work>
    </rdf:RDF>
  </metadata>
  <g
     inkscape:label="Taso 1"
     inkscape:groupmode="layer"
     id="layer1"
     transform="translate(294.25447,-67.492859)">
    <g
       id="g10520"
       transform="matrix(0.84237777,0,0,0.9174276,-279.16204,65.536829)">
      <path
         id="path10501"
         d="m 13.976,14.485 c -0.054,0.2 -0.27,0.316 -0.48,0.26 L 0.972,11.389 C 0.76,11.332 0.632,11.122 0.685,10.924 L 2.957,2.448 c 0.053,-0.2 0.27,-0.316 0.48,-0.26 L 15.96,5.545 c 0.211,0.057 0.34,0.267 0.286,0.465 z"
         inkscape:connector-curvature="0"
         style="fill:#ffc771;fill-rule:evenodd" />
      <path
         id="path10503"
         d="m 15.346,12.854 c 0,0.207 -0.18,0.375 -0.397,0.375 H 1.984 c -0.219,0 -0.397,-0.17 -0.397,-0.375 V 4.08 c 0,-0.207 0.18,-0.375 0.397,-0.375 H 14.95 c 0.22,0 0.397,0.17 0.397,0.375 z"
         inkscape:connector-curvature="0"
         style="fill:#a75dfa;fill-rule:evenodd" />
      <path
         id="path10505"
         d="M 11.377,9.922 V 6.614 A 0.397,0.397 0 0 0 10.983,6.218 H 6.35 V 5.159 C 6.35,5.027 6.218,4.762 5.953,4.762 5.689,4.762 5.556,5.027 5.556,5.159 V 6.218 H 4.498 c -0.132,0 -0.397,0.132 -0.397,0.397 0,0.264 0.265,0.396 0.397,0.396 h 1.058 v 3.308 c 0,0.22 0.18,0.397 0.395,0.397 h 4.632 v 1.058 c 0,0.132 0.133,0.397 0.397,0.397 0.265,0 0.397,-0.265 0.397,-0.397 v -1.058 h 1.058 c 0.133,0 0.397,-0.133 0.397,-0.397 0,-0.265 -0.264,-0.397 -0.397,-0.397 z m -5.027,0 v -2.91 h 4.233 v 2.91 z"
         inkscape:connector-curvature="0"
         style="fill:#fff9f9;fill-rule:evenodd" />
      <path
         style="opacity:0.15;fill:url(#b-06);fill-rule:evenodd"
         id="path10507"
         transform="scale(0.26458)"
         d="M 50.836,14 A 58,53 0 0 1 32.188,50 H 56.5 C 57.324,50 58,49.366 58,48.584 V 15.416 C 58,14.642 57.329,14 56.5,14 Z"
         inkscape:connector-curvature="0" />
    </g>
    <g
       id="g10688"
       transform="matrix(0.31001316,0,0,0.31511862,-296.11455,80.424899)">
      <rect
         id="rect10667"
         ry="2.5"
         rx="2.5"
         height="28"
         width="40"
         y="-46"
         x="-53"
         transform="matrix(0,-1,-1,0,0,0)"
         style="fill:#8e8e8e" />
      <rect
         id="rect10669"
         ry="2.5"
         rx="2.5"
         height="52"
         width="38"
         y="-58"
         x="-49"
         transform="matrix(0,-1,-1,0,0,0)"
         style="fill:#333333" />
      <rect
         id="rect10671"
         ry="0"
         rx="0"
         height="46"
         width="32"
         y="-55"
         x="-46"
         transform="matrix(0,-1,-1,0,0,0)"
         style="fill:#5294e2" />
      <path
         style="opacity:0.25;fill:url(#d-6)"
         id="path10673"
         d="M 47.979,14 A 37.297,37.297 0 0 1 48.131,17.115 37.297,37.297 0 0 1 34.393,46 H 55 V 14 Z"
         inkscape:connector-curvature="0" />
    </g>
    <g
       id="g10723"
       transform="matrix(0.26458333,0,0,0.26458333,-295.84197,64.317859)">
      <rect
         id="rect10698"
         ry="3"
         rx="3"
         y="12"
         x="6"
         height="42"
         width="52"
         style="fill:#4f4f4f" />
      <path
         style="opacity:0.25;fill:url(#b-5)"
         id="path10700"
         d="M 45.78,12 A 50.99,50.99 0 0 1 45.83,13.428 50.99,50.99 0 0 1 25.652,54 H 55 c 1.662,0 3,-1.338 3,-3 V 15 c 0,-1.662 -1.338,-3 -3,-3 z"
         inkscape:connector-curvature="0" />
      <circle
         id="circle10702"
         r="16"
         cy="43"
         cx="45"
         style="fill:#1ea362" />
      <circle
         id="circle10704"
         cx="45"
         cy="43"
         r="13"
         style="opacity:0.15" />
      <path
         id="path10706"
         d="M 37,47.436 V 51 h 3.564 l 9.001,-9.001 -3.564,-3.564 z m 15.717,-8.578 a 0.945,0.945 0 0 0 0,-1.348 L 50.49,35.283 a 0.945,0.945 0 0 0 -1.348,0 l -1.862,1.873 3.564,3.564 z"
         inkscape:connector-curvature="0"
         style="fill:#ffffff" />
      <path
         id="path10708"
         d="m 9,12 c -1.662,0 -3,1.338 -3,3 v 36 c 0,1.662 1.338,3 3,3 h 6 V 12 Z"
         inkscape:connector-curvature="0"
         style="opacity:0.15;fill:#ffffff" />
    </g>
    <g
       id="g10858"
       transform="matrix(0.16792379,0,0,0.17068924,-290.72807,85.89812)">
      <g
         id="g10835"
         style="paint-order:markers stroke fill">
        <rect
           id="rect10831"
           rx="2"
           ry="1.905"
           y="4"
           x="6"
           height="40"
           width="36"
           style="fill:#687583" />
        <path
           style="opacity:0.15;fill:url(#linearGradient10921)"
           id="path10833"
           d="M 42,17.242 A 40,40 0 0 1 23.494,44 H 40 c 1.108,0 2,-0.85 2,-1.904 z"
           inkscape:connector-curvature="0" />
      </g>
      <path
         id="path10845"
         d="m 22.613,13.5 c -1.026,0 -2.364,0.61 -3.587,1.628 a 2.162,2.162 0 0 0 -1.251,1.979 c 0,0.277 0.05,0.55 0.147,0.802 -1.269,0.257 -2.228,1.424 -2.228,2.825 0,0.29 0.041,0.579 0.123,0.855 A 2.939,2.939 0 0 0 15,23.638 c 0,0.606 0.178,1.167 0.486,1.63 A 2.944,2.944 0 0 0 15,26.902 c 0,1.047 0.544,2.008 1.41,2.514 a 3.405,3.405 0 0 0 -0.021,0.391 c 0,1.413 0.882,2.66 2.16,3.086 0.556,0.996 1.567,1.606 2.674,1.606 1.215,0 2.27,-0.732 2.778,-1.797 0.509,1.065 1.56,1.797 2.775,1.797 1.107,0 2.121,-0.61 2.678,-1.606 1.278,-0.426 2.16,-1.674 2.16,-3.086 0,-0.13 -0.009,-0.26 -0.024,-0.391 C 32.454,28.91 33,27.949 33,26.902 33,26.311 32.833,25.75 32.514,25.268 A 2.958,2.958 0 0 0 33,23.638 c 0,-0.774 -0.296,-1.515 -0.818,-2.05 0.083,-0.277 0.126,-0.563 0.126,-0.854 0,-1.401 -0.961,-2.568 -2.23,-2.825 0.097,-0.252 0.147,-0.525 0.147,-0.802 a 2.16,2.16 0 0 0 -1.251,-1.979 c -1.223,-1.018 -2.56,-1.627 -3.587,-1.627 -0.57,0 -1.074,0.295 -1.386,0.744 a 1.693,1.693 0 0 0 -1.389,-0.744 m 0,0.68 c 0.587,0 1.062,0.5 1.062,1.114 v 4.4 a 1.663,1.663 0 0 0 -1.062,-0.388 0.336,0.336 0 0 0 -0.327,0.342 c 0,0.188 0.147,0.34 0.327,0.34 0.587,0 1.062,0.497 1.062,1.11 v 8.179 a 3.09,3.09 0 0 0 -1.645,-1.145 0.326,0.326 0 0 0 -0.4,0.24 0.34,0.34 0 0 0 0.229,0.416 c 1.068,0.3 1.815,1.315 1.815,2.47 0,1.413 -1.1,2.564 -2.451,2.564 -0.912,0 -1.743,-0.527 -2.169,-1.373 A 0.329,0.329 0 0 0 18.85,32.28 c -1.068,-0.3 -1.812,-1.315 -1.812,-2.47 0,-0.172 0.015,-0.348 0.047,-0.517 a 0.343,0.343 0 0 0 -0.186,-0.378 c -0.76,-0.353 -1.251,-1.142 -1.251,-2.01 0,-0.395 0.099,-0.771 0.285,-1.104 a 2.67,2.67 0 0 0 1.818,0.72 c 0.18,0 0.324,-0.155 0.324,-0.342 a 0.33,0.33 0 0 0 -0.324,-0.34 c -1.16,0 -2.105,-0.986 -2.105,-2.2 0,-0.652 0.276,-1.269 0.756,-1.689 a 0.348,0.348 0 0 0 0.092,-0.387 2.27,2.27 0 0 1 -0.153,-0.828 c 0,-1.213 0.943,-2.197 2.104,-2.197 1.16,0 2.105,0.984 2.105,2.197 0,0.188 0.144,0.342 0.324,0.342 0.18,0 0.327,-0.154 0.327,-0.342 0,-1.525 -1.142,-2.775 -2.577,-2.87 -0.13,-0.229 -0.2,-0.49 -0.2,-0.758 0,-0.606 0.353,-1.128 0.854,-1.353 0.02,-0.017 0.04,-0.018 0.058,-0.026 0.156,-0.061 0.321,-0.097 0.498,-0.097 0.545,0 1.034,0.318 1.271,0.83 0.078,0.17 0.271,0.24 0.432,0.158 A 0.346,0.346 0 0 0 21.69,16.166 2.1,2.1 0 0 0 20.31,15.01 c 0.831,-0.53 1.648,-0.831 2.301,-0.831 z m 2.775,0 c 0.653,0 1.472,0.3 2.301,0.83 a 2.094,2.094 0 0 0 -1.377,1.157 c -0.078,0.17 -0.01,0.37 0.15,0.453 a 0.311,0.311 0 0 0 0.432,-0.16 1.399,1.399 0 0 1 1.271,-0.83 c 0.175,0 0.342,0.034 0.498,0.094 0.018,0.017 0.039,0.02 0.058,0.026 0.501,0.226 0.854,0.747 0.854,1.354 0,0.269 -0.07,0.527 -0.2,0.755 -1.437,0.096 -2.577,1.348 -2.577,2.874 0,0.187 0.147,0.342 0.327,0.342 0.18,0 0.327,-0.155 0.327,-0.342 0,-1.214 0.941,-2.2 2.102,-2.2 1.16,0 2.104,0.986 2.104,2.2 0,0.283 -0.049,0.562 -0.153,0.828 a 0.349,0.349 0 0 0 0.092,0.387 c 0.48,0.42 0.756,1.036 0.756,1.689 0,1.213 -0.944,2.2 -2.105,2.2 a 0.33,0.33 0 0 0 -0.324,0.34 c 0,0.187 0.144,0.341 0.324,0.341 a 2.68,2.68 0 0 0 1.821,-0.72 c 0.188,0.335 0.282,0.71 0.282,1.104 0,0.867 -0.49,1.656 -1.25,2.01 a 0.343,0.343 0 0 0 -0.187,0.378 c 0.033,0.168 0.05,0.344 0.05,0.518 0,1.155 -0.749,2.17 -1.815,2.47 a 0.329,0.329 0 0 0 -0.203,0.17 c -0.426,0.846 -1.257,1.372 -2.169,1.372 -1.351,0 -2.45,-1.15 -2.45,-2.563 0,-0.098 -0.005,-0.19 -0.013,-0.284 a 0.364,0.364 0 0 0 0.012,-0.091 V 19.649 c 0,-0.612 0.477,-1.114 1.062,-1.114 0.18,0 0.327,-0.152 0.327,-0.34 a 0.336,0.336 0 0 0 -0.327,-0.341 c -0.4,0 -0.769,0.145 -1.062,0.387 v -2.948 c 0,-0.613 0.477,-1.114 1.062,-1.114 m 4.859,5.853 a 0.334,0.334 0 0 0 -0.324,0.342 c 0,1.213 -0.944,2.197 -2.105,2.197 a 2.03,2.03 0 0 1 -1.5,-0.658 0.31,0.31 0 0 0 -0.459,0 0.349,0.349 0 0 0 -0.006,0.48 2.687,2.687 0 0 0 1.665,0.846 c 0.15,1.035 1.008,1.834 2.039,1.834 0.18,0 0.324,-0.154 0.324,-0.342 a 0.33,0.33 0 0 0 -0.324,-0.339 h -0.003 c -0.674,0 -1.236,-0.498 -1.374,-1.16 1.35,-0.184 2.395,-1.39 2.395,-2.85 a 0.336,0.336 0 0 0 -0.327,-0.343 z m -11.798,0.357 a 0.336,0.336 0 0 0 -0.327,0.342 c 0,1.46 1.049,2.671 2.399,2.856 -0.138,0.661 -0.704,1.16 -1.377,1.16 a 0.336,0.336 0 0 0 -0.327,0.341 c 0,0.188 0.147,0.34 0.327,0.34 1.032,0 1.887,-0.796 2.037,-1.832 a 2.675,2.675 0 0 0 1.665,-0.846 0.354,0.354 0 0 0 -0.006,-0.483 0.32,0.32 0 0 0 -0.459,0 2.044,2.044 0 0 1 -1.5,0.661 c -1.16,0 -2.105,-0.987 -2.105,-2.2 a 0.334,0.334 0 0 0 -0.324,-0.342 z m 6.94,5.086 a 0.334,0.334 0 0 0 -0.325,0.342 0.33,0.33 0 0 0 0.324,0.34 c 1.16,0 2.105,0.986 2.105,2.2 0,0.078 -0.005,0.157 -0.012,0.234 -1.01,0.427 -1.722,1.464 -1.722,2.671 a 0.33,0.33 0 0 0 0.324,0.34 c 0.18,0 0.327,-0.152 0.327,-0.34 0,-1.213 0.943,-2.2 2.104,-2.2 0.18,0 0.324,-0.155 0.324,-0.342 a 0.33,0.33 0 0 0 -0.324,-0.34 c -0.126,0 -0.25,0.019 -0.37,0.03 v -0.049 c 0,-1.588 -1.236,-2.88 -2.754,-2.88 z m -3.817,0.726 c -1.519,0 -2.754,1.292 -2.754,2.88 v 0.048 a 2.717,2.717 0 0 0 -0.367,-0.027 0.333,0.333 0 0 0 -0.327,0.34 c 0,0.187 0.147,0.341 0.327,0.341 1.16,0 2.104,0.987 2.104,2.2 0,0.188 0.144,0.343 0.324,0.343 0.18,0 0.327,-0.155 0.327,-0.342 0,-1.208 -0.715,-2.243 -1.725,-2.672 a 2.408,2.408 0 0 1 -0.012,-0.23 c 0,-1.214 0.944,-2.201 2.105,-2.201 0.18,0 0.327,-0.155 0.327,-0.342 a 0.333,0.333 0 0 0 -0.327,-0.34"
         inkscape:connector-curvature="0"
         style="fill:#ffffff" />
    </g>
    <g
       id="g10889"
       transform="matrix(0.31970485,0,0,0.33545386,-278.5779,82.366218)">
      <g
         id="g10864"
         style="paint-order:markers stroke fill">
        <rect
           id="rect10860"
           width="36"
           height="40"
           x="6"
           y="4"
           ry="1.905"
           rx="2"
           style="fill:#0091ea" />
        <path
           style="opacity:0.15;fill:url(#a-4)"
           id="path10862"
           d="M 42,17.242 A 40,40 0 0 1 23.494,44 H 40 c 1.108,0 2,-0.85 2,-1.904 z"
           inkscape:connector-curvature="0" />
      </g>
      <g
         id="g10876"
         style="fill:#ffffff;fill-rule:evenodd">
        <path
           id="path10874"
           d="m 25,19.5 h 8 a 0.5,0.5 0 1 0 0,-1 h -8 a 0.5,0.5 0 1 0 0,1 z m 0,4 h 8 a 0.5,0.5 0 1 0 0,-1 h -8 a 0.5,0.5 0 1 0 0,1 z m -9,4 h 17 a 0.5,0.5 0 1 0 0,-1 H 16 a 0.5,0.5 0 1 0 0,1 z m 0,4 h 17 a 0.5,0.5 0 1 0 0,-1 H 16 a 0.5,0.5 0 1 0 0,1 z m 4.169,-8.31 -0.342,-0.899 h -2.91 l -0.342,0.918 c -0.133,0.358 -0.247,0.6 -0.342,0.725 -0.094,0.125 -0.249,0.188 -0.463,0.188 a 0.68,0.68 0 0 1 -0.484,-0.2 0.613,0.613 0 0 1 -0.21,-0.454 c 0,-0.098 0.016,-0.199 0.049,-0.303 0.033,-0.104 0.086,-0.249 0.161,-0.435 l 1.831,-4.648 0.188,-0.48 c 0.073,-0.188 0.152,-0.344 0.235,-0.467 a 0.952,0.952 0 0 1 0.327,-0.3 c 0.135,-0.077 0.302,-0.115 0.5,-0.115 0.202,0 0.37,0.038 0.506,0.114 A 0.972,0.972 0 0 1 19.2,17.13 c 0.083,0.12 0.153,0.25 0.21,0.388 0.057,0.138 0.13,0.323 0.217,0.554 l 1.87,4.62 c 0.147,0.351 0.22,0.607 0.22,0.766 0,0.166 -0.07,0.318 -0.208,0.457 a 0.682,0.682 0 0 1 -0.5,0.207 0.6,0.6 0 0 1 -0.498,-0.227 1.527,1.527 0 0 1 -0.178,-0.322 18.884,18.884 0 0 1 -0.164,-0.384 z m -2.871,-1.988 h 2.139 l -1.08,-2.954 -1.06,2.954 z"
           inkscape:connector-curvature="0" />
      </g>
    </g>
  </g>
</svg>
