<?xml version="1.0" encoding="UTF-8" standalone="no"?>
<!-- Created with Inkscape (http://www.inkscape.org/) -->

<svg
   xmlns:dc="http://purl.org/dc/elements/1.1/"
   xmlns:cc="http://creativecommons.org/ns#"
   xmlns:rdf="http://www.w3.org/1999/02/22-rdf-syntax-ns#"
   xmlns:svg="http://www.w3.org/2000/svg"
   xmlns="http://www.w3.org/2000/svg"
   xmlns:sodipodi="http://sodipodi.sourceforge.net/DTD/sodipodi-0.dtd"
   xmlns:inkscape="http://www.inkscape.org/namespaces/inkscape"
   width="10mm"
   height="10mm"
   viewBox="0 0 10 10"
   version="1.1"
   id="svg5662"
   inkscape:version="0.92.4 (5da689c313, 2019-01-14)"
   sodipodi:docname="abitti.svg"
   inkscape:export-filename="/home/asokero/kehitys/grub-icons/abitti.png"
   inkscape:export-xdpi="299.72"
   inkscape:export-ydpi="299.72">
  <defs
     id="defs5656" />
  <sodipodi:namedview
     id="base"
     pagecolor="#ffffff"
     bordercolor="#666666"
     borderopacity="1.0"
     inkscape:pageopacity="0.0"
     inkscape:pageshadow="2"
     inkscape:zoom="11.313709"
     inkscape:cx="-39.958059"
     inkscape:cy="13.982792"
     inkscape:document-units="mm"
     inkscape:current-layer="layer1"
     showgrid="false"
     fit-margin-top="0"
     fit-margin-left="0"
     fit-margin-right="0"
     fit-margin-bottom="0"
     inkscape:window-width="3840"
     inkscape:window-height="1124"
     inkscape:window-x="0"
     inkscape:window-y="0"
     inkscape:window-maximized="1" />
  <metadata
     id="metadata5659">
    <rdf:RDF>
      <cc:Work
         rdf:about="">
        <dc:format>image/svg+xml</dc:format>
        <dc:type
           rdf:resource="http://purl.org/dc/dcmitype/StillImage" />
        <dc:title />
      </cc:Work>
    </rdf:RDF>
  </metadata>
  <g
     inkscape:label="Taso 1"
     inkscape:groupmode="layer"
     id="layer1"
     transform="translate(41.285713,-130.2262)">
    <ellipse
       style="fill:#78b75b;fill-opacity:0.98823529;fill-rule:evenodd;stroke-width:0.14580846"
       id="path1012"
       cx="-36.284199"
       cy="135.22566"
       rx="4.998692"
       ry="4.9996023" />
    <g
       id="g3528"
       transform="translate(-0.54957296,-0.280633)">
      <g
         transform="matrix(0.49962386,0,0,0.54721702,219.76108,78.554936)"
         id="g5461"
         style="opacity:0.98799995">
        <path
           inkscape:connector-curvature="0"
           id="path5416"
           d="m -504.22024,105.2007 c -13.39453,2.8112 -13.98511,-2.12611 -13.98511,-2.12611 0,0 -0.30711,-2.03162 -0.23624,-2.36235 0,0 0.30711,-1.039434 2.26786,-1.41741 0,0 9.1423,-1.039435 12.54408,2.62221 0,0 0.11811,1.819 -0.59059,3.28366 z"
           style="fill:none;stroke:#000000;stroke-width:0.26458332px;stroke-linecap:butt;stroke-linejoin:miter;stroke-opacity:1" />
        <path
           inkscape:connector-curvature="0"
           id="path5418"
           d="m -503.62964,101.91704 c 0,0 -11.19756,2.85844 -14.81195,-1.2048"
           style="fill:none;stroke:#000000;stroke-width:0.26458332px;stroke-linecap:butt;stroke-linejoin:miter;stroke-opacity:1" />
        <path
           inkscape:connector-curvature="0"
           id="path5430"
           d="m -504.76246,106.83456 0.14724,-1.51135"
           style="fill:none;stroke:#000000;stroke-width:0.28115264px;stroke-linecap:butt;stroke-linejoin:miter;stroke-opacity:1" />
        <path
           style="fill:none;stroke:#000000;stroke-width:0.26458332px;stroke-linecap:butt;stroke-linejoin:miter;stroke-opacity:1"
           d="m -518.06361,103.66518 c -0.63784,2.45684 -0.49609,2.88207 -0.49609,2.88207 1.06305,6.04761 9.68563,0.94494 9.68563,0.94494 0,0 2.81119,0.0236 4.18136,-0.75596"
           id="path5440"
           inkscape:connector-curvature="0" />
        <path
           style="opacity:1;fill:#000000;fill-opacity:1;stroke:none;stroke-width:0.17528637;stroke-miterlimit:4;stroke-dasharray:none;stroke-opacity:1"
           d="m -515.7697,109.52364 c -1.44345,-0.2107 -2.34712,-1.14913 -2.67524,-2.77819 -0.0661,-0.32834 -0.0558,-0.68163 0.0367,-1.25687 0.0585,-0.36351 0.22736,-1.19881 0.31761,-1.57095 l 0.0425,-0.17508 0.0445,0.0735 c 0.0976,0.16096 0.36581,0.47708 0.54856,0.64642 0.74081,0.68644 1.80819,1.17866 3.15371,1.45431 2.25799,0.4626 5.37699,0.315 9.07811,-0.42963 0.23907,-0.0481 0.44052,-0.0874 0.44769,-0.0874 0.007,0 0.0131,0.28393 0.0131,0.63095 v 0.63097 l -0.19316,0.0938 c -0.35492,0.17244 -0.82491,0.31416 -1.43225,0.43186 -0.59426,0.11516 -1.63468,0.21736 -2.21292,0.21736 h -0.27328 l -0.23704,0.14142 c -1.46161,0.87197 -3.34152,1.63026 -4.67678,1.88648 -0.67167,0.1289 -1.47089,0.1656 -1.98176,0.091 z"
           id="path5446"
           inkscape:connector-curvature="0" />
        <path
           style="opacity:1;fill:#f9f9f9;fill-opacity:1;stroke:none;stroke-width:1.88399994;stroke-miterlimit:4;stroke-dasharray:none;stroke-opacity:1"
           id="path5450"
           sodipodi:type="arc"
           sodipodi:cx="-515.51227"
           sodipodi:cy="106.00391"
           sodipodi:rx="0.1889881"
           sodipodi:ry="0.25985864"
           sodipodi:start="0"
           sodipodi:end="6.2721723"
           sodipodi:open="true"
           d="m -515.32328,106.00391 a 0.1889881,0.25985864 0 0 1 -0.18847,0.25985 0.1889881,0.25985864 0 0 1 -0.1895,-0.25842 0.1889881,0.25985864 0 0 1 0.18742,-0.26128 0.1889881,0.25985864 0 0 1 0.19054,0.25698" />
      </g>
      <path
         transform="matrix(0.26458333,0,0,0.26458333,-41.285713,130.2262)"
         inkscape:connector-curvature="0"
         id="path3502"
         d="m 19.101917,17.175972 c -0.09723,-0.0089 -0.475088,-0.038 -0.83969,-0.06463 C 14.805616,16.858857 11.913415,16.000014 9.8334059,14.608391 9.3082767,14.257055 8.538758,13.604979 8.1992353,13.223626 L 7.9473498,12.940707 8.062494,12.729149 c 0.4848664,-0.89086 1.5872226,-1.671712 3.005401,-2.128873 0.624448,-0.201295 1.052942,-0.272963 2.134099,-0.356941 3.055675,-0.237345 6.56008,-0.19567 9.369165,0.111421 3.3144,0.362332 6.058804,1.054231 8.398539,2.117379 1.456011,0.661594 2.940619,1.661489 3.858849,2.598967 l 0.258669,0.264092 -0.760054,0.181929 c -3.330896,0.797295 -6.414068,1.280245 -10.209207,1.599177 -0.528282,0.0444 -4.648144,0.09341 -5.016038,0.05967 z"
         style="opacity:1;fill:#ffffff;fill-opacity:0.98823529;stroke:#ffffff;stroke-width:0.10021986;stroke-miterlimit:4;stroke-dasharray:none;stroke-opacity:1" />
      <path
         transform="matrix(0.26458333,0,0,0.26458333,-41.285713,130.2262)"
         inkscape:connector-curvature="0"
         id="path3504"
         d="M 19.066561,23.729128 C 14.204501,23.426008 10.703664,21.968558 9.1082043,19.583321 8.6096969,18.838044 8.4263284,18.361749 8.3052638,17.497702 8.2043332,16.777354 7.9687168,14.67862 7.9262139,14.121347 l -0.030336,-0.397747 0.377818,0.362083 c 1.1869241,1.137495 2.8966051,2.077994 4.9315581,2.71286 4.236394,1.321672 10.484196,1.334351 17.661152,0.03584 1.402346,-0.253724 3.891368,-0.78979 4.408369,-0.94944 0.07022,-0.02168 0.0773,0.0181 0.07695,0.432085 -0.0015,1.802692 -0.370942,3.972019 -0.919657,5.400626 l -0.120113,0.312719 -0.441144,0.09962 c -3.115364,0.703486 -6.617,1.263677 -9.324173,1.491678 -1.81594,0.152941 -4.048391,0.196718 -5.480078,0.10746 z"
         style="opacity:1;fill:#ffffff;fill-opacity:0.98823529;stroke:#ffffff;stroke-width:0.10021986;stroke-miterlimit:4;stroke-dasharray:none;stroke-opacity:1" />
    </g>
  </g>
</svg>
