<?xml version="1.0" encoding="UTF-8" standalone="no"?>
<!-- Created with Inkscape (http://www.inkscape.org/) -->

<svg
   xmlns:dc="http://purl.org/dc/elements/1.1/"
   xmlns:cc="http://creativecommons.org/ns#"
   xmlns:rdf="http://www.w3.org/1999/02/22-rdf-syntax-ns#"
   xmlns:svg="http://www.w3.org/2000/svg"
   xmlns="http://www.w3.org/2000/svg"
   xmlns:sodipodi="http://sodipodi.sourceforge.net/DTD/sodipodi-0.dtd"
   xmlns:inkscape="http://www.inkscape.org/namespaces/inkscape"
   width="10mm"
   height="10mm"
   viewBox="0 0 10 10"
   version="1.1"
   id="svg5662"
   inkscape:version="0.92.4 (5da689c313, 2019-01-14)"
   sodipodi:docname="abitti.svg"
   inkscape:export-filename="/home/asokero/kehitys/grub-icons/abitti.png"
   inkscape:export-xdpi="299.72"
   inkscape:export-ydpi="299.72">
  <defs
     id="defs5656" />
  <sodipodi:namedview
     id="base"
     pagecolor="#ffffff"
     bordercolor="#666666"
     borderopacity="1.0"
     inkscape:pageopacity="0.0"
     inkscape:pageshadow="2"
     inkscape:zoom="15.839192"
     inkscape:cx="-3.5128131"
     inkscape:cy="23.473577"
     inkscape:document-units="mm"
     inkscape:current-layer="layer1"
     showgrid="false"
     fit-margin-top="0"
     fit-margin-left="0"
     fit-margin-right="0"
     fit-margin-bottom="0"
     inkscape:window-width="3840"
     inkscape:window-height="1124"
     inkscape:window-x="0"
     inkscape:window-y="0"
     inkscape:window-maximized="1" />
  <metadata
     id="metadata5659">
    <rdf:RDF>
      <cc:Work
         rdf:about="">
        <dc:format>image/svg+xml</dc:format>
        <dc:type
           rdf:resource="http://purl.org/dc/dcmitype/StillImage" />
        <dc:title />
      </cc:Work>
    </rdf:RDF>
  </metadata>
  <g
     inkscape:label="Taso 1"
     inkscape:groupmode="layer"
     id="layer1"
     transform="translate(41.285713,-130.2262)">
    <g
       style="opacity:0.98799995"
       id="g5461"
       transform="matrix(0.6273931,0,0,0.6273931,284.37459,69.937999)">
      <path
         style="fill:none;stroke:#000000;stroke-width:0.26458332px;stroke-linecap:butt;stroke-linejoin:miter;stroke-opacity:1"
         d="m -504.22024,105.2007 c -13.39453,2.8112 -13.98511,-2.12611 -13.98511,-2.12611 0,0 -0.30711,-2.03162 -0.23624,-2.36235 0,0 0.30711,-1.039434 2.26786,-1.41741 0,0 9.1423,-1.039435 12.54408,2.62221 0,0 0.11811,1.819 -0.59059,3.28366 z"
         id="path5416"
         inkscape:connector-curvature="0" />
      <path
         style="fill:none;stroke:#000000;stroke-width:0.26458332px;stroke-linecap:butt;stroke-linejoin:miter;stroke-opacity:1"
         d="m -503.62964,101.91704 c 0,0 -11.19756,2.85844 -14.81195,-1.2048"
         id="path5418"
         inkscape:connector-curvature="0" />
      <path
         style="fill:none;stroke:#000000;stroke-width:0.28115264px;stroke-linecap:butt;stroke-linejoin:miter;stroke-opacity:1"
         d="m -504.76246,106.83456 0.14724,-1.51135"
         id="path5430"
         inkscape:connector-curvature="0" />
      <path
         inkscape:connector-curvature="0"
         id="path5440"
         d="m -518.06361,103.66518 c -0.63784,2.45684 -0.49609,2.88207 -0.49609,2.88207 1.06305,6.04761 9.68563,0.94494 9.68563,0.94494 0,0 2.81119,0.0236 4.18136,-0.75596"
         style="fill:none;stroke:#000000;stroke-width:0.26458332px;stroke-linecap:butt;stroke-linejoin:miter;stroke-opacity:1" />
      <path
         inkscape:connector-curvature="0"
         id="path5446"
         d="m -515.7697,109.52364 c -1.44345,-0.2107 -2.34712,-1.14913 -2.67524,-2.77819 -0.0661,-0.32834 -0.0558,-0.68163 0.0367,-1.25687 0.0585,-0.36351 0.22736,-1.19881 0.31761,-1.57095 l 0.0425,-0.17508 0.0445,0.0735 c 0.0976,0.16096 0.36581,0.47708 0.54856,0.64642 0.74081,0.68644 1.80819,1.17866 3.15371,1.45431 2.25799,0.4626 5.37699,0.315 9.07811,-0.42963 0.23907,-0.0481 0.44052,-0.0874 0.44769,-0.0874 0.007,0 0.0131,0.28393 0.0131,0.63095 v 0.63097 l -0.19316,0.0938 c -0.35492,0.17244 -0.82491,0.31416 -1.43225,0.43186 -0.59426,0.11516 -1.63468,0.21736 -2.21292,0.21736 h -0.27328 l -0.23704,0.14142 c -1.46161,0.87197 -3.34152,1.63026 -4.67678,1.88648 -0.67167,0.1289 -1.47089,0.1656 -1.98176,0.091 z"
         style="opacity:1;fill:#000000;fill-opacity:1;stroke:none;stroke-width:0.17528637;stroke-miterlimit:4;stroke-dasharray:none;stroke-opacity:1" />
      <path
         d="m -515.32328,106.00391 a 0.1889881,0.25985864 0 0 1 -0.18847,0.25985 0.1889881,0.25985864 0 0 1 -0.1895,-0.25842 0.1889881,0.25985864 0 0 1 0.18742,-0.26128 0.1889881,0.25985864 0 0 1 0.19054,0.25698"
         sodipodi:open="true"
         sodipodi:end="6.2721723"
         sodipodi:start="0"
         sodipodi:ry="0.25985864"
         sodipodi:rx="0.1889881"
         sodipodi:cy="106.00391"
         sodipodi:cx="-515.51227"
         sodipodi:type="arc"
         id="path5450"
         style="opacity:1;fill:#f9f9f9;fill-opacity:1;stroke:none;stroke-width:1.88399994;stroke-miterlimit:4;stroke-dasharray:none;stroke-opacity:1" />
    </g>
    <path
       style="opacity:1;fill:#ffffff;fill-opacity:1;stroke:none;stroke-width:0.44955763;stroke-miterlimit:4;stroke-dasharray:none;stroke-opacity:1"
       d="m 1.8677535,12.327239 c 0.1693063,1.56811 0.3200349,3.148605 0.6687082,4.687986 0.8142603,2.100454 2.7369802,3.524036 4.7361998,4.408936 2.7430895,1.200238 5.7514985,1.686344 8.7267465,1.813761 3.162977,0.02864 6.337674,0.02688 9.479371,-0.38823 3.189667,-0.365393 6.355149,-0.915812 9.499955,-1.557719 0.933295,-2.191706 1.325225,-4.600043 1.268362,-6.971927 -0.45808,-0.03552 -0.939823,0.195206 -1.405606,0.253278 -6.823965,1.406027 -13.827798,2.250583 -20.798143,1.714867 C 10.335515,15.93344 6.5333465,15.140821 3.3807655,13.059078 2.8280094,12.693786 2.3240354,12.262516 1.8244718,11.829068 c 0.014427,0.166057 0.028855,0.332114 0.043282,0.498171 z"
       id="path9248"
       inkscape:connector-curvature="0"
       transform="matrix(0.26458333,0,0,0.26458333,-41.285713,130.2262)" />
    <path
       style="opacity:1;fill:#ffffff;fill-opacity:1;stroke:none;stroke-width:0.44955763;stroke-miterlimit:4;stroke-dasharray:none;stroke-opacity:1"
       d="m 13.76484,7.6306218 c -2.399803,0.036874 -4.8156159,0.02841 -7.1945009,0.3801636 -1.6259154,0.3852616 -3.323196,1.0568167 -4.3851373,2.4072506 -0.1435915,0.189741 -0.3792246,0.479205 -0.077438,0.659337 2.435983,2.465297 5.8735382,3.566062 9.2075302,4.156767 3.284418,0.597908 6.63633,0.56132 9.960089,0.469193 4.896453,-0.27693 9.772789,-0.977475 14.550537,-2.070615 0.05869,-0.152776 -0.271778,-0.302149 -0.353643,-0.428204 C 32.274001,10.453082 28.107651,9.1913315 24.027901,8.45507 20.641444,7.8658449 17.201661,7.5957317 13.76484,7.6306218 Z"
       id="path9250"
       inkscape:connector-curvature="0"
       transform="matrix(0.26458333,0,0,0.26458333,-41.285713,130.2262)" />
  </g>
</svg>
