<?xml version="1.0" encoding="UTF-8" standalone="no"?>
<!-- Created with Inkscape (http://www.inkscape.org/) -->

<svg
   xmlns:dc="http://purl.org/dc/elements/1.1/"
   xmlns:cc="http://creativecommons.org/ns#"
   xmlns:rdf="http://www.w3.org/1999/02/22-rdf-syntax-ns#"
   xmlns:svg="http://www.w3.org/2000/svg"
   xmlns="http://www.w3.org/2000/svg"
   xmlns:sodipodi="http://sodipodi.sourceforge.net/DTD/sodipodi-0.dtd"
   xmlns:inkscape="http://www.inkscape.org/namespaces/inkscape"
   width="16"
   height="16.000006"
   id="svg3003"
   version="1.1"
   inkscape:version="0.48.5 r10040"
   sodipodi:docname="freehand.svg">
  <defs
     id="defs3005" />
  <sodipodi:namedview
     id="base"
     pagecolor="#ffffff"
     bordercolor="#666666"
     borderopacity="1.0"
     inkscape:pageopacity="0.0"
     inkscape:pageshadow="2"
     inkscape:zoom="22.4"
     inkscape:cx="4.9420324"
     inkscape:cy="9.7537749"
     inkscape:document-units="px"
     inkscape:current-layer="layer1"
     showgrid="false"
     fit-margin-top="0"
     fit-margin-left="0"
     fit-margin-right="0"
     fit-margin-bottom="0"
     inkscape:window-width="679"
     inkscape:window-height="729"
     inkscape:window-x="683"
     inkscape:window-y="18"
     inkscape:window-maximized="0" />
  <metadata
     id="metadata3008">
    <rdf:RDF>
      <cc:Work
         rdf:about="">
        <dc:format>image/svg+xml</dc:format>
        <dc:type
           rdf:resource="http://purl.org/dc/dcmitype/StillImage" />
        <dc:title></dc:title>
      </cc:Work>
    </rdf:RDF>
  </metadata>
  <g
     inkscape:label="Layer 1"
     inkscape:groupmode="layer"
     id="layer1"
     transform="translate(-138.11608,-204.36218)">
    <path
       style="fill:none;stroke:#000000;stroke-width:1;stroke-linecap:round;stroke-linejoin:miter;stroke-miterlimit:4;stroke-opacity:1;stroke-dasharray:none"
       d="m 138.61608,219.74088 c 1.44561,0.086 3.10889,0.4152 4.33397,-0.5794 0.78654,-0.6246 0.43725,-1.793 -0.13267,-2.4392 -0.84802,-0.9753 -2.04466,-1.9448 -1.96939,-3.3701 -0.004,-1.2243 1.25417,-1.999 2.36228,-2.0735 1.19718,-0.1303 2.3559,0.3218 3.46028,0.7218 1.19852,0.5162 2.58457,1.186 3.8816,0.6013 0.9259,-0.5187 0.83655,-1.7128 0.48152,-2.5591 -0.37627,-1.0204 -0.91534,-2.1846 -0.35244,-3.2458 0.43555,-0.9651 1.42958,-1.5232 2.42778,-1.7311 0.17039,-0.064 0.34017,-0.1306 0.50707,-0.2036"
       id="path3781"
       inkscape:connector-curvature="0"
       inkscape:export-filename="/home/tuomasjjrasanen/devel/puavo-os/parts/blackboard/freehand16.png"
       inkscape:export-xdpi="180"
       inkscape:export-ydpi="180" />
  </g>
</svg>
