<?xml version="1.0" encoding="UTF-8" standalone="no"?>
<!-- Created with Inkscape (http://www.inkscape.org/) -->

<svg
   xmlns:dc="http://purl.org/dc/elements/1.1/"
   xmlns:cc="http://creativecommons.org/ns#"
   xmlns:rdf="http://www.w3.org/1999/02/22-rdf-syntax-ns#"
   xmlns:svg="http://www.w3.org/2000/svg"
   xmlns="http://www.w3.org/2000/svg"
   xmlns:sodipodi="http://sodipodi.sourceforge.net/DTD/sodipodi-0.dtd"
   xmlns:inkscape="http://www.inkscape.org/namespaces/inkscape"
   id="svg7384"
   height="16"
   width="16"
   version="1.1"
   inkscape:version="0.48.3.1 r9886"
   sodipodi:docname="overview-symbolic.svg">
  <defs
     id="defs12" />
  <sodipodi:namedview
     pagecolor="#ffffff"
     bordercolor="#666666"
     borderopacity="1"
     objecttolerance="10"
     gridtolerance="10"
     guidetolerance="10"
     inkscape:pageopacity="0"
     inkscape:pageshadow="2"
     inkscape:window-width="640"
     inkscape:window-height="480"
     id="namedview10"
     showgrid="false"
     inkscape:zoom="14.75"
     inkscape:cx="8"
     inkscape:cy="8"
     inkscape:window-x="0"
     inkscape:window-y="25"
     inkscape:window-maximized="0"
     inkscape:current-layer="svg7384" />
  <metadata
     id="metadata90">
    <rdf:RDF>
      <cc:Work
         rdf:about="">
        <dc:format>image/svg+xml</dc:format>
        <dc:type
           rdf:resource="http://purl.org/dc/dcmitype/StillImage" />
        <dc:title>Gnome Symbolic Icon Theme</dc:title>
      </cc:Work>
    </rdf:RDF>
  </metadata>
  <title
     id="title9167">Gnome Symbolic Icon Theme</title>
  <path
     inkscape:connector-curvature="0"
     d="M 2.188,0 C 0.9864,0 5e-4,0.98751 5e-4,2.1874 v 8.6244 c 0,1.1998 0.98591,2.1874 2.1875,2.1874 h 11.625 c 1.2016,0 2.1875,-0.98751 2.1875,-2.1874 V 2.1874 C 16.0005,0.9876 15.01459,0 13.813,0 H 2.188 z m 0,1.9999 h 11.625 c 0.1238,0 0.1875,0.0566 0.1875,0.18749 v 8.6244 c 0,0.13088 -0.0637,0.18749 -0.1875,0.18749 H 2.188 c -0.1238,0 -0.1875,-0.0566 -0.1875,-0.18749 V 2.18739 C 2.0005,2.05651 2.0642,1.9999 2.188,1.9999 z"
     style="text-indent:0;text-transform:none;block-progression:tb;color:#bebebe;fill:#bebebe"
     id="rect11749-9" />
  <path
     inkscape:connector-curvature="0"
     d="M 3.438,5 C 3.19502,5 3.0005,5.29728 3.0005,5.6562 v 3.6872 c 0,0.35893 0.19452,0.65621 0.4375,0.65621 h 4.125 c 0.24298,0 0.4375,-0.29728 0.4375,-0.65621 V 5.6562 C 8.0005,5.29728 7.80598,5 7.563,5 z m 0.5625,1.9999 h 3 v 1.9999 h -3 z"
     style="color:#bebebe;fill:#bebebe"
     id="rect5771" />
  <path
     inkscape:connector-curvature="0"
     d="M 9.438,3 C 9.19502,3 9.0005,3.28489 9.0005,3.62495 v 2.7498 c 0,0.34006 0.19452,0.62496 0.4375,0.62496 h 3.125 c 0.24298,0 0.4375,-0.2849 0.4375,-0.62496 V 3.62495 C 13.0005,3.28489 12.80598,3 12.563,3 z m 0.5625,1.9999 h 2 v 0.99993 h -2 z"
     style="color:#bebebe;fill:#bebebe"
     id="rect7987" />
</svg>
