<?xml version="1.0" encoding="UTF-8" standalone="no"?>
<!-- Created with Inkscape (http://www.inkscape.org/) -->

<svg
   xmlns:dc="http://purl.org/dc/elements/1.1/"
   xmlns:cc="http://creativecommons.org/ns#"
   xmlns:rdf="http://www.w3.org/1999/02/22-rdf-syntax-ns#"
   xmlns:svg="http://www.w3.org/2000/svg"
   xmlns="http://www.w3.org/2000/svg"
   xmlns:sodipodi="http://sodipodi.sourceforge.net/DTD/sodipodi-0.dtd"
   xmlns:inkscape="http://www.inkscape.org/namespaces/inkscape"
   version="1.1"
   width="1600"
   height="1200"
   viewBox="160 -60 1600 1200"
   id="Layer_1"
   xml:space="preserve"
   inkscape:version="0.48.5 r10040"
   sodipodi:docname="edu1.svg"><sodipodi:namedview
     pagecolor="#ffffff"
     bordercolor="#666666"
     borderopacity="1"
     objecttolerance="10"
     gridtolerance="10"
     guidetolerance="10"
     inkscape:pageopacity="0"
     inkscape:pageshadow="2"
     inkscape:window-width="923"
     inkscape:window-height="662"
     id="namedview3261"
     showgrid="false"
     inkscape:zoom="0.28127121"
     inkscape:cx="370.73254"
     inkscape:cy="537.388"
     inkscape:window-x="0"
     inkscape:window-y="27"
     inkscape:window-maximized="0"
     inkscape:current-layer="Layer_1" /><metadata
     id="metadata3150"><rdf:RDF><cc:Work
         rdf:about=""><dc:format>image/svg+xml</dc:format><dc:type
           rdf:resource="http://purl.org/dc/dcmitype/StillImage" /><dc:title /></cc:Work></rdf:RDF></metadata><defs
     id="defs3148" /><g
     transform="translate(-515,210)"
     id="gradient"><radialGradient
       cx="2273.5127"
       cy="888.19598"
       r="2425.5129"
       fx="2020.6345"
       fy="901.87183"
       id="SVGID_1_"
       gradientUnits="userSpaceOnUse"
       gradientTransform="matrix(1.1643,0,0,-1.1024,-509.3552,788.5501)"><stop
         id="stop2988"
         style="stop-color:#073246;stop-opacity:1"
         offset="0" /><stop
         id="stop2990"
         style="stop-color:#489291;stop-opacity:1"
         offset="0.4409" /><stop
         id="stop2992"
         style="stop-color:#063246;stop-opacity:1"
         offset="0.98909998" /></radialGradient><rect
       width="2731.4651"
       height="1496.776"
       x="-320"
       y="-355.776"
       id="rect2994"
       style="fill:url(#SVGID_1_)" /></g><g
     transform="matrix(0.90101934,0,0,0.8805019,218.27268,353.92545)"
     id="logo"><g
       id="g2997"><radialGradient
         cx="1204.6465"
         cy="308.63791"
         r="2.9186001"
         id="SVGID_2_"
         gradientUnits="userSpaceOnUse"
         gradientTransform="matrix(1.0725,0,0,-0.9931,-240.5703,806.4608)"><stop
           id="stop3000"
           style="stop-color:#fff1e9;stop-opacity:1"
           offset="0" /><stop
           id="stop3002"
           style="stop-color:#ffffff;stop-opacity:0.2"
           offset="1" /></radialGradient><path
         d="m 1048.302,499.081 c -2.963,0.042 0.562,1.523 4.428,2.12 1.069,-0.834 2.041,-1.676 2.901,-2.496 -2.408,0.589 -4.859,0.601 -7.329,0.376"
         id="path3004"
         style="fill:url(#SVGID_2_)"
         inkscape:connector-curvature="0" /><radialGradient
         cx="1217.3438"
         cy="317.45001"
         r="3.3039"
         id="SVGID_3_"
         gradientUnits="userSpaceOnUse"
         gradientTransform="matrix(1.0725,0,0,-0.9931,-240.5703,806.4608)"><stop
           id="stop3007"
           style="stop-color:#fff1e9;stop-opacity:1"
           offset="0" /><stop
           id="stop3009"
           style="stop-color:#ffffff;stop-opacity:0.2"
           offset="1" /></radialGradient><path
         d="m 1064.207,495.124 c 1.764,-2.43 3.051,-5.092 3.503,-7.844 -0.396,1.96 -1.462,3.655 -2.465,5.441 -5.539,3.481 -0.523,-2.066 0,-4.177 -5.955,7.485 -0.82,4.489 -1.034,6.58"
         id="path3011"
         style="fill:url(#SVGID_3_)"
         inkscape:connector-curvature="0" /><radialGradient
         cx="1221.3652"
         cy="330.29999"
         r="1.6042"
         id="SVGID_4_"
         gradientUnits="userSpaceOnUse"
         gradientTransform="matrix(1.0725,0,0,-0.9931,-240.5703,806.4608)"><stop
           id="stop3014"
           style="stop-color:#fff1e9;stop-opacity:1"
           offset="0" /><stop
           id="stop3016"
           style="stop-color:#ffffff;stop-opacity:0.2"
           offset="1" /></radialGradient><path
         d="m 1070.079,479.875 c 0.355,-5.327 -1.052,-3.644 -1.526,-1.608 0.551,0.285 0.992,3.752 1.526,1.608"
         id="path3018"
         style="fill:url(#SVGID_4_)"
         inkscape:connector-curvature="0" /><radialGradient
         cx="1193.2783"
         cy="401.72339"
         r="1.4575"
         id="SVGID_5_"
         gradientUnits="userSpaceOnUse"
         gradientTransform="matrix(1.0725,0,0,-0.9931,-240.5703,806.4608)"><stop
           id="stop3021"
           style="stop-color:#fff1e9;stop-opacity:1"
           offset="0" /><stop
           id="stop3023"
           style="stop-color:#ffffff;stop-opacity:0.2"
           offset="1" /></radialGradient><path
         d="m 1037.063,407.068 c 1.582,0.284 3.418,0.501 3.158,0.879 1.733,-0.38 2.125,-0.727 -3.158,-0.879"
         id="path3025"
         style="fill:url(#SVGID_5_)"
         inkscape:connector-curvature="0" /><radialGradient
         cx="1193.6924"
         cy="401.16629"
         r="0.377"
         id="SVGID_6_"
         gradientUnits="userSpaceOnUse"
         gradientTransform="matrix(1.0725,0,0,-0.9931,-240.5703,806.4608)"><stop
           id="stop3028"
           style="stop-color:#fff1e9;stop-opacity:1"
           offset="0" /><stop
           id="stop3030"
           style="stop-color:#ffffff;stop-opacity:0.2"
           offset="1" /></radialGradient><path
         d="m 1040.223,407.947 -1.114,0.229 1.037,-0.093 0.077,-0.136"
         id="path3032"
         style="fill:url(#SVGID_6_)"
         inkscape:connector-curvature="0" /><radialGradient
         cx="1189.1416"
         cy="313.96851"
         r="78.695801"
         id="SVGID_7_"
         gradientUnits="userSpaceOnUse"
         gradientTransform="matrix(1.0725,0,0,-0.9931,-240.5703,806.4608)"><stop
           id="stop3035"
           style="stop-color:#fff1e9;stop-opacity:1"
           offset="0" /><stop
           id="stop3037"
           style="stop-color:#ffffff;stop-opacity:0.2"
           offset="1" /></radialGradient><path
         d="m 1089.538,481.894 c 0.176,4.784 -1.401,7.105 -2.824,11.214 l -2.563,1.276 c -2.096,4.063 0.203,2.58 -1.297,5.809 -3.271,2.907 -9.93,9.09 -12.061,9.652 -1.555,-0.032 1.055,-1.832 1.395,-2.537 -4.378,3.004 -3.512,4.509 -10.211,6.333 l -0.195,-0.435 c -16.522,7.758 -39.471,-7.616 -39.168,-28.596 -0.18,1.333 -0.5,1 -0.868,1.539 -0.854,-10.793 4.995,-21.634 14.853,-26.06 9.646,-4.768 20.951,-2.811 27.86,3.616 -3.795,-4.962 -11.347,-10.22 -20.3,-9.729 -8.77,0.139 -16.97,5.699 -19.707,11.737 -4.494,2.825 -5.015,10.883 -6.973,12.357 -2.634,19.321 4.952,27.667 17.786,37.485 2.021,1.36 0.573,1.563 0.846,2.6 -4.266,-1.991 -8.169,-5.002 -11.379,-8.684 1.703,2.487 3.541,4.907 5.918,6.81 -4.021,-1.358 -9.394,-9.728 -10.962,-10.067 6.932,12.388 28.119,21.726 39.215,17.091 -5.132,0.192 -11.655,0.105 -17.425,-2.021 -2.421,-1.244 -5.717,-3.822 -5.125,-4.306 15.142,5.646 30.782,4.276 43.885,-6.206 3.332,-2.592 6.975,-6.999 8.024,-7.06 -1.583,2.376 0.271,1.141 -0.945,3.243 3.322,-5.346 -1.443,-2.176 3.432,-9.232 l 1.803,2.475 c -0.67,-4.436 5.521,-9.827 4.895,-16.846 1.42,-2.147 1.584,2.31 0.076,7.247 2.092,-5.477 0.553,-6.356 1.088,-10.875 0.582,1.516 1.344,3.131 1.733,4.733 -1.362,-5.291 1.398,-8.914 2.081,-11.99 -0.671,-0.297 -2.103,2.34 -2.43,-3.913 0.05,-2.716 0.758,-1.423 1.031,-2.092 -0.533,-0.308 -1.936,-2.388 -2.789,-6.381 0.618,-0.938 1.65,2.431 2.494,2.569 -0.541,-3.175 -1.474,-5.595 -1.511,-8.03 -2.457,-5.128 -0.868,0.681 -2.865,-2.203 -2.612,-8.145 2.173,-1.892 2.495,-5.59 3.966,5.734 6.227,14.619 7.262,18.298 -0.791,-4.486 -2.069,-8.833 -3.634,-13.041 1.205,0.506 -1.938,-9.23 1.565,-2.783 -3.742,-13.748 -16.019,-26.593 -27.315,-32.619 1.384,1.259 3.127,6.139 2.501,6.387 -5.618,-3.338 -4.63,-6.891 -5.433,-8.301 -4.579,-1.855 -4.877,0.149 -7.907,0.005 -8.626,-4.566 -10.289,-4.082 -18.226,-6.943 l 0.362,1.685 c -5.718,-1.9 -6.658,0.721 -12.834,0.006 -0.377,-0.293 1.979,-1.059 3.916,-1.342 -5.521,0.729 -5.267,-1.086 -10.671,0.2 1.332,-0.935 2.739,-1.55 4.162,-2.343 -4.506,0.271 -10.756,2.617 -8.825,0.486 -7.351,3.271 -20.4,7.867 -27.725,14.722 l -0.229,-1.536 c -3.356,4.021 -14.636,12.009 -15.532,17.217 l -0.898,0.208 c -1.745,2.952 -2.877,6.298 -4.261,9.332 -2.284,3.886 -3.349,1.497 -3.023,2.104 -4.488,9.093 -6.723,16.731 -8.649,22.994 1.373,2.051 0.033,12.339 0.551,20.573 -2.256,40.665 28.593,80.146 62.314,89.264 4.939,1.766 12.29,1.698 18.541,1.877 -7.375,-2.104 -8.331,-1.114 -15.516,-3.617 -5.183,-2.433 -6.318,-5.217 -9.989,-8.396 l 1.454,2.563 c -7.201,-2.545 -4.188,-3.148 -10.047,-5 l 1.553,-2.022 c -2.333,-0.177 -6.182,-3.926 -7.231,-6.001 l -2.552,0.103 c -3.071,-3.78 -4.703,-6.501 -4.585,-8.609 l -0.823,1.465 c -0.935,-1.601 -11.288,-14.17 -5.917,-11.243 -0.996,-0.912 -2.324,-1.481 -3.761,-4.091 l 1.094,-1.246 c -2.584,-3.319 -4.757,-7.572 -4.592,-8.989 1.377,1.857 2.335,2.204 3.282,2.524 -6.526,-16.163 -6.892,-0.89 -11.837,-16.452 l 1.049,-0.083 c -0.804,-1.204 -1.29,-2.513 -1.933,-3.799 l 0.452,-4.527 c -4.697,-5.419 -1.313,-23.056 -0.636,-32.724 0.469,-3.933 3.921,-8.117 6.547,-14.685 l -1.6,-0.273 c 3.059,-5.323 17.457,-21.378 24.126,-20.551 3.23,-4.053 -0.642,-0.019 -1.271,-1.035 7.096,-7.331 9.327,-5.182 14.115,-6.499 5.164,-3.061 -4.435,1.193 -1.981,-1.167 8.928,-2.278 6.326,-5.176 17.971,-6.331 1.229,0.698 -2.849,1.077 -3.873,1.982 7.438,-3.631 23.538,-2.805 33.998,2.018 12.138,5.662 25.771,22.396 26.311,38.14 l 0.612,0.164 c -0.313,6.258 0.957,13.496 -1.239,20.146 l 1.495,-3.148"
         id="path3039"
         style="fill:url(#SVGID_7_)"
         inkscape:connector-curvature="0" /><radialGradient
         cx="1173.9844"
         cy="300.57401"
         r="3.9572999"
         id="SVGID_8_"
         gradientUnits="userSpaceOnUse"
         gradientTransform="matrix(1.0725,0,0,-0.9931,-240.5703,806.4608)"><stop
           id="stop3042"
           style="stop-color:#fff1e9;stop-opacity:1"
           offset="0" /><stop
           id="stop3044"
           style="stop-color:#ffffff;stop-opacity:0.2"
           offset="1" /></radialGradient><path
         d="m 1015.956,503.142 -0.416,2.073 c 1.947,2.64 3.493,5.501 5.979,7.564 -1.79,-3.483 -3.117,-4.925 -5.563,-9.637"
         id="path3046"
         style="fill:url(#SVGID_8_)"
         inkscape:connector-curvature="0" /><radialGradient
         cx="1175.2217"
         cy="306.20871"
         r="2.566"
         id="SVGID_9_"
         gradientUnits="userSpaceOnUse"
         gradientTransform="matrix(1.0725,0,0,-0.9931,-240.5703,806.4608)"><stop
           id="stop3049"
           style="stop-color:#fff1e9;stop-opacity:1"
           offset="0" /><stop
           id="stop3051"
           style="stop-color:#ffffff;stop-opacity:0.2"
           offset="1" /></radialGradient><path
         d="m 1020.56,502.963 c -1.027,-1.139 -1.641,-2.509 -2.321,-3.875 0.65,2.397 1.989,4.459 3.234,6.556 l -0.913,-2.681"
         id="path3053"
         style="fill:url(#SVGID_9_)"
         inkscape:connector-curvature="0" /><radialGradient
         cx="1249.2305"
         cy="314.57541"
         r="6.5118999"
         id="SVGID_10_"
         gradientUnits="userSpaceOnUse"
         gradientTransform="matrix(1.0725,0,0,-0.9931,-240.5703,806.4608)"><stop
           id="stop3056"
           style="stop-color:#fff1e9;stop-opacity:1"
           offset="0" /><stop
           id="stop3058"
           style="stop-color:#ffffff;stop-opacity:0.2"
           offset="1" /></radialGradient><path
         d="m 1102.03,485.286 -0.437,1.091 c -0.796,5.658 -2.52,11.259 -5.162,16.45 2.92,-5.479 4.808,-11.473 5.599,-17.541"
         id="path3060"
         style="fill:url(#SVGID_10_)"
         inkscape:connector-curvature="0" /><radialGradient
         cx="1194.541"
         cy="404.03931"
         r="2.7376001"
         id="SVGID_11_"
         gradientUnits="userSpaceOnUse"
         gradientTransform="matrix(1.0725,0,0,-0.9931,-240.5703,806.4608)"><stop
           id="stop3063"
           style="stop-color:#fff1e9;stop-opacity:1"
           offset="0" /><stop
           id="stop3065"
           style="stop-color:#ffffff;stop-opacity:0.2"
           offset="1" /></radialGradient><path
         d="m 1037.651,405.65 c 2.001,-0.731 4.924,-0.402 7.049,-0.884 -2.771,0.229 -5.526,0.37 -8.25,0.721 l 1.201,0.163"
         id="path3067"
         style="fill:url(#SVGID_11_)"
         inkscape:connector-curvature="0" /><radialGradient
         cx="1126.46"
         cy="363.73318"
         r="1.8316"
         id="SVGID_12_"
         gradientUnits="userSpaceOnUse"
         gradientTransform="matrix(1.0725,0,0,-0.9931,-240.5703,806.4608)"><stop
           id="stop3070"
           style="stop-color:#fff1e9;stop-opacity:1"
           offset="0" /><stop
           id="stop3072"
           style="stop-color:#ffffff;stop-opacity:0.2"
           offset="1" /></radialGradient><path
         d="m 967.308,442.987 c 0.462,4.267 -3.216,5.922 0.815,3.108 2.158,-4.858 -0.846,-1.34 -0.815,-3.108"
         id="path3074"
         style="fill:url(#SVGID_12_)"
         inkscape:connector-curvature="0" /><radialGradient
         cx="1122.4219"
         cy="349.23849"
         r="2.2679999"
         id="SVGID_13_"
         gradientUnits="userSpaceOnUse"
         gradientTransform="matrix(1.0725,0,0,-0.9931,-240.5703,806.4608)"><stop
           id="stop3077"
           style="stop-color:#fff1e9;stop-opacity:1"
           offset="0" /><stop
           id="stop3079"
           style="stop-color:#ffffff;stop-opacity:0.2"
           offset="1" /></radialGradient><path
         d="m 962.572,462.732 c 0.928,-2.845 1.096,-4.553 1.448,-6.199 -2.562,3.275 -1.179,3.973 -1.448,6.199"
         id="path3081"
         style="fill:url(#SVGID_13_)"
         inkscape:connector-curvature="0" /></g></g><g
     transform="matrix(0.95218667,0,0,0.91658619,171.21712,339.50001)"
     id="ray"><linearGradient
       x1="1085.5723"
       y1="315.49539"
       x2="1480.6982"
       y2="315.49539"
       id="SVGID_14_"
       gradientUnits="userSpaceOnUse"
       gradientTransform="matrix(1,0,0,-1,-123.3799,808.519)"><stop
         id="stop3085"
         style="stop-color:#ffffff;stop-opacity:0.5"
         offset="0" /><stop
         id="stop3087"
         style="stop-color:#ffffff;stop-opacity:0"
         offset="1" /></linearGradient><path
       d="m 1356.568,493.023 c 0,77.011 -88.115,139.441 -196.813,139.441 -108.698,0 -196.813,-62.432 -196.813,-139.441 0,-5.205 0.401,-10.342 1.187,-15.398 10.817,-69.765 94.274,-124.043 195.626,-124.042 108.698,0 196.813,62.429 196.813,139.44 z"
       id="path3089"
       style="fill:none;stroke:url(#SVGID_14_);stroke-width:1.5;stroke-miterlimit:10"
       inkscape:connector-curvature="0" /><linearGradient
       x1="1122.2969"
       y1="371.94019"
       x2="1234.4629"
       y2="371.94019"
       id="SVGID_15_"
       gradientUnits="userSpaceOnUse"
       gradientTransform="matrix(1,0,0,-1,-123.3799,808.519)"><stop
         id="stop3092"
         style="stop-color:#ffffff;stop-opacity:0.5"
         offset="0" /><stop
         id="stop3094"
         style="stop-color:#ffffff;stop-opacity:0"
         offset="1" /></linearGradient><ellipse
       cx="1055"
       cy="436.57901"
       rx="55.333"
       ry="84.621002"
       id="ellipse3096"
       style="fill:none;stroke:url(#SVGID_15_);stroke-width:1.5;stroke-miterlimit:10"
       d="m 1110.333,436.57901 c 0,46.73489 -24.7734,84.621 -55.333,84.621 -30.5596,0 -55.333,-37.88611 -55.333,-84.621 0,-46.73489 24.7734,-84.621 55.333,-84.621 30.5596,0 55.333,37.88611 55.333,84.621 z"
       sodipodi:cx="1055"
       sodipodi:cy="436.57901"
       sodipodi:rx="55.333"
       sodipodi:ry="84.621002" /><linearGradient
       x1="915.28223"
       y1="344.2576"
       x2="1217.1914"
       y2="344.2576"
       id="SVGID_16_"
       gradientUnits="userSpaceOnUse"
       gradientTransform="matrix(1,0,0,-1,-123.3799,808.519)"><stop
         id="stop3099"
         style="stop-color:#ffffff;stop-opacity:0.5"
         offset="0" /><stop
         id="stop3101"
         style="stop-color:#ffffff;stop-opacity:0"
         offset="1" /></linearGradient><ellipse
       cx="942.85699"
       cy="464.26099"
       rx="150.20399"
       ry="97.925003"
       id="ellipse3103"
       style="fill:none;stroke:url(#SVGID_16_);stroke-width:1.5;stroke-miterlimit:10"
       d="m 1093.061,464.26099 c 0,54.08248 -67.2486,97.925 -150.20401,97.925 -82.95537,0 -150.20399,-43.84252 -150.20399,-97.925 0,-54.08249 67.24862,-97.92501 150.20399,-97.92501 82.95541,0 150.20401,43.84252 150.20401,97.92501 z"
       sodipodi:cx="942.85699"
       sodipodi:cy="464.26099"
       sodipodi:rx="150.20399"
       sodipodi:ry="97.925003" /><linearGradient
       x1="1193.4932"
       y1="291.0437"
       x2="1196.7109"
       y2="291.0437"
       id="SVGID_17_"
       gradientUnits="userSpaceOnUse"
       gradientTransform="matrix(1,0,0,-1,-123.3799,808.519)"><stop
         id="stop3106"
         style="stop-color:#ffffff;stop-opacity:0.5"
         offset="0" /><stop
         id="stop3108"
         style="stop-color:#ffffff;stop-opacity:0"
         offset="1" /></linearGradient><ellipse
       cx="1071.722"
       cy="517.47498"
       rx="1.109"
       ry="0.78399998"
       id="ellipse3110"
       style="fill:none;stroke:url(#SVGID_17_);stroke-miterlimit:10"
       d="m 1072.831,517.47498 c 0,0.43299 -0.4965,0.784 -1.109,0.784 -0.6124,0 -1.109,-0.35101 -1.109,-0.784 0,-0.433 0.4966,-0.784 1.109,-0.784 0.6125,0 1.109,0.351 1.109,0.784 z"
       sodipodi:cx="1071.722"
       sodipodi:cy="517.47498"
       sodipodi:rx="1.109"
       sodipodi:ry="0.78399998" /><linearGradient
       x1="897.10553"
       y1="225.239"
       x2="1292.8359"
       y2="225.239"
       id="SVGID_18_"
       gradientUnits="userSpaceOnUse"
       gradientTransform="matrix(1,0,0,-1,-123.3799,808.519)"><stop
         id="stop3113"
         style="stop-color:#ffffff;stop-opacity:0"
         offset="0" /><stop
         id="stop3115"
         style="stop-color:#ffffff;stop-opacity:0.5"
         offset="1" /></linearGradient><ellipse
       cx="971.591"
       cy="583.28003"
       rx="197.11501"
       ry="196.589"
       id="ellipse3117"
       style="fill:none;stroke:url(#SVGID_18_);stroke-width:1.5;stroke-miterlimit:10"
       d="m 1168.706,583.28003 c 0,108.57311 -88.2514,196.589 -197.115,196.589 -108.86361,0 -197.115,-88.01589 -197.115,-196.589 0,-108.57311 88.25139,-196.58901 197.115,-196.58901 108.8636,0 197.115,88.0159 197.115,196.58901 z"
       sodipodi:cx="971.591"
       sodipodi:cy="583.28003"
       sodipodi:rx="197.11501"
       sodipodi:ry="196.589" /><radialGradient
       cx="1083.915"
       cy="291.0452"
       r="210.4398"
       id="SVGID_19_"
       gradientUnits="userSpaceOnUse"
       gradientTransform="matrix(1,0,0,-1,-123.3799,808.519)"><stop
         id="stop3120"
         style="stop-color:#ffffff;stop-opacity:0.5"
         offset="0" /><stop
         id="stop3122"
         style="stop-color:#ffffff;stop-opacity:0"
         offset="1" /></radialGradient><line
       stroke-miterlimit="10"
       x1="960.53497"
       y1="219.868"
       x2="960.53497"
       y2="815.08002"
       id="line3124"
       style="fill:none;stroke:url(#SVGID_19_);stroke-width:1.5;stroke-miterlimit:10" /><radialGradient
       cx="1097.457"
       cy="320.1228"
       r="201.687"
       id="SVGID_20_"
       gradientUnits="userSpaceOnUse"
       gradientTransform="matrix(1,0,0,-1,-123.3799,808.519)"><stop
         id="stop3127"
         style="stop-color:#ffffff;stop-opacity:0.5"
         offset="0" /><stop
         id="stop3129"
         style="stop-color:#ffffff;stop-opacity:0"
         offset="1" /></radialGradient><line
       stroke-miterlimit="10"
       x1="688.849"
       y1="488.396"
       x2="1259.3051"
       y2="488.396"
       id="line3131"
       style="fill:none;stroke:url(#SVGID_20_);stroke-width:1.5;stroke-miterlimit:10" /><linearGradient
       x1="727.24902"
       y1="686.27911"
       x2="922.82233"
       y2="686.27911"
       id="SVGID_21_"
       gradientUnits="userSpaceOnUse"
       gradientTransform="matrix(0.5366,0,0,-0.4054,601.4,796.0092)"><stop
         id="stop3134"
         style="stop-color:#ffffff;stop-opacity:0.5"
         offset="0" /><stop
         id="stop3136"
         style="stop-color:#ffffff;stop-opacity:0"
         offset="1" /></linearGradient><ellipse
       cx="1044.114"
       cy="517.79199"
       rx="52.069"
       ry="64.708"
       id="ellipse3138"
       style="fill:none;stroke:url(#SVGID_21_);stroke-width:1.5;stroke-miterlimit:10"
       d="m 1096.183,517.79199 c 0,35.73724 -23.3121,64.708 -52.069,64.708 -28.7569,0 -52.06899,-28.97076 -52.06899,-64.708 0,-35.73724 23.31209,-64.708 52.06899,-64.708 28.7569,0 52.069,28.97076 52.069,64.708 z"
       sodipodi:cx="1044.114"
       sodipodi:cy="517.79199"
       sodipodi:rx="52.069"
       sodipodi:ry="64.708" /></g><g
     id="lines"
     style="display:none"><g
       id="guides"
       style="display:inline"><line
         fill="none"
         stroke="#000000"
         stroke-miterlimit="10"
         x1="960"
         y1="-27"
         x2="960"
         y2="1219"
         id="line3142"
         style="fill:none;stroke:#000000;stroke-miterlimit:10" /><line
         fill="none"
         stroke="#000000"
         stroke-miterlimit="10"
         x1="0"
         y1="540"
         x2="1920"
         y2="540"
         id="line3144"
         style="fill:none;stroke:#000000;stroke-miterlimit:10" /></g></g><g
     transform="matrix(0.63185159,0,0,0.63185159,1058.4242,498.15821)"
     id="layer1"><path
       d="m 284.31314,485.60092 c -0.0871,0.091 -0.0871,14.53264 -0.26721,18.30231 -0.17812,3.04943 -0.44918,9.59747 -6.90816,9.59747 -6.63901,0 -8.25374,-7.62646 -8.79198,-10.94307 -0.62733,-3.67869 -0.62733,-6.73003 -0.62733,-8.07371 0,-4.30597 0.26914,-16.33135 10.40676,-16.33135 3.05135,0 4.75514,0.90031 6.10079,1.61474 l 0.0871,5.83361 z m -26.01595,10.58875 c 0,25.2976 13.45811,25.2976 15.43104,25.2976 5.56255,0 9.15213,-3.05135 10.67589,-8.34089 l 0.18008,7.9827 c 1.70571,-0.091 3.40955,-0.26914 6.18984,-0.26914 0.98741,0 1.79286,0 2.51308,0.091 0.71831,0 1.4347,0.0871 2.24207,0.17811 -1.43466,-2.86935 -2.51116,-9.32833 -2.51116,-23.32856 0,-13.63622 0,-36.6918 1.16556,-43.69093 -3.22755,1.5276 -6.01173,2.51504 -12.11251,3.05135 2.4221,2.60218 2.4221,3.94778 2.4221,15.78727 -1.70187,-0.53631 -3.8568,-1.16359 -7.53544,-1.16359 -16.05837,0 -18.66055,13.99441 -18.66055,24.40505"
       id="path2862"
       style="fill:#000000;fill-opacity:1;fill-rule:nonzero;stroke:none"
       inkscape:connector-curvature="0" /><path
       d="m 306.95244,491.61068 c 0.091,-7.44638 1.61665,-14.08736 7.9846,-14.08736 6.99918,0 7.53353,7.71552 7.35541,14.08736 l -15.34001,0 z m 24.22109,0.90031 c 0,-10.49774 -2.06198,-20.8174 -15.34001,-20.8174 -18.30044,0 -18.30044,20.27721 -18.30044,24.58318 0,18.21138 8.16277,25.38862 21.89002,25.38862 6.0969,0 9.06116,-0.8945 10.67589,-1.34559 -0.0891,-3.22952 0.35819,-5.29343 0.90031,-8.07372 -1.88775,1.16944 -4.30986,2.69316 -9.69233,2.69316 -13.99638,0 -14.17642,-12.74369 -14.17642,-17.13872 l 23.86875,0 0.17423,-5.28953"
       id="path2864"
       style="fill:#000000;fill-opacity:1;fill-rule:nonzero;stroke:none"
       inkscape:connector-curvature="0" /><path
       d="m 360.36086,496.36779 c 0,8.3428 -1.52375,19.55889 -11.93051,19.55889 -1.43662,0 -3.22947,-0.27302 -4.39503,-0.54211 -0.18003,-3.22951 -0.18003,-8.79202 -0.18003,-15.25101 0,-7.71743 0.8054,-11.74846 1.43657,-13.72724 1.88195,-6.36796 6.09886,-6.45702 6.90431,-6.45702 6.8191,0 8.16469,9.4232 8.16469,16.41849 z m -25.74682,9.77942 c 0,6.63906 0,10.40676 -1.07646,13.27616 3.67865,1.43657 8.25184,2.24202 13.7272,2.24202 3.49861,0 13.63628,0 19.10781,-11.21221 2.60218,-5.20239 3.4986,-12.20152 3.4986,-17.49685 0,-3.22952 -0.35819,-10.31579 -2.96037,-14.80376 -2.51116,-4.21303 -6.54996,-6.36795 -10.85401,-6.36795 -8.61386,0 -11.12507,7.17724 -12.46875,10.85592 0,-4.57511 0.0872,-20.54438 0.80353,-28.70911 -5.82973,2.6932 -9.42127,3.13849 -13.27615,3.4986 3.4986,1.43278 3.4986,7.35737 3.4986,26.64713 l 0,22.07005"
       id="path2866"
       style="fill:#000000;fill-opacity:1;fill-rule:nonzero;stroke:none"
       inkscape:connector-curvature="0" /><path
       d="m 387.11641,521.12908 c -1.7929,-0.26914 -3.05331,-0.44918 -5.6555,-0.44918 -2.86547,0 -4.84228,0.18004 -6.90427,0.44918 0.89643,-1.70571 1.25462,-2.51504 1.52376,-8.34281 0.36011,-7.98657 0.45109,-29.34028 -0.17811,-33.82441 -0.44922,-3.41147 -1.25462,-3.94778 -2.51121,-4.8442 7.35541,-0.71831 9.42128,-1.25654 12.82694,-2.87132 -0.71639,3.94394 -0.80737,5.92267 -0.80737,11.93052 -0.17811,30.95697 -0.26913,34.27358 1.70576,37.95222"
       id="path2868"
       style="fill:#000000;fill-opacity:1;fill-rule:nonzero;stroke:none"
       inkscape:connector-curvature="0" /><path
       d="m 415.84484,495.73662 c -0.1762,5.65353 -0.26718,9.60131 -1.79481,12.7398 -1.88383,4.0388 -5.02232,5.2024 -7.35536,5.2024 -5.38636,0 -6.55,-4.48409 -6.55,-8.87912 0,-8.43191 7.53739,-9.06308 10.94306,-9.06308 l 4.75711,0 z m -24.67415,11.03792 c 0,5.65354 1.70571,11.30319 6.73195,13.72725 2.24203,0.98548 4.48409,0.98548 5.2024,0.98548 8.25571,0 11.03404,-6.1027 12.7398,-9.86852 -0.091,3.94782 0,6.368 0.26914,9.51033 1.61473,-0.091 3.22946,-0.26914 5.92267,-0.26914 1.52371,0 2.96033,0.17816 4.48408,0.26914 -0.98744,-1.52372 -1.52375,-2.42402 -1.79673,-5.92267 -0.17816,-3.40566 -0.17816,-6.81713 -0.17816,-11.57036 l 0.091,-18.30235 c 0,-6.82293 -1.79481,-13.54908 -15.25484,-13.54908 -8.87719,0 -14.08155,2.69123 -16.68374,4.03879 1.07842,1.97293 1.97485,3.67476 2.7803,7.53544 3.50052,-3.05135 8.0776,-4.66608 12.7398,-4.66608 7.45026,0 7.45026,4.93522 7.45026,11.93046 -1.7057,-0.0871 -3.14429,-0.26525 -5.56639,-0.26525 -11.3942,0 -18.93156,4.39119 -18.93156,16.41656"
       id="path2870"
       style="fill:#000000;fill-opacity:1;fill-rule:nonzero;stroke:none"
       inkscape:connector-curvature="0" /><path
       d="m 467.52042,512.24608 c 0.091,3.05135 0.091,6.28082 1.34565,8.883 -1.9749,-0.17811 -3.14237,-0.44918 -6.81718,-0.44918 -2.15684,0 -3.32044,0.18004 -5.02619,0.44918 0.35622,-1.16556 0.54019,-1.61473 0.7183,-3.14233 0.26914,-2.06007 0.44917,-8.97014 0.44917,-11.3942 l 0,-9.68845 c 0,-4.21691 0,-10.31962 -0.27105,-12.4707 -0.17812,-1.52372 -0.62345,-5.64966 -5.83165,-5.64966 -5.11334,0 -6.81521,3.76583 -7.44643,6.81718 -0.71442,3.14041 -0.71442,6.54996 -0.71442,19.82799 0.0871,11.48325 0.0871,12.55784 0.98356,15.70017 -1.52371,-0.17811 -3.40758,-0.35819 -6.09882,-0.35819 -2.15689,0 -3.58962,0.0891 -5.38248,0.35819 0.62925,-1.43662 0.98741,-2.15493 1.16557,-7.17725 0.182,-4.93522 0.54014,-29.16024 -0.27303,-34.89895 -0.44528,-3.50249 -1.34559,-4.30794 -2.32916,-5.20436 7.26827,-0.3582 9.59743,-1.5276 11.84338,-2.69124 l 0,9.51034 c 1.07454,-2.78419 3.31661,-8.97403 12.29063,-8.97403 11.21604,0 11.30318,8.16474 11.39415,13.54525 l 0,27.00724"
       id="path2872"
       style="fill:#000000;fill-opacity:1;fill-rule:nonzero;stroke:none"
       inkscape:connector-curvature="0" /><path
       d="m 387.8734,458.54915 -7.42894,7.42702 -7.42706,-7.42702 7.42706,-7.42706 7.42894,7.42706"
       id="path2874"
       style="fill:#d40000;fill-opacity:1;fill-rule:nonzero;stroke:none"
       inkscape:connector-curvature="0" /><path
       d="m 482.41114,491.61068 c 0.091,-7.44638 1.61669,-14.08736 7.98465,-14.08736 6.99913,0 7.53352,7.71552 7.3554,14.08736 l -15.34005,0 z m 24.22114,0.90031 c 0,-10.49774 -2.06199,-20.8174 -15.34007,-20.8174 -18.30039,0 -18.30039,20.27721 -18.30039,24.58318 0,18.21138 8.16278,25.38862 21.89003,25.38862 6.0969,0 9.06111,-0.8945 10.67584,-1.34559 -0.0891,-3.22952 0.3582,-5.29343 0.90031,-8.07372 -1.88771,1.16944 -4.30986,2.69316 -9.69228,2.69316 -13.99639,0 -14.17647,-12.74369 -14.17647,-17.13872 l 23.86875,0 0.17428,-5.28953"
       id="path2978"
       style="fill:#f9f9f9;fill-opacity:1;fill-rule:nonzero;stroke:none"
       inkscape:connector-curvature="0" /><path
       d="m 537.08729,485.60092 c -0.0871,0.091 -0.0871,14.53264 -0.26722,18.30231 -0.17811,3.04943 -0.44917,9.59747 -6.90815,9.59747 -6.63902,0 -8.25375,-7.62646 -8.79198,-10.94307 -0.62733,-3.67869 -0.62733,-6.73003 -0.62733,-8.07371 0,-4.30597 0.26913,-16.33135 10.40676,-16.33135 3.05135,0 4.75514,0.90031 6.10078,1.61474 l 0.0871,5.83361 z m -26.01596,10.58875 c 0,25.2976 13.45815,25.2976 15.43104,25.2976 5.56256,0 9.15214,-3.05135 10.67589,-8.34089 l 0.18008,7.9827 c 1.70571,-0.091 3.40955,-0.26914 6.18985,-0.26914 0.9874,0 1.79284,0 2.51308,0.091 0.7183,0 1.4347,0.0871 2.24206,0.17811 -1.43465,-2.86935 -2.51115,-9.32833 -2.51115,-23.32856 0,-13.63622 0,-36.6918 1.16555,-43.69093 -3.22754,1.5276 -6.01173,2.51504 -12.11251,3.05135 2.4221,2.60218 2.4221,3.94778 2.4221,15.78727 -1.70187,-0.53631 -3.8568,-1.16359 -7.53544,-1.16359 -16.05837,0 -18.66055,13.99441 -18.66055,24.40505"
       id="path2980"
       style="fill:#f9f9f9;fill-opacity:1;fill-rule:nonzero;stroke:none"
       inkscape:connector-curvature="0" /><path
       d="m 553.10734,480.47086 c -0.091,-3.05134 -0.091,-6.28082 -1.3456,-8.88299 1.97485,0.17811 3.14233,0.44917 6.81713,0.44917 2.1569,0 3.32049,-0.18004 5.02625,-0.44917 -0.35628,1.16556 -0.54019,1.61473 -0.71831,3.14237 -0.26913,2.06002 -0.44917,8.97014 -0.44917,11.39416 l 0,9.68844 c 0,4.21692 0,10.31966 0.27105,12.47071 0.17812,1.52376 0.62341,5.64965 5.83165,5.64965 5.11334,0 6.81521,-3.76578 7.44638,-6.81713 0.71443,-3.14045 0.71443,-6.55 0.71443,-19.82803 -0.0871,-11.48326 -0.0871,-12.5578 -0.98356,-15.70017 1.52375,0.17811 3.40762,0.35819 6.09886,0.35819 2.15685,0 3.58958,-0.0891 5.38248,-0.35819 -0.62925,1.43662 -0.98745,2.15492 -1.16556,7.17728 -0.182,4.93523 -0.54019,29.16021 0.27297,34.89891 0.44534,3.50249 1.14428,6.097 1.87396,7.56472 -4.91878,-0.31189 -6.60307,-0.45182 -11.38813,0.33088 -0.0635,-1.82628 -0.11459,-5.90714 -0.0604,-7.76347 -1.39876,3.81524 -6.93702,7.40669 -12.23035,7.22716 -11.2096,-0.38021 -11.30318,-8.16469 -11.3942,-13.54524 l 0,-27.00725"
       id="path2982"
       style="fill:#f9f9f9;fill-opacity:1;fill-rule:nonzero;stroke:none"
       inkscape:connector-curvature="0" /><path
       d="m 398.50988,536.83079 c 0,-2.93664 1.1552,-5.38812 3.46561,-7.35443 2.3104,-1.96627 5.38218,-2.94941 9.21537,-2.94944 3.12428,3e-5 5.55283,0.58736 7.28565,1.762 1.75904,1.14916 2.63857,2.75794 2.63859,4.82635 -2e-5,0.63843 -0.10504,1.43005 -0.31505,2.37487 l -5.51347,0 c 0.0525,-0.45964 0.0787,-0.7533 0.0788,-0.881 -2e-5,-2.11949 -1.73282,-3.17924 -5.19841,-3.17927 -1.78533,3e-5 -3.20307,0.35754 -4.25325,1.07253 -1.02394,0.71503 -1.5359,1.68542 -1.53589,2.91113 -1e-5,0.71503 0.32817,1.27683 0.98455,1.68539 0.65634,0.38306 1.91657,0.75333 3.78066,1.11083 l 4.29263,0.84269 c 2.02158,0.38306 3.55747,1.05977 4.60769,2.03013 1.05016,0.97039 1.57524,2.19613 1.57527,3.67722 -3e-5,0.91931 -0.11817,1.83861 -0.35443,2.75791 -0.23632,0.91931 -0.66953,1.88968 -1.29961,2.91113 -0.63013,1.02146 -1.4309,1.91522 -2.40229,2.6813 -0.97145,0.76609 -2.27105,1.40449 -3.89882,1.91522 -1.6278,0.51072 -3.46562,0.76609 -5.51346,0.76609 -2.02162,0 -3.76755,-0.2426 -5.23779,-0.72779 -1.44402,-0.45965 -2.53358,-1.07251 -3.26871,-1.8386 -0.73513,-0.79162 -1.27335,-1.59602 -1.61466,-2.41318 -0.31505,-0.81716 -0.47258,-1.67261 -0.47258,-2.56639 0,-0.43411 0.0525,-0.9959 0.15753,-1.68539 l 5.74976,0 c -0.0525,0.45966 -0.0788,0.75332 -0.0788,0.88101 -10e-6,1.09805 0.4857,1.95351 1.45712,2.56638 0.99767,0.58734 2.38916,0.88101 4.17449,0.881 2.04784,1e-5 3.67563,-0.38304 4.88336,-1.14913 1.23394,-0.79162 1.85092,-1.82583 1.85094,-3.10265 -2e-5,-0.89376 -0.34133,-1.57047 -1.02393,-2.03013 -0.68263,-0.45964 -1.9166,-0.86823 -3.7019,-1.22574 l -3.85942,-0.76608 c -2.33668,-0.45965 -4.03009,-1.13635 -5.08027,-2.03013 -1.05019,-0.91929 -1.57528,-2.17057 -1.57528,-3.75383"
       id="path4003"
       style="font-size:54.62936401px;font-style:oblique;font-variant:normal;font-weight:bold;font-stretch:normal;line-height:125%;letter-spacing:0px;word-spacing:0px;fill:#000000;fill-opacity:1;stroke:#000000;stroke-width:0.35927457;stroke-miterlimit:4;stroke-opacity:1;font-family:FreeSans;-inkscape-font-specification:FreeSans Bold Oblique"
       inkscape:connector-curvature="0" /><path
       d="m 432.8103,526.98658 -3.34746,15.28342 8.78216,-8.04391 6.26173,0 -9.13661,7.8907 5.08027,12.79364 -6.45863,0 -3.11118,-9.15473 -2.67796,2.37487 -1.49651,6.77986 -5.51348,0 6.1042,-27.92385 5.51347,0"
       id="path4005"
       style="font-size:54.62936401px;font-style:oblique;font-variant:normal;font-weight:bold;font-stretch:normal;line-height:125%;letter-spacing:0px;word-spacing:0px;fill:#000000;fill-opacity:1;stroke:#000000;stroke-width:0.35927457;stroke-miterlimit:4;stroke-opacity:1;font-family:FreeSans;-inkscape-font-specification:FreeSans Bold Oblique"
       inkscape:connector-curvature="0" /><path
       d="m 441.82889,548.13057 c -10e-6,-3.9581 1.19458,-7.31611 3.58375,-10.07404 2.41542,-2.78343 5.56597,-4.17515 9.45167,-4.17517 2.7042,2e-5 4.83082,0.68949 6.37986,2.06843 1.54901,1.35344 2.32351,3.21758 2.32354,5.59243 -3e-5,4.03473 -1.22087,7.41828 -3.66252,10.15065 -2.4417,2.73238 -5.61851,4.09857 -9.53043,4.09857 -2.59921,0 -4.67332,-0.68948 -6.22233,-2.06844 -1.54903,-1.40449 -2.32355,-3.26864 -2.32354,-5.59243 m 9.53042,3.37078 c 1.23395,0 2.3104,-0.34473 3.22932,-1.03422 0.91889,-0.715 1.60152,-1.58324 2.04786,-2.60469 0.44631,-1.04698 0.77449,-2.01735 0.98455,-2.91113 0.21001,-0.89376 0.31504,-1.65985 0.31506,-2.29826 -2e-5,-1.35341 -0.35446,-2.4387 -1.06332,-3.25587 -0.70889,-0.81714 -1.66718,-1.22572 -2.87488,-1.22574 -1.78533,2e-5 -3.32122,0.88102 -4.60768,2.643 -1.28649,1.73648 -1.92972,3.81767 -1.92971,6.2436 -10e-6,1.35343 0.35442,2.43872 1.06331,3.25587 0.70886,0.79163 1.65403,1.18744 2.83549,1.18744"
       id="path4007"
       style="font-size:54.62936401px;font-style:oblique;font-variant:normal;font-weight:bold;font-stretch:normal;line-height:125%;letter-spacing:0px;word-spacing:0px;fill:#000000;fill-opacity:1;stroke:#000000;stroke-width:0.35927457;stroke-miterlimit:4;stroke-opacity:1;font-family:FreeSans;-inkscape-font-specification:FreeSans Bold Oblique"
       inkscape:connector-curvature="0" /><path
       d="m 475.50918,526.98658 -6.10419,27.92385 -5.51348,0 6.1042,-27.92385 5.51347,0"
       id="path4009"
       style="font-size:54.62936401px;font-style:oblique;font-variant:normal;font-weight:bold;font-stretch:normal;line-height:125%;letter-spacing:0px;word-spacing:0px;fill:#000000;fill-opacity:1;stroke:#000000;stroke-width:0.35927457;stroke-miterlimit:4;stroke-opacity:1;font-family:FreeSans;-inkscape-font-specification:FreeSans Bold Oblique"
       inkscape:connector-curvature="0" /><path
       d="m 487.10099,533.88136 c 2.49417,2e-5 4.50265,0.70226 6.02543,2.10674 1.549,1.4045 2.32352,3.23035 2.32354,5.47752 -2e-5,1.45557 -0.23632,3.05158 -0.70888,4.78804 l -14.29563,0 c -0.0788,0.71502 -0.11816,1.28959 -0.11815,1.72369 -10e-6,1.04699 0.3413,1.90245 1.02393,2.5664 0.68261,0.6384 1.5884,0.9576 2.71735,0.9576 0.94516,0 1.81157,-0.21705 2.59921,-0.65117 0.81388,-0.43411 1.41774,-1.02145 1.81157,-1.762 l 5.43471,0 c -1.07647,2.11951 -2.57298,3.76659 -4.48955,4.94126 -1.89034,1.17466 -4.0301,1.762 -6.41925,1.762 -2.46794,0 -4.47641,-0.72779 -6.02543,-2.18336 -1.52277,-1.48109 -2.28415,-3.40907 -2.28415,-5.78395 0,-0.61286 0.0656,-1.31511 0.19691,-2.10673 0.13127,-0.79162 0.35443,-1.73646 0.66949,-2.83453 0.31505,-1.12357 0.77451,-2.18333 1.37837,-3.17925 0.63011,-1.02144 1.37836,-1.97905 2.24476,-2.87283 0.8664,-0.89375 1.98222,-1.60876 3.34747,-2.14505 1.36523,-0.53623 2.88799,-0.80436 4.5683,-0.80438 m 2.71736,8.23543 c -2e-5,-2.63022 -1.12897,-3.94533 -3.38685,-3.94535 -2.65173,2e-5 -4.41079,1.50666 -5.27717,4.51992 l 8.66402,0 0,-0.57457"
       id="path4011"
       style="font-size:54.62936401px;font-style:oblique;font-variant:normal;font-weight:bold;font-stretch:normal;line-height:125%;letter-spacing:0px;word-spacing:0px;fill:#000000;fill-opacity:1;stroke:#000000;stroke-width:0.35927457;stroke-miterlimit:4;stroke-opacity:1;font-family:FreeSans;-inkscape-font-specification:FreeSans Bold Oblique"
       inkscape:connector-curvature="0" /><path
       d="m 508.35307,526.98658 -6.10419,27.92385 -5.51347,0 6.10419,-27.92385 5.51347,0"
       id="path4013"
       style="font-size:54.62936401px;font-style:oblique;font-variant:normal;font-weight:bold;font-stretch:normal;line-height:125%;letter-spacing:0px;word-spacing:0px;fill:#000000;fill-opacity:1;stroke:#000000;stroke-width:0.35927457;stroke-miterlimit:4;stroke-opacity:1;font-family:FreeSans;-inkscape-font-specification:FreeSans Bold Oblique"
       inkscape:connector-curvature="0" /><path
       d="m 517.70013,534.22609 -4.52893,20.68434 -5.51346,0 4.52892,-20.68434 5.51347,0 m 1.57527,-7.23951 -1.06331,4.78804 -5.51346,0 1.0633,-4.78804 5.51347,0"
       id="path4015"
       style="font-size:54.62936401px;font-style:oblique;font-variant:normal;font-weight:bold;font-stretch:normal;line-height:125%;letter-spacing:0px;word-spacing:0px;fill:#000000;fill-opacity:1;stroke:#000000;stroke-width:0.35927457;stroke-miterlimit:4;stroke-opacity:1;font-family:FreeSans;-inkscape-font-specification:FreeSans Bold Oblique"
       inkscape:connector-curvature="0" /><path
       d="m 522.95146,534.22609 5.51347,0 -0.70887,3.14095 c 1.05017,-1.22571 2.13974,-2.10671 3.26869,-2.64299 1.12894,-0.56177 2.42854,-0.84267 3.89882,-0.84269 1.75903,2e-5 3.16366,0.45967 4.21386,1.37895 1.05016,0.91932 1.57525,2.14506 1.57528,3.67722 -3e-5,0.68949 -0.0788,1.39174 -0.2363,2.10674 l -3.0324,13.86616 -5.51347,0 2.63858,-11.98925 c 0.15752,-0.84268 0.23628,-1.46832 0.2363,-1.87691 -2e-5,-1.91521 -0.97144,-2.87281 -2.91426,-2.87283 -1.31275,2e-5 -2.45482,0.45967 -3.42623,1.37896 -0.94518,0.89378 -1.60154,2.13228 -1.9691,3.71552 l -2.55981,11.64451 -5.51347,0 4.52891,-20.68434"
       id="path4017"
       style="font-size:54.62936401px;font-style:oblique;font-variant:normal;font-weight:bold;font-stretch:normal;line-height:125%;letter-spacing:0px;word-spacing:0px;fill:#000000;fill-opacity:1;stroke:#000000;stroke-width:0.35927457;stroke-miterlimit:4;stroke-opacity:1;font-family:FreeSans;-inkscape-font-specification:FreeSans Bold Oblique"
       inkscape:connector-curvature="0" /><path
       d="m 560.55318,554.91043 -5.51346,0 0.59073,-2.60469 c -1.0502,1.22575 -2.13977,2.10674 -3.2687,2.643 -1.12896,0.56179 -2.42856,0.8427 -3.89881,0.8427 -1.73281,0 -3.1243,-0.45965 -4.17448,-1.37896 -1.05019,-0.9193 -1.57528,-2.14504 -1.57528,-3.67722 0,-0.68947 0.0788,-1.39172 0.23629,-2.10673 l 3.15056,-14.40244 5.51346,0 -2.75674,12.52552 c -0.15753,0.89377 -0.23629,1.51941 -0.23628,1.87692 -10e-6,1.91522 0.99767,2.87282 2.99302,2.87282 1.28647,0 2.40229,-0.45965 3.34746,-1.37895 0.94516,-0.9193 1.58839,-2.15781 1.92972,-3.71553 l 2.67797,-12.18078 5.51347,0 -4.52893,20.68434"
       id="path4019"
       style="font-size:54.62936401px;font-style:oblique;font-variant:normal;font-weight:bold;font-stretch:normal;line-height:125%;letter-spacing:0px;word-spacing:0px;fill:#000000;fill-opacity:1;stroke:#000000;stroke-width:0.35927457;stroke-miterlimit:4;stroke-opacity:1;font-family:FreeSans;-inkscape-font-specification:FreeSans Bold Oblique"
       inkscape:connector-curvature="0" /><path
       d="m 579.07551,544.41505 4.84397,10.49538 -6.61616,0 -2.32354,-6.43512 -4.84398,6.43512 -6.61615,0 9.17599,-10.49538 -4.3714,-10.18896 6.61616,0 2.00848,6.24361 4.84397,-6.24361 6.61617,0 -9.33351,10.18896"
       id="path4021"
       style="font-size:54.62936401px;font-style:oblique;font-variant:normal;font-weight:bold;font-stretch:normal;line-height:125%;letter-spacing:0px;word-spacing:0px;fill:#000000;fill-opacity:1;stroke:#000000;stroke-width:0.35927457;stroke-miterlimit:4;stroke-opacity:1;font-family:FreeSans;-inkscape-font-specification:FreeSans Bold Oblique"
       inkscape:connector-curvature="0" /></g><g
     id="layer2" /></svg>