<?xml version="1.0" encoding="UTF-8" standalone="no"?>
<!-- Created with Inkscape (http://www.inkscape.org/) -->

<svg
   xmlns:dc="http://purl.org/dc/elements/1.1/"
   xmlns:cc="http://creativecommons.org/ns#"
   xmlns:rdf="http://www.w3.org/1999/02/22-rdf-syntax-ns#"
   xmlns:svg="http://www.w3.org/2000/svg"
   xmlns="http://www.w3.org/2000/svg"
   xmlns:sodipodi="http://sodipodi.sourceforge.net/DTD/sodipodi-0.dtd"
   xmlns:inkscape="http://www.inkscape.org/namespaces/inkscape"
   width="256"
   height="256"
   id="svg3367"
   version="1.1"
   inkscape:version="0.48.4 r9939"
   sodipodi:docname="update-downloading-05.svg">
  <defs
     id="defs3369" />
  <sodipodi:namedview
     id="base"
     pagecolor="#ffffff"
     bordercolor="#666666"
     borderopacity="1.0"
     inkscape:pageopacity="0.0"
     inkscape:pageshadow="2"
     inkscape:zoom="0.98994949"
     inkscape:cx="209.09231"
     inkscape:cy="54.321899"
     inkscape:document-units="px"
     inkscape:current-layer="layer1"
     showgrid="false"
     fit-margin-top="0"
     fit-margin-left="0"
     fit-margin-right="0"
     fit-margin-bottom="0"
     inkscape:window-width="1366"
     inkscape:window-height="709"
     inkscape:window-x="0"
     inkscape:window-y="0"
     inkscape:window-maximized="1" />
  <metadata
     id="metadata3372">
    <rdf:RDF>
      <cc:Work
         rdf:about="">
        <dc:format>image/svg+xml</dc:format>
        <dc:type
           rdf:resource="http://purl.org/dc/dcmitype/StillImage" />
        <dc:title></dc:title>
      </cc:Work>
    </rdf:RDF>
  </metadata>
  <g
     inkscape:label="Layer 1"
     inkscape:groupmode="layer"
     id="layer1"
     transform="translate(200.52955,-90.742631)">
    <path
       style="fill:#1a1a1a;stroke:#1a1a1a;stroke-width:15.82702446;stroke-linecap:round;stroke-linejoin:round;stroke-miterlimit:4"
       inkscape:transform-center-x="13.322981"
       inkscape:transform-center-y="0.041436592"
       d="m -87.544493,319.12981 26.634668,-15.53671 26.634672,-15.53674 -17.877868,31.14142 17.856222,31.17599 -26.623847,-15.62205 z"
       id="path8161-2-4"
       inkscape:connector-curvature="0"
       sodipodi:nodetypes="ccccccc" />
    <path
       sodipodi:type="arc"
       style="fill:none;stroke:#1a1a1a;stroke-width:5.31496048;stroke-linecap:round;stroke-miterlimit:4;stroke-dasharray:none;marker-start:none;marker-end:none"
       id="path7439-40-4-3"
       sodipodi:cx="230.16325"
       sodipodi:cy="364.70084"
       sodipodi:rx="35.001785"
       sodipodi:ry="35.001785"
       d="m 205.41325,389.45084 a 35.001785,35.001785 0 0 1 24.75,-59.75179"
       sodipodi:start="2.3561945"
       sodipodi:end="4.712389"
       sodipodi:open="true"
       transform="matrix(-2.8763586,0.77071797,-0.77071797,-2.8763586,870.80112,1090.1088)" />
    <path
       transform="matrix(2.8763586,-0.77071797,0.77071797,2.8763586,-1015.4258,-653.12986)"
       sodipodi:type="arc"
       style="fill:none;stroke:#1a1a1a;stroke-width:5.31496048;stroke-linecap:round;stroke-linejoin:round;stroke-miterlimit:4;stroke-dasharray:none;marker-end:none"
       id="path7439-4-39-8-9"
       sodipodi:cx="230.16325"
       sodipodi:cy="364.70084"
       sodipodi:rx="35.001785"
       sodipodi:ry="35.001785"
       d="m 205.41325,389.45084 a 35.001785,35.001785 0 0 1 24.75,-59.75179"
       sodipodi:start="2.3561945"
       sodipodi:end="4.712389"
       sodipodi:open="true" />
    <path
       style="fill:#1a1a1a;stroke:#1a1a1a;stroke-width:15.82702446;stroke-linecap:round;stroke-linejoin:round;stroke-miterlimit:4"
       inkscape:transform-center-x="-13.133785"
       inkscape:transform-center-y="0.39286371"
       d="m -57.083058,117.70782 -26.43402,15.87572 -26.434032,15.87571 17.478595,-31.36726 -18.253075,-30.945324 26.821344,15.280624 z"
       id="path8161-2-5-0"
       inkscape:connector-curvature="0"
       sodipodi:nodetypes="ccccccc" />
    <path
       style="fill:#666666"
       d="m -112.5497,80.266863 c 0.68154,-0.103891 2.11443,-0.08007 3.18434,0.05369 2.49101,0.311419 54.747259,30.020766 57.307834,32.581346 2.13546,2.13546 2.425904,7.6393 0.504524,9.56068 -0.671966,0.67194 -13.368818,8.50507 -28.215286,17.40696 -28.747572,17.23689 -31.319022,18.28831 -35.210462,14.39685 -3.04081,-3.0408 -2.26915,-6.88173 3.40651,-16.95613 l 5.19366,-9.21884 -4.29625,1.68709 c -10.99981,4.31952 -17.90997,9.21962 -29.80179,21.13287 -10.3356,10.35412 -11.84462,12.23171 -15.91421,19.80008 -2.47275,4.59868 -5.59352,11.36068 -6.93508,15.02667 -10.02296,27.38948 -6.31067,60.10665 9.67086,85.23147 4.93276,7.75484 20.47702,23.56322 27.63419,28.1037 6.93069,4.39681 8.48121,6.05901 8.64103,9.26344 0.13368,2.68003 -3.03994,6.82287 -5.62053,7.33704 -6.99023,1.39276 -31.30069,-18.77876 -41.56289,-34.48667 -25.51329,-39.05205 -25.45493,-86.83214 0.15344,-125.63749 11.5201,-17.45683 32.21877,-33.69883 52.31988,-41.05479 3.65968,-1.33926 6.76621,-2.54724 6.90338,-2.68441 0.13722,-0.13715 -0.76287,-1.96929 -2.0001,-4.07134 -8.93469,-15.179882 -10.47363,-18.263859 -10.38359,-20.808256 0.10082,-2.849092 2.70848,-6.310341 5.02054,-6.663961 l 0,0 z"
       id="path3002"
       inkscape:connector-curvature="0" />
  </g>
</svg>
