<?xml version="1.0" encoding="UTF-8" standalone="no"?>
<!-- Created with Inkscape (http://www.inkscape.org/) -->

<svg
   xmlns:dc="http://purl.org/dc/elements/1.1/"
   xmlns:cc="http://creativecommons.org/ns#"
   xmlns:rdf="http://www.w3.org/1999/02/22-rdf-syntax-ns#"
   xmlns:svg="http://www.w3.org/2000/svg"
   xmlns="http://www.w3.org/2000/svg"
   xmlns:sodipodi="http://sodipodi.sourceforge.net/DTD/sodipodi-0.dtd"
   xmlns:inkscape="http://www.inkscape.org/namespaces/inkscape"
   width="256"
   height="256"
   id="svg3367"
   version="1.1"
   inkscape:version="0.48.4 r9939"
   sodipodi:docname="update-downloading-03.svg">
  <defs
     id="defs3369" />
  <sodipodi:namedview
     id="base"
     pagecolor="#ffffff"
     bordercolor="#666666"
     borderopacity="1.0"
     inkscape:pageopacity="0.0"
     inkscape:pageshadow="2"
     inkscape:zoom="0.98994949"
     inkscape:cx="209.09231"
     inkscape:cy="54.321899"
     inkscape:document-units="px"
     inkscape:current-layer="layer1"
     showgrid="false"
     fit-margin-top="0"
     fit-margin-left="0"
     fit-margin-right="0"
     fit-margin-bottom="0"
     inkscape:window-width="1366"
     inkscape:window-height="709"
     inkscape:window-x="0"
     inkscape:window-y="0"
     inkscape:window-maximized="1" />
  <metadata
     id="metadata3372">
    <rdf:RDF>
      <cc:Work
         rdf:about="">
        <dc:format>image/svg+xml</dc:format>
        <dc:type
           rdf:resource="http://purl.org/dc/dcmitype/StillImage" />
        <dc:title></dc:title>
      </cc:Work>
    </rdf:RDF>
  </metadata>
  <g
     inkscape:label="Layer 1"
     inkscape:groupmode="layer"
     id="layer1"
     transform="translate(200.52955,-90.742631)">
    <path
       style="fill:#1a1a1a;stroke:#1a1a1a;stroke-width:15.82702446;stroke-linecap:round;stroke-linejoin:round;stroke-miterlimit:4"
       inkscape:transform-center-x="-4.7655836"
       inkscape:transform-center-y="1.6205058"
       d="m 0.14304099,290.01382 3.08599841,-30.68015 3.0859895,-30.68016 14.6855861,32.76796 35.717527,3.8788 -28.287603,12.35674 z"
       id="path8161-2-4"
       inkscape:connector-curvature="0"
       sodipodi:nodetypes="ccccccc" />
    <path
       sodipodi:type="arc"
       style="fill:none;stroke:#1a1a1a;stroke-width:5.31496048;stroke-linecap:round;stroke-miterlimit:4;stroke-dasharray:none;marker-start:none;marker-end:none"
       id="path7439-40-4-3"
       sodipodi:cx="230.16325"
       sodipodi:cy="364.70084"
       sodipodi:rx="35.001785"
       sodipodi:ry="35.001785"
       d="m 205.41325,389.45084 a 35.001785,35.001785 0 0 1 24.75,-59.75179"
       sodipodi:start="2.3561945"
       sodipodi:end="4.712389"
       sodipodi:open="true"
       transform="matrix(-1.0671572,2.7800396,-2.7800396,-1.0671572,1187.1796,-32.134016)" />
    <path
       transform="matrix(1.0671572,-2.7800396,2.7800396,1.0671572,-1331.8265,469.20569)"
       sodipodi:type="arc"
       style="fill:none;stroke:#1a1a1a;stroke-width:5.31496048;stroke-linecap:round;stroke-linejoin:round;stroke-miterlimit:4;stroke-dasharray:none;marker-end:none"
       id="path7439-4-39-8-9"
       sodipodi:cx="230.16325"
       sodipodi:cy="364.70084"
       sodipodi:rx="35.001785"
       sodipodi:ry="35.001785"
       d="m 205.41325,389.45084 a 35.001785,35.001785 0 0 1 24.75,-59.75179"
       sodipodi:start="2.3561945"
       sodipodi:end="4.712389"
       sodipodi:open="true" />
    <path
       style="fill:#1a1a1a;stroke:#1a1a1a;stroke-width:15.82702446;stroke-linecap:round;stroke-linejoin:round;stroke-miterlimit:4"
       inkscape:transform-center-x="4.8060433"
       inkscape:transform-center-y="-1.726122"
       d="m -144.90599,146.97713 -2.6938,30.71708 -2.69381,30.71709 -15.10299,-32.57769 -35.76418,-3.42216 28.12747,-12.71719 z"
       id="path8161-2-5-0"
       inkscape:connector-curvature="0"
       sodipodi:nodetypes="ccccccc" />
    <path
       style="fill:#666666"
       d="m -207.79884,169.84334 c 0.31655,-0.61244 1.17806,-1.75767 1.91515,-2.54462 1.71612,-1.83223 56.46694,-26.6457 60.04356,-27.21218 2.98282,-0.47243 7.60624,2.52767 8.03131,5.21146 0.14864,0.93859 -0.97725,15.81476 -2.50201,33.05819 -2.95246,33.38887 -3.6133,36.08722 -9.04889,36.94813 -4.2474,0.67272 -6.90121,-2.20921 -11.7155,-12.72249 l -4.40545,-9.62046 -1.16038,4.46739 c -2.97096,11.43798 -3.06839,19.90862 -0.4202,36.53174 2.30154,14.44767 2.93357,16.77212 6.66447,24.51306 2.26696,4.70353 5.90318,11.2029 8.08048,14.44305 16.26721,24.20788 44.91799,40.43524 74.638103,42.27391 9.173204,0.5675 31.09913,-2.71614 38.979337,-5.83758 7.630859,-3.02267 9.886979,-3.30005 12.573352,-1.54583 2.246767,1.46714 3.732986,6.46975 2.632122,8.85971 -2.981988,6.47385 -33.590411,14.28491 -52.330357,13.35433 -46.590097,-2.31354 -85.210707,-30.44519 -101.552667,-73.972 -7.35153,-19.58083 -8.32522,-45.87321 -2.46117,-66.45908 1.06762,-3.74794 1.91632,-6.9712 1.88597,-7.16281 -0.0303,-0.19162 -2.04159,-0.54034 -4.46941,-0.77495 -17.53247,-1.6942 -20.93202,-2.26189 -22.93756,-3.83029 -2.2457,-1.75622 -3.51316,-5.90033 -2.44026,-7.97868 l 0,0 z"
       id="path3002"
       inkscape:connector-curvature="0" />
  </g>
</svg>
