<?xml version="1.0" encoding="UTF-8" standalone="no"?>
<!-- Created with Inkscape (http://www.inkscape.org/) -->

<svg
   xmlns:dc="http://purl.org/dc/elements/1.1/"
   xmlns:cc="http://creativecommons.org/ns#"
   xmlns:rdf="http://www.w3.org/1999/02/22-rdf-syntax-ns#"
   xmlns:svg="http://www.w3.org/2000/svg"
   xmlns="http://www.w3.org/2000/svg"
   xmlns:sodipodi="http://sodipodi.sourceforge.net/DTD/sodipodi-0.dtd"
   xmlns:inkscape="http://www.inkscape.org/namespaces/inkscape"
   width="256"
   height="256"
   id="svg3367"
   version="1.1"
   inkscape:version="0.48.4 r9939"
   sodipodi:docname="update-downloading-07.svg">
  <defs
     id="defs3369" />
  <sodipodi:namedview
     id="base"
     pagecolor="#ffffff"
     bordercolor="#666666"
     borderopacity="1.0"
     inkscape:pageopacity="0.0"
     inkscape:pageshadow="2"
     inkscape:zoom="0.98994949"
     inkscape:cx="209.09231"
     inkscape:cy="54.321899"
     inkscape:document-units="px"
     inkscape:current-layer="layer1"
     showgrid="false"
     fit-margin-top="0"
     fit-margin-left="0"
     fit-margin-right="0"
     fit-margin-bottom="0"
     inkscape:window-width="1366"
     inkscape:window-height="709"
     inkscape:window-x="0"
     inkscape:window-y="0"
     inkscape:window-maximized="1" />
  <metadata
     id="metadata3372">
    <rdf:RDF>
      <cc:Work
         rdf:about="">
        <dc:format>image/svg+xml</dc:format>
        <dc:type
           rdf:resource="http://purl.org/dc/dcmitype/StillImage" />
        <dc:title></dc:title>
      </cc:Work>
    </rdf:RDF>
  </metadata>
  <g
     inkscape:label="Layer 1"
     inkscape:groupmode="layer"
     id="layer1"
     transform="translate(200.52955,-90.742631)">
    <path
       style="fill:#1a1a1a;stroke:#1a1a1a;stroke-width:15.82702446;stroke-linecap:round;stroke-linejoin:round;stroke-miterlimit:4"
       inkscape:transform-center-x="-4.7738743"
       inkscape:transform-center-y="-1.6306589"
       d="m -162.49387,265.36727 28.22493,12.41565 28.22496,12.41563 -35.70229,3.84097 -14.72628,32.77078 -3.01061,-30.72156 z"
       id="path8161-2-4"
       inkscape:connector-curvature="0"
       sodipodi:nodetypes="ccccccc" />
    <path
       sodipodi:type="arc"
       style="fill:none;stroke:#1a1a1a;stroke-width:5.31496048;stroke-linecap:round;stroke-miterlimit:4;stroke-dasharray:none;marker-start:none;marker-end:none"
       id="path7439-40-4-3"
       sodipodi:cx="230.16325"
       sodipodi:cy="364.70084"
       sodipodi:rx="35.001785"
       sodipodi:ry="35.001785"
       d="m 205.41325,389.45084 a 35.001785,35.001785 0 0 1 24.75,-59.75179"
       sodipodi:start="2.3561945"
       sodipodi:end="4.712389"
       sodipodi:open="true"
       transform="matrix(-2.3142051,-1.8740063,1.8740063,-2.3142051,-222.92753,1493.8552)" />
    <path
       transform="matrix(2.3142051,1.8740063,-1.8740063,2.3142051,78.685783,-1056.7844)"
       sodipodi:type="arc"
       style="fill:none;stroke:#1a1a1a;stroke-width:5.31496048;stroke-linecap:round;stroke-linejoin:round;stroke-miterlimit:4;stroke-dasharray:none;marker-end:none"
       id="path7439-4-39-8-9"
       sodipodi:cx="230.16325"
       sodipodi:cy="364.70084"
       sodipodi:rx="35.001785"
       sodipodi:ry="35.001785"
       d="m 205.41325,389.45084 a 35.001785,35.001785 0 0 1 24.75,-59.75179"
       sodipodi:start="2.3561945"
       sodipodi:end="4.712389"
       sodipodi:open="true" />
    <path
       style="fill:#1a1a1a;stroke:#1a1a1a;stroke-width:15.82702446;stroke-linecap:round;stroke-linejoin:round;stroke-miterlimit:4"
       inkscape:transform-center-x="4.7326212"
       inkscape:transform-center-y="1.5248637"
       d="m 18.364728,171.61821 -28.381256,-12.05405 -28.381253,-12.05408 35.650309,-4.29673 14.306404,-32.95625 3.402907,30.68064 z"
       id="path8161-2-5-0"
       inkscape:connector-curvature="0"
       sodipodi:nodetypes="ccccccc" />
    <path
       style="fill:#666666"
       d="m 16.052624,104.73751 c 0.484649,0.49032 1.307609,1.66355 1.828272,2.60775 1.212236,2.19831 7.892321,61.93723 7.325836,65.51385 -0.472432,2.98281 -4.754411,6.45286 -7.438202,6.02779 -0.93858,-0.14868 -14.7387369,-5.81645 -30.667054,-12.59509 -30.842337,-13.12568 -33.20441,-14.58803 -32.343485,-20.02361 0.672715,-4.2474 4.233664,-5.88076 15.720094,-7.21064 l 10.510952,-1.21693 -3.890155,-2.4841 c -9.960091,-6.36008 -17.986052,-9.0703 -34.613902,-11.68857 -14.451776,-2.27567 -16.857751,-2.39287 -25.372736,-1.23667 -5.173863,0.70254 -12.47878,2.15239 -16.233176,3.22187 -28.049908,7.99038 -52.336618,30.22436 -63.269318,57.92168 -3.37439,8.54887 -7.02695,30.41637 -6.4934,38.87547 0.51666,8.19143 0.0833,10.42285 -2.41521,12.43566 -2.08962,1.68342 -7.30665,1.55102 -9.23945,-0.23451 -5.23552,-4.83657 -3.20575,-36.36066 3.47024,-53.89583 16.59743,-43.59491 55.28665,-71.63213 101.733051,-73.72373 20.894221,-0.94092 46.200652,6.25785 63.966882,18.19627 3.2345904,2.17355 6.037838,3.97675 6.2294392,4.00709 0.1916106,0.0304 1.1447873,-1.77469 2.1181576,-4.01119 7.0291019,-16.15082 8.6195249,-19.20856 10.7309101,-20.63128 2.3642241,-1.59309 6.6971771,-1.51792 8.3422571,0.14472 l 0,0 z"
       id="path3002"
       inkscape:connector-curvature="0" />
  </g>
</svg>
