<?xml version="1.0" encoding="UTF-8" standalone="no"?>
<!-- Created with Inkscape (http://www.inkscape.org/) -->

<svg
   xmlns:dc="http://purl.org/dc/elements/1.1/"
   xmlns:cc="http://creativecommons.org/ns#"
   xmlns:rdf="http://www.w3.org/1999/02/22-rdf-syntax-ns#"
   xmlns:svg="http://www.w3.org/2000/svg"
   xmlns="http://www.w3.org/2000/svg"
   xmlns:sodipodi="http://sodipodi.sourceforge.net/DTD/sodipodi-0.dtd"
   xmlns:inkscape="http://www.inkscape.org/namespaces/inkscape"
   width="256"
   height="256"
   id="svg3367"
   version="1.1"
   inkscape:version="0.48.4 r9939"
   sodipodi:docname="update-downloading-08.svg">
  <defs
     id="defs3369" />
  <sodipodi:namedview
     id="base"
     pagecolor="#ffffff"
     bordercolor="#666666"
     borderopacity="1.0"
     inkscape:pageopacity="0.0"
     inkscape:pageshadow="2"
     inkscape:zoom="0.98994949"
     inkscape:cx="209.09231"
     inkscape:cy="54.321899"
     inkscape:document-units="px"
     inkscape:current-layer="layer1"
     showgrid="false"
     fit-margin-top="0"
     fit-margin-left="0"
     fit-margin-right="0"
     fit-margin-bottom="0"
     inkscape:window-width="1366"
     inkscape:window-height="709"
     inkscape:window-x="0"
     inkscape:window-y="0"
     inkscape:window-maximized="1" />
  <metadata
     id="metadata3372">
    <rdf:RDF>
      <cc:Work
         rdf:about="">
        <dc:format>image/svg+xml</dc:format>
        <dc:type
           rdf:resource="http://purl.org/dc/dcmitype/StillImage" />
        <dc:title></dc:title>
      </cc:Work>
    </rdf:RDF>
  </metadata>
  <g
     inkscape:label="Layer 1"
     inkscape:groupmode="layer"
     id="layer1"
     transform="translate(200.52955,-90.742631)">
    <path
       style="fill:#1a1a1a;stroke:#1a1a1a;stroke-width:15.82702446;stroke-linecap:round;stroke-linejoin:round;stroke-miterlimit:4"
       inkscape:transform-center-x="-2.0397914"
       inkscape:transform-center-y="-10.732681"
       d="m -173.9058,219.23423 19.51201,23.87628 19.51205,23.87627 -33.55474,-12.78617 -27.99884,22.51339 11.26483,-28.7399 z"
       id="path8161-2-4"
       inkscape:connector-curvature="0"
       sodipodi:nodetypes="ccccccc" />
    <path
       sodipodi:type="arc"
       style="fill:none;stroke:#1a1a1a;stroke-width:5.31496048;stroke-linecap:round;stroke-miterlimit:4;stroke-dasharray:none;marker-start:none;marker-end:none"
       id="path7439-40-4-3"
       sodipodi:cx="230.16325"
       sodipodi:cy="364.70084"
       sodipodi:rx="35.001785"
       sodipodi:ry="35.001785"
       d="m 205.41325,389.45084 a 35.001785,35.001785 0 0 1 24.75,-59.75179"
       sodipodi:start="2.3561945"
       sodipodi:end="4.712389"
       sodipodi:open="true"
       transform="matrix(-1.2111908,-2.720379,2.720379,-1.2111908,-785.47443,1286.3887)" />
    <path
       transform="matrix(1.2111908,2.720379,-2.720379,1.2111908,641.23114,-849.31826)"
       sodipodi:type="arc"
       style="fill:none;stroke:#1a1a1a;stroke-width:5.31496048;stroke-linecap:round;stroke-linejoin:round;stroke-miterlimit:4;stroke-dasharray:none;marker-end:none"
       id="path7439-4-39-8-9"
       sodipodi:cx="230.16325"
       sodipodi:cy="364.70084"
       sodipodi:rx="35.001785"
       sodipodi:ry="35.001785"
       d="m 205.41325,389.45084 a 35.001785,35.001785 0 0 1 24.75,-59.75179"
       sodipodi:start="2.3561945"
       sodipodi:end="4.712389"
       sodipodi:open="true" />
    <path
       style="fill:#1a1a1a;stroke:#1a1a1a;stroke-width:15.82702446;stroke-linecap:round;stroke-linejoin:round;stroke-miterlimit:4"
       inkscape:transform-center-x="2.4686433"
       inkscape:transform-center-y="10.550037"
       d="M 29.801575,217.8113 9.9861145,194.18624 -9.8293293,170.56115 23.886003,182.91764 51.594927,160.04838 40.69822,188.92992 z"
       id="path8161-2-5-0"
       inkscape:connector-curvature="0"
       sodipodi:nodetypes="ccccccc" />
    <path
       style="fill:#666666"
       d="m 58.104677,157.17048 c 0.209225,0.65691 0.409852,2.07588 0.445109,3.15354 0.0821,2.50906 -21.086805,58.76952 -23.215298,61.69913 -1.775107,2.44322 -7.165748,3.59108 -9.364046,1.99393 -0.768782,-0.55858 -10.491698,-11.87374 -21.606494,-25.14486 -21.521789,-25.6972 -22.962519,-28.07252 -19.727727,-32.5248 2.527672,-3.47906 6.442031,-3.31776 17.280268,0.71204 l 9.917801,3.68758 -2.3383953,-3.97944 C 3.5088046,156.57894 -2.4119649,150.52041 -16.038818,140.63863 c -11.843494,-8.58861 -13.934026,-9.78533 -22.045837,-12.62087 -4.928892,-1.72291 -12.095839,-3.74745 -15.926564,-4.499 -28.620208,-5.61491 -60.353841,3.16978 -82.669271,22.88493 -6.88771,6.08516 -20.0698,23.91101 -23.43475,31.69035 -3.25849,7.53318 -4.65766,9.32465 -7.79764,9.98378 -2.62612,0.55127 -7.21442,-1.93519 -8.12595,-4.40358 -2.46912,-6.68629 13.65105,-33.85296 27.5602,-46.44608 34.5801,-31.30827 81.781077,-38.725078 124.11469,-19.50248 19.0440558,8.64741 38.324078,26.55044 48.733975,45.25335 1.89527,3.40512 3.574347,6.28443 3.73129,6.39845 0.156925,0.11407 1.825706,-1.06154 3.708335,-2.61237 13.595294,-11.19934 16.400557,-13.20177 18.927716,-13.51088 2.829787,-0.34612 6.65635,1.68798 7.367304,3.91625 l 0,0 z"
       id="path3002"
       inkscape:connector-curvature="0" />
  </g>
</svg>
