<?xml version="1.0" encoding="UTF-8" standalone="no"?>
<!-- Created with Inkscape (http://www.inkscape.org/) -->

<svg
   xmlns:dc="http://purl.org/dc/elements/1.1/"
   xmlns:cc="http://creativecommons.org/ns#"
   xmlns:rdf="http://www.w3.org/1999/02/22-rdf-syntax-ns#"
   xmlns:svg="http://www.w3.org/2000/svg"
   xmlns="http://www.w3.org/2000/svg"
   xmlns:sodipodi="http://sodipodi.sourceforge.net/DTD/sodipodi-0.dtd"
   xmlns:inkscape="http://www.inkscape.org/namespaces/inkscape"
   width="256"
   height="256"
   id="svg3367"
   version="1.1"
   inkscape:version="0.48.4 r9939"
   sodipodi:docname="update-downloading-02.svg">
  <defs
     id="defs3369" />
  <sodipodi:namedview
     id="base"
     pagecolor="#ffffff"
     bordercolor="#666666"
     borderopacity="1.0"
     inkscape:pageopacity="0.0"
     inkscape:pageshadow="2"
     inkscape:zoom="0.98994949"
     inkscape:cx="209.09231"
     inkscape:cy="54.321899"
     inkscape:document-units="px"
     inkscape:current-layer="layer1"
     showgrid="false"
     fit-margin-top="0"
     fit-margin-left="0"
     fit-margin-right="0"
     fit-margin-bottom="0"
     inkscape:window-width="1366"
     inkscape:window-height="709"
     inkscape:window-x="0"
     inkscape:window-y="0"
     inkscape:window-maximized="1" />
  <metadata
     id="metadata3372">
    <rdf:RDF>
      <cc:Work
         rdf:about="">
        <dc:format>image/svg+xml</dc:format>
        <dc:type
           rdf:resource="http://purl.org/dc/dcmitype/StillImage" />
        <dc:title></dc:title>
      </cc:Work>
    </rdf:RDF>
  </metadata>
  <g
     inkscape:label="Layer 1"
     inkscape:groupmode="layer"
     id="layer1"
     transform="translate(200.52955,-90.742631)">
    <path
       style="fill:#1a1a1a;stroke:#1a1a1a;stroke-width:15.82702446;stroke-linecap:round;stroke-linejoin:round;stroke-miterlimit:4"
       inkscape:transform-center-x="-2.1216426"
       inkscape:transform-center-y="10.721617"
       d="M 24.669232,249.43136 13.490379,220.69413 2.3115159,191.9569 30.272812,214.48625 63.858301,201.72687 44.263705,225.57911 z"
       id="path8161-2-4"
       inkscape:connector-curvature="0"
       sodipodi:nodetypes="ccccccc" />
    <path
       sodipodi:type="arc"
       style="fill:none;stroke:#1a1a1a;stroke-width:5.31496048;stroke-linecap:round;stroke-miterlimit:4;stroke-dasharray:none;marker-start:none;marker-end:none"
       id="path7439-40-4-3"
       sodipodi:cx="230.16325"
       sodipodi:cy="364.70084"
       sodipodi:rx="35.001785"
       sodipodi:ry="35.001785"
       d="m 205.41325,389.45084 a 35.001785,35.001785 0 0 1 24.75,-59.75179"
       sodipodi:start="2.3561945"
       sodipodi:end="4.712389"
       sodipodi:open="true"
       transform="matrix(0.31126756,2.9615126,-2.9615126,0.31126756,936.07445,-576.50776)" />
    <path
       transform="matrix(-0.31126756,-2.9615126,2.9615126,-0.31126756,-1080.7729,1013.794)"
       sodipodi:type="arc"
       style="fill:none;stroke:#1a1a1a;stroke-width:5.31496048;stroke-linecap:round;stroke-linejoin:round;stroke-miterlimit:4;stroke-dasharray:none;marker-end:none"
       id="path7439-4-39-8-9"
       sodipodi:cx="230.16325"
       sodipodi:cy="364.70084"
       sodipodi:rx="35.001785"
       sodipodi:ry="35.001785"
       d="m 205.41325,389.45084 a 35.001785,35.001785 0 0 1 24.75,-59.75179"
       sodipodi:start="2.3561945"
       sodipodi:end="4.712389"
       sodipodi:open="true" />
    <path
       style="fill:#1a1a1a;stroke:#1a1a1a;stroke-width:15.82702446;stroke-linecap:round;stroke-linejoin:round;stroke-miterlimit:4"
       inkscape:transform-center-x="1.6925874"
       inkscape:transform-center-y="-10.902694"
       d="m -169.5077,187.83562 11.54507,28.59208 11.54506,28.59209 -28.24682,-22.17032 -33.41974,13.18743 19.28827,-24.1007 z"
       id="path8161-2-5-0"
       inkscape:connector-curvature="0"
       sodipodi:nodetypes="ccccccc" />
    <path
       style="fill:#666666"
       d="m -215.16459,236.76232 c 0.004,-0.6894 0.25169,-2.10093 0.55117,-3.13673 0.69726,-2.41164 38.21552,-49.37695 41.14513,-51.50544 2.44324,-1.77511 7.92475,-1.20099 9.52191,0.99731 0.55855,0.7688 6.30901,14.53471 12.77879,30.59095 12.52757,31.09009 13.16378,33.79435 8.71148,37.02913 -3.47905,2.52768 -7.15198,1.16467 -16.21447,-6.01709 l -8.29288,-6.57186 0.99424,4.50727 c 2.54559,11.5401 6.30437,19.13173 16.21066,32.74079 8.6098,11.82809 10.22822,13.61225 17.06679,18.81569 4.15523,3.1617 10.34578,7.30187 13.75677,9.20039 25.484338,14.18422 58.379427,15.63572 85.694985,3.78134 8.431025,-3.6589 26.4764259,-16.53881 32.0806382,-22.89757 5.4268802,-6.15756 7.3111721,-7.42896 10.5011449,-7.08553 2.6679519,0.28722 6.2633209,4.06985 6.3674619,6.6991 0.282097,7.12204 -23.4440601,27.97768 -40.56395,35.65628 -42.562406,19.09008 -89.74512,11.55799 -124.06667,-19.80559 -15.43978,-14.10912 -28.24383,-37.09375 -32.36471,-58.09812 -0.75027,-3.82413 -1.45741,-7.08138 -1.57144,-7.23832 -0.11402,-0.15697 -2.06438,0.44541 -4.33409,1.33858 -16.3907,6.45003 -19.67745,7.48758 -22.17643,7.00062 -2.79824,-0.54528 -5.80894,-3.66229 -5.79653,-6.0012 l 0,0 z"
       id="path3002"
       inkscape:connector-curvature="0" />
  </g>
</svg>
