<?xml version="1.0" encoding="UTF-8" standalone="no"?>
<!-- Created with Inkscape (http://www.inkscape.org/) -->

<svg
   xmlns:dc="http://purl.org/dc/elements/1.1/"
   xmlns:cc="http://creativecommons.org/ns#"
   xmlns:rdf="http://www.w3.org/1999/02/22-rdf-syntax-ns#"
   xmlns:svg="http://www.w3.org/2000/svg"
   xmlns="http://www.w3.org/2000/svg"
   xmlns:sodipodi="http://sodipodi.sourceforge.net/DTD/sodipodi-0.dtd"
   xmlns:inkscape="http://www.inkscape.org/namespaces/inkscape"
   width="256"
   height="256"
   id="svg3367"
   version="1.1"
   inkscape:version="0.48.4 r9939"
   sodipodi:docname="update-downloading-01.svg">
  <defs
     id="defs3369" />
  <sodipodi:namedview
     id="base"
     pagecolor="#ffffff"
     bordercolor="#666666"
     borderopacity="1.0"
     inkscape:pageopacity="0.0"
     inkscape:pageshadow="2"
     inkscape:zoom="0.98994949"
     inkscape:cx="209.09231"
     inkscape:cy="54.321899"
     inkscape:document-units="px"
     inkscape:current-layer="layer1"
     showgrid="false"
     fit-margin-top="0"
     fit-margin-left="0"
     fit-margin-right="0"
     fit-margin-bottom="0"
     inkscape:window-width="1366"
     inkscape:window-height="709"
     inkscape:window-x="0"
     inkscape:window-y="0"
     inkscape:window-maximized="1" />
  <metadata
     id="metadata3372">
    <rdf:RDF>
      <cc:Work
         rdf:about="">
        <dc:format>image/svg+xml</dc:format>
        <dc:type
           rdf:resource="http://purl.org/dc/dcmitype/StillImage" />
        <dc:title></dc:title>
      </cc:Work>
    </rdf:RDF>
  </metadata>
  <g
     inkscape:label="Layer 1"
     inkscape:groupmode="layer"
     id="layer1"
     transform="translate(200.52955,-90.742631)">
    <path
       style="fill:#1a1a1a;stroke:#1a1a1a;stroke-width:15.82702446;stroke-linecap:round;stroke-linejoin:round;stroke-miterlimit:4"
       inkscape:transform-center-x="4.0707825"
       inkscape:transform-center-y="7.8672853"
       d="M 28.037663,202.17499 5.0308001,181.64502 -17.976068,161.11506 l 35.141806,7.37963 24.132254,-26.61618 -6.630223,30.14826 z"
       id="path8161-2-4"
       inkscape:connector-curvature="0"
       sodipodi:nodetypes="ccccccc" />
    <path
       sodipodi:type="arc"
       style="fill:none;stroke:#1a1a1a;stroke-width:5.31496048;stroke-linecap:round;stroke-miterlimit:4;stroke-dasharray:none;marker-start:none;marker-end:none"
       id="path7439-40-4-3"
       sodipodi:cx="230.16325"
       sodipodi:cy="364.70084"
       sodipodi:rx="35.001785"
       sodipodi:ry="35.001785"
       d="m 205.41325,389.45084 a 35.001785,35.001785 0 0 1 24.75,-59.75179"
       sodipodi:start="2.3561945"
       sodipodi:end="4.712389"
       sodipodi:open="true"
       transform="matrix(1.62184,2.4974145,-2.4974145,1.62184,465.13714,-947.51147)" />
    <path
       transform="matrix(-1.62184,-2.4974145,2.4974145,-1.62184,-609.90515,1385.0873)"
       sodipodi:type="arc"
       style="fill:none;stroke:#1a1a1a;stroke-width:5.31496048;stroke-linecap:round;stroke-linejoin:round;stroke-miterlimit:4;stroke-dasharray:none;marker-end:none"
       id="path7439-4-39-8-9"
       sodipodi:cx="230.16325"
       sodipodi:cy="364.70084"
       sodipodi:rx="35.001785"
       sodipodi:ry="35.001785"
       d="m 205.41325,389.45084 a 35.001785,35.001785 0 0 1 24.75,-59.75179"
       sodipodi:start="2.3561945"
       sodipodi:end="4.712389"
       sodipodi:open="true" />
    <path
       style="fill:#1a1a1a;stroke:#1a1a1a;stroke-width:15.82702446;stroke-linecap:round;stroke-linejoin:round;stroke-miterlimit:4"
       inkscape:transform-center-x="-4.4836345"
       inkscape:transform-center-y="-7.7065111"
       d="m -172.93913,235.44726 23.26726,20.23438 23.26726,20.23439 -35.23321,-6.93011 -23.79024,26.92233 6.24449,-30.23057 z"
       id="path8161-2-5-0"
       inkscape:connector-curvature="0"
       sodipodi:nodetypes="ccccccc" />
    <path
       style="fill:#666666"
       d="m -191.40746,299.76907 c -0.30971,-0.61593 -0.72955,-1.98621 -0.93295,-3.04508 -0.4736,-2.46533 11.63361,-61.34466 13.2776,-64.57118 1.37106,-2.69084 6.51576,-4.66785 8.93685,-3.43424 0.8467,0.43142 12.21999,10.08629 25.27398,21.45528 25.27676,22.01408 27.07133,24.13476 24.57287,29.03827 -1.95232,3.83163 -5.84372,4.28466 -17.17891,1.99995 l -10.37257,-2.09068 2.93214,3.56463 c 7.50723,9.12663 14.30285,14.18437 29.3078,21.81277 13.04123,6.63014 15.29325,7.48509 23.748769,9.01674 5.137716,0.93066 12.533142,1.80913 16.434264,1.95217 29.146211,1.06858 59.114918,-12.57218 78.0714843,-35.53551 5.8509926,-7.08771 16.0822027,-26.75624 18.1887787,-34.96619 2.039911,-7.95018 3.141622,-9.93846 6.139822,-11.08068 2.507558,-0.95531 7.428336,0.78278 8.714781,3.07818 3.484686,6.21771 -8.187213,35.57167 -19.955135,50.18562 -29.256663,36.33232 -74.716266,51.04168 -119.535764,38.67818 -20.16235,-5.5618 -42.00564,-20.22834 -55.21316,-37.07253 -2.40461,-3.06671 -4.51344,-5.6479 -4.68629,-5.73597 -0.17286,-0.0881 -1.63716,1.33407 -3.254,3.16032 -11.67597,13.18824 -14.13345,15.60486 -16.58113,16.30549 -2.7408,0.78452 -6.83845,-0.62593 -7.88923,-2.71554 l 0,0 z"
       id="path3002"
       inkscape:connector-curvature="0" />
  </g>
</svg>
