<?xml version="1.0" encoding="UTF-8" standalone="no"?>
<!-- Created with Inkscape (http://www.inkscape.org/) -->

<svg
   xmlns:dc="http://purl.org/dc/elements/1.1/"
   xmlns:cc="http://creativecommons.org/ns#"
   xmlns:rdf="http://www.w3.org/1999/02/22-rdf-syntax-ns#"
   xmlns:svg="http://www.w3.org/2000/svg"
   xmlns="http://www.w3.org/2000/svg"
   xmlns:sodipodi="http://sodipodi.sourceforge.net/DTD/sodipodi-0.dtd"
   xmlns:inkscape="http://www.inkscape.org/namespaces/inkscape"
   width="256"
   height="256"
   id="svg3367"
   version="1.1"
   inkscape:version="0.48.4 r9939"
   sodipodi:docname="update-downloading.svg">
  <defs
     id="defs3369" />
  <sodipodi:namedview
     id="base"
     pagecolor="#ffffff"
     bordercolor="#666666"
     borderopacity="1.0"
     inkscape:pageopacity="0.0"
     inkscape:pageshadow="2"
     inkscape:zoom="0.98994949"
     inkscape:cx="209.09231"
     inkscape:cy="54.321899"
     inkscape:document-units="px"
     inkscape:current-layer="layer1"
     showgrid="false"
     fit-margin-top="0"
     fit-margin-left="0"
     fit-margin-right="0"
     fit-margin-bottom="0"
     inkscape:window-width="1366"
     inkscape:window-height="709"
     inkscape:window-x="0"
     inkscape:window-y="0"
     inkscape:window-maximized="1" />
  <metadata
     id="metadata3372">
    <rdf:RDF>
      <cc:Work
         rdf:about="">
        <dc:format>image/svg+xml</dc:format>
        <dc:type
           rdf:resource="http://purl.org/dc/dcmitype/StillImage" />
        <dc:title></dc:title>
      </cc:Work>
    </rdf:RDF>
  </metadata>
  <g
     inkscape:label="Layer 1"
     inkscape:groupmode="layer"
     id="layer1"
     transform="translate(200.52955,-90.742631)">
    <path
       style="fill:#1a1a1a;stroke:#1a1a1a;stroke-width:15.82702446000000052;stroke-linecap:round;stroke-linejoin:round;stroke-miterlimit:4"
       inkscape:transform-center-x="1.5963339"
       inkscape:transform-center-y="-1.586996"
       d="m 9.5733291,158.40075 -29.8196761,-7.84744 -29.819677,-7.84743 34.661859,-9.37875 9.4185047,-34.671001 7.77945,29.872351 z"
       id="path8161-2-4"
       inkscape:connector-curvature="0"
       sodipodi:nodetypes="ccccccc" />
    <path
       sodipodi:type="arc"
       style="fill:none;stroke:#1a1a1a;stroke-width:5.31496047999999988;stroke-linecap:round;stroke-miterlimit:4;stroke-dasharray:none;marker-start:none;marker-end:none"
       id="path7439-40-4-3"
       sodipodi:cx="230.16325"
       sodipodi:cy="364.70084"
       sodipodi:rx="35.001785"
       sodipodi:ry="35.001785"
       d="m 205.41325,389.45084 c -13.66904,-13.66905 -13.66904,-35.83096 0,-49.5 6.56411,-6.56411 15.46695,-10.25179 24.75,-10.25179"
       sodipodi:start="2.3561945"
       sodipodi:end="4.712389"
       sodipodi:open="true"
       transform="matrix(2.5788725,1.4889127,-1.4889127,2.5788725,-122.91492,-1064.4164)" />
    <path
       transform="matrix(-2.5788725,-1.4889127,1.4889127,-2.5788725,-21.806936,1502.0033)"
       sodipodi:type="arc"
       style="fill:none;stroke:#1a1a1a;stroke-width:5.31496047999999988;stroke-linecap:round;stroke-linejoin:round;stroke-miterlimit:4;stroke-dasharray:none;marker-end:none"
       id="path7439-4-39-8-9"
       sodipodi:cx="230.16325"
       sodipodi:cy="364.70084"
       sodipodi:rx="35.001785"
       sodipodi:ry="35.001785"
       d="m 205.41325,389.45084 c -13.66904,-13.66905 -13.66904,-35.83096 0,-49.5 6.56411,-6.56411 15.46695,-10.25179 24.75,-10.25179"
       sodipodi:start="2.3561945"
       sodipodi:end="4.712389"
       sodipodi:open="true" />
    <path
       style="fill:#1a1a1a;stroke:#1a1a1a;stroke-width:15.82702446000000052;stroke-linecap:round;stroke-linejoin:round;stroke-miterlimit:4"
       inkscape:transform-center-x="-1.5219861"
       inkscape:transform-center-y="1.661034"
       d="m -154.39301,279.28811 29.9175,7.46585 29.917497,7.46586 -34.539227,9.82077 -8.97478,34.78851 -8.1605,-29.77057 z"
       id="path8161-2-5-0"
       inkscape:connector-curvature="0"
       sodipodi:nodetypes="ccccccc" />
    <path
       style="fill:#666666"
       d="m 58.882628,254.24108 c -0.555584,-0.40819 -1.551753,-1.43852 -2.213709,-2.28964 -1.54121,-1.98161 -17.484266,-59.94004 -17.484266,-63.56124 0,-3.02001 3.686426,-7.11718 6.403675,-7.11718 0.950277,0 15.467176,3.43919 32.259776,7.64265 32.515946,8.13928 35.077686,9.2141 35.077686,14.71744 0,4.30034 -3.2616,6.47065 -14.398565,9.58103 l -10.191173,2.84624 4.230859,1.84494 c 10.832399,4.72368 19.183509,6.14501 36.016239,6.12986 14.62984,-0.0131 17.02454,-0.27373 25.25382,-2.74774 5.00025,-1.50325 11.98844,-4.07798 15.5293,-5.72161 26.45459,-12.27999 46.96413,-38.0395 53.42942,-67.10608 1.99552,-8.97149 2.18227,-31.14115 0.332,-39.41264 -1.79173,-8.00976 -1.71276,-10.281498 0.4401,-12.660377 1.80055,-1.989592 6.97407,-2.674932 9.16239,-1.21375 5.92766,3.958007 8.85434,35.411507 5.00364,53.775157 -9.57335,45.65458 -43.40024,79.39895 -88.94762,88.73062 -20.48979,4.19791 -46.61077,1.04657 -66.025863,-7.96562 -3.534777,-1.64079 -6.585594,-2.98326 -6.779594,-2.98326 -0.194,0 -0.853057,1.93192 -1.464571,4.29315 -4.416036,17.05159 -5.50854,20.32049 -7.371362,22.05598 -2.085905,1.94331 -6.377267,2.54688 -8.262182,1.16207 l 0,0 z"
       id="path3002"
       inkscape:connector-curvature="0"
       transform="translate(-200.52955,90.742631)" />
  </g>
</svg>
