<?xml version="1.0" encoding="UTF-8" standalone="no"?>
<!-- Created with Inkscape (http://www.inkscape.org/) -->

<svg
   xmlns:dc="http://purl.org/dc/elements/1.1/"
   xmlns:cc="http://creativecommons.org/ns#"
   xmlns:rdf="http://www.w3.org/1999/02/22-rdf-syntax-ns#"
   xmlns:svg="http://www.w3.org/2000/svg"
   xmlns="http://www.w3.org/2000/svg"
   xmlns:sodipodi="http://sodipodi.sourceforge.net/DTD/sodipodi-0.dtd"
   xmlns:inkscape="http://www.inkscape.org/namespaces/inkscape"
   width="256"
   height="256"
   id="svg3367"
   version="1.1"
   inkscape:version="0.48.4 r9939"
   sodipodi:docname="update-downloading-11.svg">
  <defs
     id="defs3369" />
  <sodipodi:namedview
     id="base"
     pagecolor="#ffffff"
     bordercolor="#666666"
     borderopacity="1.0"
     inkscape:pageopacity="0.0"
     inkscape:pageshadow="2"
     inkscape:zoom="0.98994949"
     inkscape:cx="209.09231"
     inkscape:cy="54.321899"
     inkscape:document-units="px"
     inkscape:current-layer="layer1"
     showgrid="false"
     fit-margin-top="0"
     fit-margin-left="0"
     fit-margin-right="0"
     fit-margin-bottom="0"
     inkscape:window-width="1366"
     inkscape:window-height="709"
     inkscape:window-x="0"
     inkscape:window-y="0"
     inkscape:window-maximized="1" />
  <metadata
     id="metadata3372">
    <rdf:RDF>
      <cc:Work
         rdf:about="">
        <dc:format>image/svg+xml</dc:format>
        <dc:type
           rdf:resource="http://purl.org/dc/dcmitype/StillImage" />
        <dc:title></dc:title>
      </cc:Work>
    </rdf:RDF>
  </metadata>
  <g
     inkscape:label="Layer 1"
     inkscape:groupmode="layer"
     id="layer1"
     transform="translate(200.52955,-90.742631)">
    <path
       style="fill:#1a1a1a;stroke:#1a1a1a;stroke-width:15.82702446;stroke-linecap:round;stroke-linejoin:round;stroke-miterlimit:4"
       inkscape:transform-center-x="-7.8672819"
       inkscape:transform-center-y="4.070788"
       d="m -88.794063,118.36119 -20.529967,23.00687 -20.52996,23.00689 7.37964,-35.14182 -26.6162,-24.13226 30.14827,6.63023 z"
       id="path8161-2-4"
       inkscape:connector-curvature="0"
       sodipodi:nodetypes="ccccccc" />
    <path
       sodipodi:type="arc"
       style="fill:none;stroke:#1a1a1a;stroke-width:5.31496048;stroke-linecap:round;stroke-miterlimit:4;stroke-dasharray:none;marker-start:none;marker-end:none"
       id="path7439-40-4-3"
       sodipodi:cx="230.16325"
       sodipodi:cy="364.70084"
       sodipodi:rx="35.001785"
       sodipodi:ry="35.001785"
       d="m 205.41325,389.45084 a 35.001785,35.001785 0 0 1 24.75,-59.75179"
       sodipodi:start="2.3561945"
       sodipodi:end="4.712389"
       sodipodi:open="true"
       transform="matrix(2.4974147,-1.62184,1.62184,2.4974147,-1238.4805,-318.73826)" />
    <path
       transform="matrix(-2.4974147,1.62184,-1.62184,-2.4974147,1094.1183,756.304)"
       sodipodi:type="arc"
       style="fill:none;stroke:#1a1a1a;stroke-width:5.31496048;stroke-linecap:round;stroke-linejoin:round;stroke-miterlimit:4;stroke-dasharray:none;marker-end:none"
       id="path7439-4-39-8-9"
       sodipodi:cx="230.16325"
       sodipodi:cy="364.70084"
       sodipodi:rx="35.001785"
       sodipodi:ry="35.001785"
       d="m 205.41325,389.45084 a 35.001785,35.001785 0 0 1 24.75,-59.75179"
       sodipodi:start="2.3561945"
       sodipodi:end="4.712389"
       sodipodi:open="true" />
    <path
       style="fill:#1a1a1a;stroke:#1a1a1a;stroke-width:15.82702446;stroke-linecap:round;stroke-linejoin:round;stroke-miterlimit:4"
       inkscape:transform-center-x="7.7065096"
       inkscape:transform-center-y="-4.4836359"
       d="m -55.521796,319.338 20.234379,-23.26727 20.234407,-23.26726 -6.93012,35.23322 26.922334,23.79024 -30.230584,-6.24448 z"
       id="path8161-2-5-0"
       inkscape:connector-curvature="0"
       sodipodi:nodetypes="ccccccc" />
    <path
       style="fill:#666666"
       d="m 8.8000166,337.80633 c -0.6160939,0.30942 -1.9862078,0.72955 -3.0450821,0.93295 -2.4653266,0.47359 -61.3446765,-11.63361 -64.5711845,-13.27761 -2.690823,-1.37105 -4.667843,-6.51575 -3.434241,-8.93684 0.431437,-0.84669 10.08629,-12.21999 21.455286,-25.274 22.014076,-25.27675 24.134769,-27.07132 29.038267,-24.57284 3.8316398,1.9523 4.2846508,5.84371 1.9999597,17.1789 l -2.0906987,10.37256 3.5646438,-2.93213 c 9.12663012,-7.50723 14.184362,-14.30287 21.8127702,-29.30781 6.630136,-13.04123 7.485096,-15.29324 9.016759,-23.74875 0.930644,-5.13773 1.809105,-12.53315 1.952141,-16.43428 1.068597,-29.14621 -12.572171,-59.11493 -35.535495,-78.07149 -7.087726,-5.85098 -26.756238,-16.08219 -34.966198,-18.18876 -7.950177,-2.03992 -9.938467,-3.14162 -11.080682,-6.13983 -0.955301,-2.50755 0.782781,-7.42834 3.078187,-8.71478 6.217714,-3.48468 35.571674,8.18722 50.1856213,19.95512 36.3323277,29.25667 51.0416827,74.71628 38.6781777,119.53578 -5.561797,20.16234 -20.228349,42.00564 -37.0725289,55.21316 -3.0667147,2.40462 -5.6479111,4.51345 -5.7359709,4.68629 -0.08812,0.17283 1.3340757,1.63716 3.1603201,3.25401 13.1882281,11.67595 15.6048497,14.13342 16.3054847,16.58112 0.784537,2.7408 -0.625914,6.83845 -2.7155347,7.88923 l 0,0 z"
       id="path3002"
       inkscape:connector-curvature="0" />
  </g>
</svg>
