<?xml version="1.0" encoding="UTF-8" standalone="no"?>
<!-- Created with Inkscape (http://www.inkscape.org/) -->

<svg
   xmlns:dc="http://purl.org/dc/elements/1.1/"
   xmlns:cc="http://creativecommons.org/ns#"
   xmlns:rdf="http://www.w3.org/1999/02/22-rdf-syntax-ns#"
   xmlns:svg="http://www.w3.org/2000/svg"
   xmlns="http://www.w3.org/2000/svg"
   xmlns:sodipodi="http://sodipodi.sourceforge.net/DTD/sodipodi-0.dtd"
   xmlns:inkscape="http://www.inkscape.org/namespaces/inkscape"
   width="256"
   height="256"
   id="svg3367"
   version="1.1"
   inkscape:version="0.48.4 r9939"
   sodipodi:docname="update-downloading-10.svg">
  <defs
     id="defs3369" />
  <sodipodi:namedview
     id="base"
     pagecolor="#ffffff"
     bordercolor="#666666"
     borderopacity="1.0"
     inkscape:pageopacity="0.0"
     inkscape:pageshadow="2"
     inkscape:zoom="0.98994949"
     inkscape:cx="209.09231"
     inkscape:cy="54.321899"
     inkscape:document-units="px"
     inkscape:current-layer="layer1"
     showgrid="false"
     fit-margin-top="0"
     fit-margin-left="0"
     fit-margin-right="0"
     fit-margin-bottom="0"
     inkscape:window-width="1366"
     inkscape:window-height="709"
     inkscape:window-x="0"
     inkscape:window-y="0"
     inkscape:window-maximized="1" />
  <metadata
     id="metadata3372">
    <rdf:RDF>
      <cc:Work
         rdf:about="">
        <dc:format>image/svg+xml</dc:format>
        <dc:type
           rdf:resource="http://purl.org/dc/dcmitype/StillImage" />
        <dc:title></dc:title>
      </cc:Work>
    </rdf:RDF>
  </metadata>
  <g
     inkscape:label="Layer 1"
     inkscape:groupmode="layer"
     id="layer1"
     transform="translate(200.52955,-90.742631)">
    <path
       style="fill:#1a1a1a;stroke:#1a1a1a;stroke-width:15.82702446;stroke-linecap:round;stroke-linejoin:round;stroke-miterlimit:4"
       inkscape:transform-center-x="1.5870049"
       inkscape:transform-center-y="1.5963369"
       d="m -132.5683,136.82553 -7.84744,29.81968 -7.84741,29.8197 -9.37875,-34.66188 -34.67102,-9.4185 29.87236,-7.77945 z"
       id="path8161-2-4"
       inkscape:connector-curvature="0"
       sodipodi:nodetypes="ccccccc" />
    <path
       sodipodi:type="arc"
       style="fill:none;stroke:#1a1a1a;stroke-width:5.31496048;stroke-linecap:round;stroke-miterlimit:4;stroke-dasharray:none;marker-start:none;marker-end:none"
       id="path7439-40-4-3"
       sodipodi:cx="230.16325"
       sodipodi:cy="364.70084"
       sodipodi:rx="35.001785"
       sodipodi:ry="35.001785"
       d="m 205.41325,389.45084 a 35.001785,35.001785 0 0 1 24.75,-59.75179"
       sodipodi:start="2.3561945"
       sodipodi:end="4.712389"
       sodipodi:open="true"
       transform="matrix(1.4889128,-2.5788726,2.5788726,1.4889128,-1355.3854,269.31378)" />
    <path
       transform="matrix(-1.4889128,2.5788726,-2.5788726,-1.4889128,1211.0343,168.20576)"
       sodipodi:type="arc"
       style="fill:none;stroke:#1a1a1a;stroke-width:5.31496048;stroke-linecap:round;stroke-linejoin:round;stroke-miterlimit:4;stroke-dasharray:none;marker-end:none"
       id="path7439-4-39-8-9"
       sodipodi:cx="230.16325"
       sodipodi:cy="364.70084"
       sodipodi:rx="35.001785"
       sodipodi:ry="35.001785"
       d="m 205.41325,389.45084 a 35.001785,35.001785 0 0 1 24.75,-59.75179"
       sodipodi:start="2.3561945"
       sodipodi:end="4.712389"
       sodipodi:open="true" />
    <path
       style="fill:#1a1a1a;stroke:#1a1a1a;stroke-width:15.82702446;stroke-linecap:round;stroke-linejoin:round;stroke-miterlimit:4"
       inkscape:transform-center-x="-1.6610386"
       inkscape:transform-center-y="-1.5219868"
       d="m -11.680929,300.79189 7.4658424,-29.91751 7.4658723,-29.91751 9.8207673,34.53924 34.788515,8.97477 -29.77058,8.16053 z"
       id="path8161-2-5-0"
       inkscape:connector-curvature="0"
       sodipodi:nodetypes="ccccccc" />
    <path
       style="fill:#666666"
       d="m 54.014672,288.0458 c -0.408473,0.55539 -1.438517,1.55175 -2.289639,2.2137 -1.981615,1.54121 -59.9400546,17.48428 -63.561254,17.48427 -3.019986,-10e-6 -7.117168,-3.68642 -7.117172,-6.40367 2.2e-5,-0.95028 3.439191,-15.46717 7.642642,-32.2598 8.1392807,-32.51593 9.2141135,-35.07768 14.7174487,-35.07766 4.3003442,-1e-5 6.4706437,3.2616 9.5810343,14.39855 l 2.84622,10.19118 1.844962,-4.23086 c 4.723673,-10.8324 6.14499,-19.18352 6.129853,-36.01624 -0.0131,-14.62984 -0.273716,-17.02454 -2.747718,-25.25382 -1.503269,-5.00025 -4.078005,-11.98843 -5.721635,-15.5293 -12.2799768,-26.4546 -38.039502,-46.96414 -67.106072,-53.42943 -8.971499,-1.9955 -31.141146,-2.18226 -39.412634,-0.33198 -8.009765,1.79172 -10.281508,1.71276 -12.660388,-0.44011 -1.98958,-1.80054 -2.67493,-6.97407 -1.21374,-9.16239 3.95801,-5.92766 35.411511,-8.85434 53.775152,-5.00365 45.6545906,9.57335 79.398952,43.40025 88.730615,88.94763 4.197914,20.48978 1.046572,46.61078 -7.965616,66.02586 -1.640789,3.53479 -2.983263,6.58561 -2.983257,6.77959 -5.1e-5,0.194 1.931929,0.85307 4.293156,1.46459 17.051569,4.41602 20.320463,5.50852 22.055964,7.37135 1.943325,2.0859 2.546901,6.37727 1.16208,8.26219 l 0,0 z"
       id="path3002"
       inkscape:connector-curvature="0" />
  </g>
</svg>
