<?xml version="1.0" encoding="UTF-8" standalone="no"?>
<!-- Created with Inkscape (http://www.inkscape.org/) -->

<svg
   xmlns:dc="http://purl.org/dc/elements/1.1/"
   xmlns:cc="http://creativecommons.org/ns#"
   xmlns:rdf="http://www.w3.org/1999/02/22-rdf-syntax-ns#"
   xmlns:svg="http://www.w3.org/2000/svg"
   xmlns="http://www.w3.org/2000/svg"
   xmlns:sodipodi="http://sodipodi.sourceforge.net/DTD/sodipodi-0.dtd"
   xmlns:inkscape="http://www.inkscape.org/namespaces/inkscape"
   width="256"
   height="256"
   id="svg3367"
   version="1.1"
   inkscape:version="0.48.4 r9939"
   sodipodi:docname="update-downloading-09.svg">
  <defs
     id="defs3369" />
  <sodipodi:namedview
     id="base"
     pagecolor="#ffffff"
     bordercolor="#666666"
     borderopacity="1.0"
     inkscape:pageopacity="0.0"
     inkscape:pageshadow="2"
     inkscape:zoom="0.98994949"
     inkscape:cx="209.09231"
     inkscape:cy="54.321899"
     inkscape:document-units="px"
     inkscape:current-layer="layer1"
     showgrid="false"
     fit-margin-top="0"
     fit-margin-left="0"
     fit-margin-right="0"
     fit-margin-bottom="0"
     inkscape:window-width="1366"
     inkscape:window-height="709"
     inkscape:window-x="0"
     inkscape:window-y="0"
     inkscape:window-maximized="1" />
  <metadata
     id="metadata3372">
    <rdf:RDF>
      <cc:Work
         rdf:about="">
        <dc:format>image/svg+xml</dc:format>
        <dc:type
           rdf:resource="http://purl.org/dc/dcmitype/StillImage" />
        <dc:title></dc:title>
      </cc:Work>
    </rdf:RDF>
  </metadata>
  <g
     inkscape:label="Layer 1"
     inkscape:groupmode="layer"
     id="layer1"
     transform="translate(200.52955,-90.742631)">
    <path
       style="fill:#1a1a1a;stroke:#1a1a1a;stroke-width:15.82702446;stroke-linecap:round;stroke-linejoin:round;stroke-miterlimit:4"
       inkscape:transform-center-x="4.1495987"
       inkscape:transform-center-y="-7.8562578"
       d="m -163.16188,173.08454 6.54573,30.13219 6.54576,30.1322 -24.09269,-26.6261 -35.16801,7.34837 23.08467,-20.49331 z"
       id="path8161-2-4"
       inkscape:connector-curvature="0"
       sodipodi:nodetypes="ccccccc" />
    <path
       sodipodi:type="arc"
       style="fill:none;stroke:#1a1a1a;stroke-width:5.31496048;stroke-linecap:round;stroke-miterlimit:4;stroke-dasharray:none;marker-start:none;marker-end:none"
       id="path7439-40-4-3"
       sodipodi:cx="230.16325"
       sodipodi:cy="364.70084"
       sodipodi:rx="35.001785"
       sodipodi:ry="35.001785"
       d="m 205.41325,389.45084 a 35.001785,35.001785 0 0 1 24.75,-59.75179"
       sodipodi:start="2.3561945"
       sodipodi:end="4.712389"
       sodipodi:open="true"
       transform="matrix(0.15584732,-2.9737446,2.9737446,0.15584732,-1192.5515,846.27979)" />
    <path
       transform="matrix(-0.15584732,2.9737446,-2.9737446,-0.15584732,1048.2431,-408.93827)"
       sodipodi:type="arc"
       style="fill:none;stroke:#1a1a1a;stroke-width:5.31496048;stroke-linecap:round;stroke-linejoin:round;stroke-miterlimit:4;stroke-dasharray:none;marker-end:none"
       id="path7439-4-39-8-9"
       sodipodi:cx="230.16325"
       sodipodi:cy="364.70084"
       sodipodi:rx="35.001785"
       sodipodi:ry="35.001785"
       d="m 205.41325,389.45084 a 35.001785,35.001785 0 0 1 24.75,-59.75179"
       sodipodi:start="2.3561945"
       sodipodi:end="4.712389"
       sodipodi:open="true" />
    <path
       style="fill:#1a1a1a;stroke:#1a1a1a;stroke-width:15.82702446;stroke-linecap:round;stroke-linejoin:round;stroke-miterlimit:4"
       inkscape:transform-center-x="-3.7363655"
       inkscape:transform-center-y="8.0158994"
       d="M 18.988722,264.29792 12.05857,234.2518 5.1284465,204.20567 29.559299,230.52182 64.630557,222.72475 41.809576,243.51139 z"
       id="path8161-2-5-0"
       inkscape:connector-curvature="0"
       sodipodi:nodetypes="ccccccc" />
    <path
       style="fill:#666666"
       d="m 71.737326,223.11589 c -0.11181,0.6803 -0.577249,2.03569 -1.035082,3.0119 -1.065938,2.27286 -45.469284,42.79082 -48.695801,44.4348 -2.69083,1.37104 -8.015044,-0.0535 -9.248651,-2.47458 -0.4314,-0.84672 -3.9576062,-15.34271 -7.8359996,-32.21338 -7.5097697,-32.66706 -7.7150969,-35.43756 -2.8115833,-37.93601 3.8316325,-1.95232 7.2461232,-0.0315 15.0735719,8.47951 l 7.162699,7.78825 -0.276897,-4.60732 C 23.360601,197.80282 20.835672,189.71665 13.180291,174.72546 6.5268083,161.69612 5.2074302,159.68075 -0.73293811,153.47158 -4.3424283,149.69879 -9.8091029,144.64118 -12.881107,142.23244 c -22.951677,-17.99623 -55.214716,-24.57578 -84.048401,-17.14045 -8.899602,2.29497 -28.737692,12.19337 -35.267632,17.59716 -6.32333,5.23279 -8.38331,6.19379 -11.48029,5.35556 -2.59016,-0.70105 -5.54954,-4.99955 -5.24109,-7.61273 0.83551,-7.07848 27.5321,-23.96576 45.6424,-28.87169 45.024748,-12.196833 90.448287,2.62354 119.440935,38.97006 13.042536,16.35072 22.093356,41.05538 22.877699,62.44579 0.142806,3.89442 0.331695,7.22219 0.419768,7.39503 0.08803,0.17288 2.108645,-0.11699 4.490142,-0.64409 17.197889,-3.80655 20.606481,-4.31717 22.998529,-3.44528 2.678494,0.9763 5.164525,4.52592 4.786376,6.83409 l 0,0 z"
       id="path3002"
       inkscape:connector-curvature="0" />
  </g>
</svg>
