<?xml version="1.0" encoding="UTF-8" standalone="no"?>
<!-- Created with Inkscape (http://www.inkscape.org/) -->

<svg
   xmlns:dc="http://purl.org/dc/elements/1.1/"
   xmlns:cc="http://creativecommons.org/ns#"
   xmlns:rdf="http://www.w3.org/1999/02/22-rdf-syntax-ns#"
   xmlns:svg="http://www.w3.org/2000/svg"
   xmlns="http://www.w3.org/2000/svg"
   xmlns:sodipodi="http://sodipodi.sourceforge.net/DTD/sodipodi-0.dtd"
   xmlns:inkscape="http://www.inkscape.org/namespaces/inkscape"
   width="256"
   height="256"
   id="svg3367"
   version="1.1"
   inkscape:version="0.48.4 r9939"
   sodipodi:docname="update-downloading-04.svg">
  <defs
     id="defs3369" />
  <sodipodi:namedview
     id="base"
     pagecolor="#ffffff"
     bordercolor="#666666"
     borderopacity="1.0"
     inkscape:pageopacity="0.0"
     inkscape:pageshadow="2"
     inkscape:zoom="0.98994949"
     inkscape:cx="209.09231"
     inkscape:cy="54.321899"
     inkscape:document-units="px"
     inkscape:current-layer="layer1"
     showgrid="false"
     fit-margin-top="0"
     fit-margin-left="0"
     fit-margin-right="0"
     fit-margin-bottom="0"
     inkscape:window-width="1366"
     inkscape:window-height="709"
     inkscape:window-x="0"
     inkscape:window-y="0"
     inkscape:window-maximized="1" />
  <metadata
     id="metadata3372">
    <rdf:RDF>
      <cc:Work
         rdf:about="">
        <dc:format>image/svg+xml</dc:format>
        <dc:type
           rdf:resource="http://purl.org/dc/dcmitype/StillImage" />
        <dc:title></dc:title>
      </cc:Work>
    </rdf:RDF>
  </metadata>
  <g
     inkscape:label="Layer 1"
     inkscape:groupmode="layer"
     id="layer1"
     transform="translate(200.52955,-90.742631)">
    <path
       style="fill:#1a1a1a;stroke:#1a1a1a;stroke-width:15.82702446;stroke-linecap:round;stroke-linejoin:round;stroke-miterlimit:4"
       inkscape:transform-center-x="4.8081688"
       inkscape:transform-center-y="-6.0015459"
       d="m -40.194527,315.07592 16.678142,-25.9352 16.6781375,-25.93522 -1.7913895,35.86359 30.063611,19.67145 -30.8142812,-1.83237 z"
       id="path8161-2-4"
       inkscape:connector-curvature="0"
       sodipodi:nodetypes="ccccccc" />
    <path
       sodipodi:type="arc"
       style="fill:none;stroke:#1a1a1a;stroke-width:5.31496048;stroke-linecap:round;stroke-miterlimit:4;stroke-dasharray:none;marker-start:none;marker-end:none"
       id="path7439-40-4-3"
       sodipodi:cx="230.16325"
       sodipodi:cy="364.70084"
       sodipodi:rx="35.001785"
       sodipodi:ry="35.001785"
       d="m 205.41325,389.45084 a 35.001785,35.001785 0 0 1 24.75,-59.75179"
       sodipodi:start="2.3561945"
       sodipodi:end="4.712389"
       sodipodi:open="true"
       transform="matrix(-2.2129556,1.9925542,-1.9925542,-2.2129556,1163.7148,566.94341)" />
    <path
       transform="matrix(2.2129556,-1.9925542,1.9925542,2.2129556,-1308.3395,-129.96448)"
       sodipodi:type="arc"
       style="fill:none;stroke:#1a1a1a;stroke-width:5.31496048;stroke-linecap:round;stroke-linejoin:round;stroke-miterlimit:4;stroke-dasharray:none;marker-end:none"
       id="path7439-4-39-8-9"
       sodipodi:cx="230.16325"
       sodipodi:cy="364.70084"
       sodipodi:rx="35.001785"
       sodipodi:ry="35.001785"
       d="m 205.41325,389.45084 a 35.001785,35.001785 0 0 1 24.75,-59.75179"
       sodipodi:start="2.3561945"
       sodipodi:end="4.712389"
       sodipodi:open="true" />
    <path
       style="fill:#1a1a1a;stroke:#1a1a1a;stroke-width:15.82702446;stroke-linecap:round;stroke-linejoin:round;stroke-miterlimit:4"
       inkscape:transform-center-x="-4.6732212"
       inkscape:transform-center-y="6.3882259"
       d="m -104.49686,121.77841 -16.34546,26.14616 -16.34547,26.14616 1.3331,-35.88355 -30.31249,-19.28576 30.83525,1.4385 z"
       id="path8161-2-5-0"
       inkscape:connector-curvature="0"
       sodipodi:nodetypes="ccccccc" />
    <path
       style="fill:#666666"
       d="m -170.91584,113.5996 c 0.56009,-0.40198 1.84762,-1.03127 2.86164,-1.39782 2.36089,-0.85342 62.40931,1.89396 65.85328,3.01298 2.872187,0.93323 5.629667,5.70533 4.789992,8.28958 -0.293671,0.90377 -8.050482,13.64739 -17.237412,28.31918 -17.78889,28.40931 -19.60273,30.51354 -24.83672,28.81291 -4.08987,-1.32888 -5.14606,-5.1015 -4.6627,-16.65455 l 0.44232,-10.57192 -3.06206,3.45367 c -7.83988,8.84253 -11.77228,16.34569 -16.95947,32.35925 -4.50841,13.91785 -5.00055,16.27588 -5.19061,24.8669 -0.11548,5.22006 0.17377,12.66185 0.64276,16.53732 3.50404,28.95454 21.665,56.4204 47.31108,71.55132 7.91574,4.67019 28.942629,11.69861 37.381049,12.49492 8.171409,0.77112 10.307554,1.54823 11.904731,4.33084 1.335816,2.32724 0.38891,7.45933 -1.676986,9.08902 -5.596037,4.41445 -36.414494,-2.52178 -52.689424,-11.85869 -40.46176,-23.21284 -62.10147,-65.81171 -56.90151,-112.01348 2.33925,-20.78417 13.40818,-44.6529 27.97887,-60.33282 2.65279,-2.85475 4.87232,-5.3414 4.93226,-5.5259 0.06,-0.18449 -1.57376,-1.40831 -3.63045,-2.71956 -14.85239,-9.46911 -17.62369,-11.51829 -18.6986,-13.82624 -1.20363,-2.58433 -0.45156,-6.85218 1.44796,-8.21691 l 0,0 z"
       id="path3002"
       inkscape:connector-curvature="0" />
  </g>
</svg>
